M48
;GenerationSoftware,Autodesk,EAGLE,9.4.2*%
;CreationDate,2020-01-21T14:40:23Z*%
FMAT,2
ICI,OFF
METRIC,TZ,000.000
T3C0.350
T2C1.016
T1C1.100
%
G90
M71
T1
X87649Y17323
X87649Y37643
X90189Y22403
X87649Y42723
X90189Y40183
X90189Y42723
X87649Y40183
X90189Y37643
X90189Y35103
X87649Y35103
X90189Y32563
X87649Y32563
X90189Y30023
X87649Y30023
X90189Y27483
X87649Y27483
X90189Y24943
X87649Y24943
X87649Y22403
X90189Y19863
X87649Y19863
X90189Y17323
T2
X69856Y4128
X59696Y4128
X62236Y4128
X64776Y4128
X67316Y4128
X59601Y56051
X74936Y4128
X77476Y4128
X80016Y4128
X82556Y4128
X85096Y4128
X85001Y56051
X82461Y56051
X79921Y56051
X77381Y56051
X74841Y56051
X72301Y56051
X69761Y56051
X67221Y56051
X64681Y56051
X62141Y56051
X72396Y4128
T3
X65120Y23200
X72160Y25280
X66720Y25280
X65920Y24640
X64640Y24640
X71360Y24640
X66560Y23840
X63360Y23840
X70720Y23840
X85440Y30080
X85440Y31200
X81920Y33920
X81280Y32480
X66720Y31360
X74240Y31360
X58880Y23200
X71680Y30400
X66720Y30400
X71520Y29440
X66720Y29440
X66720Y28480
X74240Y28480
X58080Y22560
X80320Y38080
X81600Y40000
X80160Y39360
X85440Y39360
X81440Y38720
X62720Y39040
X65120Y40000
X66720Y40640
X74240Y40640
X63680Y39040
X66720Y39680
X45600Y21120
X66880Y32480
X71520Y32480
X63200Y26880
X70880Y26880
X82560Y36000
X85600Y36640
X78240Y39200
X66720Y36480
X74240Y36480
X61600Y26720
X63040Y28480
X72160Y35520
X66720Y35520
X70240Y33120
X74400Y33120
X61440Y33120
X66720Y34560
X74240Y34560
X61440Y34560
X51840Y38080
X59040Y17440
X56320Y33600
X54400Y33600
X55200Y38080
X57280Y38080
X57440Y27200
X57120Y30240
X52640Y38720
X47520Y38720
X54240Y27200
X52160Y27200
X49920Y27360
X54880Y36160
X53600Y36160
X51520Y18560
X49920Y18560
X46240Y37920
X47520Y25440
X56480Y27200
X55200Y27200
X57760Y26240
X80320Y37120
X58880Y37120
X49440Y37120
X57760Y43840
X54080Y38240
X56480Y38720
X60160Y38720
X78080Y19360
X79040Y17920
X57280Y15840
X91680Y15840
X47520Y21120
X47520Y22720
X46240Y22720
X50080Y23680
X44960Y23200
X47520Y24160
X74240Y39680
X44960Y24160
X50080Y25280
X46400Y26240
X70720Y20320
X66720Y20320
X70720Y18720
X66720Y18720
X66720Y21280
X74240Y21280
X50240Y30880
X66080Y19520
X74240Y19520
X81920Y20960
X77440Y22400
X81280Y23520
X81280Y27360
X81920Y28960
X66720Y26240
X74240Y26240
M30