M48
;GenerationSoftware,Autodesk,EAGLE,9.4.2*%
;CreationDate,2020-01-21T14:38:46Z*%
FMAT,2
ICI,OFF
METRIC,TZ,000.000
T2C0.350
T1C1.016
%
G90
M71
T1
X62236Y4128
X77381Y56051
X59696Y4128
X64776Y4128
X67316Y4128
X69856Y4128
X72396Y4128
X74936Y4128
X77476Y4128
X80016Y4128
X82556Y4128
X85096Y4128
X85001Y56051
X82461Y56051
X79921Y56051
X74841Y56051
X72301Y56051
X69761Y56051
X67221Y56051
X64681Y56051
X62141Y56051
X59601Y56051
T2
X76000Y27680
X60160Y27680
X77280Y36320
X62720Y36320
X86880Y40800
X60160Y40800
X76480Y37760
X82240Y34080
X79520Y30080
X91360Y30080
X76000Y29120
X55520Y29120
X63840Y39520
X79520Y34080
X65760Y39520
X59840Y13760
X62400Y13760
X61920Y15200
X57760Y5120
X85920Y3040
X69120Y37760
X82880Y37760
X54560Y30720
X82240Y30720
X53120Y26720
X55040Y26720
X77440Y27680
X77600Y32160
X79520Y32160
X82240Y35360
X84000Y35040
X76000Y32160
X77280Y29760
X64160Y29760
M30