G04 EAGLE Gerber RS-274X export*
G75*
%MOMM*%
%FSLAX34Y34*%
%LPD*%
%INTop Copper*%
%IPPOS*%
%AMOC8*
5,1,8,0,0,1.08239X$1,22.5*%
G01*
%ADD10R,27.336750X0.190500*%
%ADD11R,1.524000X1.524000*%
%ADD12C,1.524000*%
%ADD13R,0.950000X0.800000*%
%ADD14R,0.950000X0.550000*%
%ADD15R,1.200000X0.400000*%
%ADD16R,1.475000X0.300000*%
%ADD17R,0.300000X1.475000*%
%ADD18R,0.620000X0.600000*%
%ADD19R,0.940000X0.750000*%
%ADD20R,1.780000X0.990000*%
%ADD21R,0.600000X0.750000*%
%ADD22R,0.950000X0.400000*%
%ADD23C,1.650000*%
%ADD24C,0.152400*%
%ADD25C,0.756400*%


D10*
X725837Y51753D03*
D11*
X596964Y41275D03*
D12*
X622364Y41275D03*
X647764Y41275D03*
X673164Y41275D03*
X698564Y41275D03*
X723964Y41275D03*
X749364Y41275D03*
X774764Y41275D03*
X800164Y41275D03*
X825564Y41275D03*
X850964Y41275D03*
D11*
X850011Y560515D03*
D12*
X824611Y560515D03*
X799211Y560515D03*
X773811Y560515D03*
X748411Y560515D03*
X723011Y560515D03*
X697611Y560515D03*
X672211Y560515D03*
X646811Y560515D03*
X621411Y560515D03*
X596011Y560515D03*
D13*
X770556Y186140D03*
D14*
X770556Y195390D03*
X770556Y203390D03*
D13*
X770556Y212640D03*
X752556Y212640D03*
D14*
X752556Y203390D03*
X752556Y195390D03*
D13*
X752556Y186140D03*
D15*
X844081Y166538D03*
X844081Y173038D03*
X844081Y179538D03*
X825081Y179538D03*
X825081Y173038D03*
X825081Y166538D03*
X844144Y268011D03*
X844144Y274511D03*
X844144Y281011D03*
X825144Y281011D03*
X825144Y274511D03*
X825144Y268011D03*
D13*
X770746Y236559D03*
D14*
X770746Y245809D03*
X770746Y253809D03*
D13*
X770746Y263059D03*
X752746Y263059D03*
D14*
X752746Y253809D03*
X752746Y245809D03*
D13*
X752746Y236559D03*
D15*
X844208Y216957D03*
X844208Y223457D03*
X844208Y229957D03*
X825208Y229957D03*
X825208Y223457D03*
X825208Y216957D03*
X844208Y318874D03*
X844208Y325374D03*
X844208Y331874D03*
X825208Y331874D03*
X825208Y325374D03*
X825208Y318874D03*
D13*
X770937Y287931D03*
D14*
X770937Y297181D03*
X770937Y305181D03*
D13*
X770937Y314431D03*
X752937Y314431D03*
D14*
X752937Y305181D03*
X752937Y297181D03*
D13*
X752937Y287931D03*
D15*
X844144Y420411D03*
X844144Y426911D03*
X844144Y433411D03*
X825144Y433411D03*
X825144Y426911D03*
X825144Y420411D03*
D13*
X771254Y389213D03*
D14*
X771254Y398463D03*
X771254Y406463D03*
D13*
X771254Y415713D03*
X753254Y415713D03*
D14*
X753254Y406463D03*
X753254Y398463D03*
D13*
X753254Y389213D03*
D15*
X844271Y369230D03*
X844271Y375730D03*
X844271Y382230D03*
X825271Y382230D03*
X825271Y375730D03*
X825271Y369230D03*
D13*
X770937Y338604D03*
D14*
X770937Y347854D03*
X770937Y355854D03*
D13*
X770937Y365104D03*
X752937Y365104D03*
D14*
X752937Y355854D03*
X752937Y347854D03*
D13*
X752937Y338604D03*
D16*
X602718Y191354D03*
X602718Y196354D03*
X602718Y201354D03*
X602718Y206354D03*
X602718Y211354D03*
X602718Y216354D03*
X602718Y221354D03*
X602718Y226354D03*
X602718Y231354D03*
X602718Y236354D03*
X602718Y241354D03*
X602718Y246354D03*
X602718Y251354D03*
X602718Y256354D03*
X602718Y261354D03*
X602718Y266354D03*
D17*
X582838Y286234D03*
X577838Y286234D03*
X572838Y286234D03*
X567838Y286234D03*
X562838Y286234D03*
X557838Y286234D03*
X552838Y286234D03*
X547838Y286234D03*
X542838Y286234D03*
X537838Y286234D03*
X532838Y286234D03*
X527838Y286234D03*
X522838Y286234D03*
X517838Y286234D03*
X512838Y286234D03*
X507838Y286234D03*
D16*
X487958Y266354D03*
X487958Y261354D03*
X487958Y256354D03*
X487958Y251354D03*
X487958Y246354D03*
X487958Y241354D03*
X487958Y236354D03*
X487958Y231354D03*
X487958Y226354D03*
X487958Y221354D03*
X487958Y216354D03*
X487958Y211354D03*
X487958Y206354D03*
X487958Y201354D03*
X487958Y196354D03*
X487958Y191354D03*
D17*
X507838Y171474D03*
X512838Y171474D03*
X517838Y171474D03*
X522838Y171474D03*
X527838Y171474D03*
X532838Y171474D03*
X537838Y171474D03*
X542838Y171474D03*
X547838Y171474D03*
X552838Y171474D03*
X557838Y171474D03*
X562838Y171474D03*
X567838Y171474D03*
X572838Y171474D03*
X577838Y171474D03*
X582838Y171474D03*
D18*
X546672Y396466D03*
X546672Y405666D03*
D19*
X497459Y404764D03*
X497459Y390764D03*
D18*
X534670Y396403D03*
X534670Y405603D03*
D20*
X477393Y403636D03*
X477393Y375636D03*
D18*
X522669Y405666D03*
X522669Y396466D03*
D21*
X510858Y404915D03*
X510858Y393915D03*
D18*
X608521Y405857D03*
X608521Y396657D03*
X571246Y405793D03*
X571246Y396593D03*
X596138Y405857D03*
X596138Y396657D03*
X558991Y405730D03*
X558991Y396530D03*
X583692Y396593D03*
X583692Y405793D03*
D22*
X695697Y237809D03*
X695697Y245809D03*
X695697Y253809D03*
X695697Y261809D03*
X678697Y261809D03*
X678697Y253809D03*
X678697Y245809D03*
X678697Y237809D03*
X695570Y187390D03*
X695570Y195390D03*
X695570Y203390D03*
X695570Y211390D03*
X678570Y211390D03*
X678570Y203390D03*
X678570Y195390D03*
X678570Y187390D03*
X695634Y289054D03*
X695634Y297054D03*
X695634Y305054D03*
X695634Y313054D03*
X678634Y313054D03*
X678634Y305054D03*
X678634Y297054D03*
X678634Y289054D03*
X695507Y390400D03*
X695507Y398400D03*
X695507Y406400D03*
X695507Y414400D03*
X678507Y414400D03*
X678507Y406400D03*
X678507Y398400D03*
X678507Y390400D03*
X695697Y339790D03*
X695697Y347790D03*
X695697Y355790D03*
X695697Y363790D03*
X678697Y363790D03*
X678697Y355790D03*
X678697Y347790D03*
X678697Y339790D03*
D23*
X901891Y401828D03*
X901891Y427228D03*
X876491Y427228D03*
X876491Y401828D03*
X901891Y376428D03*
X876491Y376428D03*
X901891Y351028D03*
X876491Y351028D03*
X901891Y325628D03*
X876491Y325628D03*
X901891Y300228D03*
X876491Y300228D03*
X901891Y274828D03*
X876491Y274828D03*
X901891Y249428D03*
X876491Y249428D03*
X901891Y224028D03*
X876491Y224028D03*
X901891Y198628D03*
X876491Y198628D03*
X901891Y173228D03*
X876491Y173228D03*
D24*
X513600Y172800D02*
X513600Y180800D01*
X515200Y182400D01*
X520000Y182400D01*
X523200Y179200D01*
X523200Y172800D01*
X513600Y172800D02*
X512838Y171474D01*
X522838Y171474D02*
X523200Y172800D01*
X486400Y192000D02*
X480000Y192000D01*
X468800Y203200D01*
X468800Y244800D01*
X476800Y252800D02*
X480000Y256000D01*
X476800Y252800D02*
X468800Y244800D01*
X480000Y256000D02*
X486400Y256000D01*
X486400Y192000D02*
X487958Y191354D01*
X486400Y256000D02*
X487958Y256354D01*
X515200Y185600D02*
X515200Y182400D01*
X499200Y185600D02*
X492800Y185600D01*
X488000Y190400D01*
X487958Y191354D01*
X635200Y561600D02*
X646400Y561600D01*
X635200Y561600D02*
X622400Y574400D01*
X590400Y574400D01*
X462400Y446400D01*
X462400Y379200D01*
X475200Y254400D02*
X476800Y252800D01*
X646811Y560515D02*
X646400Y561600D01*
D25*
X515200Y185600D03*
X499200Y185600D03*
X462400Y379200D03*
X475200Y254400D03*
D24*
X548800Y172800D02*
X552000Y172800D01*
X548800Y172800D02*
X547838Y171474D01*
X552000Y172800D02*
X552838Y171474D01*
X528000Y172800D02*
X528000Y248000D01*
X552000Y272000D01*
X552000Y284800D01*
X528000Y172800D02*
X527838Y171474D01*
X552000Y284800D02*
X552838Y286234D01*
X544000Y286400D02*
X544000Y296000D01*
X550400Y296000D01*
X552000Y294400D01*
X552000Y286400D01*
X544000Y286400D02*
X542838Y286234D01*
X552000Y286400D02*
X552838Y286234D01*
X568000Y284800D02*
X568000Y275200D01*
X564800Y272000D01*
X568000Y284800D02*
X567838Y286234D01*
X553600Y214400D02*
X553600Y172800D01*
X553600Y214400D02*
X577600Y238400D01*
X577600Y262400D01*
X553600Y172800D02*
X552838Y171474D01*
X545600Y406400D02*
X540800Y406400D01*
X536000Y406400D01*
X534670Y405603D01*
X545600Y406400D02*
X546672Y405666D01*
X513600Y374400D02*
X497600Y390400D01*
X513600Y374400D02*
X523200Y374400D01*
X540800Y392000D01*
X540800Y406400D01*
X497600Y390400D02*
X497459Y390764D01*
X508800Y369600D02*
X508800Y286400D01*
X508800Y369600D02*
X513600Y374400D01*
X508800Y286400D02*
X507838Y286234D01*
X596800Y406400D02*
X608000Y406400D01*
X596800Y406400D02*
X596138Y405857D01*
X608000Y406400D02*
X608521Y405857D01*
X571200Y406400D02*
X560000Y406400D01*
X558991Y405730D01*
X571200Y406400D02*
X571246Y405793D01*
X572800Y406400D02*
X582400Y406400D01*
X583692Y405793D01*
X572800Y406400D02*
X571246Y405793D01*
X584000Y406400D02*
X590400Y406400D01*
X595200Y406400D01*
X596138Y405857D01*
X584000Y406400D02*
X583692Y405793D01*
X812800Y380800D02*
X824000Y380800D01*
X812800Y380800D02*
X803200Y371200D01*
X588800Y371200D02*
X588800Y392000D01*
X590400Y393600D01*
X590400Y406400D01*
X824000Y380800D02*
X825271Y382230D01*
X478400Y393600D02*
X478400Y403200D01*
X478400Y393600D02*
X486400Y385600D01*
X486400Y384000D01*
X494400Y376000D01*
X494400Y371200D01*
X478400Y403200D02*
X477393Y403636D01*
X588800Y560000D02*
X595200Y560000D01*
X588800Y560000D02*
X580800Y552000D01*
X580800Y470400D01*
X619200Y432000D01*
X619200Y409600D01*
X616000Y406400D01*
X609600Y406400D01*
X595200Y560000D02*
X596011Y560515D01*
X609600Y406400D02*
X608521Y405857D01*
X558400Y406400D02*
X547200Y406400D01*
X546672Y405666D01*
X558400Y406400D02*
X558991Y405730D01*
D25*
X564800Y272000D03*
X552000Y272000D03*
X577600Y262400D03*
X803200Y371200D03*
X588800Y371200D03*
X494400Y371200D03*
D24*
X558400Y286400D02*
X561600Y286400D01*
X558400Y286400D02*
X557838Y286234D01*
X561600Y286400D02*
X562838Y286234D01*
X572800Y286400D02*
X572800Y294400D01*
X571200Y296000D01*
X564800Y296000D01*
X563200Y294400D01*
X563200Y286400D01*
X572800Y286400D02*
X572838Y286234D01*
X563200Y286400D02*
X562838Y286234D01*
X532800Y171200D02*
X532800Y163200D01*
X534400Y161600D01*
X540800Y161600D01*
X542400Y163200D01*
X542400Y171200D01*
X532838Y171474D02*
X532800Y171200D01*
X542400Y171200D02*
X542838Y171474D01*
X838400Y222400D02*
X843200Y222400D01*
X838400Y222400D02*
X833600Y217600D01*
X833600Y212800D01*
X806400Y185600D01*
X787200Y185600D01*
X777600Y176000D01*
X598400Y176000D01*
X588800Y185600D01*
X564800Y185600D01*
X558400Y179200D01*
X558400Y172800D01*
X843200Y222400D02*
X844208Y223457D01*
X558400Y172800D02*
X557838Y171474D01*
X544000Y163200D02*
X542400Y163200D01*
X544000Y163200D02*
X545600Y161600D01*
X555200Y161600D01*
X556800Y163200D01*
X556800Y171200D01*
X557838Y171474D01*
X558400Y228800D02*
X558400Y284800D01*
X558400Y228800D02*
X532800Y203200D01*
X532800Y172800D01*
X558400Y284800D02*
X557838Y286234D01*
X532800Y172800D02*
X532838Y171474D01*
X609600Y561600D02*
X620800Y561600D01*
X609600Y561600D02*
X600000Y571200D01*
X592000Y571200D01*
X577600Y556800D01*
X577600Y438400D01*
X540800Y382400D02*
X540800Y366400D01*
X542400Y364800D01*
X542400Y347200D01*
X553600Y336000D01*
X553600Y307200D01*
X564800Y296000D01*
X621411Y560515D02*
X620800Y561600D01*
D25*
X577600Y438400D03*
X540800Y382400D03*
D24*
X502400Y267200D02*
X488000Y267200D01*
X502400Y267200D02*
X512000Y276800D01*
X512000Y284800D01*
X488000Y267200D02*
X487958Y266354D01*
X512000Y284800D02*
X512838Y286234D01*
X563200Y171200D02*
X563200Y158400D01*
X569600Y152000D01*
X576000Y152000D01*
X582400Y158400D01*
X582400Y171200D01*
X563200Y171200D02*
X562838Y171474D01*
X582400Y171200D02*
X582838Y171474D01*
X508800Y171200D02*
X508800Y163200D01*
X510400Y161600D01*
X515200Y161600D01*
X516800Y163200D01*
X516800Y171200D01*
X508800Y171200D02*
X507838Y171474D01*
X516800Y171200D02*
X517838Y171474D01*
X496000Y225600D02*
X488000Y225600D01*
X497600Y224000D02*
X507200Y214400D01*
X497600Y224000D02*
X496000Y225600D01*
X507200Y214400D02*
X507200Y172800D01*
X488000Y225600D02*
X487958Y226354D01*
X507200Y172800D02*
X507838Y171474D01*
X521600Y158400D02*
X563200Y158400D01*
X521600Y158400D02*
X516800Y163200D01*
X502400Y260800D02*
X502400Y267200D01*
X502400Y260800D02*
X507200Y256000D01*
X507200Y233600D01*
X497600Y224000D01*
X635200Y40000D02*
X646400Y40000D01*
X635200Y40000D02*
X625600Y30400D01*
X588800Y30400D01*
X576000Y43200D01*
X576000Y152000D01*
X647764Y41275D02*
X646400Y40000D01*
X844800Y217600D02*
X849600Y217600D01*
X852800Y220800D01*
X852800Y227200D01*
X851200Y228800D01*
X844800Y228800D01*
X844800Y217600D02*
X844208Y216957D01*
X844800Y228800D02*
X844208Y229957D01*
X844800Y179200D02*
X867200Y179200D01*
X872000Y184000D01*
X888000Y184000D02*
X891200Y184000D01*
X888000Y184000D02*
X872000Y184000D01*
X891200Y184000D02*
X900800Y174400D01*
X844800Y179200D02*
X844081Y179538D01*
X900800Y174400D02*
X901891Y173228D01*
X864000Y227200D02*
X852800Y227200D01*
X864000Y227200D02*
X872000Y235200D01*
X881600Y235200D01*
X888000Y228800D01*
X888000Y184000D01*
X846400Y280000D02*
X844800Y280000D01*
X846400Y280000D02*
X860800Y294400D01*
X860800Y321600D01*
X851200Y331200D01*
X844800Y331200D01*
X844144Y281011D02*
X844800Y280000D01*
X844800Y331200D02*
X844208Y331874D01*
X844800Y380800D02*
X851200Y380800D01*
X862400Y369600D01*
X862400Y342400D01*
X851200Y331200D01*
X844800Y380800D02*
X844271Y382230D01*
X844800Y432000D02*
X851200Y432000D01*
X860800Y422400D01*
X860800Y390400D01*
X851200Y380800D01*
X844800Y432000D02*
X844144Y433411D01*
X881600Y238400D02*
X881600Y235200D01*
X881600Y238400D02*
X891200Y248000D01*
X891200Y254400D01*
X900800Y264000D01*
X907200Y264000D01*
X913600Y270400D01*
X913600Y278400D01*
X902400Y289600D01*
X865600Y289600D01*
X860800Y294400D01*
X696000Y296000D02*
X696000Y289600D01*
X695634Y289054D01*
X696000Y296000D02*
X695634Y297054D01*
X696000Y305600D02*
X696000Y312000D01*
X696000Y305600D02*
X695634Y305054D01*
X696000Y312000D02*
X695634Y313054D01*
X696000Y304000D02*
X696000Y297600D01*
X695634Y297054D01*
X696000Y304000D02*
X695634Y305054D01*
X696000Y244800D02*
X696000Y238400D01*
X695697Y237809D01*
X696000Y244800D02*
X695697Y245809D01*
X696000Y259200D02*
X696000Y260800D01*
X696000Y259200D02*
X696000Y254400D01*
X695697Y253809D01*
X696000Y260800D02*
X695697Y261809D01*
X696000Y252800D02*
X696000Y246400D01*
X695697Y245809D01*
X696000Y252800D02*
X695697Y253809D01*
X696000Y195200D02*
X696000Y188800D01*
X695570Y187390D01*
X696000Y195200D02*
X695570Y195390D01*
X696000Y196800D02*
X696000Y203200D01*
X695570Y203390D01*
X696000Y196800D02*
X695570Y195390D01*
X696000Y204800D02*
X696000Y211200D01*
X696000Y204800D02*
X695570Y203390D01*
X766400Y195200D02*
X769600Y195200D01*
X766400Y195200D02*
X760000Y188800D01*
X760000Y180800D01*
X758400Y179200D01*
X704000Y179200D01*
X696000Y187200D01*
X769600Y195200D02*
X770556Y195390D01*
X696000Y187200D02*
X695570Y187390D01*
X696000Y236800D02*
X697600Y236800D01*
X700800Y233600D01*
X700800Y216000D01*
X696000Y211200D01*
X696000Y236800D02*
X695697Y237809D01*
X695570Y211390D02*
X696000Y211200D01*
X702400Y281600D02*
X696000Y288000D01*
X702400Y281600D02*
X702400Y265600D01*
X696000Y259200D01*
X696000Y288000D02*
X695634Y289054D01*
X571200Y395200D02*
X564800Y388800D01*
X564800Y387200D01*
X601600Y387200D02*
X609600Y395200D01*
X571246Y396593D02*
X571200Y395200D01*
X608521Y396657D02*
X609600Y395200D01*
X696000Y396800D02*
X696000Y390400D01*
X695507Y390400D01*
X696000Y396800D02*
X695507Y398400D01*
X696000Y406400D02*
X696000Y412800D01*
X696000Y406400D02*
X695507Y406400D01*
X696000Y412800D02*
X695507Y414400D01*
X696000Y404800D02*
X696000Y398400D01*
X695507Y398400D01*
X696000Y404800D02*
X695507Y406400D01*
X696000Y347200D02*
X696000Y340800D01*
X695697Y339790D01*
X696000Y347200D02*
X695697Y347790D01*
X696000Y348800D02*
X696000Y355200D01*
X695697Y355790D01*
X696000Y348800D02*
X695697Y347790D01*
X696000Y356800D02*
X696000Y361600D01*
X696000Y363200D01*
X695697Y363790D01*
X696000Y356800D02*
X695697Y355790D01*
X702400Y382400D02*
X696000Y388800D01*
X702400Y382400D02*
X702400Y368000D01*
X696000Y361600D01*
X696000Y388800D02*
X695507Y390400D01*
X640000Y396800D02*
X609600Y396800D01*
X640000Y396800D02*
X651200Y385600D01*
X691200Y385600D01*
X694400Y388800D01*
X609600Y396800D02*
X608521Y396657D01*
X694400Y388800D02*
X695507Y390400D01*
X708800Y326400D02*
X696000Y313600D01*
X708800Y326400D02*
X708800Y334400D01*
X704000Y339200D01*
X696000Y339200D01*
X696000Y313600D02*
X695634Y313054D01*
X696000Y339200D02*
X695697Y339790D01*
X772800Y193600D02*
X780800Y193600D01*
X772800Y193600D02*
X771200Y195200D01*
X770556Y195390D01*
X587200Y168000D02*
X584000Y171200D01*
X587200Y168000D02*
X779200Y168000D01*
X790400Y179200D01*
X584000Y171200D02*
X582838Y171474D01*
D25*
X564800Y387200D03*
X601600Y387200D03*
X780800Y193600D03*
X790400Y179200D03*
D24*
X568000Y171200D02*
X568000Y163200D01*
X572800Y158400D01*
X916800Y158400D02*
X916800Y163200D01*
X920000Y166400D01*
X920000Y497600D01*
X857600Y560000D01*
X851200Y560000D01*
X567838Y171474D02*
X568000Y171200D01*
X850011Y560515D02*
X851200Y560000D01*
D25*
X572800Y158400D03*
X916800Y158400D03*
D24*
X486400Y216000D02*
X480000Y216000D01*
X475200Y211200D01*
X456000Y211200D02*
X456000Y153600D01*
X585600Y24000D01*
X732800Y24000D01*
X748800Y40000D01*
X487958Y216354D02*
X486400Y216000D01*
X749364Y41275D02*
X748800Y40000D01*
D25*
X475200Y211200D03*
X456000Y211200D03*
D24*
X478400Y230400D02*
X486400Y230400D01*
X478400Y230400D02*
X475200Y227200D01*
X462400Y227200D02*
X462400Y152000D01*
X587200Y27200D01*
X710400Y27200D01*
X723200Y40000D01*
X487958Y231354D02*
X486400Y230400D01*
X723964Y41275D02*
X723200Y40000D01*
D25*
X475200Y227200D03*
X462400Y227200D03*
D24*
X488000Y236800D02*
X500800Y236800D01*
X449600Y232000D02*
X443200Y238400D01*
X443200Y441600D01*
X585600Y584000D01*
X801600Y584000D01*
X824000Y561600D01*
X488000Y236800D02*
X487958Y236354D01*
X824611Y560515D02*
X824000Y561600D01*
D25*
X500800Y236800D03*
X449600Y232000D03*
D24*
X480000Y246400D02*
X486400Y246400D01*
X480000Y246400D02*
X475200Y241600D01*
X449600Y241600D02*
X449600Y443200D01*
X587200Y580800D01*
X753600Y580800D01*
X772800Y561600D01*
X487958Y246354D02*
X486400Y246400D01*
X773811Y560515D02*
X772800Y561600D01*
D25*
X475200Y241600D03*
X449600Y241600D03*
D24*
X488000Y251200D02*
X499200Y251200D01*
X500800Y252800D01*
X464000Y262400D02*
X464000Y368000D01*
X456000Y376000D01*
X456000Y444800D01*
X588800Y577600D01*
X731200Y577600D01*
X747200Y561600D01*
X487958Y251354D02*
X488000Y251200D01*
X748411Y560515D02*
X747200Y561600D01*
D25*
X500800Y252800D03*
X464000Y262400D03*
D24*
X472000Y260800D02*
X486400Y260800D01*
X472000Y260800D02*
X456000Y244800D01*
X456000Y220800D01*
X449600Y214400D01*
X449600Y155200D01*
X584000Y20800D01*
X755200Y20800D01*
X774400Y40000D01*
X487958Y261354D02*
X486400Y260800D01*
X774764Y41275D02*
X774400Y40000D01*
X667200Y203200D02*
X627200Y203200D01*
X667200Y203200D02*
X678400Y203200D01*
X627200Y203200D02*
X616000Y192000D01*
X603200Y192000D01*
X678400Y203200D02*
X678570Y203390D01*
X603200Y192000D02*
X602718Y191354D01*
X707200Y203200D02*
X752000Y203200D01*
X752556Y203390D01*
D25*
X707200Y203200D03*
X667200Y203200D03*
D24*
X667200Y187200D02*
X593600Y187200D01*
X667200Y187200D02*
X678400Y187200D01*
X593600Y187200D02*
X592000Y188800D01*
X592000Y193600D01*
X593600Y195200D01*
X601600Y195200D01*
X678400Y187200D02*
X678570Y187390D01*
X602718Y196354D02*
X601600Y195200D01*
X707200Y187200D02*
X752000Y187200D01*
X752556Y186140D01*
D25*
X707200Y187200D03*
X667200Y187200D03*
D24*
X521600Y406400D02*
X512000Y406400D01*
X521600Y406400D02*
X522669Y405666D01*
X512000Y406400D02*
X510858Y404915D01*
X667200Y212800D02*
X678400Y212800D01*
X742400Y212800D02*
X752000Y212800D01*
X678570Y211390D02*
X678400Y212800D01*
X752000Y212800D02*
X752556Y212640D01*
X510400Y404800D02*
X502400Y396800D01*
X491200Y396800D01*
X489600Y395200D01*
X489600Y385600D01*
X502400Y372800D01*
X502400Y308800D01*
X510400Y404800D02*
X510858Y404915D01*
D25*
X667200Y212800D03*
X742400Y212800D03*
X502400Y308800D03*
D24*
X660800Y195200D02*
X678400Y195200D01*
X742400Y195200D02*
X752000Y195200D01*
X678570Y195390D02*
X678400Y195200D01*
X752000Y195200D02*
X752556Y195390D01*
D25*
X660800Y195200D03*
X742400Y195200D03*
D24*
X771200Y187200D02*
X784000Y187200D01*
X812800Y216000D02*
X816000Y219200D01*
X812800Y216000D02*
X784000Y187200D01*
X816000Y219200D02*
X816000Y225600D01*
X819200Y228800D01*
X824000Y228800D01*
X771200Y187200D02*
X770556Y186140D01*
X824000Y228800D02*
X825208Y229957D01*
X812800Y216000D02*
X819200Y209600D01*
D25*
X819200Y209600D03*
D24*
X771200Y212800D02*
X771200Y220800D01*
X774400Y224000D01*
X771200Y212800D02*
X770556Y212640D01*
X817600Y174400D02*
X824000Y174400D01*
X817600Y174400D02*
X816000Y176000D01*
X816000Y190400D01*
X836800Y211200D01*
X862400Y211200D01*
X875200Y224000D01*
X824000Y174400D02*
X825081Y173038D01*
X875200Y224000D02*
X876491Y224028D01*
D25*
X774400Y224000D03*
D24*
X771200Y204800D02*
X795200Y204800D01*
X812800Y222400D01*
X812800Y235200D01*
X771200Y204800D02*
X770556Y203390D01*
X844800Y172800D02*
X860800Y172800D01*
X872000Y161600D01*
X905600Y161600D01*
X913600Y169600D01*
X913600Y212800D01*
X902400Y224000D01*
X844800Y172800D02*
X844081Y173038D01*
X901891Y224028D02*
X902400Y224000D01*
D25*
X812800Y235200D03*
D24*
X825600Y179200D02*
X830400Y179200D01*
X835200Y174400D01*
X835200Y163200D01*
X840000Y158400D01*
X907200Y158400D01*
X916800Y168000D01*
X916800Y233600D01*
X902400Y248000D01*
X825600Y179200D02*
X825081Y179538D01*
X902400Y248000D02*
X901891Y249428D01*
X822400Y246400D02*
X771200Y246400D01*
X822400Y246400D02*
X843200Y267200D01*
X771200Y246400D02*
X770746Y245809D01*
X843200Y267200D02*
X844144Y268011D01*
X862400Y249600D02*
X875200Y249600D01*
X862400Y249600D02*
X844800Y267200D01*
X875200Y249600D02*
X876491Y249428D01*
X844800Y267200D02*
X844144Y268011D01*
X777600Y262400D02*
X771200Y262400D01*
X777600Y262400D02*
X779200Y260800D01*
X806400Y260800D01*
X816000Y270400D02*
X819200Y273600D01*
X816000Y270400D02*
X806400Y260800D01*
X819200Y273600D02*
X824000Y273600D01*
X771200Y262400D02*
X770746Y263059D01*
X824000Y273600D02*
X825144Y274511D01*
X816000Y270400D02*
X812800Y273600D01*
D25*
X812800Y273600D03*
D24*
X824000Y254400D02*
X771200Y254400D01*
X824000Y254400D02*
X835200Y265600D01*
X835200Y270400D01*
X838400Y273600D01*
X843200Y273600D01*
X771200Y254400D02*
X770746Y253809D01*
X843200Y273600D02*
X844144Y274511D01*
X891200Y273600D02*
X900800Y273600D01*
X891200Y273600D02*
X881600Y264000D01*
X860800Y264000D01*
X851200Y273600D01*
X844800Y273600D01*
X900800Y273600D02*
X901891Y274828D01*
X844800Y273600D02*
X844144Y274511D01*
X824000Y280000D02*
X819200Y284800D01*
X819200Y289600D01*
X825144Y281011D02*
X824000Y280000D01*
D25*
X819200Y289600D03*
D24*
X678400Y262400D02*
X667200Y262400D01*
X742400Y262400D02*
X752000Y262400D01*
X678697Y261809D02*
X678400Y262400D01*
X752000Y262400D02*
X752746Y263059D01*
X620800Y201600D02*
X603200Y201600D01*
X620800Y201600D02*
X651200Y232000D01*
X603200Y201600D02*
X602718Y201354D01*
D25*
X667200Y262400D03*
X742400Y262400D03*
X651200Y232000D03*
D24*
X656000Y252800D02*
X667200Y252800D01*
X678400Y252800D01*
X656000Y252800D02*
X652800Y249600D01*
X652800Y243200D01*
X616000Y206400D01*
X603200Y206400D01*
X678400Y252800D02*
X678697Y253809D01*
X603200Y206400D02*
X602718Y206354D01*
X721600Y252800D02*
X752000Y252800D01*
X752746Y253809D01*
D25*
X721600Y252800D03*
X667200Y252800D03*
D24*
X659200Y246400D02*
X678400Y246400D01*
X646400Y246400D02*
X646400Y241600D01*
X616000Y211200D01*
X603200Y211200D01*
X678400Y246400D02*
X678697Y245809D01*
X603200Y211200D02*
X602718Y211354D01*
X713600Y246400D02*
X752000Y246400D01*
X752746Y245809D01*
D25*
X659200Y246400D03*
X646400Y246400D03*
X713600Y246400D03*
D24*
X678400Y238400D02*
X665600Y238400D01*
X633600Y238400D02*
X611200Y216000D01*
X603200Y216000D01*
X678400Y238400D02*
X678697Y237809D01*
X603200Y216000D02*
X602718Y216354D01*
X708800Y236800D02*
X752000Y236800D01*
X708800Y236800D02*
X707200Y238400D01*
X752000Y236800D02*
X752746Y236559D01*
D25*
X665600Y238400D03*
X633600Y238400D03*
X707200Y238400D03*
D24*
X771200Y297600D02*
X822400Y297600D01*
X840000Y315200D02*
X843200Y318400D01*
X840000Y315200D02*
X822400Y297600D01*
X771200Y297600D02*
X770937Y297181D01*
X843200Y318400D02*
X844208Y318874D01*
X840000Y315200D02*
X854400Y300800D01*
D25*
X854400Y300800D03*
D24*
X824000Y305600D02*
X771200Y305600D01*
X824000Y305600D02*
X835200Y316800D01*
X835200Y321600D01*
X838400Y324800D01*
X843200Y324800D01*
X771200Y305600D02*
X770937Y305181D01*
X843200Y324800D02*
X844208Y325374D01*
X854400Y320000D02*
X854400Y312000D01*
X854400Y320000D02*
X849600Y324800D01*
X844800Y324800D01*
X844208Y325374D01*
D25*
X854400Y312000D03*
D24*
X824000Y331200D02*
X819200Y336000D01*
X819200Y339200D01*
X824000Y331200D02*
X825208Y331874D01*
D25*
X819200Y339200D03*
D24*
X808000Y313600D02*
X771200Y313600D01*
X816000Y321600D02*
X819200Y324800D01*
X816000Y321600D02*
X808000Y313600D01*
X819200Y324800D02*
X824000Y324800D01*
X771200Y313600D02*
X770937Y314431D01*
X824000Y324800D02*
X825208Y325374D01*
X816000Y321600D02*
X812800Y324800D01*
D25*
X812800Y324800D03*
D24*
X678400Y313600D02*
X667200Y313600D01*
X742400Y313600D02*
X752000Y313600D01*
X678634Y313054D02*
X678400Y313600D01*
X752000Y313600D02*
X752937Y314431D01*
X601600Y222400D02*
X593600Y222400D01*
X588800Y227200D01*
X588800Y232000D01*
X601600Y222400D02*
X602718Y221354D01*
D25*
X667200Y313600D03*
X742400Y313600D03*
X588800Y232000D03*
D24*
X680000Y304000D02*
X683200Y304000D01*
X686400Y300800D01*
X686400Y286400D01*
X683200Y283200D01*
X675200Y283200D01*
X644800Y252800D01*
X636800Y252800D01*
X611200Y227200D01*
X603200Y227200D01*
X678634Y305054D02*
X680000Y304000D01*
X603200Y227200D02*
X602718Y226354D01*
X716800Y304000D02*
X752000Y304000D01*
X678400Y304000D02*
X667200Y304000D01*
X752000Y304000D02*
X752937Y305181D01*
X678634Y305054D02*
X678400Y304000D01*
D25*
X716800Y304000D03*
X667200Y304000D03*
D24*
X668800Y296000D02*
X678400Y296000D01*
X667200Y294400D02*
X660800Y288000D01*
X667200Y294400D02*
X668800Y296000D01*
X660800Y288000D02*
X660800Y281600D01*
X611200Y232000D01*
X603200Y232000D01*
X678400Y296000D02*
X678634Y297054D01*
X603200Y232000D02*
X602718Y231354D01*
X716800Y296000D02*
X752000Y296000D01*
X716800Y296000D02*
X715200Y294400D01*
X752000Y296000D02*
X752937Y297181D01*
D25*
X715200Y294400D03*
X667200Y294400D03*
D24*
X670400Y288000D02*
X678400Y288000D01*
X670400Y288000D02*
X667200Y284800D01*
X742400Y284800D02*
X750400Y284800D01*
X752000Y286400D01*
X678634Y289054D02*
X678400Y288000D01*
X752000Y286400D02*
X752937Y287931D01*
X601600Y236800D02*
X593600Y236800D01*
X592000Y238400D01*
X585600Y238400D01*
X580800Y233600D01*
X580800Y225600D01*
X601600Y236800D02*
X602718Y236354D01*
D25*
X667200Y284800D03*
X742400Y284800D03*
X580800Y225600D03*
D24*
X772800Y398400D02*
X785600Y398400D01*
X803200Y380800D01*
X772800Y398400D02*
X771254Y398463D01*
X835200Y419200D02*
X843200Y419200D01*
X835200Y419200D02*
X816000Y400000D01*
X843200Y419200D02*
X844144Y420411D01*
D25*
X803200Y380800D03*
X816000Y400000D03*
D24*
X788800Y406400D02*
X772800Y406400D01*
X788800Y406400D02*
X801600Y393600D01*
X772800Y406400D02*
X771254Y406463D01*
X844800Y425600D02*
X851200Y425600D01*
X854400Y422400D01*
X854400Y393600D01*
X844800Y425600D02*
X844144Y426911D01*
D25*
X801600Y393600D03*
X854400Y393600D03*
D24*
X824000Y432000D02*
X822400Y433600D01*
X822400Y449600D01*
X824000Y451200D01*
X868800Y451200D01*
X891200Y428800D01*
X891200Y412800D01*
X900800Y403200D01*
X825144Y433411D02*
X824000Y432000D01*
X900800Y403200D02*
X901891Y401828D01*
X779200Y414400D02*
X772800Y414400D01*
X779200Y414400D02*
X780800Y412800D01*
X804800Y412800D01*
X817600Y425600D01*
X824000Y425600D01*
X772800Y414400D02*
X771254Y415713D01*
X824000Y425600D02*
X825144Y426911D01*
X804800Y412800D02*
X804800Y400000D01*
X814400Y390400D01*
X814400Y387200D01*
D25*
X814400Y387200D03*
D24*
X678400Y414400D02*
X676800Y414400D01*
X672000Y419200D01*
X672000Y420800D02*
X672000Y433600D01*
X672000Y420800D02*
X672000Y419200D01*
X672000Y433600D02*
X673600Y435200D01*
X732800Y435200D01*
X752000Y416000D01*
X678507Y414400D02*
X678400Y414400D01*
X752000Y416000D02*
X753254Y415713D01*
X601600Y241600D02*
X595200Y241600D01*
X587200Y249600D01*
X587200Y294400D01*
X620800Y328000D01*
X620800Y384000D01*
X627200Y390400D01*
X651200Y400000D02*
X672000Y420800D01*
X602718Y241354D02*
X601600Y241600D01*
D25*
X627200Y390400D03*
X651200Y400000D03*
D24*
X667200Y406400D02*
X678400Y406400D01*
X742400Y406400D02*
X752000Y406400D01*
X678507Y406400D02*
X678400Y406400D01*
X752000Y406400D02*
X753254Y406463D01*
X601600Y246400D02*
X595200Y246400D01*
X592000Y249600D01*
X592000Y268800D01*
X600000Y276800D01*
X619200Y276800D01*
X624000Y281600D01*
X624000Y377600D01*
X636800Y390400D01*
X602718Y246354D02*
X601600Y246400D01*
D25*
X667200Y406400D03*
X742400Y406400D03*
X636800Y390400D03*
D24*
X667200Y396800D02*
X678400Y396800D01*
X742400Y396800D02*
X750400Y396800D01*
X752000Y398400D01*
X678507Y398400D02*
X678400Y396800D01*
X752000Y398400D02*
X753254Y398463D01*
X624000Y251200D02*
X603200Y251200D01*
X624000Y251200D02*
X657600Y284800D01*
X657600Y313600D01*
X668800Y324800D01*
X715200Y324800D02*
X715200Y369600D01*
X742400Y396800D01*
X603200Y251200D02*
X602718Y251354D01*
D25*
X667200Y396800D03*
X742400Y396800D03*
X668800Y324800D03*
X715200Y324800D03*
D24*
X753600Y390400D02*
X756800Y390400D01*
X761600Y395200D01*
X761600Y420800D01*
X744000Y438400D01*
X672000Y438400D01*
X644800Y411200D01*
X644800Y396800D01*
X651200Y390400D01*
X678400Y390400D01*
X753254Y389213D02*
X753600Y390400D01*
X678507Y390400D02*
X678400Y390400D01*
X619200Y256000D02*
X603200Y256000D01*
X619200Y256000D02*
X632000Y268800D01*
X708800Y268800D02*
X708800Y305600D01*
X728000Y324800D01*
X752000Y324800D01*
X760000Y332800D01*
X760000Y387200D01*
X756800Y390400D01*
X603200Y256000D02*
X602718Y256354D01*
X753254Y389213D02*
X756800Y390400D01*
D25*
X632000Y268800D03*
X708800Y268800D03*
D24*
X771200Y356800D02*
X825600Y356800D01*
X827200Y358400D02*
X835200Y366400D01*
X827200Y358400D02*
X825600Y356800D01*
X835200Y366400D02*
X835200Y372800D01*
X836800Y374400D01*
X843200Y374400D01*
X771200Y356800D02*
X770937Y355854D01*
X843200Y374400D02*
X844271Y375730D01*
X827200Y358400D02*
X825600Y360000D01*
D25*
X825600Y360000D03*
D24*
X824000Y348800D02*
X771200Y348800D01*
X824000Y348800D02*
X843200Y368000D01*
X771200Y348800D02*
X770937Y347854D01*
X843200Y368000D02*
X844271Y369230D01*
X846400Y366400D02*
X856000Y366400D01*
X846400Y366400D02*
X844800Y368000D01*
X844271Y369230D01*
D25*
X856000Y366400D03*
D24*
X776000Y364800D02*
X771200Y364800D01*
X776000Y364800D02*
X780800Y360000D01*
X804800Y360000D01*
X819200Y374400D01*
X824000Y374400D01*
X771200Y364800D02*
X770937Y365104D01*
X824000Y374400D02*
X825271Y375730D01*
X776000Y380800D02*
X776000Y364800D01*
X776000Y380800D02*
X782400Y387200D01*
X782400Y392000D01*
D25*
X782400Y392000D03*
D24*
X678400Y364800D02*
X667200Y364800D01*
X742400Y364800D02*
X752000Y364800D01*
X678697Y363790D02*
X678400Y364800D01*
X752000Y364800D02*
X752937Y365104D01*
X611200Y262400D02*
X603200Y262400D01*
X611200Y262400D02*
X616000Y267200D01*
X630400Y284800D02*
X630400Y328000D01*
X667200Y364800D01*
X603200Y262400D02*
X602718Y261354D01*
D25*
X667200Y364800D03*
X742400Y364800D03*
X616000Y267200D03*
X630400Y284800D03*
D24*
X667200Y355200D02*
X678400Y355200D01*
X667200Y355200D02*
X636800Y324800D01*
X636800Y281600D01*
X630400Y275200D01*
X622400Y275200D01*
X620800Y273600D01*
X609600Y273600D01*
X603200Y267200D01*
X678400Y355200D02*
X678697Y355790D01*
X603200Y267200D02*
X602718Y266354D01*
X721600Y355200D02*
X752000Y355200D01*
X752937Y355854D01*
D25*
X721600Y355200D03*
X667200Y355200D03*
D24*
X680000Y339200D02*
X684800Y339200D01*
X689600Y334400D01*
X699200Y334400D01*
X702400Y331200D01*
X744000Y331200D02*
X752000Y339200D01*
X680000Y339200D02*
X678697Y339790D01*
X752000Y339200D02*
X752937Y338604D01*
X584000Y300800D02*
X584000Y286400D01*
X584000Y300800D02*
X614400Y331200D01*
X584000Y286400D02*
X582838Y286234D01*
D25*
X702400Y331200D03*
X744000Y331200D03*
X614400Y331200D03*
D24*
X668800Y347200D02*
X678400Y347200D01*
X668800Y347200D02*
X667200Y345600D01*
X742400Y345600D02*
X750400Y345600D01*
X752000Y347200D01*
X678697Y347790D02*
X678400Y347200D01*
X752000Y347200D02*
X752937Y347854D01*
X577600Y308800D02*
X577600Y286400D01*
X577600Y308800D02*
X614400Y345600D01*
X577600Y286400D02*
X577838Y286234D01*
D25*
X667200Y345600D03*
X742400Y345600D03*
X614400Y345600D03*
D24*
X518400Y395200D02*
X512000Y395200D01*
X518400Y395200D02*
X521600Y395200D01*
X522669Y396466D01*
X512000Y395200D02*
X510858Y393915D01*
X518400Y395200D02*
X518400Y380800D01*
X590400Y177600D02*
X590400Y174400D01*
X590400Y177600D02*
X585600Y182400D01*
X580800Y182400D01*
X577600Y179200D01*
X577600Y172800D01*
X572800Y172800D01*
X572838Y171474D01*
X577600Y172800D02*
X577838Y171474D01*
D25*
X518400Y380800D03*
X590400Y174400D03*
D24*
X595200Y368000D02*
X595200Y395200D01*
X595200Y368000D02*
X563200Y336000D01*
X544000Y336000D02*
X544000Y300800D01*
X537600Y294400D01*
X537600Y286400D01*
X595200Y395200D02*
X596138Y396657D01*
X537600Y286400D02*
X537838Y286234D01*
D25*
X563200Y336000D03*
X544000Y336000D03*
D24*
X523200Y294400D02*
X523200Y286400D01*
X523200Y294400D02*
X524800Y296000D01*
X531200Y296000D01*
X532800Y294400D01*
X532800Y286400D01*
X523200Y286400D02*
X522838Y286234D01*
X532800Y286400D02*
X532838Y286234D01*
X547200Y385600D02*
X547200Y395200D01*
X547200Y385600D02*
X552000Y380800D01*
X572800Y380800D02*
X572800Y385600D01*
X582400Y395200D01*
X547200Y395200D02*
X546672Y396466D01*
X582400Y395200D02*
X583692Y396593D01*
X537600Y203200D02*
X537600Y172800D01*
X537600Y203200D02*
X571200Y236800D01*
X571200Y268800D01*
X574400Y272000D01*
X571200Y302400D02*
X571200Y318400D01*
X556800Y332800D01*
X556800Y364800D01*
X572800Y380800D01*
X537600Y172800D02*
X537838Y171474D01*
D25*
X552000Y380800D03*
X572800Y380800D03*
X574400Y272000D03*
X571200Y302400D03*
D24*
X526400Y387200D02*
X534400Y395200D01*
X475200Y387200D02*
X465600Y396800D01*
X465600Y430400D01*
X470400Y435200D01*
X484800Y435200D01*
X489600Y430400D01*
X489600Y409600D01*
X496000Y403200D01*
X534400Y395200D02*
X534670Y396403D01*
X497459Y404764D02*
X496000Y403200D01*
X547200Y284800D02*
X547200Y276800D01*
X542400Y272000D01*
X547200Y284800D02*
X547838Y286234D01*
D25*
X526400Y387200D03*
X475200Y387200D03*
X542400Y272000D03*
D24*
X528000Y278400D02*
X528000Y284800D01*
X528000Y278400D02*
X521600Y272000D01*
X499200Y273600D02*
X499200Y302400D01*
X478400Y323200D01*
X478400Y374400D01*
X527838Y286234D02*
X528000Y284800D01*
X478400Y374400D02*
X477393Y375636D01*
D25*
X521600Y272000D03*
X499200Y273600D03*
D24*
X558400Y371200D02*
X558400Y395200D01*
X558400Y371200D02*
X548800Y361600D01*
X536000Y361600D02*
X536000Y312000D01*
X518400Y294400D01*
X518400Y286400D01*
X558400Y395200D02*
X558991Y396530D01*
X518400Y286400D02*
X517838Y286234D01*
D25*
X548800Y361600D03*
X536000Y361600D03*
M02*
