G04 EAGLE Gerber RS-274X export*
G75*
%MOMM*%
%FSLAX34Y34*%
%LPD*%
%INEAGLE Copper Layer 15*%
%IPPOS*%
%AMOC8*
5,1,8,0,0,1.08239X$1,22.5*%
G01*
%ADD10C,1.524000*%
%ADD11C,1.650000*%
%ADD12C,0.756400*%


D10*
X596964Y41275D03*
X622364Y41275D03*
X647764Y41275D03*
X673164Y41275D03*
X698564Y41275D03*
X723964Y41275D03*
X749364Y41275D03*
X774764Y41275D03*
X800164Y41275D03*
X825564Y41275D03*
X850964Y41275D03*
X850011Y560515D03*
X824611Y560515D03*
X799211Y560515D03*
X773811Y560515D03*
X748411Y560515D03*
X723011Y560515D03*
X697611Y560515D03*
X672211Y560515D03*
X646811Y560515D03*
X621411Y560515D03*
X596011Y560515D03*
D11*
X901891Y401828D03*
X901891Y427228D03*
X876491Y427228D03*
X876491Y401828D03*
X901891Y376428D03*
X876491Y376428D03*
X901891Y351028D03*
X876491Y351028D03*
X901891Y325628D03*
X876491Y325628D03*
X901891Y300228D03*
X876491Y300228D03*
X901891Y274828D03*
X876491Y274828D03*
X901891Y249428D03*
X876491Y249428D03*
X901891Y224028D03*
X876491Y224028D03*
X901891Y198628D03*
X876491Y198628D03*
X901891Y173228D03*
X876491Y173228D03*
D12*
X515200Y185600D03*
X499200Y185600D03*
X462400Y379200D03*
X475200Y254400D03*
X564800Y272000D03*
X552000Y272000D03*
X577600Y262400D03*
X803200Y371200D03*
X588800Y371200D03*
X494400Y371200D03*
X577600Y438400D03*
X540800Y382400D03*
X564800Y387200D03*
X601600Y387200D03*
X780800Y193600D03*
X790400Y179200D03*
X572800Y158400D03*
X916800Y158400D03*
X475200Y211200D03*
X456000Y211200D03*
X475200Y227200D03*
X462400Y227200D03*
X500800Y236800D03*
X449600Y232000D03*
X475200Y241600D03*
X449600Y241600D03*
X500800Y252800D03*
X464000Y262400D03*
X707200Y203200D03*
X667200Y203200D03*
X707200Y187200D03*
X667200Y187200D03*
X667200Y212800D03*
X742400Y212800D03*
X502400Y308800D03*
X660800Y195200D03*
X742400Y195200D03*
X819200Y209600D03*
X774400Y224000D03*
X812800Y235200D03*
X812800Y273600D03*
X819200Y289600D03*
X667200Y262400D03*
X742400Y262400D03*
X651200Y232000D03*
X721600Y252800D03*
X667200Y252800D03*
X659200Y246400D03*
X646400Y246400D03*
X713600Y246400D03*
X665600Y238400D03*
X633600Y238400D03*
X707200Y238400D03*
X854400Y300800D03*
X854400Y312000D03*
X819200Y339200D03*
X812800Y324800D03*
X667200Y313600D03*
X742400Y313600D03*
X588800Y232000D03*
X716800Y304000D03*
X667200Y304000D03*
X715200Y294400D03*
X667200Y294400D03*
X667200Y284800D03*
X742400Y284800D03*
X580800Y225600D03*
X803200Y380800D03*
X816000Y400000D03*
X801600Y393600D03*
X854400Y393600D03*
X814400Y387200D03*
X627200Y390400D03*
X651200Y400000D03*
X667200Y406400D03*
X742400Y406400D03*
X636800Y390400D03*
X667200Y396800D03*
X742400Y396800D03*
X668800Y324800D03*
X715200Y324800D03*
X632000Y268800D03*
X708800Y268800D03*
X825600Y360000D03*
X856000Y366400D03*
X782400Y392000D03*
X667200Y364800D03*
X742400Y364800D03*
X616000Y267200D03*
X630400Y284800D03*
X721600Y355200D03*
X667200Y355200D03*
X702400Y331200D03*
X744000Y331200D03*
X614400Y331200D03*
X667200Y345600D03*
X742400Y345600D03*
X614400Y345600D03*
X518400Y380800D03*
X590400Y174400D03*
X563200Y336000D03*
X544000Y336000D03*
X552000Y380800D03*
X572800Y380800D03*
X574400Y272000D03*
X571200Y302400D03*
X526400Y387200D03*
X475200Y387200D03*
X542400Y272000D03*
X521600Y272000D03*
X499200Y273600D03*
X548800Y361600D03*
X536000Y361600D03*
M02*
