G04 EAGLE Gerber RS-274X export*
G75*
%MOMM*%
%FSLAX34Y34*%
%LPD*%
%INSilkscreen Top*%
%IPPOS*%
%AMOC8*
5,1,8,0,0,1.08239X$1,22.5*%
G01*
%ADD10C,0.152400*%
%ADD11C,0.076200*%
%ADD12C,0.050000*%
%ADD13C,0.250000*%
%ADD14C,0.200000*%
%ADD15C,0.100000*%
%ADD16C,0.127000*%


D10*
X852996Y29337D02*
X866204Y29337D01*
X848932Y53213D02*
X827596Y53213D01*
X827596Y29337D02*
X848932Y29337D01*
X823532Y53213D02*
X802196Y53213D01*
X802196Y29337D02*
X823532Y29337D01*
X798132Y53213D02*
X776796Y53213D01*
X776796Y29337D02*
X798132Y29337D01*
X587058Y29337D02*
X581724Y29337D01*
X866204Y29337D02*
X866204Y53213D01*
X852996Y53213D01*
X581724Y53213D02*
X581724Y29337D01*
X606870Y29337D02*
X620332Y29337D01*
X587058Y53213D02*
X581724Y53213D01*
X606870Y53213D02*
X620332Y53213D01*
X624396Y29337D02*
X645732Y29337D01*
X645732Y53213D02*
X624396Y53213D01*
X649796Y29337D02*
X671132Y29337D01*
X671132Y53213D02*
X649796Y53213D01*
X675196Y29337D02*
X696532Y29337D01*
X696532Y53213D02*
X675196Y53213D01*
X700596Y29337D02*
X721932Y29337D01*
X721932Y53213D02*
X700596Y53213D01*
X725996Y29337D02*
X747332Y29337D01*
X747332Y53213D02*
X725996Y53213D01*
X751396Y29337D02*
X772732Y29337D01*
X772732Y53213D02*
X751396Y53213D01*
D11*
X858499Y22924D02*
X858499Y17194D01*
X858497Y17116D01*
X858492Y17038D01*
X858482Y16961D01*
X858469Y16884D01*
X858453Y16808D01*
X858433Y16733D01*
X858409Y16659D01*
X858382Y16586D01*
X858351Y16514D01*
X858317Y16444D01*
X858280Y16376D01*
X858239Y16309D01*
X858195Y16244D01*
X858149Y16182D01*
X858099Y16122D01*
X858047Y16064D01*
X857992Y16009D01*
X857934Y15957D01*
X857874Y15907D01*
X857812Y15861D01*
X857747Y15817D01*
X857681Y15776D01*
X857612Y15739D01*
X857542Y15705D01*
X857470Y15674D01*
X857397Y15647D01*
X857323Y15623D01*
X857248Y15603D01*
X857172Y15587D01*
X857095Y15574D01*
X857018Y15564D01*
X856940Y15559D01*
X856862Y15557D01*
X856862Y15558D02*
X856044Y15558D01*
X861933Y22105D02*
X861933Y22924D01*
X866026Y22924D01*
X863979Y15558D01*
D10*
X593979Y572453D02*
X580771Y572453D01*
X598043Y548577D02*
X619379Y548577D01*
X619379Y572453D02*
X598043Y572453D01*
X623443Y548577D02*
X644779Y548577D01*
X644779Y572453D02*
X623443Y572453D01*
X648843Y548577D02*
X670179Y548577D01*
X670179Y572453D02*
X648843Y572453D01*
X859917Y572453D02*
X865251Y572453D01*
X580771Y572453D02*
X580771Y548577D01*
X593979Y548577D01*
X865251Y548577D02*
X865251Y572453D01*
X840105Y572453D02*
X826643Y572453D01*
X859917Y548577D02*
X865251Y548577D01*
X840105Y548577D02*
X826643Y548577D01*
X822579Y572453D02*
X801243Y572453D01*
X801243Y548577D02*
X822579Y548577D01*
X797179Y572453D02*
X775843Y572453D01*
X775843Y548577D02*
X797179Y548577D01*
X771779Y572453D02*
X750443Y572453D01*
X750443Y548577D02*
X771779Y548577D01*
X746379Y572453D02*
X725043Y572453D01*
X725043Y548577D02*
X746379Y548577D01*
X720979Y572453D02*
X699643Y572453D01*
X699643Y548577D02*
X720979Y548577D01*
X695579Y572453D02*
X674243Y572453D01*
X674243Y548577D02*
X695579Y548577D01*
D11*
X855959Y582154D02*
X855959Y587883D01*
X855959Y582154D02*
X855957Y582076D01*
X855952Y581998D01*
X855942Y581921D01*
X855929Y581844D01*
X855913Y581768D01*
X855893Y581693D01*
X855869Y581619D01*
X855842Y581546D01*
X855811Y581474D01*
X855777Y581404D01*
X855740Y581336D01*
X855699Y581269D01*
X855655Y581204D01*
X855609Y581142D01*
X855559Y581082D01*
X855507Y581024D01*
X855452Y580969D01*
X855394Y580917D01*
X855334Y580867D01*
X855272Y580821D01*
X855207Y580777D01*
X855141Y580736D01*
X855072Y580699D01*
X855002Y580665D01*
X854930Y580634D01*
X854857Y580607D01*
X854783Y580583D01*
X854708Y580563D01*
X854632Y580547D01*
X854555Y580534D01*
X854478Y580524D01*
X854400Y580519D01*
X854322Y580517D01*
X853504Y580517D01*
X859393Y580517D02*
X861439Y580517D01*
X861528Y580519D01*
X861617Y580525D01*
X861706Y580535D01*
X861794Y580548D01*
X861882Y580565D01*
X861969Y580587D01*
X862054Y580612D01*
X862139Y580640D01*
X862222Y580673D01*
X862304Y580709D01*
X862384Y580748D01*
X862462Y580791D01*
X862538Y580837D01*
X862613Y580887D01*
X862685Y580940D01*
X862754Y580996D01*
X862821Y581055D01*
X862886Y581116D01*
X862947Y581181D01*
X863006Y581248D01*
X863062Y581317D01*
X863115Y581389D01*
X863165Y581464D01*
X863211Y581540D01*
X863254Y581618D01*
X863293Y581698D01*
X863329Y581780D01*
X863362Y581863D01*
X863390Y581948D01*
X863415Y582033D01*
X863437Y582120D01*
X863454Y582208D01*
X863467Y582296D01*
X863477Y582385D01*
X863483Y582474D01*
X863485Y582563D01*
X863483Y582652D01*
X863477Y582741D01*
X863467Y582830D01*
X863454Y582918D01*
X863437Y583006D01*
X863415Y583093D01*
X863390Y583178D01*
X863362Y583263D01*
X863329Y583346D01*
X863293Y583428D01*
X863254Y583508D01*
X863211Y583586D01*
X863165Y583662D01*
X863115Y583737D01*
X863062Y583809D01*
X863006Y583878D01*
X862947Y583945D01*
X862886Y584010D01*
X862821Y584071D01*
X862754Y584130D01*
X862685Y584186D01*
X862613Y584239D01*
X862538Y584289D01*
X862462Y584335D01*
X862384Y584378D01*
X862304Y584417D01*
X862222Y584453D01*
X862139Y584486D01*
X862054Y584514D01*
X861969Y584539D01*
X861882Y584561D01*
X861794Y584578D01*
X861706Y584591D01*
X861617Y584601D01*
X861528Y584607D01*
X861439Y584609D01*
X861849Y587883D02*
X859393Y587883D01*
X861849Y587883D02*
X861928Y587881D01*
X862007Y587875D01*
X862086Y587866D01*
X862164Y587853D01*
X862241Y587835D01*
X862317Y587815D01*
X862392Y587790D01*
X862466Y587762D01*
X862539Y587731D01*
X862610Y587695D01*
X862679Y587657D01*
X862746Y587615D01*
X862811Y587570D01*
X862874Y587522D01*
X862935Y587471D01*
X862992Y587417D01*
X863048Y587361D01*
X863100Y587302D01*
X863150Y587240D01*
X863196Y587176D01*
X863240Y587110D01*
X863280Y587042D01*
X863316Y586972D01*
X863350Y586900D01*
X863380Y586826D01*
X863406Y586752D01*
X863429Y586676D01*
X863447Y586599D01*
X863463Y586522D01*
X863474Y586443D01*
X863482Y586365D01*
X863486Y586286D01*
X863486Y586206D01*
X863482Y586127D01*
X863474Y586049D01*
X863463Y585970D01*
X863447Y585893D01*
X863429Y585816D01*
X863406Y585740D01*
X863380Y585666D01*
X863350Y585592D01*
X863316Y585520D01*
X863280Y585450D01*
X863240Y585382D01*
X863196Y585316D01*
X863150Y585252D01*
X863100Y585190D01*
X863048Y585131D01*
X862992Y585075D01*
X862935Y585021D01*
X862874Y584970D01*
X862811Y584922D01*
X862746Y584877D01*
X862679Y584835D01*
X862610Y584797D01*
X862539Y584761D01*
X862466Y584730D01*
X862392Y584702D01*
X862317Y584677D01*
X862241Y584657D01*
X862164Y584639D01*
X862086Y584626D01*
X862007Y584617D01*
X861928Y584611D01*
X861849Y584609D01*
X860212Y584609D01*
D12*
X758056Y199390D02*
X758058Y199508D01*
X758064Y199626D01*
X758074Y199744D01*
X758088Y199861D01*
X758106Y199978D01*
X758128Y200095D01*
X758153Y200210D01*
X758183Y200324D01*
X758217Y200438D01*
X758254Y200550D01*
X758295Y200661D01*
X758340Y200770D01*
X758388Y200878D01*
X758440Y200984D01*
X758496Y201089D01*
X758555Y201191D01*
X758617Y201291D01*
X758683Y201389D01*
X758752Y201485D01*
X758825Y201579D01*
X758900Y201670D01*
X758979Y201758D01*
X759060Y201844D01*
X759145Y201927D01*
X759232Y202007D01*
X759321Y202084D01*
X759414Y202158D01*
X759508Y202228D01*
X759605Y202296D01*
X759705Y202360D01*
X759806Y202421D01*
X759909Y202478D01*
X760015Y202532D01*
X760122Y202583D01*
X760230Y202629D01*
X760340Y202672D01*
X760452Y202711D01*
X760565Y202747D01*
X760679Y202778D01*
X760794Y202806D01*
X760909Y202830D01*
X761026Y202850D01*
X761143Y202866D01*
X761261Y202878D01*
X761379Y202886D01*
X761497Y202890D01*
X761615Y202890D01*
X761733Y202886D01*
X761851Y202878D01*
X761969Y202866D01*
X762086Y202850D01*
X762203Y202830D01*
X762318Y202806D01*
X762433Y202778D01*
X762547Y202747D01*
X762660Y202711D01*
X762772Y202672D01*
X762882Y202629D01*
X762990Y202583D01*
X763097Y202532D01*
X763203Y202478D01*
X763306Y202421D01*
X763407Y202360D01*
X763507Y202296D01*
X763604Y202228D01*
X763698Y202158D01*
X763791Y202084D01*
X763880Y202007D01*
X763967Y201927D01*
X764052Y201844D01*
X764133Y201758D01*
X764212Y201670D01*
X764287Y201579D01*
X764360Y201485D01*
X764429Y201389D01*
X764495Y201291D01*
X764557Y201191D01*
X764616Y201089D01*
X764672Y200984D01*
X764724Y200878D01*
X764772Y200770D01*
X764817Y200661D01*
X764858Y200550D01*
X764895Y200438D01*
X764929Y200324D01*
X764959Y200210D01*
X764984Y200095D01*
X765006Y199978D01*
X765024Y199861D01*
X765038Y199744D01*
X765048Y199626D01*
X765054Y199508D01*
X765056Y199390D01*
X765054Y199272D01*
X765048Y199154D01*
X765038Y199036D01*
X765024Y198919D01*
X765006Y198802D01*
X764984Y198685D01*
X764959Y198570D01*
X764929Y198456D01*
X764895Y198342D01*
X764858Y198230D01*
X764817Y198119D01*
X764772Y198010D01*
X764724Y197902D01*
X764672Y197796D01*
X764616Y197691D01*
X764557Y197589D01*
X764495Y197489D01*
X764429Y197391D01*
X764360Y197295D01*
X764287Y197201D01*
X764212Y197110D01*
X764133Y197022D01*
X764052Y196936D01*
X763967Y196853D01*
X763880Y196773D01*
X763791Y196696D01*
X763698Y196622D01*
X763604Y196552D01*
X763507Y196484D01*
X763407Y196420D01*
X763306Y196359D01*
X763203Y196302D01*
X763097Y196248D01*
X762990Y196197D01*
X762882Y196151D01*
X762772Y196108D01*
X762660Y196069D01*
X762547Y196033D01*
X762433Y196002D01*
X762318Y195974D01*
X762203Y195950D01*
X762086Y195930D01*
X761969Y195914D01*
X761851Y195902D01*
X761733Y195894D01*
X761615Y195890D01*
X761497Y195890D01*
X761379Y195894D01*
X761261Y195902D01*
X761143Y195914D01*
X761026Y195930D01*
X760909Y195950D01*
X760794Y195974D01*
X760679Y196002D01*
X760565Y196033D01*
X760452Y196069D01*
X760340Y196108D01*
X760230Y196151D01*
X760122Y196197D01*
X760015Y196248D01*
X759909Y196302D01*
X759806Y196359D01*
X759705Y196420D01*
X759605Y196484D01*
X759508Y196552D01*
X759414Y196622D01*
X759321Y196696D01*
X759232Y196773D01*
X759145Y196853D01*
X759060Y196936D01*
X758979Y197022D01*
X758900Y197110D01*
X758825Y197201D01*
X758752Y197295D01*
X758683Y197391D01*
X758617Y197489D01*
X758555Y197589D01*
X758496Y197691D01*
X758440Y197796D01*
X758388Y197902D01*
X758340Y198010D01*
X758295Y198119D01*
X758254Y198230D01*
X758217Y198342D01*
X758183Y198456D01*
X758153Y198570D01*
X758128Y198685D01*
X758106Y198802D01*
X758088Y198919D01*
X758074Y199036D01*
X758064Y199154D01*
X758058Y199272D01*
X758056Y199390D01*
D13*
X774306Y177140D02*
X774308Y177210D01*
X774314Y177280D01*
X774324Y177349D01*
X774337Y177418D01*
X774355Y177486D01*
X774376Y177553D01*
X774401Y177618D01*
X774430Y177682D01*
X774462Y177745D01*
X774498Y177805D01*
X774537Y177863D01*
X774579Y177919D01*
X774624Y177973D01*
X774672Y178024D01*
X774723Y178072D01*
X774777Y178117D01*
X774833Y178159D01*
X774891Y178198D01*
X774951Y178234D01*
X775014Y178266D01*
X775078Y178295D01*
X775143Y178320D01*
X775210Y178341D01*
X775278Y178359D01*
X775347Y178372D01*
X775416Y178382D01*
X775486Y178388D01*
X775556Y178390D01*
X775626Y178388D01*
X775696Y178382D01*
X775765Y178372D01*
X775834Y178359D01*
X775902Y178341D01*
X775969Y178320D01*
X776034Y178295D01*
X776098Y178266D01*
X776161Y178234D01*
X776221Y178198D01*
X776279Y178159D01*
X776335Y178117D01*
X776389Y178072D01*
X776440Y178024D01*
X776488Y177973D01*
X776533Y177919D01*
X776575Y177863D01*
X776614Y177805D01*
X776650Y177745D01*
X776682Y177682D01*
X776711Y177618D01*
X776736Y177553D01*
X776757Y177486D01*
X776775Y177418D01*
X776788Y177349D01*
X776798Y177280D01*
X776804Y177210D01*
X776806Y177140D01*
X776804Y177070D01*
X776798Y177000D01*
X776788Y176931D01*
X776775Y176862D01*
X776757Y176794D01*
X776736Y176727D01*
X776711Y176662D01*
X776682Y176598D01*
X776650Y176535D01*
X776614Y176475D01*
X776575Y176417D01*
X776533Y176361D01*
X776488Y176307D01*
X776440Y176256D01*
X776389Y176208D01*
X776335Y176163D01*
X776279Y176121D01*
X776221Y176082D01*
X776161Y176046D01*
X776098Y176014D01*
X776034Y175985D01*
X775969Y175960D01*
X775902Y175939D01*
X775834Y175921D01*
X775765Y175908D01*
X775696Y175898D01*
X775626Y175892D01*
X775556Y175890D01*
X775486Y175892D01*
X775416Y175898D01*
X775347Y175908D01*
X775278Y175921D01*
X775210Y175939D01*
X775143Y175960D01*
X775078Y175985D01*
X775014Y176014D01*
X774951Y176046D01*
X774891Y176082D01*
X774833Y176121D01*
X774777Y176163D01*
X774723Y176208D01*
X774672Y176256D01*
X774624Y176307D01*
X774579Y176361D01*
X774537Y176417D01*
X774498Y176475D01*
X774462Y176535D01*
X774430Y176598D01*
X774401Y176662D01*
X774376Y176727D01*
X774355Y176794D01*
X774337Y176862D01*
X774324Y176931D01*
X774314Y177000D01*
X774308Y177070D01*
X774306Y177140D01*
D14*
X761556Y182390D02*
X761556Y216390D01*
D11*
X781849Y217424D02*
X781849Y224790D01*
X783895Y224790D01*
X783984Y224788D01*
X784073Y224782D01*
X784162Y224772D01*
X784250Y224759D01*
X784338Y224742D01*
X784425Y224720D01*
X784510Y224695D01*
X784595Y224667D01*
X784678Y224634D01*
X784760Y224598D01*
X784840Y224559D01*
X784918Y224516D01*
X784994Y224470D01*
X785069Y224420D01*
X785141Y224367D01*
X785210Y224311D01*
X785277Y224252D01*
X785342Y224191D01*
X785403Y224126D01*
X785462Y224059D01*
X785518Y223990D01*
X785571Y223918D01*
X785621Y223843D01*
X785667Y223767D01*
X785710Y223689D01*
X785749Y223609D01*
X785785Y223527D01*
X785818Y223444D01*
X785846Y223359D01*
X785871Y223274D01*
X785893Y223187D01*
X785910Y223099D01*
X785923Y223011D01*
X785933Y222922D01*
X785939Y222833D01*
X785941Y222744D01*
X785939Y222655D01*
X785933Y222566D01*
X785923Y222477D01*
X785910Y222389D01*
X785893Y222301D01*
X785871Y222214D01*
X785846Y222129D01*
X785818Y222044D01*
X785785Y221961D01*
X785749Y221879D01*
X785710Y221799D01*
X785667Y221721D01*
X785621Y221645D01*
X785571Y221570D01*
X785518Y221498D01*
X785462Y221429D01*
X785403Y221362D01*
X785342Y221297D01*
X785277Y221236D01*
X785210Y221177D01*
X785141Y221121D01*
X785069Y221068D01*
X784994Y221018D01*
X784918Y220972D01*
X784840Y220929D01*
X784760Y220890D01*
X784678Y220854D01*
X784595Y220821D01*
X784510Y220793D01*
X784425Y220768D01*
X784338Y220746D01*
X784250Y220729D01*
X784162Y220716D01*
X784073Y220706D01*
X783984Y220700D01*
X783895Y220698D01*
X781849Y220698D01*
X784304Y220698D02*
X785941Y217424D01*
X789113Y223153D02*
X791159Y224790D01*
X791159Y217424D01*
X789113Y217424D02*
X793205Y217424D01*
D14*
X838081Y161038D02*
X850081Y161038D01*
D11*
X829326Y184658D02*
X829326Y192024D01*
X828508Y184658D02*
X830145Y184658D01*
X830145Y192024D02*
X828508Y192024D01*
X834746Y184658D02*
X836383Y184658D01*
X834746Y184658D02*
X834668Y184660D01*
X834590Y184665D01*
X834513Y184675D01*
X834436Y184688D01*
X834360Y184704D01*
X834285Y184724D01*
X834211Y184748D01*
X834138Y184775D01*
X834066Y184806D01*
X833996Y184840D01*
X833928Y184877D01*
X833861Y184918D01*
X833796Y184962D01*
X833734Y185008D01*
X833674Y185058D01*
X833616Y185110D01*
X833561Y185165D01*
X833509Y185223D01*
X833459Y185283D01*
X833413Y185345D01*
X833369Y185410D01*
X833328Y185477D01*
X833291Y185545D01*
X833257Y185615D01*
X833226Y185687D01*
X833199Y185760D01*
X833175Y185834D01*
X833155Y185909D01*
X833139Y185985D01*
X833126Y186062D01*
X833116Y186139D01*
X833111Y186217D01*
X833109Y186295D01*
X833109Y190387D01*
X833111Y190467D01*
X833117Y190547D01*
X833127Y190627D01*
X833140Y190706D01*
X833158Y190785D01*
X833179Y190862D01*
X833205Y190938D01*
X833234Y191013D01*
X833266Y191087D01*
X833302Y191159D01*
X833342Y191229D01*
X833385Y191296D01*
X833431Y191362D01*
X833481Y191425D01*
X833533Y191486D01*
X833588Y191545D01*
X833647Y191600D01*
X833707Y191652D01*
X833771Y191702D01*
X833837Y191748D01*
X833904Y191791D01*
X833974Y191831D01*
X834046Y191867D01*
X834120Y191899D01*
X834194Y191928D01*
X834271Y191954D01*
X834348Y191975D01*
X834427Y191993D01*
X834506Y192006D01*
X834586Y192016D01*
X834666Y192022D01*
X834746Y192024D01*
X836383Y192024D01*
X839228Y184658D02*
X841683Y184658D01*
X841761Y184660D01*
X841839Y184665D01*
X841916Y184675D01*
X841993Y184688D01*
X842069Y184704D01*
X842144Y184724D01*
X842218Y184748D01*
X842291Y184775D01*
X842363Y184806D01*
X842433Y184840D01*
X842502Y184877D01*
X842568Y184918D01*
X842633Y184962D01*
X842695Y185008D01*
X842755Y185058D01*
X842813Y185110D01*
X842868Y185165D01*
X842920Y185223D01*
X842970Y185283D01*
X843016Y185345D01*
X843060Y185410D01*
X843101Y185477D01*
X843138Y185545D01*
X843172Y185615D01*
X843203Y185687D01*
X843230Y185760D01*
X843254Y185834D01*
X843274Y185909D01*
X843290Y185985D01*
X843303Y186062D01*
X843313Y186139D01*
X843318Y186217D01*
X843320Y186295D01*
X843320Y187113D01*
X843318Y187191D01*
X843313Y187269D01*
X843303Y187346D01*
X843290Y187423D01*
X843274Y187499D01*
X843254Y187574D01*
X843230Y187648D01*
X843203Y187721D01*
X843172Y187793D01*
X843138Y187863D01*
X843101Y187932D01*
X843060Y187998D01*
X843016Y188063D01*
X842970Y188125D01*
X842920Y188185D01*
X842868Y188243D01*
X842813Y188298D01*
X842755Y188350D01*
X842695Y188400D01*
X842633Y188446D01*
X842568Y188490D01*
X842502Y188531D01*
X842433Y188568D01*
X842363Y188602D01*
X842291Y188633D01*
X842218Y188660D01*
X842144Y188684D01*
X842069Y188704D01*
X841993Y188720D01*
X841916Y188733D01*
X841839Y188743D01*
X841761Y188748D01*
X841683Y188750D01*
X839228Y188750D01*
X839228Y192024D01*
X843320Y192024D01*
D14*
X838144Y262511D02*
X850144Y262511D01*
D11*
X829390Y286131D02*
X829390Y293497D01*
X828571Y286131D02*
X830208Y286131D01*
X830208Y293497D02*
X828571Y293497D01*
X834809Y286131D02*
X836446Y286131D01*
X834809Y286131D02*
X834731Y286133D01*
X834653Y286138D01*
X834576Y286148D01*
X834499Y286161D01*
X834423Y286177D01*
X834348Y286197D01*
X834274Y286221D01*
X834201Y286248D01*
X834129Y286279D01*
X834059Y286313D01*
X833991Y286350D01*
X833924Y286391D01*
X833859Y286435D01*
X833797Y286481D01*
X833737Y286531D01*
X833679Y286583D01*
X833624Y286638D01*
X833572Y286696D01*
X833522Y286756D01*
X833476Y286818D01*
X833432Y286883D01*
X833391Y286950D01*
X833354Y287018D01*
X833320Y287088D01*
X833289Y287160D01*
X833262Y287233D01*
X833238Y287307D01*
X833218Y287382D01*
X833202Y287458D01*
X833189Y287535D01*
X833179Y287612D01*
X833174Y287690D01*
X833172Y287768D01*
X833173Y287768D02*
X833173Y291860D01*
X833172Y291860D02*
X833174Y291940D01*
X833180Y292020D01*
X833190Y292100D01*
X833203Y292179D01*
X833221Y292258D01*
X833242Y292335D01*
X833268Y292411D01*
X833297Y292486D01*
X833329Y292560D01*
X833365Y292632D01*
X833405Y292702D01*
X833448Y292769D01*
X833494Y292835D01*
X833544Y292898D01*
X833596Y292959D01*
X833651Y293018D01*
X833710Y293073D01*
X833770Y293125D01*
X833834Y293175D01*
X833900Y293221D01*
X833967Y293264D01*
X834037Y293304D01*
X834109Y293340D01*
X834183Y293372D01*
X834257Y293401D01*
X834334Y293427D01*
X834411Y293448D01*
X834490Y293466D01*
X834569Y293479D01*
X834649Y293489D01*
X834729Y293495D01*
X834809Y293497D01*
X836446Y293497D01*
X840929Y293497D02*
X839292Y287768D01*
X843384Y287768D01*
X842156Y289405D02*
X842156Y286131D01*
D12*
X758246Y249809D02*
X758248Y249927D01*
X758254Y250045D01*
X758264Y250163D01*
X758278Y250280D01*
X758296Y250397D01*
X758318Y250514D01*
X758343Y250629D01*
X758373Y250743D01*
X758407Y250857D01*
X758444Y250969D01*
X758485Y251080D01*
X758530Y251189D01*
X758578Y251297D01*
X758630Y251403D01*
X758686Y251508D01*
X758745Y251610D01*
X758807Y251710D01*
X758873Y251808D01*
X758942Y251904D01*
X759015Y251998D01*
X759090Y252089D01*
X759169Y252177D01*
X759250Y252263D01*
X759335Y252346D01*
X759422Y252426D01*
X759511Y252503D01*
X759604Y252577D01*
X759698Y252647D01*
X759795Y252715D01*
X759895Y252779D01*
X759996Y252840D01*
X760099Y252897D01*
X760205Y252951D01*
X760312Y253002D01*
X760420Y253048D01*
X760530Y253091D01*
X760642Y253130D01*
X760755Y253166D01*
X760869Y253197D01*
X760984Y253225D01*
X761099Y253249D01*
X761216Y253269D01*
X761333Y253285D01*
X761451Y253297D01*
X761569Y253305D01*
X761687Y253309D01*
X761805Y253309D01*
X761923Y253305D01*
X762041Y253297D01*
X762159Y253285D01*
X762276Y253269D01*
X762393Y253249D01*
X762508Y253225D01*
X762623Y253197D01*
X762737Y253166D01*
X762850Y253130D01*
X762962Y253091D01*
X763072Y253048D01*
X763180Y253002D01*
X763287Y252951D01*
X763393Y252897D01*
X763496Y252840D01*
X763597Y252779D01*
X763697Y252715D01*
X763794Y252647D01*
X763888Y252577D01*
X763981Y252503D01*
X764070Y252426D01*
X764157Y252346D01*
X764242Y252263D01*
X764323Y252177D01*
X764402Y252089D01*
X764477Y251998D01*
X764550Y251904D01*
X764619Y251808D01*
X764685Y251710D01*
X764747Y251610D01*
X764806Y251508D01*
X764862Y251403D01*
X764914Y251297D01*
X764962Y251189D01*
X765007Y251080D01*
X765048Y250969D01*
X765085Y250857D01*
X765119Y250743D01*
X765149Y250629D01*
X765174Y250514D01*
X765196Y250397D01*
X765214Y250280D01*
X765228Y250163D01*
X765238Y250045D01*
X765244Y249927D01*
X765246Y249809D01*
X765244Y249691D01*
X765238Y249573D01*
X765228Y249455D01*
X765214Y249338D01*
X765196Y249221D01*
X765174Y249104D01*
X765149Y248989D01*
X765119Y248875D01*
X765085Y248761D01*
X765048Y248649D01*
X765007Y248538D01*
X764962Y248429D01*
X764914Y248321D01*
X764862Y248215D01*
X764806Y248110D01*
X764747Y248008D01*
X764685Y247908D01*
X764619Y247810D01*
X764550Y247714D01*
X764477Y247620D01*
X764402Y247529D01*
X764323Y247441D01*
X764242Y247355D01*
X764157Y247272D01*
X764070Y247192D01*
X763981Y247115D01*
X763888Y247041D01*
X763794Y246971D01*
X763697Y246903D01*
X763597Y246839D01*
X763496Y246778D01*
X763393Y246721D01*
X763287Y246667D01*
X763180Y246616D01*
X763072Y246570D01*
X762962Y246527D01*
X762850Y246488D01*
X762737Y246452D01*
X762623Y246421D01*
X762508Y246393D01*
X762393Y246369D01*
X762276Y246349D01*
X762159Y246333D01*
X762041Y246321D01*
X761923Y246313D01*
X761805Y246309D01*
X761687Y246309D01*
X761569Y246313D01*
X761451Y246321D01*
X761333Y246333D01*
X761216Y246349D01*
X761099Y246369D01*
X760984Y246393D01*
X760869Y246421D01*
X760755Y246452D01*
X760642Y246488D01*
X760530Y246527D01*
X760420Y246570D01*
X760312Y246616D01*
X760205Y246667D01*
X760099Y246721D01*
X759996Y246778D01*
X759895Y246839D01*
X759795Y246903D01*
X759698Y246971D01*
X759604Y247041D01*
X759511Y247115D01*
X759422Y247192D01*
X759335Y247272D01*
X759250Y247355D01*
X759169Y247441D01*
X759090Y247529D01*
X759015Y247620D01*
X758942Y247714D01*
X758873Y247810D01*
X758807Y247908D01*
X758745Y248008D01*
X758686Y248110D01*
X758630Y248215D01*
X758578Y248321D01*
X758530Y248429D01*
X758485Y248538D01*
X758444Y248649D01*
X758407Y248761D01*
X758373Y248875D01*
X758343Y248989D01*
X758318Y249104D01*
X758296Y249221D01*
X758278Y249338D01*
X758264Y249455D01*
X758254Y249573D01*
X758248Y249691D01*
X758246Y249809D01*
D13*
X774496Y227559D02*
X774498Y227629D01*
X774504Y227699D01*
X774514Y227768D01*
X774527Y227837D01*
X774545Y227905D01*
X774566Y227972D01*
X774591Y228037D01*
X774620Y228101D01*
X774652Y228164D01*
X774688Y228224D01*
X774727Y228282D01*
X774769Y228338D01*
X774814Y228392D01*
X774862Y228443D01*
X774913Y228491D01*
X774967Y228536D01*
X775023Y228578D01*
X775081Y228617D01*
X775141Y228653D01*
X775204Y228685D01*
X775268Y228714D01*
X775333Y228739D01*
X775400Y228760D01*
X775468Y228778D01*
X775537Y228791D01*
X775606Y228801D01*
X775676Y228807D01*
X775746Y228809D01*
X775816Y228807D01*
X775886Y228801D01*
X775955Y228791D01*
X776024Y228778D01*
X776092Y228760D01*
X776159Y228739D01*
X776224Y228714D01*
X776288Y228685D01*
X776351Y228653D01*
X776411Y228617D01*
X776469Y228578D01*
X776525Y228536D01*
X776579Y228491D01*
X776630Y228443D01*
X776678Y228392D01*
X776723Y228338D01*
X776765Y228282D01*
X776804Y228224D01*
X776840Y228164D01*
X776872Y228101D01*
X776901Y228037D01*
X776926Y227972D01*
X776947Y227905D01*
X776965Y227837D01*
X776978Y227768D01*
X776988Y227699D01*
X776994Y227629D01*
X776996Y227559D01*
X776994Y227489D01*
X776988Y227419D01*
X776978Y227350D01*
X776965Y227281D01*
X776947Y227213D01*
X776926Y227146D01*
X776901Y227081D01*
X776872Y227017D01*
X776840Y226954D01*
X776804Y226894D01*
X776765Y226836D01*
X776723Y226780D01*
X776678Y226726D01*
X776630Y226675D01*
X776579Y226627D01*
X776525Y226582D01*
X776469Y226540D01*
X776411Y226501D01*
X776351Y226465D01*
X776288Y226433D01*
X776224Y226404D01*
X776159Y226379D01*
X776092Y226358D01*
X776024Y226340D01*
X775955Y226327D01*
X775886Y226317D01*
X775816Y226311D01*
X775746Y226309D01*
X775676Y226311D01*
X775606Y226317D01*
X775537Y226327D01*
X775468Y226340D01*
X775400Y226358D01*
X775333Y226379D01*
X775268Y226404D01*
X775204Y226433D01*
X775141Y226465D01*
X775081Y226501D01*
X775023Y226540D01*
X774967Y226582D01*
X774913Y226627D01*
X774862Y226675D01*
X774814Y226726D01*
X774769Y226780D01*
X774727Y226836D01*
X774688Y226894D01*
X774652Y226954D01*
X774620Y227017D01*
X774591Y227081D01*
X774566Y227146D01*
X774545Y227213D01*
X774527Y227281D01*
X774514Y227350D01*
X774504Y227419D01*
X774498Y227489D01*
X774496Y227559D01*
D14*
X761746Y232809D02*
X761746Y266809D01*
D11*
X782039Y267843D02*
X782039Y275209D01*
X784085Y275209D01*
X784174Y275207D01*
X784263Y275201D01*
X784352Y275191D01*
X784440Y275178D01*
X784528Y275161D01*
X784615Y275139D01*
X784700Y275114D01*
X784785Y275086D01*
X784868Y275053D01*
X784950Y275017D01*
X785030Y274978D01*
X785108Y274935D01*
X785184Y274889D01*
X785259Y274839D01*
X785331Y274786D01*
X785400Y274730D01*
X785467Y274671D01*
X785532Y274610D01*
X785593Y274545D01*
X785652Y274478D01*
X785708Y274409D01*
X785761Y274337D01*
X785811Y274262D01*
X785857Y274186D01*
X785900Y274108D01*
X785939Y274028D01*
X785975Y273946D01*
X786008Y273863D01*
X786036Y273778D01*
X786061Y273693D01*
X786083Y273606D01*
X786100Y273518D01*
X786113Y273430D01*
X786123Y273341D01*
X786129Y273252D01*
X786131Y273163D01*
X786129Y273074D01*
X786123Y272985D01*
X786113Y272896D01*
X786100Y272808D01*
X786083Y272720D01*
X786061Y272633D01*
X786036Y272548D01*
X786008Y272463D01*
X785975Y272380D01*
X785939Y272298D01*
X785900Y272218D01*
X785857Y272140D01*
X785811Y272064D01*
X785761Y271989D01*
X785708Y271917D01*
X785652Y271848D01*
X785593Y271781D01*
X785532Y271716D01*
X785467Y271655D01*
X785400Y271596D01*
X785331Y271540D01*
X785259Y271487D01*
X785184Y271437D01*
X785108Y271391D01*
X785030Y271348D01*
X784950Y271309D01*
X784868Y271273D01*
X784785Y271240D01*
X784700Y271212D01*
X784615Y271187D01*
X784528Y271165D01*
X784440Y271148D01*
X784352Y271135D01*
X784263Y271125D01*
X784174Y271119D01*
X784085Y271117D01*
X782039Y271117D01*
X784495Y271117D02*
X786132Y267843D01*
X793396Y273368D02*
X793394Y273453D01*
X793388Y273538D01*
X793378Y273622D01*
X793365Y273706D01*
X793347Y273790D01*
X793326Y273872D01*
X793301Y273953D01*
X793272Y274033D01*
X793239Y274112D01*
X793203Y274189D01*
X793163Y274264D01*
X793120Y274338D01*
X793074Y274409D01*
X793024Y274478D01*
X792971Y274545D01*
X792915Y274609D01*
X792856Y274670D01*
X792795Y274729D01*
X792731Y274785D01*
X792664Y274838D01*
X792595Y274888D01*
X792524Y274934D01*
X792450Y274977D01*
X792375Y275017D01*
X792298Y275053D01*
X792219Y275086D01*
X792139Y275115D01*
X792058Y275140D01*
X791976Y275161D01*
X791892Y275179D01*
X791808Y275192D01*
X791724Y275202D01*
X791639Y275208D01*
X791554Y275210D01*
X791554Y275209D02*
X791458Y275207D01*
X791362Y275201D01*
X791267Y275191D01*
X791172Y275178D01*
X791077Y275160D01*
X790984Y275139D01*
X790891Y275114D01*
X790800Y275085D01*
X790709Y275053D01*
X790620Y275017D01*
X790533Y274977D01*
X790447Y274934D01*
X790363Y274888D01*
X790281Y274838D01*
X790201Y274784D01*
X790124Y274728D01*
X790049Y274668D01*
X789976Y274606D01*
X789906Y274540D01*
X789838Y274472D01*
X789773Y274401D01*
X789712Y274328D01*
X789653Y274252D01*
X789597Y274173D01*
X789545Y274093D01*
X789496Y274010D01*
X789450Y273926D01*
X789408Y273840D01*
X789370Y273752D01*
X789335Y273663D01*
X789303Y273572D01*
X792782Y271936D02*
X792842Y271995D01*
X792899Y272057D01*
X792954Y272121D01*
X793005Y272188D01*
X793054Y272257D01*
X793100Y272327D01*
X793143Y272400D01*
X793183Y272474D01*
X793219Y272550D01*
X793252Y272628D01*
X793282Y272707D01*
X793309Y272787D01*
X793332Y272868D01*
X793351Y272950D01*
X793367Y273032D01*
X793380Y273116D01*
X793389Y273200D01*
X793394Y273284D01*
X793396Y273368D01*
X792782Y271935D02*
X789303Y267843D01*
X793396Y267843D01*
D14*
X838208Y211457D02*
X850208Y211457D01*
D11*
X829453Y235077D02*
X829453Y242443D01*
X828635Y235077D02*
X830272Y235077D01*
X830272Y242443D02*
X828635Y242443D01*
X834873Y235077D02*
X836510Y235077D01*
X834873Y235077D02*
X834795Y235079D01*
X834717Y235084D01*
X834640Y235094D01*
X834563Y235107D01*
X834487Y235123D01*
X834412Y235143D01*
X834338Y235167D01*
X834265Y235194D01*
X834193Y235225D01*
X834123Y235259D01*
X834055Y235296D01*
X833988Y235337D01*
X833923Y235381D01*
X833861Y235427D01*
X833801Y235477D01*
X833743Y235529D01*
X833688Y235584D01*
X833636Y235642D01*
X833586Y235702D01*
X833540Y235764D01*
X833496Y235829D01*
X833455Y235896D01*
X833418Y235964D01*
X833384Y236034D01*
X833353Y236106D01*
X833326Y236179D01*
X833302Y236253D01*
X833282Y236328D01*
X833266Y236404D01*
X833253Y236481D01*
X833243Y236558D01*
X833238Y236636D01*
X833236Y236714D01*
X833236Y240806D01*
X833238Y240886D01*
X833244Y240966D01*
X833254Y241046D01*
X833267Y241125D01*
X833285Y241204D01*
X833306Y241281D01*
X833332Y241357D01*
X833361Y241432D01*
X833393Y241506D01*
X833429Y241578D01*
X833469Y241648D01*
X833512Y241715D01*
X833558Y241781D01*
X833608Y241844D01*
X833660Y241905D01*
X833715Y241964D01*
X833774Y242019D01*
X833834Y242071D01*
X833898Y242121D01*
X833964Y242167D01*
X834031Y242210D01*
X834101Y242250D01*
X834173Y242286D01*
X834247Y242318D01*
X834321Y242347D01*
X834398Y242373D01*
X834475Y242394D01*
X834554Y242412D01*
X834633Y242425D01*
X834713Y242435D01*
X834793Y242441D01*
X834873Y242443D01*
X836510Y242443D01*
X839355Y239169D02*
X841810Y239169D01*
X841888Y239167D01*
X841966Y239162D01*
X842043Y239152D01*
X842120Y239139D01*
X842196Y239123D01*
X842271Y239103D01*
X842345Y239079D01*
X842418Y239052D01*
X842490Y239021D01*
X842560Y238987D01*
X842629Y238950D01*
X842695Y238909D01*
X842760Y238865D01*
X842822Y238819D01*
X842882Y238769D01*
X842940Y238717D01*
X842995Y238662D01*
X843047Y238604D01*
X843097Y238544D01*
X843143Y238482D01*
X843187Y238417D01*
X843228Y238351D01*
X843265Y238282D01*
X843299Y238212D01*
X843330Y238140D01*
X843357Y238067D01*
X843381Y237993D01*
X843401Y237918D01*
X843417Y237842D01*
X843430Y237765D01*
X843440Y237688D01*
X843445Y237610D01*
X843447Y237532D01*
X843447Y237123D01*
X843445Y237034D01*
X843439Y236945D01*
X843429Y236856D01*
X843416Y236768D01*
X843399Y236680D01*
X843377Y236593D01*
X843352Y236508D01*
X843324Y236423D01*
X843291Y236340D01*
X843255Y236258D01*
X843216Y236178D01*
X843173Y236100D01*
X843127Y236024D01*
X843077Y235949D01*
X843024Y235877D01*
X842968Y235808D01*
X842909Y235741D01*
X842848Y235676D01*
X842783Y235615D01*
X842716Y235556D01*
X842647Y235500D01*
X842575Y235447D01*
X842500Y235397D01*
X842424Y235351D01*
X842346Y235308D01*
X842266Y235269D01*
X842184Y235233D01*
X842101Y235200D01*
X842016Y235172D01*
X841931Y235147D01*
X841844Y235125D01*
X841756Y235108D01*
X841668Y235095D01*
X841579Y235085D01*
X841490Y235079D01*
X841401Y235077D01*
X841312Y235079D01*
X841223Y235085D01*
X841134Y235095D01*
X841046Y235108D01*
X840958Y235125D01*
X840871Y235147D01*
X840786Y235172D01*
X840701Y235200D01*
X840618Y235233D01*
X840536Y235269D01*
X840456Y235308D01*
X840378Y235351D01*
X840302Y235397D01*
X840227Y235447D01*
X840155Y235500D01*
X840086Y235556D01*
X840019Y235615D01*
X839954Y235676D01*
X839893Y235741D01*
X839834Y235808D01*
X839778Y235877D01*
X839725Y235949D01*
X839675Y236024D01*
X839629Y236100D01*
X839586Y236178D01*
X839547Y236258D01*
X839511Y236340D01*
X839478Y236423D01*
X839450Y236508D01*
X839425Y236593D01*
X839403Y236680D01*
X839386Y236768D01*
X839373Y236856D01*
X839363Y236945D01*
X839357Y237034D01*
X839355Y237123D01*
X839355Y239169D01*
X839357Y239283D01*
X839363Y239397D01*
X839373Y239511D01*
X839387Y239625D01*
X839405Y239738D01*
X839427Y239850D01*
X839452Y239961D01*
X839482Y240071D01*
X839515Y240181D01*
X839552Y240289D01*
X839593Y240395D01*
X839638Y240501D01*
X839686Y240604D01*
X839738Y240706D01*
X839794Y240806D01*
X839852Y240904D01*
X839915Y241000D01*
X839980Y241093D01*
X840049Y241185D01*
X840121Y241273D01*
X840196Y241360D01*
X840274Y241443D01*
X840355Y241524D01*
X840438Y241602D01*
X840525Y241677D01*
X840613Y241749D01*
X840705Y241818D01*
X840798Y241883D01*
X840894Y241945D01*
X840992Y242004D01*
X841092Y242060D01*
X841194Y242112D01*
X841297Y242160D01*
X841403Y242205D01*
X841509Y242246D01*
X841617Y242283D01*
X841727Y242316D01*
X841837Y242346D01*
X841948Y242371D01*
X842060Y242393D01*
X842173Y242411D01*
X842287Y242425D01*
X842401Y242435D01*
X842515Y242441D01*
X842629Y242443D01*
D14*
X838208Y313374D02*
X850208Y313374D01*
D11*
X829453Y336995D02*
X829453Y344361D01*
X828635Y336995D02*
X830272Y336995D01*
X830272Y344361D02*
X828635Y344361D01*
X834873Y336995D02*
X836510Y336995D01*
X834873Y336994D02*
X834795Y336996D01*
X834717Y337001D01*
X834640Y337011D01*
X834563Y337024D01*
X834487Y337040D01*
X834412Y337060D01*
X834338Y337084D01*
X834265Y337111D01*
X834193Y337142D01*
X834123Y337176D01*
X834055Y337213D01*
X833988Y337254D01*
X833923Y337298D01*
X833861Y337344D01*
X833801Y337394D01*
X833743Y337446D01*
X833688Y337501D01*
X833636Y337559D01*
X833586Y337619D01*
X833540Y337681D01*
X833496Y337746D01*
X833455Y337813D01*
X833418Y337881D01*
X833384Y337951D01*
X833353Y338023D01*
X833326Y338096D01*
X833302Y338170D01*
X833282Y338245D01*
X833266Y338321D01*
X833253Y338398D01*
X833243Y338475D01*
X833238Y338553D01*
X833236Y338631D01*
X833236Y342724D01*
X833238Y342804D01*
X833244Y342884D01*
X833254Y342964D01*
X833267Y343043D01*
X833285Y343122D01*
X833306Y343199D01*
X833332Y343275D01*
X833361Y343350D01*
X833393Y343424D01*
X833429Y343496D01*
X833469Y343566D01*
X833512Y343633D01*
X833558Y343699D01*
X833608Y343762D01*
X833660Y343823D01*
X833715Y343882D01*
X833774Y343937D01*
X833834Y343989D01*
X833898Y344039D01*
X833964Y344085D01*
X834031Y344128D01*
X834101Y344168D01*
X834173Y344204D01*
X834247Y344236D01*
X834321Y344265D01*
X834398Y344291D01*
X834475Y344312D01*
X834554Y344330D01*
X834633Y344343D01*
X834713Y344353D01*
X834793Y344359D01*
X834873Y344361D01*
X836510Y344361D01*
X839355Y339041D02*
X839357Y339130D01*
X839363Y339219D01*
X839373Y339308D01*
X839386Y339396D01*
X839403Y339484D01*
X839425Y339571D01*
X839450Y339656D01*
X839478Y339741D01*
X839511Y339824D01*
X839547Y339906D01*
X839586Y339986D01*
X839629Y340064D01*
X839675Y340140D01*
X839725Y340215D01*
X839778Y340287D01*
X839834Y340356D01*
X839893Y340423D01*
X839954Y340488D01*
X840019Y340549D01*
X840086Y340608D01*
X840155Y340664D01*
X840227Y340717D01*
X840302Y340767D01*
X840378Y340813D01*
X840456Y340856D01*
X840536Y340895D01*
X840618Y340931D01*
X840701Y340964D01*
X840786Y340992D01*
X840871Y341017D01*
X840958Y341039D01*
X841046Y341056D01*
X841134Y341069D01*
X841223Y341079D01*
X841312Y341085D01*
X841401Y341087D01*
X841490Y341085D01*
X841579Y341079D01*
X841668Y341069D01*
X841756Y341056D01*
X841844Y341039D01*
X841931Y341017D01*
X842016Y340992D01*
X842101Y340964D01*
X842184Y340931D01*
X842266Y340895D01*
X842346Y340856D01*
X842424Y340813D01*
X842500Y340767D01*
X842575Y340717D01*
X842647Y340664D01*
X842716Y340608D01*
X842783Y340549D01*
X842848Y340488D01*
X842909Y340423D01*
X842968Y340356D01*
X843024Y340287D01*
X843077Y340215D01*
X843127Y340140D01*
X843173Y340064D01*
X843216Y339986D01*
X843255Y339906D01*
X843291Y339824D01*
X843324Y339741D01*
X843352Y339656D01*
X843377Y339571D01*
X843399Y339484D01*
X843416Y339396D01*
X843429Y339308D01*
X843439Y339219D01*
X843445Y339130D01*
X843447Y339041D01*
X843445Y338952D01*
X843439Y338863D01*
X843429Y338774D01*
X843416Y338686D01*
X843399Y338598D01*
X843377Y338511D01*
X843352Y338426D01*
X843324Y338341D01*
X843291Y338258D01*
X843255Y338176D01*
X843216Y338096D01*
X843173Y338018D01*
X843127Y337942D01*
X843077Y337867D01*
X843024Y337795D01*
X842968Y337726D01*
X842909Y337659D01*
X842848Y337594D01*
X842783Y337533D01*
X842716Y337474D01*
X842647Y337418D01*
X842575Y337365D01*
X842500Y337315D01*
X842424Y337269D01*
X842346Y337226D01*
X842266Y337187D01*
X842184Y337151D01*
X842101Y337118D01*
X842016Y337090D01*
X841931Y337065D01*
X841844Y337043D01*
X841756Y337026D01*
X841668Y337013D01*
X841579Y337003D01*
X841490Y336997D01*
X841401Y336995D01*
X841312Y336997D01*
X841223Y337003D01*
X841134Y337013D01*
X841046Y337026D01*
X840958Y337043D01*
X840871Y337065D01*
X840786Y337090D01*
X840701Y337118D01*
X840618Y337151D01*
X840536Y337187D01*
X840456Y337226D01*
X840378Y337269D01*
X840302Y337315D01*
X840227Y337365D01*
X840155Y337418D01*
X840086Y337474D01*
X840019Y337533D01*
X839954Y337594D01*
X839893Y337659D01*
X839834Y337726D01*
X839778Y337795D01*
X839725Y337867D01*
X839675Y337942D01*
X839629Y338018D01*
X839586Y338096D01*
X839547Y338176D01*
X839511Y338258D01*
X839478Y338341D01*
X839450Y338426D01*
X839425Y338511D01*
X839403Y338598D01*
X839386Y338686D01*
X839373Y338774D01*
X839363Y338863D01*
X839357Y338952D01*
X839355Y339041D01*
X839764Y342724D02*
X839766Y342803D01*
X839772Y342882D01*
X839781Y342961D01*
X839794Y343039D01*
X839812Y343116D01*
X839832Y343192D01*
X839857Y343267D01*
X839885Y343341D01*
X839916Y343414D01*
X839952Y343485D01*
X839990Y343554D01*
X840032Y343621D01*
X840077Y343686D01*
X840125Y343749D01*
X840176Y343810D01*
X840230Y343867D01*
X840286Y343923D01*
X840345Y343975D01*
X840407Y344025D01*
X840471Y344071D01*
X840537Y344115D01*
X840605Y344155D01*
X840675Y344191D01*
X840747Y344225D01*
X840821Y344255D01*
X840895Y344281D01*
X840971Y344304D01*
X841048Y344322D01*
X841125Y344338D01*
X841204Y344349D01*
X841282Y344357D01*
X841361Y344361D01*
X841441Y344361D01*
X841520Y344357D01*
X841598Y344349D01*
X841677Y344338D01*
X841754Y344322D01*
X841831Y344304D01*
X841907Y344281D01*
X841981Y344255D01*
X842055Y344225D01*
X842127Y344191D01*
X842197Y344155D01*
X842265Y344115D01*
X842331Y344071D01*
X842395Y344025D01*
X842457Y343975D01*
X842516Y343923D01*
X842572Y343867D01*
X842626Y343810D01*
X842677Y343749D01*
X842725Y343686D01*
X842770Y343621D01*
X842812Y343554D01*
X842850Y343485D01*
X842886Y343414D01*
X842917Y343341D01*
X842945Y343267D01*
X842970Y343192D01*
X842990Y343116D01*
X843008Y343039D01*
X843021Y342961D01*
X843030Y342882D01*
X843036Y342803D01*
X843038Y342724D01*
X843036Y342645D01*
X843030Y342566D01*
X843021Y342487D01*
X843008Y342409D01*
X842990Y342332D01*
X842970Y342256D01*
X842945Y342181D01*
X842917Y342107D01*
X842886Y342034D01*
X842850Y341963D01*
X842812Y341894D01*
X842770Y341827D01*
X842725Y341762D01*
X842677Y341699D01*
X842626Y341638D01*
X842572Y341581D01*
X842516Y341525D01*
X842457Y341473D01*
X842395Y341423D01*
X842331Y341377D01*
X842265Y341333D01*
X842197Y341293D01*
X842127Y341257D01*
X842055Y341223D01*
X841981Y341193D01*
X841907Y341167D01*
X841831Y341144D01*
X841754Y341126D01*
X841677Y341110D01*
X841598Y341099D01*
X841520Y341091D01*
X841441Y341087D01*
X841361Y341087D01*
X841282Y341091D01*
X841204Y341099D01*
X841125Y341110D01*
X841048Y341126D01*
X840971Y341144D01*
X840895Y341167D01*
X840821Y341193D01*
X840747Y341223D01*
X840675Y341257D01*
X840605Y341293D01*
X840537Y341333D01*
X840471Y341377D01*
X840407Y341423D01*
X840345Y341473D01*
X840286Y341525D01*
X840230Y341581D01*
X840176Y341638D01*
X840125Y341699D01*
X840077Y341762D01*
X840032Y341827D01*
X839990Y341894D01*
X839952Y341963D01*
X839916Y342034D01*
X839885Y342107D01*
X839857Y342181D01*
X839832Y342256D01*
X839812Y342332D01*
X839794Y342409D01*
X839781Y342487D01*
X839772Y342566D01*
X839766Y342645D01*
X839764Y342724D01*
D12*
X758437Y301181D02*
X758439Y301299D01*
X758445Y301417D01*
X758455Y301535D01*
X758469Y301652D01*
X758487Y301769D01*
X758509Y301886D01*
X758534Y302001D01*
X758564Y302115D01*
X758598Y302229D01*
X758635Y302341D01*
X758676Y302452D01*
X758721Y302561D01*
X758769Y302669D01*
X758821Y302775D01*
X758877Y302880D01*
X758936Y302982D01*
X758998Y303082D01*
X759064Y303180D01*
X759133Y303276D01*
X759206Y303370D01*
X759281Y303461D01*
X759360Y303549D01*
X759441Y303635D01*
X759526Y303718D01*
X759613Y303798D01*
X759702Y303875D01*
X759795Y303949D01*
X759889Y304019D01*
X759986Y304087D01*
X760086Y304151D01*
X760187Y304212D01*
X760290Y304269D01*
X760396Y304323D01*
X760503Y304374D01*
X760611Y304420D01*
X760721Y304463D01*
X760833Y304502D01*
X760946Y304538D01*
X761060Y304569D01*
X761175Y304597D01*
X761290Y304621D01*
X761407Y304641D01*
X761524Y304657D01*
X761642Y304669D01*
X761760Y304677D01*
X761878Y304681D01*
X761996Y304681D01*
X762114Y304677D01*
X762232Y304669D01*
X762350Y304657D01*
X762467Y304641D01*
X762584Y304621D01*
X762699Y304597D01*
X762814Y304569D01*
X762928Y304538D01*
X763041Y304502D01*
X763153Y304463D01*
X763263Y304420D01*
X763371Y304374D01*
X763478Y304323D01*
X763584Y304269D01*
X763687Y304212D01*
X763788Y304151D01*
X763888Y304087D01*
X763985Y304019D01*
X764079Y303949D01*
X764172Y303875D01*
X764261Y303798D01*
X764348Y303718D01*
X764433Y303635D01*
X764514Y303549D01*
X764593Y303461D01*
X764668Y303370D01*
X764741Y303276D01*
X764810Y303180D01*
X764876Y303082D01*
X764938Y302982D01*
X764997Y302880D01*
X765053Y302775D01*
X765105Y302669D01*
X765153Y302561D01*
X765198Y302452D01*
X765239Y302341D01*
X765276Y302229D01*
X765310Y302115D01*
X765340Y302001D01*
X765365Y301886D01*
X765387Y301769D01*
X765405Y301652D01*
X765419Y301535D01*
X765429Y301417D01*
X765435Y301299D01*
X765437Y301181D01*
X765435Y301063D01*
X765429Y300945D01*
X765419Y300827D01*
X765405Y300710D01*
X765387Y300593D01*
X765365Y300476D01*
X765340Y300361D01*
X765310Y300247D01*
X765276Y300133D01*
X765239Y300021D01*
X765198Y299910D01*
X765153Y299801D01*
X765105Y299693D01*
X765053Y299587D01*
X764997Y299482D01*
X764938Y299380D01*
X764876Y299280D01*
X764810Y299182D01*
X764741Y299086D01*
X764668Y298992D01*
X764593Y298901D01*
X764514Y298813D01*
X764433Y298727D01*
X764348Y298644D01*
X764261Y298564D01*
X764172Y298487D01*
X764079Y298413D01*
X763985Y298343D01*
X763888Y298275D01*
X763788Y298211D01*
X763687Y298150D01*
X763584Y298093D01*
X763478Y298039D01*
X763371Y297988D01*
X763263Y297942D01*
X763153Y297899D01*
X763041Y297860D01*
X762928Y297824D01*
X762814Y297793D01*
X762699Y297765D01*
X762584Y297741D01*
X762467Y297721D01*
X762350Y297705D01*
X762232Y297693D01*
X762114Y297685D01*
X761996Y297681D01*
X761878Y297681D01*
X761760Y297685D01*
X761642Y297693D01*
X761524Y297705D01*
X761407Y297721D01*
X761290Y297741D01*
X761175Y297765D01*
X761060Y297793D01*
X760946Y297824D01*
X760833Y297860D01*
X760721Y297899D01*
X760611Y297942D01*
X760503Y297988D01*
X760396Y298039D01*
X760290Y298093D01*
X760187Y298150D01*
X760086Y298211D01*
X759986Y298275D01*
X759889Y298343D01*
X759795Y298413D01*
X759702Y298487D01*
X759613Y298564D01*
X759526Y298644D01*
X759441Y298727D01*
X759360Y298813D01*
X759281Y298901D01*
X759206Y298992D01*
X759133Y299086D01*
X759064Y299182D01*
X758998Y299280D01*
X758936Y299380D01*
X758877Y299482D01*
X758821Y299587D01*
X758769Y299693D01*
X758721Y299801D01*
X758676Y299910D01*
X758635Y300021D01*
X758598Y300133D01*
X758564Y300247D01*
X758534Y300361D01*
X758509Y300476D01*
X758487Y300593D01*
X758469Y300710D01*
X758455Y300827D01*
X758445Y300945D01*
X758439Y301063D01*
X758437Y301181D01*
D13*
X774687Y278931D02*
X774689Y279001D01*
X774695Y279071D01*
X774705Y279140D01*
X774718Y279209D01*
X774736Y279277D01*
X774757Y279344D01*
X774782Y279409D01*
X774811Y279473D01*
X774843Y279536D01*
X774879Y279596D01*
X774918Y279654D01*
X774960Y279710D01*
X775005Y279764D01*
X775053Y279815D01*
X775104Y279863D01*
X775158Y279908D01*
X775214Y279950D01*
X775272Y279989D01*
X775332Y280025D01*
X775395Y280057D01*
X775459Y280086D01*
X775524Y280111D01*
X775591Y280132D01*
X775659Y280150D01*
X775728Y280163D01*
X775797Y280173D01*
X775867Y280179D01*
X775937Y280181D01*
X776007Y280179D01*
X776077Y280173D01*
X776146Y280163D01*
X776215Y280150D01*
X776283Y280132D01*
X776350Y280111D01*
X776415Y280086D01*
X776479Y280057D01*
X776542Y280025D01*
X776602Y279989D01*
X776660Y279950D01*
X776716Y279908D01*
X776770Y279863D01*
X776821Y279815D01*
X776869Y279764D01*
X776914Y279710D01*
X776956Y279654D01*
X776995Y279596D01*
X777031Y279536D01*
X777063Y279473D01*
X777092Y279409D01*
X777117Y279344D01*
X777138Y279277D01*
X777156Y279209D01*
X777169Y279140D01*
X777179Y279071D01*
X777185Y279001D01*
X777187Y278931D01*
X777185Y278861D01*
X777179Y278791D01*
X777169Y278722D01*
X777156Y278653D01*
X777138Y278585D01*
X777117Y278518D01*
X777092Y278453D01*
X777063Y278389D01*
X777031Y278326D01*
X776995Y278266D01*
X776956Y278208D01*
X776914Y278152D01*
X776869Y278098D01*
X776821Y278047D01*
X776770Y277999D01*
X776716Y277954D01*
X776660Y277912D01*
X776602Y277873D01*
X776542Y277837D01*
X776479Y277805D01*
X776415Y277776D01*
X776350Y277751D01*
X776283Y277730D01*
X776215Y277712D01*
X776146Y277699D01*
X776077Y277689D01*
X776007Y277683D01*
X775937Y277681D01*
X775867Y277683D01*
X775797Y277689D01*
X775728Y277699D01*
X775659Y277712D01*
X775591Y277730D01*
X775524Y277751D01*
X775459Y277776D01*
X775395Y277805D01*
X775332Y277837D01*
X775272Y277873D01*
X775214Y277912D01*
X775158Y277954D01*
X775104Y277999D01*
X775053Y278047D01*
X775005Y278098D01*
X774960Y278152D01*
X774918Y278208D01*
X774879Y278266D01*
X774843Y278326D01*
X774811Y278389D01*
X774782Y278453D01*
X774757Y278518D01*
X774736Y278585D01*
X774718Y278653D01*
X774705Y278722D01*
X774695Y278791D01*
X774689Y278861D01*
X774687Y278931D01*
D14*
X761937Y284181D02*
X761937Y318181D01*
D11*
X782230Y319215D02*
X782230Y326581D01*
X784276Y326581D01*
X784276Y326580D02*
X784365Y326578D01*
X784454Y326572D01*
X784543Y326562D01*
X784631Y326549D01*
X784719Y326532D01*
X784806Y326510D01*
X784891Y326485D01*
X784976Y326457D01*
X785059Y326424D01*
X785141Y326388D01*
X785221Y326349D01*
X785299Y326306D01*
X785375Y326260D01*
X785450Y326210D01*
X785522Y326157D01*
X785591Y326101D01*
X785658Y326042D01*
X785723Y325981D01*
X785784Y325916D01*
X785843Y325849D01*
X785899Y325780D01*
X785952Y325708D01*
X786002Y325633D01*
X786048Y325557D01*
X786091Y325479D01*
X786130Y325399D01*
X786166Y325317D01*
X786199Y325234D01*
X786227Y325149D01*
X786252Y325064D01*
X786274Y324977D01*
X786291Y324889D01*
X786304Y324801D01*
X786314Y324712D01*
X786320Y324623D01*
X786322Y324534D01*
X786320Y324445D01*
X786314Y324356D01*
X786304Y324267D01*
X786291Y324179D01*
X786274Y324091D01*
X786252Y324004D01*
X786227Y323919D01*
X786199Y323834D01*
X786166Y323751D01*
X786130Y323669D01*
X786091Y323589D01*
X786048Y323511D01*
X786002Y323435D01*
X785952Y323360D01*
X785899Y323288D01*
X785843Y323219D01*
X785784Y323152D01*
X785723Y323087D01*
X785658Y323026D01*
X785591Y322967D01*
X785522Y322911D01*
X785450Y322858D01*
X785375Y322808D01*
X785299Y322762D01*
X785221Y322719D01*
X785141Y322680D01*
X785059Y322644D01*
X784976Y322611D01*
X784891Y322583D01*
X784806Y322558D01*
X784719Y322536D01*
X784631Y322519D01*
X784543Y322506D01*
X784454Y322496D01*
X784365Y322490D01*
X784276Y322488D01*
X782230Y322488D01*
X784685Y322488D02*
X786322Y319215D01*
X789494Y319215D02*
X791540Y319215D01*
X791629Y319217D01*
X791718Y319223D01*
X791807Y319233D01*
X791895Y319246D01*
X791983Y319263D01*
X792070Y319285D01*
X792155Y319310D01*
X792240Y319338D01*
X792323Y319371D01*
X792405Y319407D01*
X792485Y319446D01*
X792563Y319489D01*
X792639Y319535D01*
X792714Y319585D01*
X792786Y319638D01*
X792855Y319694D01*
X792922Y319753D01*
X792987Y319814D01*
X793048Y319879D01*
X793107Y319946D01*
X793163Y320015D01*
X793216Y320087D01*
X793266Y320162D01*
X793312Y320238D01*
X793355Y320316D01*
X793394Y320396D01*
X793430Y320478D01*
X793463Y320561D01*
X793491Y320646D01*
X793516Y320731D01*
X793538Y320818D01*
X793555Y320906D01*
X793568Y320994D01*
X793578Y321083D01*
X793584Y321172D01*
X793586Y321261D01*
X793584Y321350D01*
X793578Y321439D01*
X793568Y321528D01*
X793555Y321616D01*
X793538Y321704D01*
X793516Y321791D01*
X793491Y321876D01*
X793463Y321961D01*
X793430Y322044D01*
X793394Y322126D01*
X793355Y322206D01*
X793312Y322284D01*
X793266Y322360D01*
X793216Y322435D01*
X793163Y322507D01*
X793107Y322576D01*
X793048Y322643D01*
X792987Y322708D01*
X792922Y322769D01*
X792855Y322828D01*
X792786Y322884D01*
X792714Y322937D01*
X792639Y322987D01*
X792563Y323033D01*
X792485Y323076D01*
X792405Y323115D01*
X792323Y323151D01*
X792240Y323184D01*
X792155Y323212D01*
X792070Y323237D01*
X791983Y323259D01*
X791895Y323276D01*
X791807Y323289D01*
X791718Y323299D01*
X791629Y323305D01*
X791540Y323307D01*
X791949Y326581D02*
X789494Y326581D01*
X791949Y326581D02*
X792028Y326579D01*
X792107Y326573D01*
X792186Y326564D01*
X792264Y326551D01*
X792341Y326533D01*
X792417Y326513D01*
X792492Y326488D01*
X792566Y326460D01*
X792639Y326429D01*
X792710Y326393D01*
X792779Y326355D01*
X792846Y326313D01*
X792911Y326268D01*
X792974Y326220D01*
X793035Y326169D01*
X793092Y326115D01*
X793148Y326059D01*
X793200Y326000D01*
X793250Y325938D01*
X793296Y325874D01*
X793340Y325808D01*
X793380Y325740D01*
X793416Y325670D01*
X793450Y325598D01*
X793480Y325524D01*
X793506Y325450D01*
X793529Y325374D01*
X793547Y325297D01*
X793563Y325220D01*
X793574Y325141D01*
X793582Y325063D01*
X793586Y324984D01*
X793586Y324904D01*
X793582Y324825D01*
X793574Y324747D01*
X793563Y324668D01*
X793547Y324591D01*
X793529Y324514D01*
X793506Y324438D01*
X793480Y324364D01*
X793450Y324290D01*
X793416Y324218D01*
X793380Y324148D01*
X793340Y324080D01*
X793296Y324014D01*
X793250Y323950D01*
X793200Y323888D01*
X793148Y323829D01*
X793092Y323773D01*
X793035Y323719D01*
X792974Y323668D01*
X792911Y323620D01*
X792846Y323575D01*
X792779Y323533D01*
X792710Y323495D01*
X792639Y323459D01*
X792566Y323428D01*
X792492Y323400D01*
X792417Y323375D01*
X792341Y323355D01*
X792264Y323337D01*
X792186Y323324D01*
X792107Y323315D01*
X792028Y323309D01*
X791949Y323307D01*
X790312Y323307D01*
D14*
X838144Y414911D02*
X850144Y414911D01*
D11*
X829390Y438531D02*
X829390Y445897D01*
X828571Y438531D02*
X830208Y438531D01*
X830208Y445897D02*
X828571Y445897D01*
X834809Y438531D02*
X836446Y438531D01*
X834809Y438531D02*
X834731Y438533D01*
X834653Y438538D01*
X834576Y438548D01*
X834499Y438561D01*
X834423Y438577D01*
X834348Y438597D01*
X834274Y438621D01*
X834201Y438648D01*
X834129Y438679D01*
X834059Y438713D01*
X833991Y438750D01*
X833924Y438791D01*
X833859Y438835D01*
X833797Y438881D01*
X833737Y438931D01*
X833679Y438983D01*
X833624Y439038D01*
X833572Y439096D01*
X833522Y439156D01*
X833476Y439218D01*
X833432Y439283D01*
X833391Y439350D01*
X833354Y439418D01*
X833320Y439488D01*
X833289Y439560D01*
X833262Y439633D01*
X833238Y439707D01*
X833218Y439782D01*
X833202Y439858D01*
X833189Y439935D01*
X833179Y440012D01*
X833174Y440090D01*
X833172Y440168D01*
X833173Y440168D02*
X833173Y444260D01*
X833172Y444260D02*
X833174Y444340D01*
X833180Y444420D01*
X833190Y444500D01*
X833203Y444579D01*
X833221Y444658D01*
X833242Y444735D01*
X833268Y444811D01*
X833297Y444886D01*
X833329Y444960D01*
X833365Y445032D01*
X833405Y445102D01*
X833448Y445169D01*
X833494Y445235D01*
X833544Y445298D01*
X833596Y445359D01*
X833651Y445418D01*
X833710Y445473D01*
X833770Y445525D01*
X833834Y445575D01*
X833900Y445621D01*
X833967Y445664D01*
X834037Y445704D01*
X834109Y445740D01*
X834183Y445772D01*
X834257Y445801D01*
X834334Y445827D01*
X834411Y445848D01*
X834490Y445866D01*
X834569Y445879D01*
X834649Y445889D01*
X834729Y445895D01*
X834809Y445897D01*
X836446Y445897D01*
X840929Y441805D02*
X843384Y441805D01*
X840929Y441805D02*
X840851Y441807D01*
X840773Y441812D01*
X840696Y441822D01*
X840619Y441835D01*
X840543Y441851D01*
X840468Y441871D01*
X840394Y441895D01*
X840321Y441922D01*
X840249Y441953D01*
X840179Y441987D01*
X840110Y442024D01*
X840044Y442065D01*
X839979Y442109D01*
X839917Y442155D01*
X839857Y442205D01*
X839799Y442257D01*
X839744Y442312D01*
X839692Y442370D01*
X839642Y442430D01*
X839596Y442492D01*
X839552Y442557D01*
X839511Y442624D01*
X839474Y442692D01*
X839440Y442762D01*
X839409Y442834D01*
X839382Y442907D01*
X839358Y442981D01*
X839338Y443056D01*
X839322Y443132D01*
X839309Y443209D01*
X839299Y443286D01*
X839294Y443364D01*
X839292Y443442D01*
X839292Y443851D01*
X839294Y443940D01*
X839300Y444029D01*
X839310Y444118D01*
X839323Y444206D01*
X839340Y444294D01*
X839362Y444381D01*
X839387Y444466D01*
X839415Y444551D01*
X839448Y444634D01*
X839484Y444716D01*
X839523Y444796D01*
X839566Y444874D01*
X839612Y444950D01*
X839662Y445025D01*
X839715Y445097D01*
X839771Y445166D01*
X839830Y445233D01*
X839891Y445298D01*
X839956Y445359D01*
X840023Y445418D01*
X840092Y445474D01*
X840164Y445527D01*
X840239Y445577D01*
X840315Y445623D01*
X840393Y445666D01*
X840473Y445705D01*
X840555Y445741D01*
X840638Y445774D01*
X840723Y445802D01*
X840808Y445827D01*
X840895Y445849D01*
X840983Y445866D01*
X841071Y445879D01*
X841160Y445889D01*
X841249Y445895D01*
X841338Y445897D01*
X841427Y445895D01*
X841516Y445889D01*
X841605Y445879D01*
X841693Y445866D01*
X841781Y445849D01*
X841868Y445827D01*
X841953Y445802D01*
X842038Y445774D01*
X842121Y445741D01*
X842203Y445705D01*
X842283Y445666D01*
X842361Y445623D01*
X842437Y445577D01*
X842512Y445527D01*
X842584Y445474D01*
X842653Y445418D01*
X842720Y445359D01*
X842785Y445298D01*
X842846Y445233D01*
X842905Y445166D01*
X842961Y445097D01*
X843014Y445025D01*
X843064Y444950D01*
X843110Y444874D01*
X843153Y444796D01*
X843192Y444716D01*
X843228Y444634D01*
X843261Y444551D01*
X843289Y444466D01*
X843314Y444381D01*
X843336Y444294D01*
X843353Y444206D01*
X843366Y444118D01*
X843376Y444029D01*
X843382Y443940D01*
X843384Y443851D01*
X843384Y441805D01*
X843382Y441693D01*
X843376Y441582D01*
X843367Y441470D01*
X843354Y441359D01*
X843336Y441249D01*
X843316Y441139D01*
X843291Y441030D01*
X843263Y440922D01*
X843231Y440815D01*
X843195Y440709D01*
X843156Y440604D01*
X843113Y440501D01*
X843067Y440399D01*
X843017Y440299D01*
X842964Y440200D01*
X842907Y440104D01*
X842848Y440009D01*
X842785Y439917D01*
X842719Y439827D01*
X842650Y439739D01*
X842578Y439653D01*
X842503Y439570D01*
X842425Y439490D01*
X842345Y439412D01*
X842262Y439337D01*
X842176Y439265D01*
X842088Y439196D01*
X841998Y439130D01*
X841906Y439067D01*
X841811Y439008D01*
X841715Y438951D01*
X841616Y438898D01*
X841516Y438848D01*
X841414Y438802D01*
X841311Y438759D01*
X841206Y438720D01*
X841100Y438684D01*
X840993Y438652D01*
X840885Y438624D01*
X840776Y438599D01*
X840666Y438579D01*
X840556Y438561D01*
X840445Y438548D01*
X840333Y438539D01*
X840222Y438533D01*
X840110Y438531D01*
D12*
X758754Y402463D02*
X758756Y402581D01*
X758762Y402699D01*
X758772Y402817D01*
X758786Y402934D01*
X758804Y403051D01*
X758826Y403168D01*
X758851Y403283D01*
X758881Y403397D01*
X758915Y403511D01*
X758952Y403623D01*
X758993Y403734D01*
X759038Y403843D01*
X759086Y403951D01*
X759138Y404057D01*
X759194Y404162D01*
X759253Y404264D01*
X759315Y404364D01*
X759381Y404462D01*
X759450Y404558D01*
X759523Y404652D01*
X759598Y404743D01*
X759677Y404831D01*
X759758Y404917D01*
X759843Y405000D01*
X759930Y405080D01*
X760019Y405157D01*
X760112Y405231D01*
X760206Y405301D01*
X760303Y405369D01*
X760403Y405433D01*
X760504Y405494D01*
X760607Y405551D01*
X760713Y405605D01*
X760820Y405656D01*
X760928Y405702D01*
X761038Y405745D01*
X761150Y405784D01*
X761263Y405820D01*
X761377Y405851D01*
X761492Y405879D01*
X761607Y405903D01*
X761724Y405923D01*
X761841Y405939D01*
X761959Y405951D01*
X762077Y405959D01*
X762195Y405963D01*
X762313Y405963D01*
X762431Y405959D01*
X762549Y405951D01*
X762667Y405939D01*
X762784Y405923D01*
X762901Y405903D01*
X763016Y405879D01*
X763131Y405851D01*
X763245Y405820D01*
X763358Y405784D01*
X763470Y405745D01*
X763580Y405702D01*
X763688Y405656D01*
X763795Y405605D01*
X763901Y405551D01*
X764004Y405494D01*
X764105Y405433D01*
X764205Y405369D01*
X764302Y405301D01*
X764396Y405231D01*
X764489Y405157D01*
X764578Y405080D01*
X764665Y405000D01*
X764750Y404917D01*
X764831Y404831D01*
X764910Y404743D01*
X764985Y404652D01*
X765058Y404558D01*
X765127Y404462D01*
X765193Y404364D01*
X765255Y404264D01*
X765314Y404162D01*
X765370Y404057D01*
X765422Y403951D01*
X765470Y403843D01*
X765515Y403734D01*
X765556Y403623D01*
X765593Y403511D01*
X765627Y403397D01*
X765657Y403283D01*
X765682Y403168D01*
X765704Y403051D01*
X765722Y402934D01*
X765736Y402817D01*
X765746Y402699D01*
X765752Y402581D01*
X765754Y402463D01*
X765752Y402345D01*
X765746Y402227D01*
X765736Y402109D01*
X765722Y401992D01*
X765704Y401875D01*
X765682Y401758D01*
X765657Y401643D01*
X765627Y401529D01*
X765593Y401415D01*
X765556Y401303D01*
X765515Y401192D01*
X765470Y401083D01*
X765422Y400975D01*
X765370Y400869D01*
X765314Y400764D01*
X765255Y400662D01*
X765193Y400562D01*
X765127Y400464D01*
X765058Y400368D01*
X764985Y400274D01*
X764910Y400183D01*
X764831Y400095D01*
X764750Y400009D01*
X764665Y399926D01*
X764578Y399846D01*
X764489Y399769D01*
X764396Y399695D01*
X764302Y399625D01*
X764205Y399557D01*
X764105Y399493D01*
X764004Y399432D01*
X763901Y399375D01*
X763795Y399321D01*
X763688Y399270D01*
X763580Y399224D01*
X763470Y399181D01*
X763358Y399142D01*
X763245Y399106D01*
X763131Y399075D01*
X763016Y399047D01*
X762901Y399023D01*
X762784Y399003D01*
X762667Y398987D01*
X762549Y398975D01*
X762431Y398967D01*
X762313Y398963D01*
X762195Y398963D01*
X762077Y398967D01*
X761959Y398975D01*
X761841Y398987D01*
X761724Y399003D01*
X761607Y399023D01*
X761492Y399047D01*
X761377Y399075D01*
X761263Y399106D01*
X761150Y399142D01*
X761038Y399181D01*
X760928Y399224D01*
X760820Y399270D01*
X760713Y399321D01*
X760607Y399375D01*
X760504Y399432D01*
X760403Y399493D01*
X760303Y399557D01*
X760206Y399625D01*
X760112Y399695D01*
X760019Y399769D01*
X759930Y399846D01*
X759843Y399926D01*
X759758Y400009D01*
X759677Y400095D01*
X759598Y400183D01*
X759523Y400274D01*
X759450Y400368D01*
X759381Y400464D01*
X759315Y400562D01*
X759253Y400662D01*
X759194Y400764D01*
X759138Y400869D01*
X759086Y400975D01*
X759038Y401083D01*
X758993Y401192D01*
X758952Y401303D01*
X758915Y401415D01*
X758881Y401529D01*
X758851Y401643D01*
X758826Y401758D01*
X758804Y401875D01*
X758786Y401992D01*
X758772Y402109D01*
X758762Y402227D01*
X758756Y402345D01*
X758754Y402463D01*
D13*
X775004Y380213D02*
X775006Y380283D01*
X775012Y380353D01*
X775022Y380422D01*
X775035Y380491D01*
X775053Y380559D01*
X775074Y380626D01*
X775099Y380691D01*
X775128Y380755D01*
X775160Y380818D01*
X775196Y380878D01*
X775235Y380936D01*
X775277Y380992D01*
X775322Y381046D01*
X775370Y381097D01*
X775421Y381145D01*
X775475Y381190D01*
X775531Y381232D01*
X775589Y381271D01*
X775649Y381307D01*
X775712Y381339D01*
X775776Y381368D01*
X775841Y381393D01*
X775908Y381414D01*
X775976Y381432D01*
X776045Y381445D01*
X776114Y381455D01*
X776184Y381461D01*
X776254Y381463D01*
X776324Y381461D01*
X776394Y381455D01*
X776463Y381445D01*
X776532Y381432D01*
X776600Y381414D01*
X776667Y381393D01*
X776732Y381368D01*
X776796Y381339D01*
X776859Y381307D01*
X776919Y381271D01*
X776977Y381232D01*
X777033Y381190D01*
X777087Y381145D01*
X777138Y381097D01*
X777186Y381046D01*
X777231Y380992D01*
X777273Y380936D01*
X777312Y380878D01*
X777348Y380818D01*
X777380Y380755D01*
X777409Y380691D01*
X777434Y380626D01*
X777455Y380559D01*
X777473Y380491D01*
X777486Y380422D01*
X777496Y380353D01*
X777502Y380283D01*
X777504Y380213D01*
X777502Y380143D01*
X777496Y380073D01*
X777486Y380004D01*
X777473Y379935D01*
X777455Y379867D01*
X777434Y379800D01*
X777409Y379735D01*
X777380Y379671D01*
X777348Y379608D01*
X777312Y379548D01*
X777273Y379490D01*
X777231Y379434D01*
X777186Y379380D01*
X777138Y379329D01*
X777087Y379281D01*
X777033Y379236D01*
X776977Y379194D01*
X776919Y379155D01*
X776859Y379119D01*
X776796Y379087D01*
X776732Y379058D01*
X776667Y379033D01*
X776600Y379012D01*
X776532Y378994D01*
X776463Y378981D01*
X776394Y378971D01*
X776324Y378965D01*
X776254Y378963D01*
X776184Y378965D01*
X776114Y378971D01*
X776045Y378981D01*
X775976Y378994D01*
X775908Y379012D01*
X775841Y379033D01*
X775776Y379058D01*
X775712Y379087D01*
X775649Y379119D01*
X775589Y379155D01*
X775531Y379194D01*
X775475Y379236D01*
X775421Y379281D01*
X775370Y379329D01*
X775322Y379380D01*
X775277Y379434D01*
X775235Y379490D01*
X775196Y379548D01*
X775160Y379608D01*
X775128Y379671D01*
X775099Y379735D01*
X775074Y379800D01*
X775053Y379867D01*
X775035Y379935D01*
X775022Y380004D01*
X775012Y380073D01*
X775006Y380143D01*
X775004Y380213D01*
D14*
X762254Y385463D02*
X762254Y419463D01*
D11*
X782547Y420497D02*
X782547Y427863D01*
X784593Y427863D01*
X784682Y427861D01*
X784771Y427855D01*
X784860Y427845D01*
X784948Y427832D01*
X785036Y427815D01*
X785123Y427793D01*
X785208Y427768D01*
X785293Y427740D01*
X785376Y427707D01*
X785458Y427671D01*
X785538Y427632D01*
X785616Y427589D01*
X785692Y427543D01*
X785767Y427493D01*
X785839Y427440D01*
X785908Y427384D01*
X785975Y427325D01*
X786040Y427264D01*
X786101Y427199D01*
X786160Y427132D01*
X786216Y427063D01*
X786269Y426991D01*
X786319Y426916D01*
X786365Y426840D01*
X786408Y426762D01*
X786447Y426682D01*
X786483Y426600D01*
X786516Y426517D01*
X786544Y426432D01*
X786569Y426347D01*
X786591Y426260D01*
X786608Y426172D01*
X786621Y426084D01*
X786631Y425995D01*
X786637Y425906D01*
X786639Y425817D01*
X786637Y425728D01*
X786631Y425639D01*
X786621Y425550D01*
X786608Y425462D01*
X786591Y425374D01*
X786569Y425287D01*
X786544Y425202D01*
X786516Y425117D01*
X786483Y425034D01*
X786447Y424952D01*
X786408Y424872D01*
X786365Y424794D01*
X786319Y424718D01*
X786269Y424643D01*
X786216Y424571D01*
X786160Y424502D01*
X786101Y424435D01*
X786040Y424370D01*
X785975Y424309D01*
X785908Y424250D01*
X785839Y424194D01*
X785767Y424141D01*
X785692Y424091D01*
X785616Y424045D01*
X785538Y424002D01*
X785458Y423963D01*
X785376Y423927D01*
X785293Y423894D01*
X785208Y423866D01*
X785123Y423841D01*
X785036Y423819D01*
X784948Y423802D01*
X784860Y423789D01*
X784771Y423779D01*
X784682Y423773D01*
X784593Y423771D01*
X782547Y423771D01*
X785003Y423771D02*
X786640Y420497D01*
X789811Y422134D02*
X791448Y427863D01*
X789811Y422134D02*
X793904Y422134D01*
X792676Y423771D02*
X792676Y420497D01*
D14*
X838271Y363730D02*
X850271Y363730D01*
D11*
X825859Y387350D02*
X825859Y394716D01*
X825041Y387350D02*
X826677Y387350D01*
X826677Y394716D02*
X825041Y394716D01*
X831279Y387350D02*
X832916Y387350D01*
X831279Y387350D02*
X831201Y387352D01*
X831123Y387357D01*
X831046Y387367D01*
X830969Y387380D01*
X830893Y387396D01*
X830818Y387416D01*
X830744Y387440D01*
X830671Y387467D01*
X830599Y387498D01*
X830529Y387532D01*
X830461Y387569D01*
X830394Y387610D01*
X830329Y387654D01*
X830267Y387700D01*
X830207Y387750D01*
X830149Y387802D01*
X830094Y387857D01*
X830042Y387915D01*
X829992Y387975D01*
X829946Y388037D01*
X829902Y388102D01*
X829861Y388169D01*
X829824Y388237D01*
X829790Y388307D01*
X829759Y388379D01*
X829732Y388452D01*
X829708Y388526D01*
X829688Y388601D01*
X829672Y388677D01*
X829659Y388754D01*
X829649Y388831D01*
X829644Y388909D01*
X829642Y388987D01*
X829642Y393079D01*
X829644Y393159D01*
X829650Y393239D01*
X829660Y393319D01*
X829673Y393398D01*
X829691Y393477D01*
X829712Y393554D01*
X829738Y393630D01*
X829767Y393705D01*
X829799Y393779D01*
X829835Y393851D01*
X829875Y393921D01*
X829918Y393988D01*
X829964Y394054D01*
X830014Y394117D01*
X830066Y394178D01*
X830121Y394237D01*
X830180Y394292D01*
X830240Y394344D01*
X830304Y394394D01*
X830370Y394440D01*
X830437Y394483D01*
X830507Y394523D01*
X830579Y394559D01*
X830653Y394591D01*
X830727Y394620D01*
X830804Y394646D01*
X830881Y394667D01*
X830960Y394685D01*
X831039Y394698D01*
X831119Y394708D01*
X831199Y394714D01*
X831279Y394716D01*
X832916Y394716D01*
X835761Y393079D02*
X837807Y394716D01*
X837807Y387350D01*
X835761Y387350D02*
X839853Y387350D01*
X843077Y391033D02*
X843079Y391186D01*
X843085Y391339D01*
X843094Y391491D01*
X843108Y391644D01*
X843125Y391796D01*
X843146Y391947D01*
X843171Y392098D01*
X843200Y392248D01*
X843232Y392398D01*
X843269Y392546D01*
X843309Y392694D01*
X843352Y392841D01*
X843400Y392986D01*
X843451Y393130D01*
X843505Y393273D01*
X843564Y393415D01*
X843625Y393554D01*
X843691Y393693D01*
X843690Y393693D02*
X843716Y393763D01*
X843746Y393833D01*
X843779Y393900D01*
X843815Y393966D01*
X843854Y394030D01*
X843897Y394092D01*
X843943Y394151D01*
X843991Y394209D01*
X844042Y394263D01*
X844096Y394316D01*
X844153Y394365D01*
X844212Y394412D01*
X844273Y394455D01*
X844336Y394496D01*
X844401Y394533D01*
X844468Y394568D01*
X844537Y394598D01*
X844607Y394626D01*
X844678Y394649D01*
X844750Y394670D01*
X844823Y394686D01*
X844897Y394699D01*
X844972Y394709D01*
X845047Y394714D01*
X845122Y394716D01*
X845197Y394714D01*
X845272Y394709D01*
X845347Y394699D01*
X845421Y394686D01*
X845494Y394670D01*
X845566Y394649D01*
X845637Y394626D01*
X845707Y394598D01*
X845776Y394568D01*
X845843Y394533D01*
X845908Y394496D01*
X845971Y394455D01*
X846032Y394412D01*
X846091Y394365D01*
X846148Y394316D01*
X846202Y394263D01*
X846253Y394209D01*
X846302Y394151D01*
X846347Y394092D01*
X846390Y394030D01*
X846429Y393966D01*
X846466Y393900D01*
X846498Y393832D01*
X846528Y393763D01*
X846554Y393693D01*
X846619Y393555D01*
X846681Y393415D01*
X846739Y393273D01*
X846794Y393130D01*
X846845Y392986D01*
X846893Y392841D01*
X846936Y392694D01*
X846976Y392547D01*
X847013Y392398D01*
X847045Y392248D01*
X847074Y392098D01*
X847099Y391947D01*
X847120Y391796D01*
X847137Y391644D01*
X847151Y391491D01*
X847160Y391339D01*
X847166Y391186D01*
X847168Y391033D01*
X843076Y391033D02*
X843078Y390880D01*
X843084Y390727D01*
X843093Y390574D01*
X843107Y390422D01*
X843124Y390270D01*
X843145Y390119D01*
X843170Y389968D01*
X843199Y389817D01*
X843231Y389668D01*
X843268Y389519D01*
X843308Y389372D01*
X843351Y389225D01*
X843399Y389080D01*
X843450Y388935D01*
X843505Y388793D01*
X843563Y388651D01*
X843625Y388511D01*
X843690Y388373D01*
X843716Y388302D01*
X843746Y388233D01*
X843779Y388166D01*
X843815Y388100D01*
X843854Y388036D01*
X843897Y387974D01*
X843943Y387915D01*
X843991Y387857D01*
X844042Y387803D01*
X844096Y387750D01*
X844153Y387701D01*
X844212Y387654D01*
X844273Y387611D01*
X844336Y387570D01*
X844401Y387533D01*
X844468Y387498D01*
X844537Y387468D01*
X844607Y387440D01*
X844678Y387417D01*
X844750Y387396D01*
X844823Y387380D01*
X844897Y387367D01*
X844972Y387357D01*
X845047Y387352D01*
X845122Y387350D01*
X846554Y388373D02*
X846619Y388511D01*
X846681Y388651D01*
X846739Y388793D01*
X846794Y388936D01*
X846845Y389080D01*
X846893Y389225D01*
X846936Y389372D01*
X846976Y389520D01*
X847013Y389668D01*
X847045Y389818D01*
X847074Y389968D01*
X847099Y390119D01*
X847120Y390270D01*
X847137Y390422D01*
X847151Y390575D01*
X847160Y390727D01*
X847166Y390880D01*
X847168Y391033D01*
X846554Y388373D02*
X846528Y388303D01*
X846498Y388233D01*
X846466Y388166D01*
X846429Y388100D01*
X846390Y388036D01*
X846347Y387974D01*
X846301Y387915D01*
X846253Y387857D01*
X846202Y387803D01*
X846148Y387750D01*
X846091Y387701D01*
X846032Y387654D01*
X845971Y387611D01*
X845908Y387570D01*
X845843Y387533D01*
X845776Y387498D01*
X845707Y387468D01*
X845637Y387440D01*
X845566Y387417D01*
X845494Y387396D01*
X845421Y387380D01*
X845347Y387367D01*
X845272Y387357D01*
X845197Y387352D01*
X845122Y387350D01*
X843485Y388987D02*
X846759Y393079D01*
D12*
X758437Y351854D02*
X758439Y351972D01*
X758445Y352090D01*
X758455Y352208D01*
X758469Y352325D01*
X758487Y352442D01*
X758509Y352559D01*
X758534Y352674D01*
X758564Y352788D01*
X758598Y352902D01*
X758635Y353014D01*
X758676Y353125D01*
X758721Y353234D01*
X758769Y353342D01*
X758821Y353448D01*
X758877Y353553D01*
X758936Y353655D01*
X758998Y353755D01*
X759064Y353853D01*
X759133Y353949D01*
X759206Y354043D01*
X759281Y354134D01*
X759360Y354222D01*
X759441Y354308D01*
X759526Y354391D01*
X759613Y354471D01*
X759702Y354548D01*
X759795Y354622D01*
X759889Y354692D01*
X759986Y354760D01*
X760086Y354824D01*
X760187Y354885D01*
X760290Y354942D01*
X760396Y354996D01*
X760503Y355047D01*
X760611Y355093D01*
X760721Y355136D01*
X760833Y355175D01*
X760946Y355211D01*
X761060Y355242D01*
X761175Y355270D01*
X761290Y355294D01*
X761407Y355314D01*
X761524Y355330D01*
X761642Y355342D01*
X761760Y355350D01*
X761878Y355354D01*
X761996Y355354D01*
X762114Y355350D01*
X762232Y355342D01*
X762350Y355330D01*
X762467Y355314D01*
X762584Y355294D01*
X762699Y355270D01*
X762814Y355242D01*
X762928Y355211D01*
X763041Y355175D01*
X763153Y355136D01*
X763263Y355093D01*
X763371Y355047D01*
X763478Y354996D01*
X763584Y354942D01*
X763687Y354885D01*
X763788Y354824D01*
X763888Y354760D01*
X763985Y354692D01*
X764079Y354622D01*
X764172Y354548D01*
X764261Y354471D01*
X764348Y354391D01*
X764433Y354308D01*
X764514Y354222D01*
X764593Y354134D01*
X764668Y354043D01*
X764741Y353949D01*
X764810Y353853D01*
X764876Y353755D01*
X764938Y353655D01*
X764997Y353553D01*
X765053Y353448D01*
X765105Y353342D01*
X765153Y353234D01*
X765198Y353125D01*
X765239Y353014D01*
X765276Y352902D01*
X765310Y352788D01*
X765340Y352674D01*
X765365Y352559D01*
X765387Y352442D01*
X765405Y352325D01*
X765419Y352208D01*
X765429Y352090D01*
X765435Y351972D01*
X765437Y351854D01*
X765435Y351736D01*
X765429Y351618D01*
X765419Y351500D01*
X765405Y351383D01*
X765387Y351266D01*
X765365Y351149D01*
X765340Y351034D01*
X765310Y350920D01*
X765276Y350806D01*
X765239Y350694D01*
X765198Y350583D01*
X765153Y350474D01*
X765105Y350366D01*
X765053Y350260D01*
X764997Y350155D01*
X764938Y350053D01*
X764876Y349953D01*
X764810Y349855D01*
X764741Y349759D01*
X764668Y349665D01*
X764593Y349574D01*
X764514Y349486D01*
X764433Y349400D01*
X764348Y349317D01*
X764261Y349237D01*
X764172Y349160D01*
X764079Y349086D01*
X763985Y349016D01*
X763888Y348948D01*
X763788Y348884D01*
X763687Y348823D01*
X763584Y348766D01*
X763478Y348712D01*
X763371Y348661D01*
X763263Y348615D01*
X763153Y348572D01*
X763041Y348533D01*
X762928Y348497D01*
X762814Y348466D01*
X762699Y348438D01*
X762584Y348414D01*
X762467Y348394D01*
X762350Y348378D01*
X762232Y348366D01*
X762114Y348358D01*
X761996Y348354D01*
X761878Y348354D01*
X761760Y348358D01*
X761642Y348366D01*
X761524Y348378D01*
X761407Y348394D01*
X761290Y348414D01*
X761175Y348438D01*
X761060Y348466D01*
X760946Y348497D01*
X760833Y348533D01*
X760721Y348572D01*
X760611Y348615D01*
X760503Y348661D01*
X760396Y348712D01*
X760290Y348766D01*
X760187Y348823D01*
X760086Y348884D01*
X759986Y348948D01*
X759889Y349016D01*
X759795Y349086D01*
X759702Y349160D01*
X759613Y349237D01*
X759526Y349317D01*
X759441Y349400D01*
X759360Y349486D01*
X759281Y349574D01*
X759206Y349665D01*
X759133Y349759D01*
X759064Y349855D01*
X758998Y349953D01*
X758936Y350053D01*
X758877Y350155D01*
X758821Y350260D01*
X758769Y350366D01*
X758721Y350474D01*
X758676Y350583D01*
X758635Y350694D01*
X758598Y350806D01*
X758564Y350920D01*
X758534Y351034D01*
X758509Y351149D01*
X758487Y351266D01*
X758469Y351383D01*
X758455Y351500D01*
X758445Y351618D01*
X758439Y351736D01*
X758437Y351854D01*
D13*
X774687Y329604D02*
X774689Y329674D01*
X774695Y329744D01*
X774705Y329813D01*
X774718Y329882D01*
X774736Y329950D01*
X774757Y330017D01*
X774782Y330082D01*
X774811Y330146D01*
X774843Y330209D01*
X774879Y330269D01*
X774918Y330327D01*
X774960Y330383D01*
X775005Y330437D01*
X775053Y330488D01*
X775104Y330536D01*
X775158Y330581D01*
X775214Y330623D01*
X775272Y330662D01*
X775332Y330698D01*
X775395Y330730D01*
X775459Y330759D01*
X775524Y330784D01*
X775591Y330805D01*
X775659Y330823D01*
X775728Y330836D01*
X775797Y330846D01*
X775867Y330852D01*
X775937Y330854D01*
X776007Y330852D01*
X776077Y330846D01*
X776146Y330836D01*
X776215Y330823D01*
X776283Y330805D01*
X776350Y330784D01*
X776415Y330759D01*
X776479Y330730D01*
X776542Y330698D01*
X776602Y330662D01*
X776660Y330623D01*
X776716Y330581D01*
X776770Y330536D01*
X776821Y330488D01*
X776869Y330437D01*
X776914Y330383D01*
X776956Y330327D01*
X776995Y330269D01*
X777031Y330209D01*
X777063Y330146D01*
X777092Y330082D01*
X777117Y330017D01*
X777138Y329950D01*
X777156Y329882D01*
X777169Y329813D01*
X777179Y329744D01*
X777185Y329674D01*
X777187Y329604D01*
X777185Y329534D01*
X777179Y329464D01*
X777169Y329395D01*
X777156Y329326D01*
X777138Y329258D01*
X777117Y329191D01*
X777092Y329126D01*
X777063Y329062D01*
X777031Y328999D01*
X776995Y328939D01*
X776956Y328881D01*
X776914Y328825D01*
X776869Y328771D01*
X776821Y328720D01*
X776770Y328672D01*
X776716Y328627D01*
X776660Y328585D01*
X776602Y328546D01*
X776542Y328510D01*
X776479Y328478D01*
X776415Y328449D01*
X776350Y328424D01*
X776283Y328403D01*
X776215Y328385D01*
X776146Y328372D01*
X776077Y328362D01*
X776007Y328356D01*
X775937Y328354D01*
X775867Y328356D01*
X775797Y328362D01*
X775728Y328372D01*
X775659Y328385D01*
X775591Y328403D01*
X775524Y328424D01*
X775459Y328449D01*
X775395Y328478D01*
X775332Y328510D01*
X775272Y328546D01*
X775214Y328585D01*
X775158Y328627D01*
X775104Y328672D01*
X775053Y328720D01*
X775005Y328771D01*
X774960Y328825D01*
X774918Y328881D01*
X774879Y328939D01*
X774843Y328999D01*
X774811Y329062D01*
X774782Y329126D01*
X774757Y329191D01*
X774736Y329258D01*
X774718Y329326D01*
X774705Y329395D01*
X774695Y329464D01*
X774689Y329534D01*
X774687Y329604D01*
D14*
X761937Y334854D02*
X761937Y368854D01*
D11*
X782230Y369888D02*
X782230Y377254D01*
X784276Y377254D01*
X784276Y377253D02*
X784365Y377251D01*
X784454Y377245D01*
X784543Y377235D01*
X784631Y377222D01*
X784719Y377205D01*
X784806Y377183D01*
X784891Y377158D01*
X784976Y377130D01*
X785059Y377097D01*
X785141Y377061D01*
X785221Y377022D01*
X785299Y376979D01*
X785375Y376933D01*
X785450Y376883D01*
X785522Y376830D01*
X785591Y376774D01*
X785658Y376715D01*
X785723Y376654D01*
X785784Y376589D01*
X785843Y376522D01*
X785899Y376453D01*
X785952Y376381D01*
X786002Y376306D01*
X786048Y376230D01*
X786091Y376152D01*
X786130Y376072D01*
X786166Y375990D01*
X786199Y375907D01*
X786227Y375822D01*
X786252Y375737D01*
X786274Y375650D01*
X786291Y375562D01*
X786304Y375474D01*
X786314Y375385D01*
X786320Y375296D01*
X786322Y375207D01*
X786320Y375118D01*
X786314Y375029D01*
X786304Y374940D01*
X786291Y374852D01*
X786274Y374764D01*
X786252Y374677D01*
X786227Y374592D01*
X786199Y374507D01*
X786166Y374424D01*
X786130Y374342D01*
X786091Y374262D01*
X786048Y374184D01*
X786002Y374108D01*
X785952Y374033D01*
X785899Y373961D01*
X785843Y373892D01*
X785784Y373825D01*
X785723Y373760D01*
X785658Y373699D01*
X785591Y373640D01*
X785522Y373584D01*
X785450Y373531D01*
X785375Y373481D01*
X785299Y373435D01*
X785221Y373392D01*
X785141Y373353D01*
X785059Y373317D01*
X784976Y373284D01*
X784891Y373256D01*
X784806Y373231D01*
X784719Y373209D01*
X784631Y373192D01*
X784543Y373179D01*
X784454Y373169D01*
X784365Y373163D01*
X784276Y373161D01*
X782230Y373161D01*
X784685Y373161D02*
X786322Y369888D01*
X789494Y369888D02*
X791949Y369888D01*
X791949Y369887D02*
X792027Y369889D01*
X792105Y369894D01*
X792182Y369904D01*
X792259Y369917D01*
X792335Y369933D01*
X792410Y369953D01*
X792484Y369977D01*
X792557Y370004D01*
X792629Y370035D01*
X792699Y370069D01*
X792768Y370106D01*
X792834Y370147D01*
X792899Y370191D01*
X792961Y370237D01*
X793021Y370287D01*
X793079Y370339D01*
X793134Y370394D01*
X793186Y370452D01*
X793236Y370512D01*
X793282Y370574D01*
X793326Y370639D01*
X793367Y370706D01*
X793404Y370774D01*
X793438Y370844D01*
X793469Y370916D01*
X793496Y370989D01*
X793520Y371063D01*
X793540Y371138D01*
X793556Y371214D01*
X793569Y371291D01*
X793579Y371368D01*
X793584Y371446D01*
X793586Y371524D01*
X793586Y372343D01*
X793584Y372421D01*
X793579Y372499D01*
X793569Y372576D01*
X793556Y372653D01*
X793540Y372729D01*
X793520Y372804D01*
X793496Y372878D01*
X793469Y372951D01*
X793438Y373023D01*
X793404Y373093D01*
X793367Y373162D01*
X793326Y373228D01*
X793282Y373293D01*
X793236Y373355D01*
X793186Y373415D01*
X793134Y373473D01*
X793079Y373528D01*
X793021Y373580D01*
X792961Y373630D01*
X792899Y373676D01*
X792834Y373720D01*
X792768Y373761D01*
X792699Y373798D01*
X792629Y373832D01*
X792557Y373863D01*
X792484Y373890D01*
X792410Y373914D01*
X792335Y373934D01*
X792259Y373950D01*
X792182Y373963D01*
X792105Y373973D01*
X792027Y373978D01*
X791949Y373980D01*
X789494Y373980D01*
X789494Y377254D01*
X793586Y377254D01*
D13*
X606338Y183854D02*
X606340Y183924D01*
X606346Y183994D01*
X606356Y184063D01*
X606369Y184132D01*
X606387Y184200D01*
X606408Y184267D01*
X606433Y184332D01*
X606462Y184396D01*
X606494Y184459D01*
X606530Y184519D01*
X606569Y184577D01*
X606611Y184633D01*
X606656Y184687D01*
X606704Y184738D01*
X606755Y184786D01*
X606809Y184831D01*
X606865Y184873D01*
X606923Y184912D01*
X606983Y184948D01*
X607046Y184980D01*
X607110Y185009D01*
X607175Y185034D01*
X607242Y185055D01*
X607310Y185073D01*
X607379Y185086D01*
X607448Y185096D01*
X607518Y185102D01*
X607588Y185104D01*
X607658Y185102D01*
X607728Y185096D01*
X607797Y185086D01*
X607866Y185073D01*
X607934Y185055D01*
X608001Y185034D01*
X608066Y185009D01*
X608130Y184980D01*
X608193Y184948D01*
X608253Y184912D01*
X608311Y184873D01*
X608367Y184831D01*
X608421Y184786D01*
X608472Y184738D01*
X608520Y184687D01*
X608565Y184633D01*
X608607Y184577D01*
X608646Y184519D01*
X608682Y184459D01*
X608714Y184396D01*
X608743Y184332D01*
X608768Y184267D01*
X608789Y184200D01*
X608807Y184132D01*
X608820Y184063D01*
X608830Y183994D01*
X608836Y183924D01*
X608838Y183854D01*
X608836Y183784D01*
X608830Y183714D01*
X608820Y183645D01*
X608807Y183576D01*
X608789Y183508D01*
X608768Y183441D01*
X608743Y183376D01*
X608714Y183312D01*
X608682Y183249D01*
X608646Y183189D01*
X608607Y183131D01*
X608565Y183075D01*
X608520Y183021D01*
X608472Y182970D01*
X608421Y182922D01*
X608367Y182877D01*
X608311Y182835D01*
X608253Y182796D01*
X608193Y182760D01*
X608130Y182728D01*
X608066Y182699D01*
X608001Y182674D01*
X607934Y182653D01*
X607866Y182635D01*
X607797Y182622D01*
X607728Y182612D01*
X607658Y182606D01*
X607588Y182604D01*
X607518Y182606D01*
X607448Y182612D01*
X607379Y182622D01*
X607310Y182635D01*
X607242Y182653D01*
X607175Y182674D01*
X607110Y182699D01*
X607046Y182728D01*
X606983Y182760D01*
X606923Y182796D01*
X606865Y182835D01*
X606809Y182877D01*
X606755Y182922D01*
X606704Y182970D01*
X606656Y183021D01*
X606611Y183075D01*
X606569Y183131D01*
X606530Y183189D01*
X606494Y183249D01*
X606462Y183312D01*
X606433Y183376D01*
X606408Y183441D01*
X606387Y183508D01*
X606369Y183576D01*
X606356Y183645D01*
X606346Y183714D01*
X606340Y183784D01*
X606338Y183854D01*
D14*
X591838Y182354D02*
X498838Y182354D01*
X498838Y275354D01*
X591838Y275354D01*
X591838Y182354D01*
D11*
X594655Y282385D02*
X594655Y289751D01*
X593837Y282385D02*
X595474Y282385D01*
X595474Y289751D02*
X593837Y289751D01*
X600075Y282385D02*
X601712Y282385D01*
X600075Y282384D02*
X599997Y282386D01*
X599919Y282391D01*
X599842Y282401D01*
X599765Y282414D01*
X599689Y282430D01*
X599614Y282450D01*
X599540Y282474D01*
X599467Y282501D01*
X599395Y282532D01*
X599325Y282566D01*
X599257Y282603D01*
X599190Y282644D01*
X599125Y282688D01*
X599063Y282734D01*
X599003Y282784D01*
X598945Y282836D01*
X598890Y282891D01*
X598838Y282949D01*
X598788Y283009D01*
X598742Y283071D01*
X598698Y283136D01*
X598657Y283203D01*
X598620Y283271D01*
X598586Y283341D01*
X598555Y283413D01*
X598528Y283486D01*
X598504Y283560D01*
X598484Y283635D01*
X598468Y283711D01*
X598455Y283788D01*
X598445Y283865D01*
X598440Y283943D01*
X598438Y284021D01*
X598438Y288114D01*
X598440Y288194D01*
X598446Y288274D01*
X598456Y288354D01*
X598469Y288433D01*
X598487Y288512D01*
X598508Y288589D01*
X598534Y288665D01*
X598563Y288740D01*
X598595Y288814D01*
X598631Y288886D01*
X598671Y288956D01*
X598714Y289023D01*
X598760Y289089D01*
X598810Y289152D01*
X598862Y289213D01*
X598917Y289272D01*
X598976Y289327D01*
X599036Y289379D01*
X599100Y289429D01*
X599166Y289475D01*
X599233Y289518D01*
X599303Y289558D01*
X599375Y289594D01*
X599449Y289626D01*
X599523Y289655D01*
X599600Y289681D01*
X599677Y289702D01*
X599756Y289720D01*
X599835Y289733D01*
X599915Y289743D01*
X599995Y289749D01*
X600075Y289751D01*
X601712Y289751D01*
X604558Y288114D02*
X606604Y289751D01*
X606604Y282385D01*
X604558Y282385D02*
X608650Y282385D01*
X611873Y288114D02*
X613919Y289751D01*
X613919Y282385D01*
X611873Y282385D02*
X615965Y282385D01*
X550355Y414641D02*
X550355Y416278D01*
X550355Y414641D02*
X550353Y414563D01*
X550348Y414485D01*
X550338Y414408D01*
X550325Y414331D01*
X550309Y414255D01*
X550289Y414180D01*
X550265Y414106D01*
X550238Y414033D01*
X550207Y413961D01*
X550173Y413891D01*
X550136Y413823D01*
X550095Y413756D01*
X550051Y413691D01*
X550005Y413629D01*
X549955Y413569D01*
X549903Y413511D01*
X549848Y413456D01*
X549790Y413404D01*
X549730Y413354D01*
X549668Y413308D01*
X549603Y413264D01*
X549537Y413223D01*
X549468Y413186D01*
X549398Y413152D01*
X549326Y413121D01*
X549253Y413094D01*
X549179Y413070D01*
X549104Y413050D01*
X549028Y413034D01*
X548951Y413021D01*
X548874Y413011D01*
X548796Y413006D01*
X548718Y413004D01*
X544625Y413004D01*
X544545Y413006D01*
X544465Y413012D01*
X544385Y413022D01*
X544306Y413035D01*
X544227Y413053D01*
X544150Y413074D01*
X544074Y413100D01*
X543999Y413129D01*
X543925Y413161D01*
X543853Y413197D01*
X543783Y413237D01*
X543716Y413280D01*
X543650Y413326D01*
X543587Y413376D01*
X543526Y413428D01*
X543467Y413483D01*
X543412Y413542D01*
X543360Y413602D01*
X543310Y413666D01*
X543264Y413731D01*
X543221Y413799D01*
X543181Y413869D01*
X543145Y413941D01*
X543113Y414015D01*
X543084Y414089D01*
X543059Y414166D01*
X543037Y414243D01*
X543019Y414322D01*
X543006Y414401D01*
X542996Y414480D01*
X542990Y414561D01*
X542988Y414641D01*
X542989Y414641D02*
X542989Y416278D01*
X542988Y421374D02*
X542990Y421459D01*
X542996Y421544D01*
X543006Y421628D01*
X543019Y421712D01*
X543037Y421796D01*
X543058Y421878D01*
X543083Y421959D01*
X543112Y422039D01*
X543145Y422118D01*
X543181Y422195D01*
X543221Y422270D01*
X543264Y422344D01*
X543310Y422415D01*
X543360Y422484D01*
X543413Y422551D01*
X543469Y422615D01*
X543528Y422676D01*
X543589Y422735D01*
X543653Y422791D01*
X543720Y422844D01*
X543789Y422894D01*
X543860Y422940D01*
X543934Y422983D01*
X544009Y423023D01*
X544086Y423059D01*
X544165Y423092D01*
X544245Y423121D01*
X544326Y423146D01*
X544408Y423167D01*
X544492Y423185D01*
X544576Y423198D01*
X544660Y423208D01*
X544745Y423214D01*
X544830Y423216D01*
X542988Y421374D02*
X542990Y421278D01*
X542996Y421182D01*
X543006Y421087D01*
X543019Y420992D01*
X543037Y420897D01*
X543058Y420804D01*
X543083Y420711D01*
X543112Y420620D01*
X543144Y420529D01*
X543180Y420440D01*
X543220Y420353D01*
X543263Y420267D01*
X543309Y420183D01*
X543359Y420101D01*
X543413Y420021D01*
X543469Y419944D01*
X543529Y419869D01*
X543591Y419796D01*
X543657Y419726D01*
X543725Y419658D01*
X543796Y419593D01*
X543869Y419532D01*
X543945Y419473D01*
X544024Y419417D01*
X544104Y419365D01*
X544187Y419316D01*
X544271Y419270D01*
X544357Y419228D01*
X544445Y419190D01*
X544534Y419155D01*
X544625Y419123D01*
X546262Y422601D02*
X546203Y422661D01*
X546141Y422718D01*
X546077Y422773D01*
X546010Y422824D01*
X545941Y422873D01*
X545871Y422919D01*
X545798Y422962D01*
X545724Y423002D01*
X545648Y423038D01*
X545570Y423071D01*
X545491Y423101D01*
X545411Y423128D01*
X545330Y423151D01*
X545248Y423170D01*
X545166Y423186D01*
X545082Y423199D01*
X544998Y423208D01*
X544914Y423213D01*
X544830Y423215D01*
X546262Y422601D02*
X550355Y419123D01*
X550355Y423215D01*
X550355Y426438D02*
X550355Y428484D01*
X550354Y428484D02*
X550352Y428573D01*
X550346Y428662D01*
X550336Y428751D01*
X550323Y428839D01*
X550306Y428927D01*
X550284Y429014D01*
X550259Y429099D01*
X550231Y429184D01*
X550198Y429267D01*
X550162Y429349D01*
X550123Y429429D01*
X550080Y429507D01*
X550034Y429583D01*
X549984Y429658D01*
X549931Y429730D01*
X549875Y429799D01*
X549816Y429866D01*
X549755Y429931D01*
X549690Y429992D01*
X549623Y430051D01*
X549554Y430107D01*
X549482Y430160D01*
X549407Y430210D01*
X549331Y430256D01*
X549253Y430299D01*
X549173Y430338D01*
X549091Y430374D01*
X549008Y430407D01*
X548923Y430435D01*
X548838Y430460D01*
X548751Y430482D01*
X548663Y430499D01*
X548575Y430512D01*
X548486Y430522D01*
X548397Y430528D01*
X548308Y430530D01*
X548219Y430528D01*
X548130Y430522D01*
X548041Y430512D01*
X547953Y430499D01*
X547865Y430482D01*
X547778Y430460D01*
X547693Y430435D01*
X547608Y430407D01*
X547525Y430374D01*
X547443Y430338D01*
X547363Y430299D01*
X547285Y430256D01*
X547209Y430210D01*
X547134Y430160D01*
X547062Y430107D01*
X546993Y430051D01*
X546926Y429992D01*
X546861Y429931D01*
X546800Y429866D01*
X546741Y429799D01*
X546685Y429730D01*
X546632Y429658D01*
X546582Y429583D01*
X546536Y429507D01*
X546493Y429429D01*
X546454Y429349D01*
X546418Y429267D01*
X546385Y429184D01*
X546357Y429099D01*
X546332Y429014D01*
X546310Y428927D01*
X546293Y428839D01*
X546280Y428751D01*
X546270Y428662D01*
X546264Y428573D01*
X546262Y428484D01*
X542989Y428893D02*
X542989Y426438D01*
X542988Y428893D02*
X542990Y428972D01*
X542996Y429051D01*
X543005Y429130D01*
X543018Y429208D01*
X543036Y429285D01*
X543056Y429361D01*
X543081Y429436D01*
X543109Y429510D01*
X543140Y429583D01*
X543176Y429654D01*
X543214Y429723D01*
X543256Y429790D01*
X543301Y429855D01*
X543349Y429918D01*
X543400Y429979D01*
X543454Y430036D01*
X543510Y430092D01*
X543569Y430144D01*
X543631Y430194D01*
X543695Y430240D01*
X543761Y430284D01*
X543829Y430324D01*
X543899Y430360D01*
X543971Y430394D01*
X544045Y430424D01*
X544119Y430450D01*
X544195Y430473D01*
X544272Y430491D01*
X544349Y430507D01*
X544428Y430518D01*
X544506Y430526D01*
X544585Y430530D01*
X544665Y430530D01*
X544744Y430526D01*
X544822Y430518D01*
X544901Y430507D01*
X544978Y430491D01*
X545055Y430473D01*
X545131Y430450D01*
X545205Y430424D01*
X545279Y430394D01*
X545351Y430360D01*
X545421Y430324D01*
X545489Y430284D01*
X545555Y430240D01*
X545619Y430194D01*
X545681Y430144D01*
X545740Y430092D01*
X545796Y430036D01*
X545850Y429979D01*
X545901Y429918D01*
X545949Y429855D01*
X545994Y429790D01*
X546036Y429723D01*
X546074Y429654D01*
X546110Y429583D01*
X546141Y429510D01*
X546169Y429436D01*
X546194Y429361D01*
X546214Y429285D01*
X546232Y429208D01*
X546245Y429130D01*
X546254Y429051D01*
X546260Y428972D01*
X546262Y428893D01*
X546262Y427256D01*
X501206Y415008D02*
X501206Y413371D01*
X501204Y413293D01*
X501199Y413215D01*
X501189Y413138D01*
X501176Y413061D01*
X501160Y412985D01*
X501140Y412910D01*
X501116Y412836D01*
X501089Y412763D01*
X501058Y412691D01*
X501024Y412621D01*
X500987Y412553D01*
X500946Y412486D01*
X500902Y412421D01*
X500856Y412359D01*
X500806Y412299D01*
X500754Y412241D01*
X500699Y412186D01*
X500641Y412134D01*
X500581Y412084D01*
X500519Y412038D01*
X500454Y411994D01*
X500388Y411953D01*
X500319Y411916D01*
X500249Y411882D01*
X500177Y411851D01*
X500104Y411824D01*
X500030Y411800D01*
X499955Y411780D01*
X499879Y411764D01*
X499802Y411751D01*
X499725Y411741D01*
X499647Y411736D01*
X499569Y411734D01*
X495476Y411734D01*
X495396Y411736D01*
X495316Y411742D01*
X495236Y411752D01*
X495157Y411765D01*
X495078Y411783D01*
X495001Y411804D01*
X494925Y411830D01*
X494850Y411859D01*
X494776Y411891D01*
X494704Y411927D01*
X494634Y411967D01*
X494567Y412010D01*
X494501Y412056D01*
X494438Y412106D01*
X494377Y412158D01*
X494318Y412213D01*
X494263Y412272D01*
X494211Y412332D01*
X494161Y412396D01*
X494115Y412461D01*
X494072Y412529D01*
X494032Y412599D01*
X493996Y412671D01*
X493964Y412745D01*
X493935Y412819D01*
X493910Y412896D01*
X493888Y412973D01*
X493870Y413052D01*
X493857Y413131D01*
X493847Y413210D01*
X493841Y413291D01*
X493839Y413371D01*
X493840Y413371D02*
X493840Y415008D01*
X493839Y420104D02*
X493841Y420189D01*
X493847Y420274D01*
X493857Y420358D01*
X493870Y420442D01*
X493888Y420526D01*
X493909Y420608D01*
X493934Y420689D01*
X493963Y420769D01*
X493996Y420848D01*
X494032Y420925D01*
X494072Y421000D01*
X494115Y421074D01*
X494161Y421145D01*
X494211Y421214D01*
X494264Y421281D01*
X494320Y421345D01*
X494379Y421406D01*
X494440Y421465D01*
X494504Y421521D01*
X494571Y421574D01*
X494640Y421624D01*
X494711Y421670D01*
X494785Y421713D01*
X494860Y421753D01*
X494937Y421789D01*
X495016Y421822D01*
X495096Y421851D01*
X495177Y421876D01*
X495259Y421897D01*
X495343Y421915D01*
X495427Y421928D01*
X495511Y421938D01*
X495596Y421944D01*
X495681Y421946D01*
X493839Y420104D02*
X493841Y420008D01*
X493847Y419912D01*
X493857Y419817D01*
X493870Y419722D01*
X493888Y419627D01*
X493909Y419534D01*
X493934Y419441D01*
X493963Y419350D01*
X493995Y419259D01*
X494031Y419170D01*
X494071Y419083D01*
X494114Y418997D01*
X494160Y418913D01*
X494210Y418831D01*
X494264Y418751D01*
X494320Y418674D01*
X494380Y418599D01*
X494442Y418526D01*
X494508Y418456D01*
X494576Y418388D01*
X494647Y418323D01*
X494720Y418262D01*
X494796Y418203D01*
X494875Y418147D01*
X494955Y418095D01*
X495038Y418046D01*
X495122Y418000D01*
X495208Y417958D01*
X495296Y417920D01*
X495385Y417885D01*
X495476Y417853D01*
X497113Y421331D02*
X497054Y421391D01*
X496992Y421448D01*
X496928Y421503D01*
X496861Y421554D01*
X496792Y421603D01*
X496722Y421649D01*
X496649Y421692D01*
X496575Y421732D01*
X496499Y421768D01*
X496421Y421801D01*
X496342Y421831D01*
X496262Y421858D01*
X496181Y421881D01*
X496099Y421900D01*
X496017Y421916D01*
X495933Y421929D01*
X495849Y421938D01*
X495765Y421943D01*
X495681Y421945D01*
X497113Y421331D02*
X501206Y417853D01*
X501206Y421945D01*
X501206Y425168D02*
X501206Y427623D01*
X501204Y427701D01*
X501199Y427779D01*
X501189Y427856D01*
X501176Y427933D01*
X501160Y428009D01*
X501140Y428084D01*
X501116Y428158D01*
X501089Y428231D01*
X501058Y428303D01*
X501024Y428373D01*
X500987Y428442D01*
X500946Y428508D01*
X500902Y428573D01*
X500856Y428635D01*
X500806Y428695D01*
X500754Y428753D01*
X500699Y428808D01*
X500641Y428860D01*
X500581Y428910D01*
X500519Y428956D01*
X500454Y429000D01*
X500388Y429041D01*
X500319Y429078D01*
X500249Y429112D01*
X500177Y429143D01*
X500104Y429170D01*
X500030Y429194D01*
X499955Y429214D01*
X499879Y429230D01*
X499802Y429243D01*
X499725Y429253D01*
X499647Y429258D01*
X499569Y429260D01*
X498750Y429260D01*
X498670Y429258D01*
X498590Y429252D01*
X498510Y429242D01*
X498431Y429229D01*
X498352Y429211D01*
X498275Y429190D01*
X498199Y429164D01*
X498124Y429135D01*
X498050Y429103D01*
X497978Y429067D01*
X497908Y429027D01*
X497841Y428984D01*
X497775Y428938D01*
X497712Y428888D01*
X497651Y428836D01*
X497592Y428781D01*
X497537Y428722D01*
X497485Y428662D01*
X497435Y428598D01*
X497389Y428532D01*
X497346Y428465D01*
X497306Y428395D01*
X497270Y428323D01*
X497238Y428249D01*
X497209Y428175D01*
X497183Y428098D01*
X497162Y428021D01*
X497144Y427942D01*
X497131Y427863D01*
X497121Y427783D01*
X497115Y427703D01*
X497113Y427623D01*
X497113Y425168D01*
X493840Y425168D01*
X493840Y429260D01*
X538417Y415706D02*
X538417Y414069D01*
X538415Y413991D01*
X538410Y413913D01*
X538400Y413836D01*
X538387Y413759D01*
X538371Y413683D01*
X538351Y413608D01*
X538327Y413534D01*
X538300Y413461D01*
X538269Y413389D01*
X538235Y413319D01*
X538198Y413251D01*
X538157Y413184D01*
X538113Y413119D01*
X538067Y413057D01*
X538017Y412997D01*
X537965Y412939D01*
X537910Y412884D01*
X537852Y412832D01*
X537792Y412782D01*
X537730Y412736D01*
X537665Y412692D01*
X537599Y412651D01*
X537530Y412614D01*
X537460Y412580D01*
X537388Y412549D01*
X537315Y412522D01*
X537241Y412498D01*
X537166Y412478D01*
X537090Y412462D01*
X537013Y412449D01*
X536936Y412439D01*
X536858Y412434D01*
X536780Y412432D01*
X532687Y412432D01*
X532607Y412434D01*
X532527Y412440D01*
X532447Y412450D01*
X532368Y412463D01*
X532289Y412481D01*
X532212Y412502D01*
X532136Y412528D01*
X532061Y412557D01*
X531987Y412589D01*
X531915Y412625D01*
X531845Y412665D01*
X531778Y412708D01*
X531712Y412754D01*
X531649Y412804D01*
X531588Y412856D01*
X531529Y412911D01*
X531474Y412970D01*
X531422Y413030D01*
X531372Y413094D01*
X531326Y413159D01*
X531283Y413227D01*
X531243Y413297D01*
X531207Y413369D01*
X531175Y413443D01*
X531146Y413517D01*
X531121Y413594D01*
X531099Y413671D01*
X531081Y413750D01*
X531068Y413829D01*
X531058Y413908D01*
X531052Y413989D01*
X531050Y414069D01*
X531051Y414069D02*
X531051Y415706D01*
X531050Y420802D02*
X531052Y420887D01*
X531058Y420972D01*
X531068Y421056D01*
X531081Y421140D01*
X531099Y421224D01*
X531120Y421306D01*
X531145Y421387D01*
X531174Y421467D01*
X531207Y421546D01*
X531243Y421623D01*
X531283Y421698D01*
X531326Y421772D01*
X531372Y421843D01*
X531422Y421912D01*
X531475Y421979D01*
X531531Y422043D01*
X531590Y422104D01*
X531651Y422163D01*
X531715Y422219D01*
X531782Y422272D01*
X531851Y422322D01*
X531922Y422368D01*
X531996Y422411D01*
X532071Y422451D01*
X532148Y422487D01*
X532227Y422520D01*
X532307Y422549D01*
X532388Y422574D01*
X532470Y422595D01*
X532554Y422613D01*
X532638Y422626D01*
X532722Y422636D01*
X532807Y422642D01*
X532892Y422644D01*
X531050Y420802D02*
X531052Y420706D01*
X531058Y420610D01*
X531068Y420515D01*
X531081Y420420D01*
X531099Y420325D01*
X531120Y420232D01*
X531145Y420139D01*
X531174Y420048D01*
X531206Y419957D01*
X531242Y419868D01*
X531282Y419781D01*
X531325Y419695D01*
X531371Y419611D01*
X531421Y419529D01*
X531475Y419449D01*
X531531Y419372D01*
X531591Y419297D01*
X531653Y419224D01*
X531719Y419154D01*
X531787Y419086D01*
X531858Y419021D01*
X531931Y418960D01*
X532007Y418901D01*
X532086Y418845D01*
X532166Y418793D01*
X532249Y418744D01*
X532333Y418698D01*
X532419Y418656D01*
X532507Y418618D01*
X532596Y418583D01*
X532687Y418551D01*
X534324Y422030D02*
X534265Y422090D01*
X534203Y422147D01*
X534139Y422202D01*
X534072Y422253D01*
X534003Y422302D01*
X533933Y422348D01*
X533860Y422391D01*
X533786Y422431D01*
X533710Y422467D01*
X533632Y422500D01*
X533553Y422530D01*
X533473Y422557D01*
X533392Y422580D01*
X533310Y422599D01*
X533228Y422615D01*
X533144Y422628D01*
X533060Y422637D01*
X532976Y422642D01*
X532892Y422644D01*
X534324Y422030D02*
X538417Y418551D01*
X538417Y422644D01*
X534324Y425867D02*
X534324Y428322D01*
X534326Y428400D01*
X534331Y428478D01*
X534341Y428555D01*
X534354Y428632D01*
X534370Y428708D01*
X534390Y428783D01*
X534414Y428857D01*
X534441Y428930D01*
X534472Y429002D01*
X534506Y429072D01*
X534543Y429141D01*
X534584Y429207D01*
X534628Y429272D01*
X534674Y429334D01*
X534724Y429394D01*
X534776Y429452D01*
X534831Y429507D01*
X534889Y429559D01*
X534949Y429609D01*
X535011Y429655D01*
X535076Y429699D01*
X535143Y429740D01*
X535211Y429777D01*
X535281Y429811D01*
X535353Y429842D01*
X535426Y429869D01*
X535500Y429893D01*
X535575Y429913D01*
X535651Y429929D01*
X535728Y429942D01*
X535805Y429952D01*
X535883Y429957D01*
X535961Y429959D01*
X536370Y429959D01*
X536459Y429957D01*
X536548Y429951D01*
X536637Y429941D01*
X536725Y429928D01*
X536813Y429911D01*
X536900Y429889D01*
X536985Y429864D01*
X537070Y429836D01*
X537153Y429803D01*
X537235Y429767D01*
X537315Y429728D01*
X537393Y429685D01*
X537469Y429639D01*
X537544Y429589D01*
X537616Y429536D01*
X537685Y429480D01*
X537752Y429421D01*
X537817Y429360D01*
X537878Y429295D01*
X537937Y429228D01*
X537993Y429159D01*
X538046Y429087D01*
X538096Y429012D01*
X538142Y428936D01*
X538185Y428858D01*
X538224Y428778D01*
X538260Y428696D01*
X538293Y428613D01*
X538321Y428528D01*
X538346Y428443D01*
X538368Y428356D01*
X538385Y428268D01*
X538398Y428180D01*
X538408Y428091D01*
X538414Y428002D01*
X538416Y427913D01*
X538414Y427824D01*
X538408Y427735D01*
X538398Y427646D01*
X538385Y427558D01*
X538368Y427470D01*
X538346Y427383D01*
X538321Y427298D01*
X538293Y427213D01*
X538260Y427130D01*
X538224Y427048D01*
X538185Y426968D01*
X538142Y426890D01*
X538096Y426814D01*
X538046Y426739D01*
X537993Y426667D01*
X537937Y426598D01*
X537878Y426531D01*
X537817Y426466D01*
X537752Y426405D01*
X537685Y426346D01*
X537616Y426290D01*
X537544Y426237D01*
X537469Y426187D01*
X537393Y426141D01*
X537315Y426098D01*
X537235Y426059D01*
X537153Y426023D01*
X537070Y425990D01*
X536985Y425962D01*
X536900Y425937D01*
X536813Y425915D01*
X536725Y425898D01*
X536637Y425885D01*
X536548Y425875D01*
X536459Y425869D01*
X536370Y425867D01*
X534324Y425867D01*
X534324Y425866D02*
X534210Y425868D01*
X534096Y425874D01*
X533982Y425884D01*
X533868Y425898D01*
X533755Y425916D01*
X533643Y425938D01*
X533532Y425963D01*
X533422Y425993D01*
X533312Y426026D01*
X533204Y426063D01*
X533098Y426104D01*
X532992Y426149D01*
X532889Y426197D01*
X532787Y426249D01*
X532687Y426305D01*
X532589Y426363D01*
X532493Y426426D01*
X532400Y426491D01*
X532308Y426560D01*
X532220Y426632D01*
X532133Y426707D01*
X532050Y426785D01*
X531969Y426866D01*
X531891Y426949D01*
X531816Y427035D01*
X531744Y427124D01*
X531675Y427216D01*
X531610Y427309D01*
X531548Y427405D01*
X531489Y427503D01*
X531433Y427603D01*
X531381Y427705D01*
X531333Y427808D01*
X531288Y427913D01*
X531247Y428020D01*
X531210Y428128D01*
X531177Y428238D01*
X531147Y428348D01*
X531122Y428459D01*
X531100Y428571D01*
X531082Y428684D01*
X531068Y428798D01*
X531058Y428912D01*
X531052Y429026D01*
X531050Y429140D01*
D14*
X484393Y389636D02*
X470393Y389636D01*
D11*
X481711Y413498D02*
X481711Y415135D01*
X481711Y413498D02*
X481709Y413420D01*
X481704Y413342D01*
X481694Y413265D01*
X481681Y413188D01*
X481665Y413112D01*
X481645Y413037D01*
X481621Y412963D01*
X481594Y412890D01*
X481563Y412818D01*
X481529Y412748D01*
X481492Y412680D01*
X481451Y412613D01*
X481407Y412548D01*
X481361Y412486D01*
X481311Y412426D01*
X481259Y412368D01*
X481204Y412313D01*
X481146Y412261D01*
X481086Y412211D01*
X481024Y412165D01*
X480959Y412121D01*
X480893Y412080D01*
X480824Y412043D01*
X480754Y412009D01*
X480682Y411978D01*
X480609Y411951D01*
X480535Y411927D01*
X480460Y411907D01*
X480384Y411891D01*
X480307Y411878D01*
X480230Y411868D01*
X480152Y411863D01*
X480074Y411861D01*
X475982Y411861D01*
X475902Y411863D01*
X475822Y411869D01*
X475742Y411879D01*
X475663Y411892D01*
X475584Y411910D01*
X475507Y411931D01*
X475431Y411957D01*
X475356Y411986D01*
X475282Y412018D01*
X475210Y412054D01*
X475140Y412094D01*
X475073Y412137D01*
X475007Y412183D01*
X474944Y412233D01*
X474883Y412285D01*
X474824Y412340D01*
X474769Y412399D01*
X474717Y412459D01*
X474667Y412523D01*
X474621Y412588D01*
X474578Y412656D01*
X474538Y412726D01*
X474502Y412798D01*
X474470Y412872D01*
X474441Y412946D01*
X474416Y413023D01*
X474394Y413100D01*
X474376Y413179D01*
X474363Y413258D01*
X474353Y413337D01*
X474347Y413418D01*
X474345Y413498D01*
X474345Y415135D01*
X474345Y420231D02*
X474347Y420316D01*
X474353Y420401D01*
X474363Y420485D01*
X474376Y420569D01*
X474394Y420653D01*
X474415Y420735D01*
X474440Y420816D01*
X474469Y420896D01*
X474502Y420975D01*
X474538Y421052D01*
X474578Y421127D01*
X474621Y421201D01*
X474667Y421272D01*
X474717Y421341D01*
X474770Y421408D01*
X474826Y421472D01*
X474885Y421533D01*
X474946Y421592D01*
X475010Y421648D01*
X475077Y421701D01*
X475146Y421751D01*
X475217Y421797D01*
X475291Y421840D01*
X475366Y421880D01*
X475443Y421916D01*
X475522Y421949D01*
X475602Y421978D01*
X475683Y422003D01*
X475765Y422024D01*
X475849Y422042D01*
X475933Y422055D01*
X476017Y422065D01*
X476102Y422071D01*
X476187Y422073D01*
X474345Y420231D02*
X474347Y420135D01*
X474353Y420039D01*
X474363Y419944D01*
X474376Y419849D01*
X474394Y419754D01*
X474415Y419661D01*
X474440Y419568D01*
X474469Y419477D01*
X474501Y419386D01*
X474537Y419297D01*
X474577Y419210D01*
X474620Y419124D01*
X474666Y419040D01*
X474716Y418958D01*
X474770Y418878D01*
X474826Y418801D01*
X474886Y418726D01*
X474948Y418653D01*
X475014Y418583D01*
X475082Y418515D01*
X475153Y418450D01*
X475226Y418389D01*
X475302Y418330D01*
X475381Y418274D01*
X475461Y418222D01*
X475544Y418173D01*
X475628Y418127D01*
X475714Y418085D01*
X475802Y418047D01*
X475891Y418012D01*
X475982Y417980D01*
X477619Y421458D02*
X477560Y421518D01*
X477498Y421575D01*
X477434Y421630D01*
X477367Y421681D01*
X477298Y421730D01*
X477228Y421776D01*
X477155Y421819D01*
X477081Y421859D01*
X477005Y421895D01*
X476927Y421928D01*
X476848Y421958D01*
X476768Y421985D01*
X476687Y422008D01*
X476605Y422027D01*
X476523Y422043D01*
X476439Y422056D01*
X476355Y422065D01*
X476271Y422070D01*
X476187Y422072D01*
X477619Y421458D02*
X481711Y417980D01*
X481711Y422072D01*
X479665Y425295D02*
X479576Y425297D01*
X479487Y425303D01*
X479398Y425313D01*
X479310Y425326D01*
X479222Y425343D01*
X479135Y425365D01*
X479050Y425390D01*
X478965Y425418D01*
X478882Y425451D01*
X478800Y425487D01*
X478720Y425526D01*
X478642Y425569D01*
X478566Y425615D01*
X478491Y425665D01*
X478419Y425718D01*
X478350Y425774D01*
X478283Y425833D01*
X478218Y425894D01*
X478157Y425959D01*
X478098Y426026D01*
X478042Y426095D01*
X477989Y426167D01*
X477939Y426242D01*
X477893Y426318D01*
X477850Y426396D01*
X477811Y426476D01*
X477775Y426558D01*
X477742Y426641D01*
X477714Y426726D01*
X477689Y426811D01*
X477667Y426898D01*
X477650Y426986D01*
X477637Y427074D01*
X477627Y427163D01*
X477621Y427252D01*
X477619Y427341D01*
X477621Y427430D01*
X477627Y427519D01*
X477637Y427608D01*
X477650Y427696D01*
X477667Y427784D01*
X477689Y427871D01*
X477714Y427956D01*
X477742Y428041D01*
X477775Y428124D01*
X477811Y428206D01*
X477850Y428286D01*
X477893Y428364D01*
X477939Y428440D01*
X477989Y428515D01*
X478042Y428587D01*
X478098Y428656D01*
X478157Y428723D01*
X478218Y428788D01*
X478283Y428849D01*
X478350Y428908D01*
X478419Y428964D01*
X478491Y429017D01*
X478566Y429067D01*
X478642Y429113D01*
X478720Y429156D01*
X478800Y429195D01*
X478882Y429231D01*
X478965Y429264D01*
X479050Y429292D01*
X479135Y429317D01*
X479222Y429339D01*
X479310Y429356D01*
X479398Y429369D01*
X479487Y429379D01*
X479576Y429385D01*
X479665Y429387D01*
X479754Y429385D01*
X479843Y429379D01*
X479932Y429369D01*
X480020Y429356D01*
X480108Y429339D01*
X480195Y429317D01*
X480280Y429292D01*
X480365Y429264D01*
X480448Y429231D01*
X480530Y429195D01*
X480610Y429156D01*
X480688Y429113D01*
X480764Y429067D01*
X480839Y429017D01*
X480911Y428964D01*
X480980Y428908D01*
X481047Y428849D01*
X481112Y428788D01*
X481173Y428723D01*
X481232Y428656D01*
X481288Y428587D01*
X481341Y428515D01*
X481391Y428440D01*
X481437Y428364D01*
X481480Y428286D01*
X481519Y428206D01*
X481555Y428124D01*
X481588Y428041D01*
X481616Y427956D01*
X481641Y427871D01*
X481663Y427784D01*
X481680Y427696D01*
X481693Y427608D01*
X481703Y427519D01*
X481709Y427430D01*
X481711Y427341D01*
X481709Y427252D01*
X481703Y427163D01*
X481693Y427074D01*
X481680Y426986D01*
X481663Y426898D01*
X481641Y426811D01*
X481616Y426726D01*
X481588Y426641D01*
X481555Y426558D01*
X481519Y426476D01*
X481480Y426396D01*
X481437Y426318D01*
X481391Y426242D01*
X481341Y426167D01*
X481288Y426095D01*
X481232Y426026D01*
X481173Y425959D01*
X481112Y425894D01*
X481047Y425833D01*
X480980Y425774D01*
X480911Y425718D01*
X480839Y425665D01*
X480764Y425615D01*
X480688Y425569D01*
X480610Y425526D01*
X480530Y425487D01*
X480448Y425451D01*
X480365Y425418D01*
X480280Y425390D01*
X480195Y425365D01*
X480108Y425343D01*
X480020Y425326D01*
X479932Y425313D01*
X479843Y425303D01*
X479754Y425297D01*
X479665Y425295D01*
X475982Y425704D02*
X475903Y425706D01*
X475824Y425712D01*
X475745Y425721D01*
X475667Y425734D01*
X475590Y425752D01*
X475514Y425772D01*
X475439Y425797D01*
X475365Y425825D01*
X475292Y425856D01*
X475221Y425892D01*
X475152Y425930D01*
X475085Y425972D01*
X475020Y426017D01*
X474957Y426065D01*
X474896Y426116D01*
X474839Y426170D01*
X474783Y426226D01*
X474731Y426285D01*
X474681Y426347D01*
X474635Y426411D01*
X474591Y426477D01*
X474551Y426545D01*
X474515Y426615D01*
X474481Y426687D01*
X474451Y426761D01*
X474425Y426835D01*
X474402Y426911D01*
X474384Y426988D01*
X474368Y427065D01*
X474357Y427144D01*
X474349Y427222D01*
X474345Y427301D01*
X474345Y427381D01*
X474349Y427460D01*
X474357Y427538D01*
X474368Y427617D01*
X474384Y427694D01*
X474402Y427771D01*
X474425Y427847D01*
X474451Y427921D01*
X474481Y427995D01*
X474515Y428067D01*
X474551Y428137D01*
X474591Y428205D01*
X474635Y428271D01*
X474681Y428335D01*
X474731Y428397D01*
X474783Y428456D01*
X474839Y428512D01*
X474896Y428566D01*
X474957Y428617D01*
X475020Y428665D01*
X475085Y428710D01*
X475152Y428752D01*
X475221Y428790D01*
X475292Y428826D01*
X475365Y428857D01*
X475439Y428885D01*
X475514Y428910D01*
X475590Y428930D01*
X475667Y428948D01*
X475745Y428961D01*
X475824Y428970D01*
X475903Y428976D01*
X475982Y428978D01*
X476061Y428976D01*
X476140Y428970D01*
X476219Y428961D01*
X476297Y428948D01*
X476374Y428930D01*
X476450Y428910D01*
X476525Y428885D01*
X476599Y428857D01*
X476672Y428826D01*
X476743Y428790D01*
X476812Y428752D01*
X476879Y428710D01*
X476944Y428665D01*
X477007Y428617D01*
X477068Y428566D01*
X477125Y428512D01*
X477181Y428456D01*
X477233Y428397D01*
X477283Y428335D01*
X477329Y428271D01*
X477373Y428205D01*
X477413Y428137D01*
X477449Y428067D01*
X477483Y427995D01*
X477513Y427921D01*
X477539Y427847D01*
X477562Y427771D01*
X477580Y427694D01*
X477596Y427617D01*
X477607Y427538D01*
X477615Y427460D01*
X477619Y427381D01*
X477619Y427301D01*
X477615Y427222D01*
X477607Y427144D01*
X477596Y427065D01*
X477580Y426988D01*
X477562Y426911D01*
X477539Y426835D01*
X477513Y426761D01*
X477483Y426687D01*
X477449Y426615D01*
X477413Y426545D01*
X477373Y426477D01*
X477329Y426411D01*
X477283Y426347D01*
X477233Y426285D01*
X477181Y426226D01*
X477125Y426170D01*
X477068Y426116D01*
X477007Y426065D01*
X476944Y426017D01*
X476879Y425972D01*
X476812Y425930D01*
X476743Y425892D01*
X476672Y425856D01*
X476599Y425825D01*
X476525Y425797D01*
X476450Y425772D01*
X476374Y425752D01*
X476297Y425734D01*
X476219Y425721D01*
X476140Y425712D01*
X476061Y425706D01*
X475982Y425704D01*
X526225Y415325D02*
X526225Y413688D01*
X526223Y413610D01*
X526218Y413532D01*
X526208Y413455D01*
X526195Y413378D01*
X526179Y413302D01*
X526159Y413227D01*
X526135Y413153D01*
X526108Y413080D01*
X526077Y413008D01*
X526043Y412938D01*
X526006Y412870D01*
X525965Y412803D01*
X525921Y412738D01*
X525875Y412676D01*
X525825Y412616D01*
X525773Y412558D01*
X525718Y412503D01*
X525660Y412451D01*
X525600Y412401D01*
X525538Y412355D01*
X525473Y412311D01*
X525407Y412270D01*
X525338Y412233D01*
X525268Y412199D01*
X525196Y412168D01*
X525123Y412141D01*
X525049Y412117D01*
X524974Y412097D01*
X524898Y412081D01*
X524821Y412068D01*
X524744Y412058D01*
X524666Y412053D01*
X524588Y412051D01*
X520495Y412051D01*
X520415Y412053D01*
X520335Y412059D01*
X520255Y412069D01*
X520176Y412082D01*
X520097Y412100D01*
X520020Y412121D01*
X519944Y412147D01*
X519869Y412176D01*
X519795Y412208D01*
X519723Y412244D01*
X519653Y412284D01*
X519586Y412327D01*
X519520Y412373D01*
X519457Y412423D01*
X519396Y412475D01*
X519337Y412530D01*
X519282Y412589D01*
X519230Y412649D01*
X519180Y412713D01*
X519134Y412778D01*
X519091Y412846D01*
X519051Y412916D01*
X519015Y412988D01*
X518983Y413062D01*
X518954Y413136D01*
X518929Y413213D01*
X518907Y413290D01*
X518889Y413369D01*
X518876Y413448D01*
X518866Y413527D01*
X518860Y413608D01*
X518858Y413688D01*
X518859Y413688D02*
X518859Y415325D01*
X526225Y418170D02*
X526225Y420216D01*
X526224Y420216D02*
X526222Y420305D01*
X526216Y420394D01*
X526206Y420483D01*
X526193Y420571D01*
X526176Y420659D01*
X526154Y420746D01*
X526129Y420831D01*
X526101Y420916D01*
X526068Y420999D01*
X526032Y421081D01*
X525993Y421161D01*
X525950Y421239D01*
X525904Y421315D01*
X525854Y421390D01*
X525801Y421462D01*
X525745Y421531D01*
X525686Y421598D01*
X525625Y421663D01*
X525560Y421724D01*
X525493Y421783D01*
X525424Y421839D01*
X525352Y421892D01*
X525277Y421942D01*
X525201Y421988D01*
X525123Y422031D01*
X525043Y422070D01*
X524961Y422106D01*
X524878Y422139D01*
X524793Y422167D01*
X524708Y422192D01*
X524621Y422214D01*
X524533Y422231D01*
X524445Y422244D01*
X524356Y422254D01*
X524267Y422260D01*
X524178Y422262D01*
X524089Y422260D01*
X524000Y422254D01*
X523911Y422244D01*
X523823Y422231D01*
X523735Y422214D01*
X523648Y422192D01*
X523563Y422167D01*
X523478Y422139D01*
X523395Y422106D01*
X523313Y422070D01*
X523233Y422031D01*
X523155Y421988D01*
X523079Y421942D01*
X523004Y421892D01*
X522932Y421839D01*
X522863Y421783D01*
X522796Y421724D01*
X522731Y421663D01*
X522670Y421598D01*
X522611Y421531D01*
X522555Y421462D01*
X522502Y421390D01*
X522452Y421315D01*
X522406Y421239D01*
X522363Y421161D01*
X522324Y421081D01*
X522288Y420999D01*
X522255Y420916D01*
X522227Y420831D01*
X522202Y420746D01*
X522180Y420659D01*
X522163Y420571D01*
X522150Y420483D01*
X522140Y420394D01*
X522134Y420305D01*
X522132Y420216D01*
X518859Y420626D02*
X518859Y418170D01*
X518858Y420626D02*
X518860Y420705D01*
X518866Y420784D01*
X518875Y420863D01*
X518888Y420941D01*
X518906Y421018D01*
X518926Y421094D01*
X518951Y421169D01*
X518979Y421243D01*
X519010Y421316D01*
X519046Y421387D01*
X519084Y421456D01*
X519126Y421523D01*
X519171Y421588D01*
X519219Y421651D01*
X519270Y421712D01*
X519324Y421769D01*
X519380Y421825D01*
X519439Y421877D01*
X519501Y421927D01*
X519565Y421973D01*
X519631Y422017D01*
X519699Y422057D01*
X519769Y422093D01*
X519841Y422127D01*
X519915Y422157D01*
X519989Y422183D01*
X520065Y422206D01*
X520142Y422224D01*
X520219Y422240D01*
X520298Y422251D01*
X520376Y422259D01*
X520455Y422263D01*
X520535Y422263D01*
X520614Y422259D01*
X520692Y422251D01*
X520771Y422240D01*
X520848Y422224D01*
X520925Y422206D01*
X521001Y422183D01*
X521075Y422157D01*
X521149Y422127D01*
X521221Y422093D01*
X521291Y422057D01*
X521359Y422017D01*
X521425Y421973D01*
X521489Y421927D01*
X521551Y421877D01*
X521610Y421825D01*
X521666Y421769D01*
X521720Y421712D01*
X521771Y421651D01*
X521819Y421588D01*
X521864Y421523D01*
X521906Y421456D01*
X521944Y421387D01*
X521980Y421316D01*
X522011Y421243D01*
X522039Y421169D01*
X522064Y421094D01*
X522084Y421018D01*
X522102Y420941D01*
X522115Y420863D01*
X522124Y420784D01*
X522130Y420705D01*
X522132Y420626D01*
X522132Y418989D01*
X522542Y425486D02*
X522389Y425488D01*
X522236Y425494D01*
X522084Y425503D01*
X521931Y425517D01*
X521779Y425534D01*
X521628Y425555D01*
X521477Y425580D01*
X521327Y425609D01*
X521177Y425641D01*
X521029Y425678D01*
X520881Y425718D01*
X520734Y425761D01*
X520589Y425809D01*
X520445Y425860D01*
X520302Y425914D01*
X520160Y425973D01*
X520021Y426034D01*
X519882Y426100D01*
X519812Y426126D01*
X519742Y426156D01*
X519675Y426189D01*
X519609Y426225D01*
X519545Y426264D01*
X519483Y426307D01*
X519424Y426353D01*
X519366Y426401D01*
X519312Y426452D01*
X519259Y426506D01*
X519210Y426563D01*
X519163Y426622D01*
X519120Y426683D01*
X519079Y426746D01*
X519042Y426811D01*
X519007Y426878D01*
X518977Y426947D01*
X518949Y427017D01*
X518926Y427088D01*
X518905Y427160D01*
X518889Y427233D01*
X518876Y427307D01*
X518866Y427382D01*
X518861Y427457D01*
X518859Y427532D01*
X518861Y427607D01*
X518866Y427682D01*
X518876Y427757D01*
X518889Y427831D01*
X518905Y427904D01*
X518926Y427976D01*
X518949Y428047D01*
X518977Y428117D01*
X519007Y428186D01*
X519042Y428253D01*
X519079Y428318D01*
X519120Y428381D01*
X519163Y428442D01*
X519210Y428501D01*
X519259Y428558D01*
X519312Y428612D01*
X519366Y428663D01*
X519424Y428712D01*
X519483Y428757D01*
X519545Y428800D01*
X519609Y428839D01*
X519675Y428876D01*
X519743Y428908D01*
X519812Y428938D01*
X519882Y428964D01*
X520020Y429029D01*
X520160Y429091D01*
X520302Y429149D01*
X520445Y429204D01*
X520589Y429255D01*
X520734Y429303D01*
X520881Y429346D01*
X521028Y429386D01*
X521177Y429423D01*
X521327Y429455D01*
X521477Y429484D01*
X521628Y429509D01*
X521779Y429530D01*
X521931Y429547D01*
X522084Y429561D01*
X522236Y429570D01*
X522389Y429576D01*
X522542Y429578D01*
X522542Y425486D02*
X522695Y425488D01*
X522848Y425494D01*
X523000Y425503D01*
X523153Y425517D01*
X523305Y425534D01*
X523456Y425555D01*
X523607Y425580D01*
X523757Y425609D01*
X523907Y425641D01*
X524055Y425678D01*
X524203Y425718D01*
X524350Y425761D01*
X524495Y425809D01*
X524639Y425860D01*
X524782Y425914D01*
X524924Y425973D01*
X525063Y426034D01*
X525202Y426100D01*
X525201Y426100D02*
X525272Y426126D01*
X525341Y426156D01*
X525408Y426189D01*
X525474Y426225D01*
X525538Y426264D01*
X525600Y426307D01*
X525659Y426353D01*
X525717Y426401D01*
X525771Y426452D01*
X525824Y426506D01*
X525873Y426563D01*
X525920Y426622D01*
X525963Y426683D01*
X526004Y426746D01*
X526041Y426811D01*
X526076Y426878D01*
X526106Y426947D01*
X526134Y427017D01*
X526157Y427088D01*
X526178Y427160D01*
X526194Y427233D01*
X526207Y427307D01*
X526217Y427382D01*
X526222Y427457D01*
X526224Y427532D01*
X525202Y428964D02*
X525064Y429029D01*
X524924Y429091D01*
X524782Y429149D01*
X524639Y429204D01*
X524495Y429255D01*
X524350Y429303D01*
X524203Y429346D01*
X524056Y429386D01*
X523907Y429423D01*
X523757Y429455D01*
X523607Y429484D01*
X523456Y429509D01*
X523305Y429530D01*
X523153Y429547D01*
X523000Y429561D01*
X522848Y429570D01*
X522695Y429576D01*
X522542Y429578D01*
X525201Y428964D02*
X525271Y428938D01*
X525341Y428908D01*
X525408Y428875D01*
X525474Y428839D01*
X525538Y428800D01*
X525600Y428757D01*
X525659Y428711D01*
X525717Y428663D01*
X525771Y428612D01*
X525824Y428558D01*
X525873Y428501D01*
X525920Y428442D01*
X525963Y428381D01*
X526004Y428318D01*
X526041Y428253D01*
X526076Y428186D01*
X526106Y428117D01*
X526134Y428047D01*
X526157Y427976D01*
X526178Y427904D01*
X526194Y427831D01*
X526207Y427757D01*
X526217Y427682D01*
X526222Y427607D01*
X526224Y427532D01*
X524588Y425895D02*
X520495Y429169D01*
X514477Y412787D02*
X507111Y412787D01*
X507111Y414833D01*
X507113Y414922D01*
X507119Y415011D01*
X507129Y415100D01*
X507142Y415188D01*
X507159Y415276D01*
X507181Y415363D01*
X507206Y415448D01*
X507234Y415533D01*
X507267Y415616D01*
X507303Y415698D01*
X507342Y415778D01*
X507385Y415856D01*
X507431Y415932D01*
X507481Y416007D01*
X507534Y416079D01*
X507590Y416148D01*
X507649Y416215D01*
X507710Y416280D01*
X507775Y416341D01*
X507842Y416400D01*
X507911Y416456D01*
X507983Y416509D01*
X508058Y416559D01*
X508134Y416605D01*
X508212Y416648D01*
X508292Y416687D01*
X508374Y416723D01*
X508457Y416756D01*
X508542Y416784D01*
X508627Y416809D01*
X508714Y416831D01*
X508802Y416848D01*
X508890Y416861D01*
X508979Y416871D01*
X509068Y416877D01*
X509157Y416879D01*
X509246Y416877D01*
X509335Y416871D01*
X509424Y416861D01*
X509512Y416848D01*
X509600Y416831D01*
X509687Y416809D01*
X509772Y416784D01*
X509857Y416756D01*
X509940Y416723D01*
X510022Y416687D01*
X510102Y416648D01*
X510180Y416605D01*
X510256Y416559D01*
X510331Y416509D01*
X510403Y416456D01*
X510472Y416400D01*
X510539Y416341D01*
X510604Y416280D01*
X510665Y416215D01*
X510724Y416148D01*
X510780Y416079D01*
X510833Y416007D01*
X510883Y415932D01*
X510929Y415856D01*
X510972Y415778D01*
X511011Y415698D01*
X511047Y415616D01*
X511080Y415533D01*
X511108Y415448D01*
X511133Y415363D01*
X511155Y415276D01*
X511172Y415188D01*
X511185Y415100D01*
X511195Y415011D01*
X511201Y414922D01*
X511203Y414833D01*
X511203Y412787D01*
X511203Y415242D02*
X514477Y416879D01*
X510385Y420051D02*
X510385Y422506D01*
X510387Y422584D01*
X510392Y422662D01*
X510402Y422739D01*
X510415Y422816D01*
X510431Y422892D01*
X510451Y422967D01*
X510475Y423041D01*
X510502Y423114D01*
X510533Y423186D01*
X510567Y423256D01*
X510604Y423325D01*
X510645Y423391D01*
X510689Y423456D01*
X510735Y423518D01*
X510785Y423578D01*
X510837Y423636D01*
X510892Y423691D01*
X510950Y423743D01*
X511010Y423793D01*
X511072Y423839D01*
X511137Y423883D01*
X511204Y423924D01*
X511272Y423961D01*
X511342Y423995D01*
X511414Y424026D01*
X511487Y424053D01*
X511561Y424077D01*
X511636Y424097D01*
X511712Y424113D01*
X511789Y424126D01*
X511866Y424136D01*
X511944Y424141D01*
X512022Y424143D01*
X512431Y424143D01*
X512520Y424141D01*
X512609Y424135D01*
X512698Y424125D01*
X512786Y424112D01*
X512874Y424095D01*
X512961Y424073D01*
X513046Y424048D01*
X513131Y424020D01*
X513214Y423987D01*
X513296Y423951D01*
X513376Y423912D01*
X513454Y423869D01*
X513530Y423823D01*
X513605Y423773D01*
X513677Y423720D01*
X513746Y423664D01*
X513813Y423605D01*
X513878Y423544D01*
X513939Y423479D01*
X513998Y423412D01*
X514054Y423343D01*
X514107Y423271D01*
X514157Y423196D01*
X514203Y423120D01*
X514246Y423042D01*
X514285Y422962D01*
X514321Y422880D01*
X514354Y422797D01*
X514382Y422712D01*
X514407Y422627D01*
X514429Y422540D01*
X514446Y422452D01*
X514459Y422364D01*
X514469Y422275D01*
X514475Y422186D01*
X514477Y422097D01*
X514475Y422008D01*
X514469Y421919D01*
X514459Y421830D01*
X514446Y421742D01*
X514429Y421654D01*
X514407Y421567D01*
X514382Y421482D01*
X514354Y421397D01*
X514321Y421314D01*
X514285Y421232D01*
X514246Y421152D01*
X514203Y421074D01*
X514157Y420998D01*
X514107Y420923D01*
X514054Y420851D01*
X513998Y420782D01*
X513939Y420715D01*
X513878Y420650D01*
X513813Y420589D01*
X513746Y420530D01*
X513677Y420474D01*
X513605Y420421D01*
X513530Y420371D01*
X513454Y420325D01*
X513376Y420282D01*
X513296Y420243D01*
X513214Y420207D01*
X513131Y420174D01*
X513046Y420146D01*
X512961Y420121D01*
X512874Y420099D01*
X512786Y420082D01*
X512698Y420069D01*
X512609Y420059D01*
X512520Y420053D01*
X512431Y420051D01*
X510385Y420051D01*
X510271Y420053D01*
X510157Y420059D01*
X510043Y420069D01*
X509929Y420083D01*
X509816Y420101D01*
X509704Y420123D01*
X509593Y420148D01*
X509483Y420178D01*
X509373Y420211D01*
X509265Y420248D01*
X509159Y420289D01*
X509053Y420334D01*
X508950Y420382D01*
X508848Y420434D01*
X508748Y420490D01*
X508650Y420548D01*
X508554Y420611D01*
X508461Y420676D01*
X508369Y420745D01*
X508281Y420817D01*
X508194Y420892D01*
X508111Y420970D01*
X508030Y421051D01*
X507952Y421134D01*
X507877Y421220D01*
X507805Y421309D01*
X507736Y421401D01*
X507671Y421494D01*
X507609Y421590D01*
X507550Y421688D01*
X507494Y421788D01*
X507442Y421890D01*
X507394Y421993D01*
X507349Y422098D01*
X507308Y422205D01*
X507271Y422313D01*
X507238Y422423D01*
X507208Y422533D01*
X507183Y422644D01*
X507161Y422756D01*
X507143Y422869D01*
X507129Y422983D01*
X507119Y423097D01*
X507113Y423211D01*
X507111Y423325D01*
X507111Y412787D02*
X514477Y412787D01*
X507111Y412787D02*
X507111Y414833D01*
X507113Y414922D01*
X507119Y415011D01*
X507129Y415100D01*
X507142Y415188D01*
X507159Y415276D01*
X507181Y415363D01*
X507206Y415448D01*
X507234Y415533D01*
X507267Y415616D01*
X507303Y415698D01*
X507342Y415778D01*
X507385Y415856D01*
X507431Y415932D01*
X507481Y416007D01*
X507534Y416079D01*
X507590Y416148D01*
X507649Y416215D01*
X507710Y416280D01*
X507775Y416341D01*
X507842Y416400D01*
X507911Y416456D01*
X507983Y416509D01*
X508058Y416559D01*
X508134Y416605D01*
X508212Y416648D01*
X508292Y416687D01*
X508374Y416723D01*
X508457Y416756D01*
X508542Y416784D01*
X508627Y416809D01*
X508714Y416831D01*
X508802Y416848D01*
X508890Y416861D01*
X508979Y416871D01*
X509068Y416877D01*
X509157Y416879D01*
X509246Y416877D01*
X509335Y416871D01*
X509424Y416861D01*
X509512Y416848D01*
X509600Y416831D01*
X509687Y416809D01*
X509772Y416784D01*
X509857Y416756D01*
X509940Y416723D01*
X510022Y416687D01*
X510102Y416648D01*
X510180Y416605D01*
X510256Y416559D01*
X510331Y416509D01*
X510403Y416456D01*
X510472Y416400D01*
X510539Y416341D01*
X510604Y416280D01*
X510665Y416215D01*
X510724Y416148D01*
X510780Y416079D01*
X510833Y416007D01*
X510883Y415932D01*
X510929Y415856D01*
X510972Y415778D01*
X511011Y415698D01*
X511047Y415616D01*
X511080Y415533D01*
X511108Y415448D01*
X511133Y415363D01*
X511155Y415276D01*
X511172Y415188D01*
X511185Y415100D01*
X511195Y415011D01*
X511201Y414922D01*
X511203Y414833D01*
X511203Y412787D01*
X511203Y415242D02*
X514477Y416879D01*
X510385Y420051D02*
X510385Y422506D01*
X510387Y422584D01*
X510392Y422662D01*
X510402Y422739D01*
X510415Y422816D01*
X510431Y422892D01*
X510451Y422967D01*
X510475Y423041D01*
X510502Y423114D01*
X510533Y423186D01*
X510567Y423256D01*
X510604Y423325D01*
X510645Y423391D01*
X510689Y423456D01*
X510735Y423518D01*
X510785Y423578D01*
X510837Y423636D01*
X510892Y423691D01*
X510950Y423743D01*
X511010Y423793D01*
X511072Y423839D01*
X511137Y423883D01*
X511204Y423924D01*
X511272Y423961D01*
X511342Y423995D01*
X511414Y424026D01*
X511487Y424053D01*
X511561Y424077D01*
X511636Y424097D01*
X511712Y424113D01*
X511789Y424126D01*
X511866Y424136D01*
X511944Y424141D01*
X512022Y424143D01*
X512431Y424143D01*
X512520Y424141D01*
X512609Y424135D01*
X512698Y424125D01*
X512786Y424112D01*
X512874Y424095D01*
X512961Y424073D01*
X513046Y424048D01*
X513131Y424020D01*
X513214Y423987D01*
X513296Y423951D01*
X513376Y423912D01*
X513454Y423869D01*
X513530Y423823D01*
X513605Y423773D01*
X513677Y423720D01*
X513746Y423664D01*
X513813Y423605D01*
X513878Y423544D01*
X513939Y423479D01*
X513998Y423412D01*
X514054Y423343D01*
X514107Y423271D01*
X514157Y423196D01*
X514203Y423120D01*
X514246Y423042D01*
X514285Y422962D01*
X514321Y422880D01*
X514354Y422797D01*
X514382Y422712D01*
X514407Y422627D01*
X514429Y422540D01*
X514446Y422452D01*
X514459Y422364D01*
X514469Y422275D01*
X514475Y422186D01*
X514477Y422097D01*
X514475Y422008D01*
X514469Y421919D01*
X514459Y421830D01*
X514446Y421742D01*
X514429Y421654D01*
X514407Y421567D01*
X514382Y421482D01*
X514354Y421397D01*
X514321Y421314D01*
X514285Y421232D01*
X514246Y421152D01*
X514203Y421074D01*
X514157Y420998D01*
X514107Y420923D01*
X514054Y420851D01*
X513998Y420782D01*
X513939Y420715D01*
X513878Y420650D01*
X513813Y420589D01*
X513746Y420530D01*
X513677Y420474D01*
X513605Y420421D01*
X513530Y420371D01*
X513454Y420325D01*
X513376Y420282D01*
X513296Y420243D01*
X513214Y420207D01*
X513131Y420174D01*
X513046Y420146D01*
X512961Y420121D01*
X512874Y420099D01*
X512786Y420082D01*
X512698Y420069D01*
X512609Y420059D01*
X512520Y420053D01*
X512431Y420051D01*
X510385Y420051D01*
X510271Y420053D01*
X510157Y420059D01*
X510043Y420069D01*
X509929Y420083D01*
X509816Y420101D01*
X509704Y420123D01*
X509593Y420148D01*
X509483Y420178D01*
X509373Y420211D01*
X509265Y420248D01*
X509159Y420289D01*
X509053Y420334D01*
X508950Y420382D01*
X508848Y420434D01*
X508748Y420490D01*
X508650Y420548D01*
X508554Y420611D01*
X508461Y420676D01*
X508369Y420745D01*
X508281Y420817D01*
X508194Y420892D01*
X508111Y420970D01*
X508030Y421051D01*
X507952Y421134D01*
X507877Y421220D01*
X507805Y421309D01*
X507736Y421401D01*
X507671Y421494D01*
X507609Y421590D01*
X507550Y421688D01*
X507494Y421788D01*
X507442Y421890D01*
X507394Y421993D01*
X507349Y422098D01*
X507308Y422205D01*
X507271Y422313D01*
X507238Y422423D01*
X507208Y422533D01*
X507183Y422644D01*
X507161Y422756D01*
X507143Y422869D01*
X507129Y422983D01*
X507119Y423097D01*
X507113Y423211D01*
X507111Y423325D01*
X507111Y412787D02*
X514477Y412787D01*
X507111Y412787D02*
X507111Y414833D01*
X507113Y414922D01*
X507119Y415011D01*
X507129Y415100D01*
X507142Y415188D01*
X507159Y415276D01*
X507181Y415363D01*
X507206Y415448D01*
X507234Y415533D01*
X507267Y415616D01*
X507303Y415698D01*
X507342Y415778D01*
X507385Y415856D01*
X507431Y415932D01*
X507481Y416007D01*
X507534Y416079D01*
X507590Y416148D01*
X507649Y416215D01*
X507710Y416280D01*
X507775Y416341D01*
X507842Y416400D01*
X507911Y416456D01*
X507983Y416509D01*
X508058Y416559D01*
X508134Y416605D01*
X508212Y416648D01*
X508292Y416687D01*
X508374Y416723D01*
X508457Y416756D01*
X508542Y416784D01*
X508627Y416809D01*
X508714Y416831D01*
X508802Y416848D01*
X508890Y416861D01*
X508979Y416871D01*
X509068Y416877D01*
X509157Y416879D01*
X509246Y416877D01*
X509335Y416871D01*
X509424Y416861D01*
X509512Y416848D01*
X509600Y416831D01*
X509687Y416809D01*
X509772Y416784D01*
X509857Y416756D01*
X509940Y416723D01*
X510022Y416687D01*
X510102Y416648D01*
X510180Y416605D01*
X510256Y416559D01*
X510331Y416509D01*
X510403Y416456D01*
X510472Y416400D01*
X510539Y416341D01*
X510604Y416280D01*
X510665Y416215D01*
X510724Y416148D01*
X510780Y416079D01*
X510833Y416007D01*
X510883Y415932D01*
X510929Y415856D01*
X510972Y415778D01*
X511011Y415698D01*
X511047Y415616D01*
X511080Y415533D01*
X511108Y415448D01*
X511133Y415363D01*
X511155Y415276D01*
X511172Y415188D01*
X511185Y415100D01*
X511195Y415011D01*
X511201Y414922D01*
X511203Y414833D01*
X511203Y412787D01*
X511203Y415242D02*
X514477Y416879D01*
X510385Y420051D02*
X510385Y422506D01*
X510387Y422584D01*
X510392Y422662D01*
X510402Y422739D01*
X510415Y422816D01*
X510431Y422892D01*
X510451Y422967D01*
X510475Y423041D01*
X510502Y423114D01*
X510533Y423186D01*
X510567Y423256D01*
X510604Y423325D01*
X510645Y423391D01*
X510689Y423456D01*
X510735Y423518D01*
X510785Y423578D01*
X510837Y423636D01*
X510892Y423691D01*
X510950Y423743D01*
X511010Y423793D01*
X511072Y423839D01*
X511137Y423883D01*
X511204Y423924D01*
X511272Y423961D01*
X511342Y423995D01*
X511414Y424026D01*
X511487Y424053D01*
X511561Y424077D01*
X511636Y424097D01*
X511712Y424113D01*
X511789Y424126D01*
X511866Y424136D01*
X511944Y424141D01*
X512022Y424143D01*
X512431Y424143D01*
X512520Y424141D01*
X512609Y424135D01*
X512698Y424125D01*
X512786Y424112D01*
X512874Y424095D01*
X512961Y424073D01*
X513046Y424048D01*
X513131Y424020D01*
X513214Y423987D01*
X513296Y423951D01*
X513376Y423912D01*
X513454Y423869D01*
X513530Y423823D01*
X513605Y423773D01*
X513677Y423720D01*
X513746Y423664D01*
X513813Y423605D01*
X513878Y423544D01*
X513939Y423479D01*
X513998Y423412D01*
X514054Y423343D01*
X514107Y423271D01*
X514157Y423196D01*
X514203Y423120D01*
X514246Y423042D01*
X514285Y422962D01*
X514321Y422880D01*
X514354Y422797D01*
X514382Y422712D01*
X514407Y422627D01*
X514429Y422540D01*
X514446Y422452D01*
X514459Y422364D01*
X514469Y422275D01*
X514475Y422186D01*
X514477Y422097D01*
X514475Y422008D01*
X514469Y421919D01*
X514459Y421830D01*
X514446Y421742D01*
X514429Y421654D01*
X514407Y421567D01*
X514382Y421482D01*
X514354Y421397D01*
X514321Y421314D01*
X514285Y421232D01*
X514246Y421152D01*
X514203Y421074D01*
X514157Y420998D01*
X514107Y420923D01*
X514054Y420851D01*
X513998Y420782D01*
X513939Y420715D01*
X513878Y420650D01*
X513813Y420589D01*
X513746Y420530D01*
X513677Y420474D01*
X513605Y420421D01*
X513530Y420371D01*
X513454Y420325D01*
X513376Y420282D01*
X513296Y420243D01*
X513214Y420207D01*
X513131Y420174D01*
X513046Y420146D01*
X512961Y420121D01*
X512874Y420099D01*
X512786Y420082D01*
X512698Y420069D01*
X512609Y420059D01*
X512520Y420053D01*
X512431Y420051D01*
X510385Y420051D01*
X510271Y420053D01*
X510157Y420059D01*
X510043Y420069D01*
X509929Y420083D01*
X509816Y420101D01*
X509704Y420123D01*
X509593Y420148D01*
X509483Y420178D01*
X509373Y420211D01*
X509265Y420248D01*
X509159Y420289D01*
X509053Y420334D01*
X508950Y420382D01*
X508848Y420434D01*
X508748Y420490D01*
X508650Y420548D01*
X508554Y420611D01*
X508461Y420676D01*
X508369Y420745D01*
X508281Y420817D01*
X508194Y420892D01*
X508111Y420970D01*
X508030Y421051D01*
X507952Y421134D01*
X507877Y421220D01*
X507805Y421309D01*
X507736Y421401D01*
X507671Y421494D01*
X507609Y421590D01*
X507550Y421688D01*
X507494Y421788D01*
X507442Y421890D01*
X507394Y421993D01*
X507349Y422098D01*
X507308Y422205D01*
X507271Y422313D01*
X507238Y422423D01*
X507208Y422533D01*
X507183Y422644D01*
X507161Y422756D01*
X507143Y422869D01*
X507129Y422983D01*
X507119Y423097D01*
X507113Y423211D01*
X507111Y423325D01*
X507111Y412787D02*
X514477Y412787D01*
X507111Y412787D02*
X507111Y414833D01*
X507113Y414922D01*
X507119Y415011D01*
X507129Y415100D01*
X507142Y415188D01*
X507159Y415276D01*
X507181Y415363D01*
X507206Y415448D01*
X507234Y415533D01*
X507267Y415616D01*
X507303Y415698D01*
X507342Y415778D01*
X507385Y415856D01*
X507431Y415932D01*
X507481Y416007D01*
X507534Y416079D01*
X507590Y416148D01*
X507649Y416215D01*
X507710Y416280D01*
X507775Y416341D01*
X507842Y416400D01*
X507911Y416456D01*
X507983Y416509D01*
X508058Y416559D01*
X508134Y416605D01*
X508212Y416648D01*
X508292Y416687D01*
X508374Y416723D01*
X508457Y416756D01*
X508542Y416784D01*
X508627Y416809D01*
X508714Y416831D01*
X508802Y416848D01*
X508890Y416861D01*
X508979Y416871D01*
X509068Y416877D01*
X509157Y416879D01*
X509246Y416877D01*
X509335Y416871D01*
X509424Y416861D01*
X509512Y416848D01*
X509600Y416831D01*
X509687Y416809D01*
X509772Y416784D01*
X509857Y416756D01*
X509940Y416723D01*
X510022Y416687D01*
X510102Y416648D01*
X510180Y416605D01*
X510256Y416559D01*
X510331Y416509D01*
X510403Y416456D01*
X510472Y416400D01*
X510539Y416341D01*
X510604Y416280D01*
X510665Y416215D01*
X510724Y416148D01*
X510780Y416079D01*
X510833Y416007D01*
X510883Y415932D01*
X510929Y415856D01*
X510972Y415778D01*
X511011Y415698D01*
X511047Y415616D01*
X511080Y415533D01*
X511108Y415448D01*
X511133Y415363D01*
X511155Y415276D01*
X511172Y415188D01*
X511185Y415100D01*
X511195Y415011D01*
X511201Y414922D01*
X511203Y414833D01*
X511203Y412787D01*
X511203Y415242D02*
X514477Y416879D01*
X510385Y420051D02*
X510385Y422506D01*
X510387Y422584D01*
X510392Y422662D01*
X510402Y422739D01*
X510415Y422816D01*
X510431Y422892D01*
X510451Y422967D01*
X510475Y423041D01*
X510502Y423114D01*
X510533Y423186D01*
X510567Y423256D01*
X510604Y423325D01*
X510645Y423391D01*
X510689Y423456D01*
X510735Y423518D01*
X510785Y423578D01*
X510837Y423636D01*
X510892Y423691D01*
X510950Y423743D01*
X511010Y423793D01*
X511072Y423839D01*
X511137Y423883D01*
X511204Y423924D01*
X511272Y423961D01*
X511342Y423995D01*
X511414Y424026D01*
X511487Y424053D01*
X511561Y424077D01*
X511636Y424097D01*
X511712Y424113D01*
X511789Y424126D01*
X511866Y424136D01*
X511944Y424141D01*
X512022Y424143D01*
X512431Y424143D01*
X512520Y424141D01*
X512609Y424135D01*
X512698Y424125D01*
X512786Y424112D01*
X512874Y424095D01*
X512961Y424073D01*
X513046Y424048D01*
X513131Y424020D01*
X513214Y423987D01*
X513296Y423951D01*
X513376Y423912D01*
X513454Y423869D01*
X513530Y423823D01*
X513605Y423773D01*
X513677Y423720D01*
X513746Y423664D01*
X513813Y423605D01*
X513878Y423544D01*
X513939Y423479D01*
X513998Y423412D01*
X514054Y423343D01*
X514107Y423271D01*
X514157Y423196D01*
X514203Y423120D01*
X514246Y423042D01*
X514285Y422962D01*
X514321Y422880D01*
X514354Y422797D01*
X514382Y422712D01*
X514407Y422627D01*
X514429Y422540D01*
X514446Y422452D01*
X514459Y422364D01*
X514469Y422275D01*
X514475Y422186D01*
X514477Y422097D01*
X514475Y422008D01*
X514469Y421919D01*
X514459Y421830D01*
X514446Y421742D01*
X514429Y421654D01*
X514407Y421567D01*
X514382Y421482D01*
X514354Y421397D01*
X514321Y421314D01*
X514285Y421232D01*
X514246Y421152D01*
X514203Y421074D01*
X514157Y420998D01*
X514107Y420923D01*
X514054Y420851D01*
X513998Y420782D01*
X513939Y420715D01*
X513878Y420650D01*
X513813Y420589D01*
X513746Y420530D01*
X513677Y420474D01*
X513605Y420421D01*
X513530Y420371D01*
X513454Y420325D01*
X513376Y420282D01*
X513296Y420243D01*
X513214Y420207D01*
X513131Y420174D01*
X513046Y420146D01*
X512961Y420121D01*
X512874Y420099D01*
X512786Y420082D01*
X512698Y420069D01*
X512609Y420059D01*
X512520Y420053D01*
X512431Y420051D01*
X510385Y420051D01*
X510271Y420053D01*
X510157Y420059D01*
X510043Y420069D01*
X509929Y420083D01*
X509816Y420101D01*
X509704Y420123D01*
X509593Y420148D01*
X509483Y420178D01*
X509373Y420211D01*
X509265Y420248D01*
X509159Y420289D01*
X509053Y420334D01*
X508950Y420382D01*
X508848Y420434D01*
X508748Y420490D01*
X508650Y420548D01*
X508554Y420611D01*
X508461Y420676D01*
X508369Y420745D01*
X508281Y420817D01*
X508194Y420892D01*
X508111Y420970D01*
X508030Y421051D01*
X507952Y421134D01*
X507877Y421220D01*
X507805Y421309D01*
X507736Y421401D01*
X507671Y421494D01*
X507609Y421590D01*
X507550Y421688D01*
X507494Y421788D01*
X507442Y421890D01*
X507394Y421993D01*
X507349Y422098D01*
X507308Y422205D01*
X507271Y422313D01*
X507238Y422423D01*
X507208Y422533D01*
X507183Y422644D01*
X507161Y422756D01*
X507143Y422869D01*
X507129Y422983D01*
X507119Y423097D01*
X507113Y423211D01*
X507111Y423325D01*
X507111Y412787D02*
X514477Y412787D01*
X507111Y412787D02*
X507111Y414833D01*
X507113Y414922D01*
X507119Y415011D01*
X507129Y415100D01*
X507142Y415188D01*
X507159Y415276D01*
X507181Y415363D01*
X507206Y415448D01*
X507234Y415533D01*
X507267Y415616D01*
X507303Y415698D01*
X507342Y415778D01*
X507385Y415856D01*
X507431Y415932D01*
X507481Y416007D01*
X507534Y416079D01*
X507590Y416148D01*
X507649Y416215D01*
X507710Y416280D01*
X507775Y416341D01*
X507842Y416400D01*
X507911Y416456D01*
X507983Y416509D01*
X508058Y416559D01*
X508134Y416605D01*
X508212Y416648D01*
X508292Y416687D01*
X508374Y416723D01*
X508457Y416756D01*
X508542Y416784D01*
X508627Y416809D01*
X508714Y416831D01*
X508802Y416848D01*
X508890Y416861D01*
X508979Y416871D01*
X509068Y416877D01*
X509157Y416879D01*
X509246Y416877D01*
X509335Y416871D01*
X509424Y416861D01*
X509512Y416848D01*
X509600Y416831D01*
X509687Y416809D01*
X509772Y416784D01*
X509857Y416756D01*
X509940Y416723D01*
X510022Y416687D01*
X510102Y416648D01*
X510180Y416605D01*
X510256Y416559D01*
X510331Y416509D01*
X510403Y416456D01*
X510472Y416400D01*
X510539Y416341D01*
X510604Y416280D01*
X510665Y416215D01*
X510724Y416148D01*
X510780Y416079D01*
X510833Y416007D01*
X510883Y415932D01*
X510929Y415856D01*
X510972Y415778D01*
X511011Y415698D01*
X511047Y415616D01*
X511080Y415533D01*
X511108Y415448D01*
X511133Y415363D01*
X511155Y415276D01*
X511172Y415188D01*
X511185Y415100D01*
X511195Y415011D01*
X511201Y414922D01*
X511203Y414833D01*
X511203Y412787D01*
X511203Y415242D02*
X514477Y416879D01*
X510385Y420051D02*
X510385Y422506D01*
X510387Y422584D01*
X510392Y422662D01*
X510402Y422739D01*
X510415Y422816D01*
X510431Y422892D01*
X510451Y422967D01*
X510475Y423041D01*
X510502Y423114D01*
X510533Y423186D01*
X510567Y423256D01*
X510604Y423325D01*
X510645Y423391D01*
X510689Y423456D01*
X510735Y423518D01*
X510785Y423578D01*
X510837Y423636D01*
X510892Y423691D01*
X510950Y423743D01*
X511010Y423793D01*
X511072Y423839D01*
X511137Y423883D01*
X511204Y423924D01*
X511272Y423961D01*
X511342Y423995D01*
X511414Y424026D01*
X511487Y424053D01*
X511561Y424077D01*
X511636Y424097D01*
X511712Y424113D01*
X511789Y424126D01*
X511866Y424136D01*
X511944Y424141D01*
X512022Y424143D01*
X512431Y424143D01*
X512520Y424141D01*
X512609Y424135D01*
X512698Y424125D01*
X512786Y424112D01*
X512874Y424095D01*
X512961Y424073D01*
X513046Y424048D01*
X513131Y424020D01*
X513214Y423987D01*
X513296Y423951D01*
X513376Y423912D01*
X513454Y423869D01*
X513530Y423823D01*
X513605Y423773D01*
X513677Y423720D01*
X513746Y423664D01*
X513813Y423605D01*
X513878Y423544D01*
X513939Y423479D01*
X513998Y423412D01*
X514054Y423343D01*
X514107Y423271D01*
X514157Y423196D01*
X514203Y423120D01*
X514246Y423042D01*
X514285Y422962D01*
X514321Y422880D01*
X514354Y422797D01*
X514382Y422712D01*
X514407Y422627D01*
X514429Y422540D01*
X514446Y422452D01*
X514459Y422364D01*
X514469Y422275D01*
X514475Y422186D01*
X514477Y422097D01*
X514475Y422008D01*
X514469Y421919D01*
X514459Y421830D01*
X514446Y421742D01*
X514429Y421654D01*
X514407Y421567D01*
X514382Y421482D01*
X514354Y421397D01*
X514321Y421314D01*
X514285Y421232D01*
X514246Y421152D01*
X514203Y421074D01*
X514157Y420998D01*
X514107Y420923D01*
X514054Y420851D01*
X513998Y420782D01*
X513939Y420715D01*
X513878Y420650D01*
X513813Y420589D01*
X513746Y420530D01*
X513677Y420474D01*
X513605Y420421D01*
X513530Y420371D01*
X513454Y420325D01*
X513376Y420282D01*
X513296Y420243D01*
X513214Y420207D01*
X513131Y420174D01*
X513046Y420146D01*
X512961Y420121D01*
X512874Y420099D01*
X512786Y420082D01*
X512698Y420069D01*
X512609Y420059D01*
X512520Y420053D01*
X512431Y420051D01*
X510385Y420051D01*
X510271Y420053D01*
X510157Y420059D01*
X510043Y420069D01*
X509929Y420083D01*
X509816Y420101D01*
X509704Y420123D01*
X509593Y420148D01*
X509483Y420178D01*
X509373Y420211D01*
X509265Y420248D01*
X509159Y420289D01*
X509053Y420334D01*
X508950Y420382D01*
X508848Y420434D01*
X508748Y420490D01*
X508650Y420548D01*
X508554Y420611D01*
X508461Y420676D01*
X508369Y420745D01*
X508281Y420817D01*
X508194Y420892D01*
X508111Y420970D01*
X508030Y421051D01*
X507952Y421134D01*
X507877Y421220D01*
X507805Y421309D01*
X507736Y421401D01*
X507671Y421494D01*
X507609Y421590D01*
X507550Y421688D01*
X507494Y421788D01*
X507442Y421890D01*
X507394Y421993D01*
X507349Y422098D01*
X507308Y422205D01*
X507271Y422313D01*
X507238Y422423D01*
X507208Y422533D01*
X507183Y422644D01*
X507161Y422756D01*
X507143Y422869D01*
X507129Y422983D01*
X507119Y423097D01*
X507113Y423211D01*
X507111Y423325D01*
X507111Y412787D02*
X514477Y412787D01*
X507111Y412787D02*
X507111Y414833D01*
X507113Y414922D01*
X507119Y415011D01*
X507129Y415100D01*
X507142Y415188D01*
X507159Y415276D01*
X507181Y415363D01*
X507206Y415448D01*
X507234Y415533D01*
X507267Y415616D01*
X507303Y415698D01*
X507342Y415778D01*
X507385Y415856D01*
X507431Y415932D01*
X507481Y416007D01*
X507534Y416079D01*
X507590Y416148D01*
X507649Y416215D01*
X507710Y416280D01*
X507775Y416341D01*
X507842Y416400D01*
X507911Y416456D01*
X507983Y416509D01*
X508058Y416559D01*
X508134Y416605D01*
X508212Y416648D01*
X508292Y416687D01*
X508374Y416723D01*
X508457Y416756D01*
X508542Y416784D01*
X508627Y416809D01*
X508714Y416831D01*
X508802Y416848D01*
X508890Y416861D01*
X508979Y416871D01*
X509068Y416877D01*
X509157Y416879D01*
X509246Y416877D01*
X509335Y416871D01*
X509424Y416861D01*
X509512Y416848D01*
X509600Y416831D01*
X509687Y416809D01*
X509772Y416784D01*
X509857Y416756D01*
X509940Y416723D01*
X510022Y416687D01*
X510102Y416648D01*
X510180Y416605D01*
X510256Y416559D01*
X510331Y416509D01*
X510403Y416456D01*
X510472Y416400D01*
X510539Y416341D01*
X510604Y416280D01*
X510665Y416215D01*
X510724Y416148D01*
X510780Y416079D01*
X510833Y416007D01*
X510883Y415932D01*
X510929Y415856D01*
X510972Y415778D01*
X511011Y415698D01*
X511047Y415616D01*
X511080Y415533D01*
X511108Y415448D01*
X511133Y415363D01*
X511155Y415276D01*
X511172Y415188D01*
X511185Y415100D01*
X511195Y415011D01*
X511201Y414922D01*
X511203Y414833D01*
X511203Y412787D01*
X511203Y415242D02*
X514477Y416879D01*
X510385Y420051D02*
X510385Y422506D01*
X510387Y422584D01*
X510392Y422662D01*
X510402Y422739D01*
X510415Y422816D01*
X510431Y422892D01*
X510451Y422967D01*
X510475Y423041D01*
X510502Y423114D01*
X510533Y423186D01*
X510567Y423256D01*
X510604Y423325D01*
X510645Y423391D01*
X510689Y423456D01*
X510735Y423518D01*
X510785Y423578D01*
X510837Y423636D01*
X510892Y423691D01*
X510950Y423743D01*
X511010Y423793D01*
X511072Y423839D01*
X511137Y423883D01*
X511204Y423924D01*
X511272Y423961D01*
X511342Y423995D01*
X511414Y424026D01*
X511487Y424053D01*
X511561Y424077D01*
X511636Y424097D01*
X511712Y424113D01*
X511789Y424126D01*
X511866Y424136D01*
X511944Y424141D01*
X512022Y424143D01*
X512431Y424143D01*
X512520Y424141D01*
X512609Y424135D01*
X512698Y424125D01*
X512786Y424112D01*
X512874Y424095D01*
X512961Y424073D01*
X513046Y424048D01*
X513131Y424020D01*
X513214Y423987D01*
X513296Y423951D01*
X513376Y423912D01*
X513454Y423869D01*
X513530Y423823D01*
X513605Y423773D01*
X513677Y423720D01*
X513746Y423664D01*
X513813Y423605D01*
X513878Y423544D01*
X513939Y423479D01*
X513998Y423412D01*
X514054Y423343D01*
X514107Y423271D01*
X514157Y423196D01*
X514203Y423120D01*
X514246Y423042D01*
X514285Y422962D01*
X514321Y422880D01*
X514354Y422797D01*
X514382Y422712D01*
X514407Y422627D01*
X514429Y422540D01*
X514446Y422452D01*
X514459Y422364D01*
X514469Y422275D01*
X514475Y422186D01*
X514477Y422097D01*
X514475Y422008D01*
X514469Y421919D01*
X514459Y421830D01*
X514446Y421742D01*
X514429Y421654D01*
X514407Y421567D01*
X514382Y421482D01*
X514354Y421397D01*
X514321Y421314D01*
X514285Y421232D01*
X514246Y421152D01*
X514203Y421074D01*
X514157Y420998D01*
X514107Y420923D01*
X514054Y420851D01*
X513998Y420782D01*
X513939Y420715D01*
X513878Y420650D01*
X513813Y420589D01*
X513746Y420530D01*
X513677Y420474D01*
X513605Y420421D01*
X513530Y420371D01*
X513454Y420325D01*
X513376Y420282D01*
X513296Y420243D01*
X513214Y420207D01*
X513131Y420174D01*
X513046Y420146D01*
X512961Y420121D01*
X512874Y420099D01*
X512786Y420082D01*
X512698Y420069D01*
X512609Y420059D01*
X512520Y420053D01*
X512431Y420051D01*
X510385Y420051D01*
X510271Y420053D01*
X510157Y420059D01*
X510043Y420069D01*
X509929Y420083D01*
X509816Y420101D01*
X509704Y420123D01*
X509593Y420148D01*
X509483Y420178D01*
X509373Y420211D01*
X509265Y420248D01*
X509159Y420289D01*
X509053Y420334D01*
X508950Y420382D01*
X508848Y420434D01*
X508748Y420490D01*
X508650Y420548D01*
X508554Y420611D01*
X508461Y420676D01*
X508369Y420745D01*
X508281Y420817D01*
X508194Y420892D01*
X508111Y420970D01*
X508030Y421051D01*
X507952Y421134D01*
X507877Y421220D01*
X507805Y421309D01*
X507736Y421401D01*
X507671Y421494D01*
X507609Y421590D01*
X507550Y421688D01*
X507494Y421788D01*
X507442Y421890D01*
X507394Y421993D01*
X507349Y422098D01*
X507308Y422205D01*
X507271Y422313D01*
X507238Y422423D01*
X507208Y422533D01*
X507183Y422644D01*
X507161Y422756D01*
X507143Y422869D01*
X507129Y422983D01*
X507119Y423097D01*
X507113Y423211D01*
X507111Y423325D01*
X507111Y412787D02*
X514477Y412787D01*
X507111Y412787D02*
X507111Y414833D01*
X507113Y414922D01*
X507119Y415011D01*
X507129Y415100D01*
X507142Y415188D01*
X507159Y415276D01*
X507181Y415363D01*
X507206Y415448D01*
X507234Y415533D01*
X507267Y415616D01*
X507303Y415698D01*
X507342Y415778D01*
X507385Y415856D01*
X507431Y415932D01*
X507481Y416007D01*
X507534Y416079D01*
X507590Y416148D01*
X507649Y416215D01*
X507710Y416280D01*
X507775Y416341D01*
X507842Y416400D01*
X507911Y416456D01*
X507983Y416509D01*
X508058Y416559D01*
X508134Y416605D01*
X508212Y416648D01*
X508292Y416687D01*
X508374Y416723D01*
X508457Y416756D01*
X508542Y416784D01*
X508627Y416809D01*
X508714Y416831D01*
X508802Y416848D01*
X508890Y416861D01*
X508979Y416871D01*
X509068Y416877D01*
X509157Y416879D01*
X509246Y416877D01*
X509335Y416871D01*
X509424Y416861D01*
X509512Y416848D01*
X509600Y416831D01*
X509687Y416809D01*
X509772Y416784D01*
X509857Y416756D01*
X509940Y416723D01*
X510022Y416687D01*
X510102Y416648D01*
X510180Y416605D01*
X510256Y416559D01*
X510331Y416509D01*
X510403Y416456D01*
X510472Y416400D01*
X510539Y416341D01*
X510604Y416280D01*
X510665Y416215D01*
X510724Y416148D01*
X510780Y416079D01*
X510833Y416007D01*
X510883Y415932D01*
X510929Y415856D01*
X510972Y415778D01*
X511011Y415698D01*
X511047Y415616D01*
X511080Y415533D01*
X511108Y415448D01*
X511133Y415363D01*
X511155Y415276D01*
X511172Y415188D01*
X511185Y415100D01*
X511195Y415011D01*
X511201Y414922D01*
X511203Y414833D01*
X511203Y412787D01*
X511203Y415242D02*
X514477Y416879D01*
X510385Y420051D02*
X510385Y422506D01*
X510387Y422584D01*
X510392Y422662D01*
X510402Y422739D01*
X510415Y422816D01*
X510431Y422892D01*
X510451Y422967D01*
X510475Y423041D01*
X510502Y423114D01*
X510533Y423186D01*
X510567Y423256D01*
X510604Y423325D01*
X510645Y423391D01*
X510689Y423456D01*
X510735Y423518D01*
X510785Y423578D01*
X510837Y423636D01*
X510892Y423691D01*
X510950Y423743D01*
X511010Y423793D01*
X511072Y423839D01*
X511137Y423883D01*
X511204Y423924D01*
X511272Y423961D01*
X511342Y423995D01*
X511414Y424026D01*
X511487Y424053D01*
X511561Y424077D01*
X511636Y424097D01*
X511712Y424113D01*
X511789Y424126D01*
X511866Y424136D01*
X511944Y424141D01*
X512022Y424143D01*
X512431Y424143D01*
X512520Y424141D01*
X512609Y424135D01*
X512698Y424125D01*
X512786Y424112D01*
X512874Y424095D01*
X512961Y424073D01*
X513046Y424048D01*
X513131Y424020D01*
X513214Y423987D01*
X513296Y423951D01*
X513376Y423912D01*
X513454Y423869D01*
X513530Y423823D01*
X513605Y423773D01*
X513677Y423720D01*
X513746Y423664D01*
X513813Y423605D01*
X513878Y423544D01*
X513939Y423479D01*
X513998Y423412D01*
X514054Y423343D01*
X514107Y423271D01*
X514157Y423196D01*
X514203Y423120D01*
X514246Y423042D01*
X514285Y422962D01*
X514321Y422880D01*
X514354Y422797D01*
X514382Y422712D01*
X514407Y422627D01*
X514429Y422540D01*
X514446Y422452D01*
X514459Y422364D01*
X514469Y422275D01*
X514475Y422186D01*
X514477Y422097D01*
X514475Y422008D01*
X514469Y421919D01*
X514459Y421830D01*
X514446Y421742D01*
X514429Y421654D01*
X514407Y421567D01*
X514382Y421482D01*
X514354Y421397D01*
X514321Y421314D01*
X514285Y421232D01*
X514246Y421152D01*
X514203Y421074D01*
X514157Y420998D01*
X514107Y420923D01*
X514054Y420851D01*
X513998Y420782D01*
X513939Y420715D01*
X513878Y420650D01*
X513813Y420589D01*
X513746Y420530D01*
X513677Y420474D01*
X513605Y420421D01*
X513530Y420371D01*
X513454Y420325D01*
X513376Y420282D01*
X513296Y420243D01*
X513214Y420207D01*
X513131Y420174D01*
X513046Y420146D01*
X512961Y420121D01*
X512874Y420099D01*
X512786Y420082D01*
X512698Y420069D01*
X512609Y420059D01*
X512520Y420053D01*
X512431Y420051D01*
X510385Y420051D01*
X510271Y420053D01*
X510157Y420059D01*
X510043Y420069D01*
X509929Y420083D01*
X509816Y420101D01*
X509704Y420123D01*
X509593Y420148D01*
X509483Y420178D01*
X509373Y420211D01*
X509265Y420248D01*
X509159Y420289D01*
X509053Y420334D01*
X508950Y420382D01*
X508848Y420434D01*
X508748Y420490D01*
X508650Y420548D01*
X508554Y420611D01*
X508461Y420676D01*
X508369Y420745D01*
X508281Y420817D01*
X508194Y420892D01*
X508111Y420970D01*
X508030Y421051D01*
X507952Y421134D01*
X507877Y421220D01*
X507805Y421309D01*
X507736Y421401D01*
X507671Y421494D01*
X507609Y421590D01*
X507550Y421688D01*
X507494Y421788D01*
X507442Y421890D01*
X507394Y421993D01*
X507349Y422098D01*
X507308Y422205D01*
X507271Y422313D01*
X507238Y422423D01*
X507208Y422533D01*
X507183Y422644D01*
X507161Y422756D01*
X507143Y422869D01*
X507129Y422983D01*
X507119Y423097D01*
X507113Y423211D01*
X507111Y423325D01*
X612204Y416405D02*
X612204Y414768D01*
X612202Y414690D01*
X612197Y414612D01*
X612187Y414535D01*
X612174Y414458D01*
X612158Y414382D01*
X612138Y414307D01*
X612114Y414233D01*
X612087Y414160D01*
X612056Y414088D01*
X612022Y414018D01*
X611985Y413950D01*
X611944Y413883D01*
X611900Y413818D01*
X611854Y413756D01*
X611804Y413696D01*
X611752Y413638D01*
X611697Y413583D01*
X611639Y413531D01*
X611579Y413481D01*
X611517Y413435D01*
X611452Y413391D01*
X611386Y413350D01*
X611317Y413313D01*
X611247Y413279D01*
X611175Y413248D01*
X611102Y413221D01*
X611028Y413197D01*
X610953Y413177D01*
X610877Y413161D01*
X610800Y413148D01*
X610723Y413138D01*
X610645Y413133D01*
X610567Y413131D01*
X606474Y413131D01*
X606394Y413133D01*
X606314Y413139D01*
X606234Y413149D01*
X606155Y413162D01*
X606076Y413180D01*
X605999Y413201D01*
X605923Y413227D01*
X605848Y413256D01*
X605774Y413288D01*
X605702Y413324D01*
X605632Y413364D01*
X605565Y413407D01*
X605499Y413453D01*
X605436Y413503D01*
X605375Y413555D01*
X605316Y413610D01*
X605261Y413669D01*
X605209Y413729D01*
X605159Y413793D01*
X605113Y413858D01*
X605070Y413926D01*
X605030Y413996D01*
X604994Y414068D01*
X604962Y414142D01*
X604933Y414216D01*
X604908Y414293D01*
X604886Y414370D01*
X604868Y414449D01*
X604855Y414528D01*
X604845Y414607D01*
X604839Y414688D01*
X604837Y414768D01*
X604838Y414768D02*
X604838Y416405D01*
X606474Y419250D02*
X604838Y421296D01*
X612204Y421296D01*
X612204Y419250D02*
X612204Y423342D01*
X606679Y430658D02*
X606594Y430656D01*
X606509Y430650D01*
X606425Y430640D01*
X606341Y430627D01*
X606257Y430609D01*
X606175Y430588D01*
X606094Y430563D01*
X606014Y430534D01*
X605935Y430501D01*
X605858Y430465D01*
X605783Y430425D01*
X605709Y430382D01*
X605638Y430336D01*
X605569Y430286D01*
X605502Y430233D01*
X605438Y430177D01*
X605377Y430118D01*
X605318Y430057D01*
X605262Y429993D01*
X605209Y429926D01*
X605159Y429857D01*
X605113Y429786D01*
X605070Y429712D01*
X605030Y429637D01*
X604994Y429560D01*
X604961Y429481D01*
X604932Y429401D01*
X604907Y429320D01*
X604886Y429238D01*
X604868Y429154D01*
X604855Y429070D01*
X604845Y428986D01*
X604839Y428901D01*
X604837Y428816D01*
X604839Y428720D01*
X604845Y428624D01*
X604855Y428529D01*
X604868Y428434D01*
X604886Y428339D01*
X604907Y428246D01*
X604932Y428153D01*
X604961Y428062D01*
X604993Y427971D01*
X605029Y427882D01*
X605069Y427795D01*
X605112Y427709D01*
X605158Y427625D01*
X605208Y427543D01*
X605262Y427463D01*
X605318Y427386D01*
X605378Y427311D01*
X605440Y427238D01*
X605506Y427168D01*
X605574Y427100D01*
X605645Y427035D01*
X605718Y426974D01*
X605794Y426915D01*
X605873Y426859D01*
X605953Y426807D01*
X606036Y426758D01*
X606120Y426712D01*
X606206Y426670D01*
X606294Y426632D01*
X606383Y426597D01*
X606474Y426565D01*
X608111Y430043D02*
X608052Y430103D01*
X607990Y430160D01*
X607926Y430215D01*
X607859Y430266D01*
X607790Y430315D01*
X607720Y430361D01*
X607647Y430404D01*
X607573Y430444D01*
X607497Y430480D01*
X607419Y430513D01*
X607340Y430543D01*
X607260Y430570D01*
X607179Y430593D01*
X607097Y430612D01*
X607015Y430628D01*
X606931Y430641D01*
X606847Y430650D01*
X606763Y430655D01*
X606679Y430657D01*
X608111Y430043D02*
X612204Y426565D01*
X612204Y430657D01*
X574929Y416532D02*
X574929Y414895D01*
X574927Y414817D01*
X574922Y414739D01*
X574912Y414662D01*
X574899Y414585D01*
X574883Y414509D01*
X574863Y414434D01*
X574839Y414360D01*
X574812Y414287D01*
X574781Y414215D01*
X574747Y414145D01*
X574710Y414077D01*
X574669Y414010D01*
X574625Y413945D01*
X574579Y413883D01*
X574529Y413823D01*
X574477Y413765D01*
X574422Y413710D01*
X574364Y413658D01*
X574304Y413608D01*
X574242Y413562D01*
X574177Y413518D01*
X574111Y413477D01*
X574042Y413440D01*
X573972Y413406D01*
X573900Y413375D01*
X573827Y413348D01*
X573753Y413324D01*
X573678Y413304D01*
X573602Y413288D01*
X573525Y413275D01*
X573448Y413265D01*
X573370Y413260D01*
X573292Y413258D01*
X569200Y413258D01*
X569120Y413260D01*
X569040Y413266D01*
X568960Y413276D01*
X568881Y413289D01*
X568802Y413307D01*
X568725Y413328D01*
X568649Y413354D01*
X568574Y413383D01*
X568500Y413415D01*
X568428Y413451D01*
X568358Y413491D01*
X568291Y413534D01*
X568225Y413580D01*
X568162Y413630D01*
X568101Y413682D01*
X568042Y413737D01*
X567987Y413796D01*
X567935Y413856D01*
X567885Y413920D01*
X567839Y413985D01*
X567796Y414053D01*
X567756Y414123D01*
X567720Y414195D01*
X567688Y414269D01*
X567659Y414343D01*
X567634Y414420D01*
X567612Y414497D01*
X567594Y414576D01*
X567581Y414655D01*
X567571Y414734D01*
X567565Y414815D01*
X567563Y414895D01*
X567563Y416532D01*
X569200Y419377D02*
X567563Y421423D01*
X574929Y421423D01*
X574929Y419377D02*
X574929Y423469D01*
X574929Y426692D02*
X574929Y428738D01*
X574927Y428827D01*
X574921Y428916D01*
X574911Y429005D01*
X574898Y429093D01*
X574881Y429181D01*
X574859Y429268D01*
X574834Y429353D01*
X574806Y429438D01*
X574773Y429521D01*
X574737Y429603D01*
X574698Y429683D01*
X574655Y429761D01*
X574609Y429837D01*
X574559Y429912D01*
X574506Y429984D01*
X574450Y430053D01*
X574391Y430120D01*
X574330Y430185D01*
X574265Y430246D01*
X574198Y430305D01*
X574129Y430361D01*
X574057Y430414D01*
X573982Y430464D01*
X573906Y430510D01*
X573828Y430553D01*
X573748Y430592D01*
X573666Y430628D01*
X573583Y430661D01*
X573498Y430689D01*
X573413Y430714D01*
X573326Y430736D01*
X573238Y430753D01*
X573150Y430766D01*
X573061Y430776D01*
X572972Y430782D01*
X572883Y430784D01*
X572794Y430782D01*
X572705Y430776D01*
X572616Y430766D01*
X572528Y430753D01*
X572440Y430736D01*
X572353Y430714D01*
X572268Y430689D01*
X572183Y430661D01*
X572100Y430628D01*
X572018Y430592D01*
X571938Y430553D01*
X571860Y430510D01*
X571784Y430464D01*
X571709Y430414D01*
X571637Y430361D01*
X571568Y430305D01*
X571501Y430246D01*
X571436Y430185D01*
X571375Y430120D01*
X571316Y430053D01*
X571260Y429984D01*
X571207Y429912D01*
X571157Y429837D01*
X571111Y429761D01*
X571068Y429683D01*
X571029Y429603D01*
X570993Y429521D01*
X570960Y429438D01*
X570932Y429353D01*
X570907Y429268D01*
X570885Y429181D01*
X570868Y429093D01*
X570855Y429005D01*
X570845Y428916D01*
X570839Y428827D01*
X570837Y428738D01*
X567563Y429147D02*
X567563Y426692D01*
X567563Y429147D02*
X567565Y429226D01*
X567571Y429305D01*
X567580Y429384D01*
X567593Y429462D01*
X567611Y429539D01*
X567631Y429615D01*
X567656Y429690D01*
X567684Y429764D01*
X567715Y429837D01*
X567751Y429908D01*
X567789Y429977D01*
X567831Y430044D01*
X567876Y430109D01*
X567924Y430172D01*
X567975Y430233D01*
X568029Y430290D01*
X568085Y430346D01*
X568144Y430398D01*
X568206Y430448D01*
X568270Y430494D01*
X568336Y430538D01*
X568404Y430578D01*
X568474Y430614D01*
X568546Y430648D01*
X568620Y430678D01*
X568694Y430704D01*
X568770Y430727D01*
X568847Y430745D01*
X568924Y430761D01*
X569003Y430772D01*
X569081Y430780D01*
X569160Y430784D01*
X569240Y430784D01*
X569319Y430780D01*
X569397Y430772D01*
X569476Y430761D01*
X569553Y430745D01*
X569630Y430727D01*
X569706Y430704D01*
X569780Y430678D01*
X569854Y430648D01*
X569926Y430614D01*
X569996Y430578D01*
X570064Y430538D01*
X570130Y430494D01*
X570194Y430448D01*
X570256Y430398D01*
X570315Y430346D01*
X570371Y430290D01*
X570425Y430233D01*
X570476Y430172D01*
X570524Y430109D01*
X570569Y430044D01*
X570611Y429977D01*
X570649Y429908D01*
X570685Y429837D01*
X570716Y429764D01*
X570744Y429690D01*
X570769Y429615D01*
X570789Y429539D01*
X570807Y429462D01*
X570820Y429384D01*
X570829Y429305D01*
X570835Y429226D01*
X570837Y429147D01*
X570837Y427510D01*
X599821Y416405D02*
X599821Y414768D01*
X599819Y414690D01*
X599814Y414612D01*
X599804Y414535D01*
X599791Y414458D01*
X599775Y414382D01*
X599755Y414307D01*
X599731Y414233D01*
X599704Y414160D01*
X599673Y414088D01*
X599639Y414018D01*
X599602Y413950D01*
X599561Y413883D01*
X599517Y413818D01*
X599471Y413756D01*
X599421Y413696D01*
X599369Y413638D01*
X599314Y413583D01*
X599256Y413531D01*
X599196Y413481D01*
X599134Y413435D01*
X599069Y413391D01*
X599003Y413350D01*
X598934Y413313D01*
X598864Y413279D01*
X598792Y413248D01*
X598719Y413221D01*
X598645Y413197D01*
X598570Y413177D01*
X598494Y413161D01*
X598417Y413148D01*
X598340Y413138D01*
X598262Y413133D01*
X598184Y413131D01*
X594092Y413131D01*
X594012Y413133D01*
X593932Y413139D01*
X593852Y413149D01*
X593773Y413162D01*
X593694Y413180D01*
X593617Y413201D01*
X593541Y413227D01*
X593466Y413256D01*
X593392Y413288D01*
X593320Y413324D01*
X593250Y413364D01*
X593183Y413407D01*
X593117Y413453D01*
X593054Y413503D01*
X592993Y413555D01*
X592934Y413610D01*
X592879Y413669D01*
X592827Y413729D01*
X592777Y413793D01*
X592731Y413858D01*
X592688Y413926D01*
X592648Y413996D01*
X592612Y414068D01*
X592580Y414142D01*
X592551Y414216D01*
X592526Y414293D01*
X592504Y414370D01*
X592486Y414449D01*
X592473Y414528D01*
X592463Y414607D01*
X592457Y414688D01*
X592455Y414768D01*
X592455Y416405D01*
X594092Y419250D02*
X592455Y421296D01*
X599821Y421296D01*
X599821Y419250D02*
X599821Y423342D01*
X598184Y426565D02*
X592455Y428202D01*
X598184Y426565D02*
X598184Y430657D01*
X596547Y429430D02*
X599821Y429430D01*
X562674Y416468D02*
X562674Y414831D01*
X562672Y414753D01*
X562667Y414675D01*
X562657Y414598D01*
X562644Y414521D01*
X562628Y414445D01*
X562608Y414370D01*
X562584Y414296D01*
X562557Y414223D01*
X562526Y414151D01*
X562492Y414081D01*
X562455Y414013D01*
X562414Y413946D01*
X562370Y413881D01*
X562324Y413819D01*
X562274Y413759D01*
X562222Y413701D01*
X562167Y413646D01*
X562109Y413594D01*
X562049Y413544D01*
X561987Y413498D01*
X561922Y413454D01*
X561856Y413413D01*
X561787Y413376D01*
X561717Y413342D01*
X561645Y413311D01*
X561572Y413284D01*
X561498Y413260D01*
X561423Y413240D01*
X561347Y413224D01*
X561270Y413211D01*
X561193Y413201D01*
X561115Y413196D01*
X561037Y413194D01*
X556944Y413194D01*
X556864Y413196D01*
X556784Y413202D01*
X556704Y413212D01*
X556625Y413225D01*
X556546Y413243D01*
X556469Y413264D01*
X556393Y413290D01*
X556318Y413319D01*
X556244Y413351D01*
X556172Y413387D01*
X556102Y413427D01*
X556035Y413470D01*
X555969Y413516D01*
X555906Y413566D01*
X555845Y413618D01*
X555786Y413673D01*
X555731Y413732D01*
X555679Y413792D01*
X555629Y413856D01*
X555583Y413921D01*
X555540Y413989D01*
X555500Y414059D01*
X555464Y414131D01*
X555432Y414205D01*
X555403Y414279D01*
X555378Y414356D01*
X555356Y414433D01*
X555338Y414512D01*
X555325Y414591D01*
X555315Y414670D01*
X555309Y414751D01*
X555307Y414831D01*
X555308Y414831D02*
X555308Y416468D01*
X556944Y419313D02*
X555308Y421359D01*
X562674Y421359D01*
X562674Y419313D02*
X562674Y423406D01*
X562674Y426629D02*
X562674Y429084D01*
X562672Y429162D01*
X562667Y429240D01*
X562657Y429317D01*
X562644Y429394D01*
X562628Y429470D01*
X562608Y429545D01*
X562584Y429619D01*
X562557Y429692D01*
X562526Y429764D01*
X562492Y429834D01*
X562455Y429903D01*
X562414Y429969D01*
X562370Y430034D01*
X562324Y430096D01*
X562274Y430156D01*
X562222Y430214D01*
X562167Y430269D01*
X562109Y430321D01*
X562049Y430371D01*
X561987Y430417D01*
X561922Y430461D01*
X561856Y430502D01*
X561787Y430539D01*
X561717Y430573D01*
X561645Y430604D01*
X561572Y430631D01*
X561498Y430655D01*
X561423Y430675D01*
X561347Y430691D01*
X561270Y430704D01*
X561193Y430714D01*
X561115Y430719D01*
X561037Y430721D01*
X560218Y430721D01*
X560138Y430719D01*
X560058Y430713D01*
X559978Y430703D01*
X559899Y430690D01*
X559820Y430672D01*
X559743Y430651D01*
X559667Y430625D01*
X559592Y430596D01*
X559518Y430564D01*
X559446Y430528D01*
X559376Y430488D01*
X559309Y430445D01*
X559243Y430399D01*
X559180Y430349D01*
X559119Y430297D01*
X559060Y430242D01*
X559005Y430183D01*
X558953Y430123D01*
X558903Y430059D01*
X558857Y429993D01*
X558814Y429926D01*
X558774Y429856D01*
X558738Y429784D01*
X558706Y429710D01*
X558677Y429636D01*
X558651Y429559D01*
X558630Y429482D01*
X558612Y429403D01*
X558599Y429324D01*
X558589Y429244D01*
X558583Y429164D01*
X558581Y429084D01*
X558581Y426629D01*
X555308Y426629D01*
X555308Y430721D01*
X587566Y416341D02*
X587566Y414704D01*
X587564Y414626D01*
X587559Y414548D01*
X587549Y414471D01*
X587536Y414394D01*
X587520Y414318D01*
X587500Y414243D01*
X587476Y414169D01*
X587449Y414096D01*
X587418Y414024D01*
X587384Y413954D01*
X587347Y413886D01*
X587306Y413819D01*
X587262Y413754D01*
X587216Y413692D01*
X587166Y413632D01*
X587114Y413574D01*
X587059Y413519D01*
X587001Y413467D01*
X586941Y413417D01*
X586879Y413371D01*
X586814Y413327D01*
X586748Y413286D01*
X586679Y413249D01*
X586609Y413215D01*
X586537Y413184D01*
X586464Y413157D01*
X586390Y413133D01*
X586315Y413113D01*
X586239Y413097D01*
X586162Y413084D01*
X586085Y413074D01*
X586007Y413069D01*
X585929Y413067D01*
X581836Y413067D01*
X581756Y413069D01*
X581676Y413075D01*
X581596Y413085D01*
X581517Y413098D01*
X581438Y413116D01*
X581361Y413137D01*
X581285Y413163D01*
X581210Y413192D01*
X581136Y413224D01*
X581064Y413260D01*
X580994Y413300D01*
X580927Y413343D01*
X580861Y413389D01*
X580798Y413439D01*
X580737Y413491D01*
X580678Y413546D01*
X580623Y413605D01*
X580571Y413665D01*
X580521Y413729D01*
X580475Y413794D01*
X580432Y413862D01*
X580392Y413932D01*
X580356Y414004D01*
X580324Y414078D01*
X580295Y414152D01*
X580270Y414229D01*
X580248Y414306D01*
X580230Y414385D01*
X580217Y414464D01*
X580207Y414543D01*
X580201Y414624D01*
X580199Y414704D01*
X580200Y414704D02*
X580200Y416341D01*
X580199Y421437D02*
X580201Y421522D01*
X580207Y421607D01*
X580217Y421691D01*
X580230Y421775D01*
X580248Y421859D01*
X580269Y421941D01*
X580294Y422022D01*
X580323Y422102D01*
X580356Y422181D01*
X580392Y422258D01*
X580432Y422333D01*
X580475Y422407D01*
X580521Y422478D01*
X580571Y422547D01*
X580624Y422614D01*
X580680Y422678D01*
X580739Y422739D01*
X580800Y422798D01*
X580864Y422854D01*
X580931Y422907D01*
X581000Y422957D01*
X581071Y423003D01*
X581145Y423046D01*
X581220Y423086D01*
X581297Y423122D01*
X581376Y423155D01*
X581456Y423184D01*
X581537Y423209D01*
X581619Y423230D01*
X581703Y423248D01*
X581787Y423261D01*
X581871Y423271D01*
X581956Y423277D01*
X582041Y423279D01*
X580199Y421437D02*
X580201Y421341D01*
X580207Y421245D01*
X580217Y421150D01*
X580230Y421055D01*
X580248Y420960D01*
X580269Y420867D01*
X580294Y420774D01*
X580323Y420683D01*
X580355Y420592D01*
X580391Y420503D01*
X580431Y420416D01*
X580474Y420330D01*
X580520Y420246D01*
X580570Y420164D01*
X580624Y420084D01*
X580680Y420007D01*
X580740Y419932D01*
X580802Y419859D01*
X580868Y419789D01*
X580936Y419721D01*
X581007Y419656D01*
X581080Y419595D01*
X581156Y419536D01*
X581235Y419480D01*
X581315Y419428D01*
X581398Y419379D01*
X581482Y419333D01*
X581568Y419291D01*
X581656Y419253D01*
X581745Y419218D01*
X581836Y419186D01*
X583473Y422665D02*
X583414Y422725D01*
X583352Y422782D01*
X583288Y422837D01*
X583221Y422888D01*
X583152Y422937D01*
X583082Y422983D01*
X583009Y423026D01*
X582935Y423066D01*
X582859Y423102D01*
X582781Y423135D01*
X582702Y423165D01*
X582622Y423192D01*
X582541Y423215D01*
X582459Y423234D01*
X582377Y423250D01*
X582293Y423263D01*
X582209Y423272D01*
X582125Y423277D01*
X582041Y423279D01*
X583473Y422665D02*
X587566Y419186D01*
X587566Y423279D01*
X581836Y426502D02*
X580200Y428548D01*
X587566Y428548D01*
X587566Y426502D02*
X587566Y430594D01*
D15*
X679197Y233809D02*
X695197Y233809D01*
X695197Y265809D02*
X679197Y265809D01*
D11*
X679573Y270256D02*
X681210Y270256D01*
X679573Y270256D02*
X679495Y270258D01*
X679417Y270263D01*
X679340Y270273D01*
X679263Y270286D01*
X679187Y270302D01*
X679112Y270322D01*
X679038Y270346D01*
X678965Y270373D01*
X678893Y270404D01*
X678823Y270438D01*
X678755Y270475D01*
X678688Y270516D01*
X678623Y270560D01*
X678561Y270606D01*
X678501Y270656D01*
X678443Y270708D01*
X678388Y270763D01*
X678336Y270821D01*
X678286Y270881D01*
X678240Y270943D01*
X678196Y271008D01*
X678155Y271075D01*
X678118Y271143D01*
X678084Y271213D01*
X678053Y271285D01*
X678026Y271358D01*
X678002Y271432D01*
X677982Y271507D01*
X677966Y271583D01*
X677953Y271660D01*
X677943Y271737D01*
X677938Y271815D01*
X677936Y271893D01*
X677936Y275985D01*
X677938Y276065D01*
X677944Y276145D01*
X677954Y276225D01*
X677967Y276304D01*
X677985Y276383D01*
X678006Y276460D01*
X678032Y276536D01*
X678061Y276611D01*
X678093Y276685D01*
X678129Y276757D01*
X678169Y276827D01*
X678212Y276894D01*
X678258Y276960D01*
X678308Y277023D01*
X678360Y277084D01*
X678415Y277143D01*
X678474Y277198D01*
X678534Y277250D01*
X678598Y277300D01*
X678664Y277346D01*
X678731Y277389D01*
X678801Y277429D01*
X678873Y277465D01*
X678947Y277497D01*
X679021Y277526D01*
X679098Y277552D01*
X679175Y277573D01*
X679254Y277591D01*
X679333Y277604D01*
X679413Y277614D01*
X679493Y277620D01*
X679573Y277622D01*
X681210Y277622D01*
X684299Y277622D02*
X684299Y270256D01*
X688391Y270256D02*
X684299Y277622D01*
X688391Y277622D02*
X688391Y270256D01*
X691858Y274348D02*
X694313Y274348D01*
X694391Y274346D01*
X694469Y274341D01*
X694546Y274331D01*
X694623Y274318D01*
X694699Y274302D01*
X694774Y274282D01*
X694848Y274258D01*
X694921Y274231D01*
X694993Y274200D01*
X695063Y274166D01*
X695132Y274129D01*
X695198Y274088D01*
X695263Y274044D01*
X695325Y273998D01*
X695385Y273948D01*
X695443Y273896D01*
X695498Y273841D01*
X695550Y273783D01*
X695600Y273723D01*
X695646Y273661D01*
X695690Y273596D01*
X695731Y273530D01*
X695768Y273461D01*
X695802Y273391D01*
X695833Y273319D01*
X695860Y273246D01*
X695884Y273172D01*
X695904Y273097D01*
X695920Y273021D01*
X695933Y272944D01*
X695943Y272867D01*
X695948Y272789D01*
X695950Y272711D01*
X695950Y272302D01*
X695948Y272213D01*
X695942Y272124D01*
X695932Y272035D01*
X695919Y271947D01*
X695902Y271859D01*
X695880Y271772D01*
X695855Y271687D01*
X695827Y271602D01*
X695794Y271519D01*
X695758Y271437D01*
X695719Y271357D01*
X695676Y271279D01*
X695630Y271203D01*
X695580Y271128D01*
X695527Y271056D01*
X695471Y270987D01*
X695412Y270920D01*
X695351Y270855D01*
X695286Y270794D01*
X695219Y270735D01*
X695150Y270679D01*
X695078Y270626D01*
X695003Y270576D01*
X694927Y270530D01*
X694849Y270487D01*
X694769Y270448D01*
X694687Y270412D01*
X694604Y270379D01*
X694519Y270351D01*
X694434Y270326D01*
X694347Y270304D01*
X694259Y270287D01*
X694171Y270274D01*
X694082Y270264D01*
X693993Y270258D01*
X693904Y270256D01*
X693815Y270258D01*
X693726Y270264D01*
X693637Y270274D01*
X693549Y270287D01*
X693461Y270304D01*
X693374Y270326D01*
X693289Y270351D01*
X693204Y270379D01*
X693121Y270412D01*
X693039Y270448D01*
X692959Y270487D01*
X692881Y270530D01*
X692805Y270576D01*
X692730Y270626D01*
X692658Y270679D01*
X692589Y270735D01*
X692522Y270794D01*
X692457Y270855D01*
X692396Y270920D01*
X692337Y270987D01*
X692281Y271056D01*
X692228Y271128D01*
X692178Y271203D01*
X692132Y271279D01*
X692089Y271357D01*
X692050Y271437D01*
X692014Y271519D01*
X691981Y271602D01*
X691953Y271687D01*
X691928Y271772D01*
X691906Y271859D01*
X691889Y271947D01*
X691876Y272035D01*
X691866Y272124D01*
X691860Y272213D01*
X691858Y272302D01*
X691858Y274348D01*
X691860Y274462D01*
X691866Y274576D01*
X691876Y274690D01*
X691890Y274804D01*
X691908Y274917D01*
X691930Y275029D01*
X691955Y275140D01*
X691985Y275250D01*
X692018Y275360D01*
X692055Y275468D01*
X692096Y275574D01*
X692141Y275680D01*
X692189Y275783D01*
X692241Y275885D01*
X692297Y275985D01*
X692355Y276083D01*
X692418Y276179D01*
X692483Y276272D01*
X692552Y276364D01*
X692624Y276452D01*
X692699Y276539D01*
X692777Y276622D01*
X692858Y276703D01*
X692941Y276781D01*
X693028Y276856D01*
X693116Y276928D01*
X693208Y276997D01*
X693301Y277062D01*
X693397Y277124D01*
X693495Y277183D01*
X693595Y277239D01*
X693697Y277291D01*
X693800Y277339D01*
X693906Y277384D01*
X694012Y277425D01*
X694120Y277462D01*
X694230Y277495D01*
X694340Y277525D01*
X694451Y277550D01*
X694563Y277572D01*
X694676Y277590D01*
X694790Y277604D01*
X694904Y277614D01*
X695018Y277620D01*
X695132Y277622D01*
D15*
X695070Y183390D02*
X679070Y183390D01*
X679070Y215390D02*
X695070Y215390D01*
D11*
X681083Y219837D02*
X679446Y219837D01*
X679368Y219839D01*
X679290Y219844D01*
X679213Y219854D01*
X679136Y219867D01*
X679060Y219883D01*
X678985Y219903D01*
X678911Y219927D01*
X678838Y219954D01*
X678766Y219985D01*
X678696Y220019D01*
X678628Y220056D01*
X678561Y220097D01*
X678496Y220141D01*
X678434Y220187D01*
X678374Y220237D01*
X678316Y220289D01*
X678261Y220344D01*
X678209Y220402D01*
X678159Y220462D01*
X678113Y220524D01*
X678069Y220589D01*
X678028Y220656D01*
X677991Y220724D01*
X677957Y220794D01*
X677926Y220866D01*
X677899Y220939D01*
X677875Y221013D01*
X677855Y221088D01*
X677839Y221164D01*
X677826Y221241D01*
X677816Y221318D01*
X677811Y221396D01*
X677809Y221474D01*
X677809Y225566D01*
X677811Y225646D01*
X677817Y225726D01*
X677827Y225806D01*
X677840Y225885D01*
X677858Y225964D01*
X677879Y226041D01*
X677905Y226117D01*
X677934Y226192D01*
X677966Y226266D01*
X678002Y226338D01*
X678042Y226408D01*
X678085Y226475D01*
X678131Y226541D01*
X678181Y226604D01*
X678233Y226665D01*
X678288Y226724D01*
X678347Y226779D01*
X678407Y226831D01*
X678471Y226881D01*
X678537Y226927D01*
X678604Y226970D01*
X678674Y227010D01*
X678746Y227046D01*
X678820Y227078D01*
X678894Y227107D01*
X678971Y227133D01*
X679048Y227154D01*
X679127Y227172D01*
X679206Y227185D01*
X679286Y227195D01*
X679366Y227201D01*
X679446Y227203D01*
X681083Y227203D01*
X684172Y227203D02*
X684172Y219837D01*
X688264Y219837D02*
X684172Y227203D01*
X688264Y227203D02*
X688264Y219837D01*
X691731Y225566D02*
X693777Y227203D01*
X693777Y219837D01*
X691731Y219837D02*
X695823Y219837D01*
D15*
X695134Y285054D02*
X679134Y285054D01*
X679134Y317054D02*
X695134Y317054D01*
D11*
X681146Y321501D02*
X679509Y321501D01*
X679509Y321500D02*
X679431Y321502D01*
X679353Y321507D01*
X679276Y321517D01*
X679199Y321530D01*
X679123Y321546D01*
X679048Y321566D01*
X678974Y321590D01*
X678901Y321617D01*
X678829Y321648D01*
X678759Y321682D01*
X678691Y321719D01*
X678624Y321760D01*
X678559Y321804D01*
X678497Y321850D01*
X678437Y321900D01*
X678379Y321952D01*
X678324Y322007D01*
X678272Y322065D01*
X678222Y322125D01*
X678176Y322187D01*
X678132Y322252D01*
X678091Y322319D01*
X678054Y322387D01*
X678020Y322457D01*
X677989Y322529D01*
X677962Y322602D01*
X677938Y322676D01*
X677918Y322751D01*
X677902Y322827D01*
X677889Y322904D01*
X677879Y322981D01*
X677874Y323059D01*
X677872Y323137D01*
X677872Y327230D01*
X677874Y327310D01*
X677880Y327390D01*
X677890Y327470D01*
X677903Y327549D01*
X677921Y327628D01*
X677942Y327705D01*
X677968Y327781D01*
X677997Y327856D01*
X678029Y327930D01*
X678065Y328002D01*
X678105Y328072D01*
X678148Y328139D01*
X678194Y328205D01*
X678244Y328268D01*
X678296Y328329D01*
X678351Y328388D01*
X678410Y328443D01*
X678470Y328495D01*
X678534Y328545D01*
X678600Y328591D01*
X678667Y328634D01*
X678737Y328674D01*
X678809Y328710D01*
X678883Y328742D01*
X678957Y328771D01*
X679034Y328797D01*
X679111Y328818D01*
X679190Y328836D01*
X679269Y328849D01*
X679349Y328859D01*
X679429Y328865D01*
X679509Y328867D01*
X681146Y328867D01*
X684235Y328867D02*
X684235Y321501D01*
X688328Y321501D02*
X684235Y328867D01*
X688328Y328867D02*
X688328Y321501D01*
X694045Y328867D02*
X694130Y328865D01*
X694215Y328859D01*
X694299Y328849D01*
X694383Y328836D01*
X694467Y328818D01*
X694549Y328797D01*
X694630Y328772D01*
X694710Y328743D01*
X694789Y328710D01*
X694866Y328674D01*
X694941Y328634D01*
X695015Y328591D01*
X695086Y328545D01*
X695155Y328495D01*
X695222Y328442D01*
X695286Y328386D01*
X695347Y328327D01*
X695406Y328266D01*
X695462Y328202D01*
X695515Y328135D01*
X695565Y328066D01*
X695611Y327995D01*
X695654Y327921D01*
X695694Y327846D01*
X695730Y327769D01*
X695763Y327690D01*
X695792Y327610D01*
X695817Y327529D01*
X695838Y327447D01*
X695856Y327363D01*
X695869Y327279D01*
X695879Y327195D01*
X695885Y327110D01*
X695887Y327025D01*
X694045Y328867D02*
X693949Y328865D01*
X693853Y328859D01*
X693758Y328849D01*
X693663Y328836D01*
X693568Y328818D01*
X693475Y328797D01*
X693382Y328772D01*
X693291Y328743D01*
X693200Y328711D01*
X693111Y328675D01*
X693024Y328635D01*
X692938Y328592D01*
X692854Y328546D01*
X692772Y328496D01*
X692692Y328442D01*
X692615Y328386D01*
X692540Y328326D01*
X692467Y328264D01*
X692397Y328198D01*
X692329Y328130D01*
X692264Y328059D01*
X692203Y327986D01*
X692144Y327910D01*
X692088Y327831D01*
X692036Y327751D01*
X691987Y327668D01*
X691941Y327584D01*
X691899Y327498D01*
X691861Y327410D01*
X691826Y327321D01*
X691794Y327230D01*
X695273Y325593D02*
X695333Y325652D01*
X695390Y325714D01*
X695445Y325778D01*
X695496Y325845D01*
X695545Y325914D01*
X695591Y325984D01*
X695634Y326057D01*
X695674Y326131D01*
X695710Y326207D01*
X695743Y326285D01*
X695773Y326364D01*
X695800Y326444D01*
X695823Y326525D01*
X695842Y326607D01*
X695858Y326689D01*
X695871Y326773D01*
X695880Y326857D01*
X695885Y326941D01*
X695887Y327025D01*
X695273Y325593D02*
X691794Y321501D01*
X695887Y321501D01*
D15*
X695007Y386400D02*
X679007Y386400D01*
X679007Y418400D02*
X695007Y418400D01*
D11*
X681019Y422847D02*
X679382Y422847D01*
X679382Y422846D02*
X679304Y422848D01*
X679226Y422853D01*
X679149Y422863D01*
X679072Y422876D01*
X678996Y422892D01*
X678921Y422912D01*
X678847Y422936D01*
X678774Y422963D01*
X678702Y422994D01*
X678632Y423028D01*
X678564Y423065D01*
X678497Y423106D01*
X678432Y423150D01*
X678370Y423196D01*
X678310Y423246D01*
X678252Y423298D01*
X678197Y423353D01*
X678145Y423411D01*
X678095Y423471D01*
X678049Y423533D01*
X678005Y423598D01*
X677964Y423665D01*
X677927Y423733D01*
X677893Y423803D01*
X677862Y423875D01*
X677835Y423948D01*
X677811Y424022D01*
X677791Y424097D01*
X677775Y424173D01*
X677762Y424250D01*
X677752Y424327D01*
X677747Y424405D01*
X677745Y424483D01*
X677745Y428576D01*
X677747Y428656D01*
X677753Y428736D01*
X677763Y428816D01*
X677776Y428895D01*
X677794Y428974D01*
X677815Y429051D01*
X677841Y429127D01*
X677870Y429202D01*
X677902Y429276D01*
X677938Y429348D01*
X677978Y429418D01*
X678021Y429485D01*
X678067Y429551D01*
X678117Y429614D01*
X678169Y429675D01*
X678224Y429734D01*
X678283Y429789D01*
X678343Y429841D01*
X678407Y429891D01*
X678473Y429937D01*
X678540Y429980D01*
X678610Y430020D01*
X678682Y430056D01*
X678756Y430088D01*
X678830Y430117D01*
X678907Y430143D01*
X678984Y430164D01*
X679063Y430182D01*
X679142Y430195D01*
X679222Y430205D01*
X679302Y430211D01*
X679382Y430213D01*
X681019Y430213D01*
X684108Y430213D02*
X684108Y422847D01*
X688201Y422847D02*
X684108Y430213D01*
X688201Y430213D02*
X688201Y422847D01*
X691667Y422847D02*
X693713Y422847D01*
X693802Y422849D01*
X693891Y422855D01*
X693980Y422865D01*
X694068Y422878D01*
X694156Y422895D01*
X694243Y422917D01*
X694328Y422942D01*
X694413Y422970D01*
X694496Y423003D01*
X694578Y423039D01*
X694658Y423078D01*
X694736Y423121D01*
X694812Y423167D01*
X694887Y423217D01*
X694959Y423270D01*
X695028Y423326D01*
X695095Y423385D01*
X695160Y423446D01*
X695221Y423511D01*
X695280Y423578D01*
X695336Y423647D01*
X695389Y423719D01*
X695439Y423794D01*
X695485Y423870D01*
X695528Y423948D01*
X695567Y424028D01*
X695603Y424110D01*
X695636Y424193D01*
X695664Y424278D01*
X695689Y424363D01*
X695711Y424450D01*
X695728Y424538D01*
X695741Y424626D01*
X695751Y424715D01*
X695757Y424804D01*
X695759Y424893D01*
X695757Y424982D01*
X695751Y425071D01*
X695741Y425160D01*
X695728Y425248D01*
X695711Y425336D01*
X695689Y425423D01*
X695664Y425508D01*
X695636Y425593D01*
X695603Y425676D01*
X695567Y425758D01*
X695528Y425838D01*
X695485Y425916D01*
X695439Y425992D01*
X695389Y426067D01*
X695336Y426139D01*
X695280Y426208D01*
X695221Y426275D01*
X695160Y426340D01*
X695095Y426401D01*
X695028Y426460D01*
X694959Y426516D01*
X694887Y426569D01*
X694812Y426619D01*
X694736Y426665D01*
X694658Y426708D01*
X694578Y426747D01*
X694496Y426783D01*
X694413Y426816D01*
X694328Y426844D01*
X694243Y426869D01*
X694156Y426891D01*
X694068Y426908D01*
X693980Y426921D01*
X693891Y426931D01*
X693802Y426937D01*
X693713Y426939D01*
X694123Y430213D02*
X691667Y430213D01*
X694123Y430213D02*
X694202Y430211D01*
X694281Y430205D01*
X694360Y430196D01*
X694438Y430183D01*
X694515Y430165D01*
X694591Y430145D01*
X694666Y430120D01*
X694740Y430092D01*
X694813Y430061D01*
X694884Y430025D01*
X694953Y429987D01*
X695020Y429945D01*
X695085Y429900D01*
X695148Y429852D01*
X695209Y429801D01*
X695266Y429747D01*
X695322Y429691D01*
X695374Y429632D01*
X695424Y429570D01*
X695470Y429506D01*
X695514Y429440D01*
X695554Y429372D01*
X695590Y429302D01*
X695624Y429230D01*
X695654Y429156D01*
X695680Y429082D01*
X695703Y429006D01*
X695721Y428929D01*
X695737Y428852D01*
X695748Y428773D01*
X695756Y428695D01*
X695760Y428616D01*
X695760Y428536D01*
X695756Y428457D01*
X695748Y428379D01*
X695737Y428300D01*
X695721Y428223D01*
X695703Y428146D01*
X695680Y428070D01*
X695654Y427996D01*
X695624Y427922D01*
X695590Y427850D01*
X695554Y427780D01*
X695514Y427712D01*
X695470Y427646D01*
X695424Y427582D01*
X695374Y427520D01*
X695322Y427461D01*
X695266Y427405D01*
X695209Y427351D01*
X695148Y427300D01*
X695085Y427252D01*
X695020Y427207D01*
X694953Y427165D01*
X694884Y427127D01*
X694813Y427091D01*
X694740Y427060D01*
X694666Y427032D01*
X694591Y427007D01*
X694515Y426987D01*
X694438Y426969D01*
X694360Y426956D01*
X694281Y426947D01*
X694202Y426941D01*
X694123Y426939D01*
X692486Y426939D01*
D15*
X695197Y335790D02*
X679197Y335790D01*
X679197Y367790D02*
X695197Y367790D01*
D11*
X681210Y372237D02*
X679573Y372237D01*
X679495Y372239D01*
X679417Y372244D01*
X679340Y372254D01*
X679263Y372267D01*
X679187Y372283D01*
X679112Y372303D01*
X679038Y372327D01*
X678965Y372354D01*
X678893Y372385D01*
X678823Y372419D01*
X678755Y372456D01*
X678688Y372497D01*
X678623Y372541D01*
X678561Y372587D01*
X678501Y372637D01*
X678443Y372689D01*
X678388Y372744D01*
X678336Y372802D01*
X678286Y372862D01*
X678240Y372924D01*
X678196Y372989D01*
X678155Y373056D01*
X678118Y373124D01*
X678084Y373194D01*
X678053Y373266D01*
X678026Y373339D01*
X678002Y373413D01*
X677982Y373488D01*
X677966Y373564D01*
X677953Y373641D01*
X677943Y373718D01*
X677938Y373796D01*
X677936Y373874D01*
X677936Y377966D01*
X677938Y378046D01*
X677944Y378126D01*
X677954Y378206D01*
X677967Y378285D01*
X677985Y378364D01*
X678006Y378441D01*
X678032Y378517D01*
X678061Y378592D01*
X678093Y378666D01*
X678129Y378738D01*
X678169Y378808D01*
X678212Y378875D01*
X678258Y378941D01*
X678308Y379004D01*
X678360Y379065D01*
X678415Y379124D01*
X678474Y379179D01*
X678534Y379231D01*
X678598Y379281D01*
X678664Y379327D01*
X678731Y379370D01*
X678801Y379410D01*
X678873Y379446D01*
X678947Y379478D01*
X679021Y379507D01*
X679098Y379533D01*
X679175Y379554D01*
X679254Y379572D01*
X679333Y379585D01*
X679413Y379595D01*
X679493Y379601D01*
X679573Y379603D01*
X681210Y379603D01*
X684299Y379603D02*
X684299Y372237D01*
X688391Y372237D02*
X684299Y379603D01*
X688391Y379603D02*
X688391Y372237D01*
X691858Y373874D02*
X693495Y379603D01*
X691858Y373874D02*
X695950Y373874D01*
X694722Y375511D02*
X694722Y372237D01*
D16*
X916891Y160528D02*
X942291Y160528D01*
X942291Y439928D01*
X916891Y439928D01*
X916891Y160528D01*
X919891Y435528D02*
X919893Y435617D01*
X919899Y435706D01*
X919909Y435795D01*
X919923Y435883D01*
X919940Y435970D01*
X919962Y436056D01*
X919988Y436142D01*
X920017Y436226D01*
X920050Y436309D01*
X920086Y436390D01*
X920127Y436470D01*
X920170Y436547D01*
X920217Y436623D01*
X920268Y436696D01*
X920321Y436767D01*
X920378Y436836D01*
X920438Y436902D01*
X920501Y436966D01*
X920566Y437026D01*
X920634Y437084D01*
X920705Y437138D01*
X920778Y437189D01*
X920853Y437237D01*
X920930Y437282D01*
X921009Y437323D01*
X921090Y437360D01*
X921172Y437394D01*
X921256Y437425D01*
X921341Y437451D01*
X921427Y437474D01*
X921514Y437492D01*
X921602Y437507D01*
X921691Y437518D01*
X921780Y437525D01*
X921869Y437528D01*
X921958Y437527D01*
X922047Y437522D01*
X922135Y437513D01*
X922224Y437500D01*
X922311Y437483D01*
X922398Y437463D01*
X922484Y437438D01*
X922568Y437410D01*
X922651Y437378D01*
X922733Y437342D01*
X922813Y437303D01*
X922891Y437260D01*
X922967Y437214D01*
X923041Y437164D01*
X923113Y437111D01*
X923182Y437055D01*
X923249Y436996D01*
X923313Y436934D01*
X923374Y436870D01*
X923433Y436802D01*
X923488Y436732D01*
X923540Y436660D01*
X923589Y436585D01*
X923634Y436509D01*
X923676Y436430D01*
X923714Y436350D01*
X923749Y436268D01*
X923780Y436184D01*
X923808Y436099D01*
X923831Y436013D01*
X923851Y435926D01*
X923867Y435839D01*
X923879Y435750D01*
X923887Y435662D01*
X923891Y435573D01*
X923891Y435483D01*
X923887Y435394D01*
X923879Y435306D01*
X923867Y435217D01*
X923851Y435130D01*
X923831Y435043D01*
X923808Y434957D01*
X923780Y434872D01*
X923749Y434788D01*
X923714Y434706D01*
X923676Y434626D01*
X923634Y434547D01*
X923589Y434471D01*
X923540Y434396D01*
X923488Y434324D01*
X923433Y434254D01*
X923374Y434186D01*
X923313Y434122D01*
X923249Y434060D01*
X923182Y434001D01*
X923113Y433945D01*
X923041Y433892D01*
X922967Y433842D01*
X922891Y433796D01*
X922813Y433753D01*
X922733Y433714D01*
X922651Y433678D01*
X922568Y433646D01*
X922484Y433618D01*
X922398Y433593D01*
X922311Y433573D01*
X922224Y433556D01*
X922135Y433543D01*
X922047Y433534D01*
X921958Y433529D01*
X921869Y433528D01*
X921780Y433531D01*
X921691Y433538D01*
X921602Y433549D01*
X921514Y433564D01*
X921427Y433582D01*
X921341Y433605D01*
X921256Y433631D01*
X921172Y433662D01*
X921090Y433696D01*
X921009Y433733D01*
X920930Y433774D01*
X920853Y433819D01*
X920778Y433867D01*
X920705Y433918D01*
X920634Y433972D01*
X920566Y434030D01*
X920501Y434090D01*
X920438Y434154D01*
X920378Y434220D01*
X920321Y434289D01*
X920268Y434360D01*
X920217Y434433D01*
X920170Y434509D01*
X920127Y434586D01*
X920086Y434666D01*
X920050Y434747D01*
X920017Y434830D01*
X919988Y434914D01*
X919962Y435000D01*
X919940Y435086D01*
X919923Y435173D01*
X919909Y435261D01*
X919899Y435350D01*
X919893Y435439D01*
X919891Y435528D01*
D11*
X886922Y314959D02*
X886922Y309229D01*
X886920Y309151D01*
X886915Y309073D01*
X886905Y308996D01*
X886892Y308919D01*
X886876Y308843D01*
X886856Y308768D01*
X886832Y308694D01*
X886805Y308621D01*
X886774Y308549D01*
X886740Y308479D01*
X886703Y308411D01*
X886662Y308344D01*
X886618Y308279D01*
X886572Y308217D01*
X886522Y308157D01*
X886470Y308099D01*
X886415Y308044D01*
X886357Y307992D01*
X886297Y307942D01*
X886235Y307896D01*
X886170Y307852D01*
X886104Y307811D01*
X886035Y307774D01*
X885965Y307740D01*
X885893Y307709D01*
X885820Y307682D01*
X885746Y307658D01*
X885671Y307638D01*
X885595Y307622D01*
X885518Y307609D01*
X885441Y307599D01*
X885363Y307594D01*
X885285Y307592D01*
X885285Y307593D02*
X884467Y307593D01*
X892608Y314959D02*
X892693Y314957D01*
X892778Y314951D01*
X892862Y314941D01*
X892946Y314928D01*
X893030Y314910D01*
X893112Y314889D01*
X893193Y314864D01*
X893273Y314835D01*
X893352Y314802D01*
X893429Y314766D01*
X893504Y314726D01*
X893578Y314683D01*
X893649Y314637D01*
X893718Y314587D01*
X893785Y314534D01*
X893849Y314478D01*
X893910Y314419D01*
X893969Y314358D01*
X894025Y314294D01*
X894078Y314227D01*
X894128Y314158D01*
X894174Y314087D01*
X894217Y314013D01*
X894257Y313938D01*
X894293Y313861D01*
X894326Y313782D01*
X894355Y313702D01*
X894380Y313621D01*
X894401Y313539D01*
X894419Y313455D01*
X894432Y313371D01*
X894442Y313287D01*
X894448Y313202D01*
X894450Y313117D01*
X892608Y314959D02*
X892512Y314957D01*
X892416Y314951D01*
X892321Y314941D01*
X892226Y314928D01*
X892131Y314910D01*
X892038Y314889D01*
X891945Y314864D01*
X891854Y314835D01*
X891763Y314803D01*
X891674Y314767D01*
X891587Y314727D01*
X891501Y314684D01*
X891417Y314638D01*
X891335Y314588D01*
X891255Y314534D01*
X891178Y314478D01*
X891103Y314418D01*
X891030Y314356D01*
X890960Y314290D01*
X890892Y314222D01*
X890827Y314151D01*
X890766Y314078D01*
X890707Y314002D01*
X890651Y313923D01*
X890599Y313843D01*
X890550Y313760D01*
X890504Y313676D01*
X890462Y313590D01*
X890424Y313502D01*
X890389Y313413D01*
X890357Y313322D01*
X893835Y311685D02*
X893895Y311744D01*
X893952Y311806D01*
X894007Y311870D01*
X894058Y311937D01*
X894107Y312006D01*
X894153Y312076D01*
X894196Y312149D01*
X894236Y312223D01*
X894272Y312299D01*
X894305Y312377D01*
X894335Y312456D01*
X894362Y312536D01*
X894385Y312617D01*
X894404Y312699D01*
X894420Y312781D01*
X894433Y312865D01*
X894442Y312949D01*
X894447Y313033D01*
X894449Y313117D01*
X893835Y311685D02*
X890357Y307593D01*
X894449Y307593D01*
M02*
