G04 EAGLE Gerber RS-274X export*
G75*
%MOMM*%
%FSLAX34Y34*%
%LPD*%
%INSoldermask Top*%
%IPPOS*%
%AMOC8*
5,1,8,0,0,1.08239X$1,22.5*%
G01*
%ADD10R,1.727200X1.727200*%
%ADD11C,1.727200*%
%ADD12R,1.153200X1.003200*%
%ADD13R,1.153200X0.753200*%
%ADD14R,1.403200X0.603200*%
%ADD15R,1.678200X0.503200*%
%ADD16R,0.503200X1.678200*%
%ADD17R,0.823200X0.803200*%
%ADD18R,1.143200X0.953200*%
%ADD19R,1.983200X1.193200*%
%ADD20R,0.803200X0.953200*%
%ADD21R,1.153200X0.603200*%
%ADD22C,1.853200*%
%ADD23C,0.959600*%


D10*
X596964Y41275D03*
D11*
X622364Y41275D03*
X647764Y41275D03*
X673164Y41275D03*
X698564Y41275D03*
X723964Y41275D03*
X749364Y41275D03*
X774764Y41275D03*
X800164Y41275D03*
X825564Y41275D03*
X850964Y41275D03*
D10*
X850011Y560515D03*
D11*
X824611Y560515D03*
X799211Y560515D03*
X773811Y560515D03*
X748411Y560515D03*
X723011Y560515D03*
X697611Y560515D03*
X672211Y560515D03*
X646811Y560515D03*
X621411Y560515D03*
X596011Y560515D03*
D12*
X770556Y186140D03*
D13*
X770556Y195390D03*
X770556Y203390D03*
D12*
X770556Y212640D03*
X752556Y212640D03*
D13*
X752556Y203390D03*
X752556Y195390D03*
D12*
X752556Y186140D03*
D14*
X844081Y166538D03*
X844081Y173038D03*
X844081Y179538D03*
X825081Y179538D03*
X825081Y173038D03*
X825081Y166538D03*
X844144Y268011D03*
X844144Y274511D03*
X844144Y281011D03*
X825144Y281011D03*
X825144Y274511D03*
X825144Y268011D03*
D12*
X770746Y236559D03*
D13*
X770746Y245809D03*
X770746Y253809D03*
D12*
X770746Y263059D03*
X752746Y263059D03*
D13*
X752746Y253809D03*
X752746Y245809D03*
D12*
X752746Y236559D03*
D14*
X844208Y216957D03*
X844208Y223457D03*
X844208Y229957D03*
X825208Y229957D03*
X825208Y223457D03*
X825208Y216957D03*
X844208Y318874D03*
X844208Y325374D03*
X844208Y331874D03*
X825208Y331874D03*
X825208Y325374D03*
X825208Y318874D03*
D12*
X770937Y287931D03*
D13*
X770937Y297181D03*
X770937Y305181D03*
D12*
X770937Y314431D03*
X752937Y314431D03*
D13*
X752937Y305181D03*
X752937Y297181D03*
D12*
X752937Y287931D03*
D14*
X844144Y420411D03*
X844144Y426911D03*
X844144Y433411D03*
X825144Y433411D03*
X825144Y426911D03*
X825144Y420411D03*
D12*
X771254Y389213D03*
D13*
X771254Y398463D03*
X771254Y406463D03*
D12*
X771254Y415713D03*
X753254Y415713D03*
D13*
X753254Y406463D03*
X753254Y398463D03*
D12*
X753254Y389213D03*
D14*
X844271Y369230D03*
X844271Y375730D03*
X844271Y382230D03*
X825271Y382230D03*
X825271Y375730D03*
X825271Y369230D03*
D12*
X770937Y338604D03*
D13*
X770937Y347854D03*
X770937Y355854D03*
D12*
X770937Y365104D03*
X752937Y365104D03*
D13*
X752937Y355854D03*
X752937Y347854D03*
D12*
X752937Y338604D03*
D15*
X602718Y191354D03*
X602718Y196354D03*
X602718Y201354D03*
X602718Y206354D03*
X602718Y211354D03*
X602718Y216354D03*
X602718Y221354D03*
X602718Y226354D03*
X602718Y231354D03*
X602718Y236354D03*
X602718Y241354D03*
X602718Y246354D03*
X602718Y251354D03*
X602718Y256354D03*
X602718Y261354D03*
X602718Y266354D03*
D16*
X582838Y286234D03*
X577838Y286234D03*
X572838Y286234D03*
X567838Y286234D03*
X562838Y286234D03*
X557838Y286234D03*
X552838Y286234D03*
X547838Y286234D03*
X542838Y286234D03*
X537838Y286234D03*
X532838Y286234D03*
X527838Y286234D03*
X522838Y286234D03*
X517838Y286234D03*
X512838Y286234D03*
X507838Y286234D03*
D15*
X487958Y266354D03*
X487958Y261354D03*
X487958Y256354D03*
X487958Y251354D03*
X487958Y246354D03*
X487958Y241354D03*
X487958Y236354D03*
X487958Y231354D03*
X487958Y226354D03*
X487958Y221354D03*
X487958Y216354D03*
X487958Y211354D03*
X487958Y206354D03*
X487958Y201354D03*
X487958Y196354D03*
X487958Y191354D03*
D16*
X507838Y171474D03*
X512838Y171474D03*
X517838Y171474D03*
X522838Y171474D03*
X527838Y171474D03*
X532838Y171474D03*
X537838Y171474D03*
X542838Y171474D03*
X547838Y171474D03*
X552838Y171474D03*
X557838Y171474D03*
X562838Y171474D03*
X567838Y171474D03*
X572838Y171474D03*
X577838Y171474D03*
X582838Y171474D03*
D17*
X546672Y396466D03*
X546672Y405666D03*
D18*
X497459Y404764D03*
X497459Y390764D03*
D17*
X534670Y396403D03*
X534670Y405603D03*
D19*
X477393Y403636D03*
X477393Y375636D03*
D17*
X522669Y405666D03*
X522669Y396466D03*
D20*
X510858Y404915D03*
X510858Y393915D03*
D17*
X608521Y405857D03*
X608521Y396657D03*
X571246Y405793D03*
X571246Y396593D03*
X596138Y405857D03*
X596138Y396657D03*
X558991Y405730D03*
X558991Y396530D03*
X583692Y396593D03*
X583692Y405793D03*
D21*
X695697Y237809D03*
X695697Y245809D03*
X695697Y253809D03*
X695697Y261809D03*
X678697Y261809D03*
X678697Y253809D03*
X678697Y245809D03*
X678697Y237809D03*
X695570Y187390D03*
X695570Y195390D03*
X695570Y203390D03*
X695570Y211390D03*
X678570Y211390D03*
X678570Y203390D03*
X678570Y195390D03*
X678570Y187390D03*
X695634Y289054D03*
X695634Y297054D03*
X695634Y305054D03*
X695634Y313054D03*
X678634Y313054D03*
X678634Y305054D03*
X678634Y297054D03*
X678634Y289054D03*
X695507Y390400D03*
X695507Y398400D03*
X695507Y406400D03*
X695507Y414400D03*
X678507Y414400D03*
X678507Y406400D03*
X678507Y398400D03*
X678507Y390400D03*
X695697Y339790D03*
X695697Y347790D03*
X695697Y355790D03*
X695697Y363790D03*
X678697Y363790D03*
X678697Y355790D03*
X678697Y347790D03*
X678697Y339790D03*
D22*
X901891Y401828D03*
X901891Y427228D03*
X876491Y427228D03*
X876491Y401828D03*
X901891Y376428D03*
X876491Y376428D03*
X901891Y351028D03*
X876491Y351028D03*
X901891Y325628D03*
X876491Y325628D03*
X901891Y300228D03*
X876491Y300228D03*
X901891Y274828D03*
X876491Y274828D03*
X901891Y249428D03*
X876491Y249428D03*
X901891Y224028D03*
X876491Y224028D03*
X901891Y198628D03*
X876491Y198628D03*
X901891Y173228D03*
X876491Y173228D03*
D23*
X515200Y185600D03*
X499200Y185600D03*
X462400Y379200D03*
X475200Y254400D03*
X564800Y272000D03*
X552000Y272000D03*
X577600Y262400D03*
X803200Y371200D03*
X588800Y371200D03*
X494400Y371200D03*
X577600Y438400D03*
X540800Y382400D03*
X564800Y387200D03*
X601600Y387200D03*
X780800Y193600D03*
X790400Y179200D03*
X572800Y158400D03*
X916800Y158400D03*
X475200Y211200D03*
X456000Y211200D03*
X475200Y227200D03*
X462400Y227200D03*
X500800Y236800D03*
X449600Y232000D03*
X475200Y241600D03*
X449600Y241600D03*
X500800Y252800D03*
X464000Y262400D03*
X707200Y203200D03*
X667200Y203200D03*
X707200Y187200D03*
X667200Y187200D03*
X667200Y212800D03*
X742400Y212800D03*
X502400Y308800D03*
X660800Y195200D03*
X742400Y195200D03*
X819200Y209600D03*
X774400Y224000D03*
X812800Y235200D03*
X812800Y273600D03*
X819200Y289600D03*
X667200Y262400D03*
X742400Y262400D03*
X651200Y232000D03*
X721600Y252800D03*
X667200Y252800D03*
X659200Y246400D03*
X646400Y246400D03*
X713600Y246400D03*
X665600Y238400D03*
X633600Y238400D03*
X707200Y238400D03*
X854400Y300800D03*
X854400Y312000D03*
X819200Y339200D03*
X812800Y324800D03*
X667200Y313600D03*
X742400Y313600D03*
X588800Y232000D03*
X716800Y304000D03*
X667200Y304000D03*
X715200Y294400D03*
X667200Y294400D03*
X667200Y284800D03*
X742400Y284800D03*
X580800Y225600D03*
X803200Y380800D03*
X816000Y400000D03*
X801600Y393600D03*
X854400Y393600D03*
X814400Y387200D03*
X627200Y390400D03*
X651200Y400000D03*
X667200Y406400D03*
X742400Y406400D03*
X636800Y390400D03*
X667200Y396800D03*
X742400Y396800D03*
X668800Y324800D03*
X715200Y324800D03*
X632000Y268800D03*
X708800Y268800D03*
X825600Y360000D03*
X856000Y366400D03*
X782400Y392000D03*
X667200Y364800D03*
X742400Y364800D03*
X616000Y267200D03*
X630400Y284800D03*
X721600Y355200D03*
X667200Y355200D03*
X702400Y331200D03*
X744000Y331200D03*
X614400Y331200D03*
X667200Y345600D03*
X742400Y345600D03*
X614400Y345600D03*
X518400Y380800D03*
X590400Y174400D03*
X563200Y336000D03*
X544000Y336000D03*
X552000Y380800D03*
X572800Y380800D03*
X574400Y272000D03*
X571200Y302400D03*
X526400Y387200D03*
X475200Y387200D03*
X542400Y272000D03*
X521600Y272000D03*
X499200Y273600D03*
X548800Y361600D03*
X536000Y361600D03*
M02*
