G04 EAGLE Gerber RS-274X export*
G75*
%MOMM*%
%FSLAX34Y34*%
%LPD*%
%INSilkscreen Top*%
%IPPOS*%
%AMOC8*
5,1,8,0,0,1.08239X$1,22.5*%
G01*
%ADD10C,0.152400*%
%ADD11C,0.076200*%
%ADD12C,0.127000*%
%ADD13C,0.100000*%
%ADD14C,0.200000*%


D10*
X852996Y29337D02*
X866204Y29337D01*
X848932Y53213D02*
X827596Y53213D01*
X827596Y29337D02*
X848932Y29337D01*
X823532Y53213D02*
X802196Y53213D01*
X802196Y29337D02*
X823532Y29337D01*
X798132Y53213D02*
X776796Y53213D01*
X776796Y29337D02*
X798132Y29337D01*
X587058Y29337D02*
X581724Y29337D01*
X866204Y29337D02*
X866204Y53213D01*
X852996Y53213D01*
X581724Y53213D02*
X581724Y29337D01*
X606870Y29337D02*
X620332Y29337D01*
X587058Y53213D02*
X581724Y53213D01*
X606870Y53213D02*
X620332Y53213D01*
X624396Y29337D02*
X645732Y29337D01*
X645732Y53213D02*
X624396Y53213D01*
X649796Y29337D02*
X671132Y29337D01*
X671132Y53213D02*
X649796Y53213D01*
X675196Y29337D02*
X696532Y29337D01*
X696532Y53213D02*
X675196Y53213D01*
X700596Y29337D02*
X721932Y29337D01*
X721932Y53213D02*
X700596Y53213D01*
X725996Y29337D02*
X747332Y29337D01*
X747332Y53213D02*
X725996Y53213D01*
X751396Y29337D02*
X772732Y29337D01*
X772732Y53213D02*
X751396Y53213D01*
D11*
X858499Y22924D02*
X858499Y17194D01*
X858497Y17116D01*
X858492Y17038D01*
X858482Y16961D01*
X858469Y16884D01*
X858453Y16808D01*
X858433Y16733D01*
X858409Y16659D01*
X858382Y16586D01*
X858351Y16514D01*
X858317Y16444D01*
X858280Y16376D01*
X858239Y16309D01*
X858195Y16244D01*
X858149Y16182D01*
X858099Y16122D01*
X858047Y16064D01*
X857992Y16009D01*
X857934Y15957D01*
X857874Y15907D01*
X857812Y15861D01*
X857747Y15817D01*
X857681Y15776D01*
X857612Y15739D01*
X857542Y15705D01*
X857470Y15674D01*
X857397Y15647D01*
X857323Y15623D01*
X857248Y15603D01*
X857172Y15587D01*
X857095Y15574D01*
X857018Y15564D01*
X856940Y15559D01*
X856862Y15557D01*
X856862Y15558D02*
X856044Y15558D01*
X861933Y22105D02*
X861933Y22924D01*
X866026Y22924D01*
X863979Y15558D01*
D10*
X593979Y572453D02*
X580771Y572453D01*
X598043Y548577D02*
X619379Y548577D01*
X619379Y572453D02*
X598043Y572453D01*
X623443Y548577D02*
X644779Y548577D01*
X644779Y572453D02*
X623443Y572453D01*
X648843Y548577D02*
X670179Y548577D01*
X670179Y572453D02*
X648843Y572453D01*
X859917Y572453D02*
X865251Y572453D01*
X580771Y572453D02*
X580771Y548577D01*
X593979Y548577D01*
X865251Y548577D02*
X865251Y572453D01*
X840105Y572453D02*
X826643Y572453D01*
X859917Y548577D02*
X865251Y548577D01*
X840105Y548577D02*
X826643Y548577D01*
X822579Y572453D02*
X801243Y572453D01*
X801243Y548577D02*
X822579Y548577D01*
X797179Y572453D02*
X775843Y572453D01*
X775843Y548577D02*
X797179Y548577D01*
X771779Y572453D02*
X750443Y572453D01*
X750443Y548577D02*
X771779Y548577D01*
X746379Y572453D02*
X725043Y572453D01*
X725043Y548577D02*
X746379Y548577D01*
X720979Y572453D02*
X699643Y572453D01*
X699643Y548577D02*
X720979Y548577D01*
X695579Y572453D02*
X674243Y572453D01*
X674243Y548577D02*
X695579Y548577D01*
D11*
X855959Y582154D02*
X855959Y587883D01*
X855959Y582154D02*
X855957Y582076D01*
X855952Y581998D01*
X855942Y581921D01*
X855929Y581844D01*
X855913Y581768D01*
X855893Y581693D01*
X855869Y581619D01*
X855842Y581546D01*
X855811Y581474D01*
X855777Y581404D01*
X855740Y581336D01*
X855699Y581269D01*
X855655Y581204D01*
X855609Y581142D01*
X855559Y581082D01*
X855507Y581024D01*
X855452Y580969D01*
X855394Y580917D01*
X855334Y580867D01*
X855272Y580821D01*
X855207Y580777D01*
X855141Y580736D01*
X855072Y580699D01*
X855002Y580665D01*
X854930Y580634D01*
X854857Y580607D01*
X854783Y580583D01*
X854708Y580563D01*
X854632Y580547D01*
X854555Y580534D01*
X854478Y580524D01*
X854400Y580519D01*
X854322Y580517D01*
X853504Y580517D01*
X859393Y580517D02*
X861439Y580517D01*
X861528Y580519D01*
X861617Y580525D01*
X861706Y580535D01*
X861794Y580548D01*
X861882Y580565D01*
X861969Y580587D01*
X862054Y580612D01*
X862139Y580640D01*
X862222Y580673D01*
X862304Y580709D01*
X862384Y580748D01*
X862462Y580791D01*
X862538Y580837D01*
X862613Y580887D01*
X862685Y580940D01*
X862754Y580996D01*
X862821Y581055D01*
X862886Y581116D01*
X862947Y581181D01*
X863006Y581248D01*
X863062Y581317D01*
X863115Y581389D01*
X863165Y581464D01*
X863211Y581540D01*
X863254Y581618D01*
X863293Y581698D01*
X863329Y581780D01*
X863362Y581863D01*
X863390Y581948D01*
X863415Y582033D01*
X863437Y582120D01*
X863454Y582208D01*
X863467Y582296D01*
X863477Y582385D01*
X863483Y582474D01*
X863485Y582563D01*
X863483Y582652D01*
X863477Y582741D01*
X863467Y582830D01*
X863454Y582918D01*
X863437Y583006D01*
X863415Y583093D01*
X863390Y583178D01*
X863362Y583263D01*
X863329Y583346D01*
X863293Y583428D01*
X863254Y583508D01*
X863211Y583586D01*
X863165Y583662D01*
X863115Y583737D01*
X863062Y583809D01*
X863006Y583878D01*
X862947Y583945D01*
X862886Y584010D01*
X862821Y584071D01*
X862754Y584130D01*
X862685Y584186D01*
X862613Y584239D01*
X862538Y584289D01*
X862462Y584335D01*
X862384Y584378D01*
X862304Y584417D01*
X862222Y584453D01*
X862139Y584486D01*
X862054Y584514D01*
X861969Y584539D01*
X861882Y584561D01*
X861794Y584578D01*
X861706Y584591D01*
X861617Y584601D01*
X861528Y584607D01*
X861439Y584609D01*
X861849Y587883D02*
X859393Y587883D01*
X861849Y587883D02*
X861928Y587881D01*
X862007Y587875D01*
X862086Y587866D01*
X862164Y587853D01*
X862241Y587835D01*
X862317Y587815D01*
X862392Y587790D01*
X862466Y587762D01*
X862539Y587731D01*
X862610Y587695D01*
X862679Y587657D01*
X862746Y587615D01*
X862811Y587570D01*
X862874Y587522D01*
X862935Y587471D01*
X862992Y587417D01*
X863048Y587361D01*
X863100Y587302D01*
X863150Y587240D01*
X863196Y587176D01*
X863240Y587110D01*
X863280Y587042D01*
X863316Y586972D01*
X863350Y586900D01*
X863380Y586826D01*
X863406Y586752D01*
X863429Y586676D01*
X863447Y586599D01*
X863463Y586522D01*
X863474Y586443D01*
X863482Y586365D01*
X863486Y586286D01*
X863486Y586206D01*
X863482Y586127D01*
X863474Y586049D01*
X863463Y585970D01*
X863447Y585893D01*
X863429Y585816D01*
X863406Y585740D01*
X863380Y585666D01*
X863350Y585592D01*
X863316Y585520D01*
X863280Y585450D01*
X863240Y585382D01*
X863196Y585316D01*
X863150Y585252D01*
X863100Y585190D01*
X863048Y585131D01*
X862992Y585075D01*
X862935Y585021D01*
X862874Y584970D01*
X862811Y584922D01*
X862746Y584877D01*
X862679Y584835D01*
X862610Y584797D01*
X862539Y584761D01*
X862466Y584730D01*
X862392Y584702D01*
X862317Y584677D01*
X862241Y584657D01*
X862164Y584639D01*
X862086Y584626D01*
X862007Y584617D01*
X861928Y584611D01*
X861849Y584609D01*
X860212Y584609D01*
D12*
X525850Y364165D02*
X525850Y244165D01*
X525850Y364165D02*
X675850Y364165D01*
X675850Y244165D01*
X525850Y244165D01*
X523250Y224165D02*
X448250Y224165D01*
X448250Y384165D01*
X523250Y384165D01*
X683250Y224165D02*
X688250Y224165D01*
X688250Y244165D01*
X688250Y384165D02*
X683250Y384165D01*
X688250Y384165D02*
X688250Y364165D01*
X522000Y211665D02*
X522002Y211764D01*
X522008Y211864D01*
X522018Y211963D01*
X522032Y212061D01*
X522049Y212159D01*
X522071Y212256D01*
X522096Y212352D01*
X522125Y212447D01*
X522158Y212541D01*
X522195Y212633D01*
X522235Y212724D01*
X522279Y212813D01*
X522327Y212901D01*
X522378Y212986D01*
X522432Y213069D01*
X522489Y213151D01*
X522550Y213229D01*
X522614Y213306D01*
X522680Y213379D01*
X522750Y213450D01*
X522822Y213518D01*
X522897Y213584D01*
X522975Y213646D01*
X523055Y213705D01*
X523137Y213761D01*
X523221Y213813D01*
X523308Y213862D01*
X523396Y213908D01*
X523486Y213950D01*
X523578Y213989D01*
X523671Y214024D01*
X523765Y214055D01*
X523861Y214082D01*
X523958Y214105D01*
X524055Y214125D01*
X524153Y214141D01*
X524252Y214153D01*
X524351Y214161D01*
X524450Y214165D01*
X524550Y214165D01*
X524649Y214161D01*
X524748Y214153D01*
X524847Y214141D01*
X524945Y214125D01*
X525042Y214105D01*
X525139Y214082D01*
X525235Y214055D01*
X525329Y214024D01*
X525422Y213989D01*
X525514Y213950D01*
X525604Y213908D01*
X525692Y213862D01*
X525779Y213813D01*
X525863Y213761D01*
X525945Y213705D01*
X526025Y213646D01*
X526103Y213584D01*
X526178Y213518D01*
X526250Y213450D01*
X526320Y213379D01*
X526386Y213306D01*
X526450Y213229D01*
X526511Y213151D01*
X526568Y213069D01*
X526622Y212986D01*
X526673Y212901D01*
X526721Y212813D01*
X526765Y212724D01*
X526805Y212633D01*
X526842Y212541D01*
X526875Y212447D01*
X526904Y212352D01*
X526929Y212256D01*
X526951Y212159D01*
X526968Y212061D01*
X526982Y211963D01*
X526992Y211864D01*
X526998Y211764D01*
X527000Y211665D01*
X526998Y211566D01*
X526992Y211466D01*
X526982Y211367D01*
X526968Y211269D01*
X526951Y211171D01*
X526929Y211074D01*
X526904Y210978D01*
X526875Y210883D01*
X526842Y210789D01*
X526805Y210697D01*
X526765Y210606D01*
X526721Y210517D01*
X526673Y210429D01*
X526622Y210344D01*
X526568Y210261D01*
X526511Y210179D01*
X526450Y210101D01*
X526386Y210024D01*
X526320Y209951D01*
X526250Y209880D01*
X526178Y209812D01*
X526103Y209746D01*
X526025Y209684D01*
X525945Y209625D01*
X525863Y209569D01*
X525779Y209517D01*
X525692Y209468D01*
X525604Y209422D01*
X525514Y209380D01*
X525422Y209341D01*
X525329Y209306D01*
X525235Y209275D01*
X525139Y209248D01*
X525042Y209225D01*
X524945Y209205D01*
X524847Y209189D01*
X524748Y209177D01*
X524649Y209169D01*
X524550Y209165D01*
X524450Y209165D01*
X524351Y209169D01*
X524252Y209177D01*
X524153Y209189D01*
X524055Y209205D01*
X523958Y209225D01*
X523861Y209248D01*
X523765Y209275D01*
X523671Y209306D01*
X523578Y209341D01*
X523486Y209380D01*
X523396Y209422D01*
X523308Y209468D01*
X523221Y209517D01*
X523137Y209569D01*
X523055Y209625D01*
X522975Y209684D01*
X522897Y209746D01*
X522822Y209812D01*
X522750Y209880D01*
X522680Y209951D01*
X522614Y210024D01*
X522550Y210101D01*
X522489Y210179D01*
X522432Y210261D01*
X522378Y210344D01*
X522327Y210429D01*
X522279Y210517D01*
X522235Y210606D01*
X522195Y210697D01*
X522158Y210789D01*
X522125Y210883D01*
X522096Y210978D01*
X522071Y211074D01*
X522049Y211171D01*
X522032Y211269D01*
X522018Y211367D01*
X522008Y211466D01*
X522002Y211566D01*
X522000Y211665D01*
D11*
X457551Y397066D02*
X457551Y402386D01*
X457551Y397066D02*
X457553Y396977D01*
X457559Y396888D01*
X457569Y396799D01*
X457582Y396711D01*
X457599Y396623D01*
X457621Y396536D01*
X457646Y396451D01*
X457674Y396366D01*
X457707Y396283D01*
X457743Y396201D01*
X457782Y396121D01*
X457825Y396043D01*
X457871Y395967D01*
X457921Y395892D01*
X457974Y395820D01*
X458030Y395751D01*
X458089Y395684D01*
X458150Y395619D01*
X458215Y395558D01*
X458282Y395499D01*
X458351Y395443D01*
X458423Y395390D01*
X458498Y395340D01*
X458574Y395294D01*
X458652Y395251D01*
X458732Y395212D01*
X458814Y395176D01*
X458897Y395143D01*
X458982Y395115D01*
X459067Y395090D01*
X459154Y395068D01*
X459242Y395051D01*
X459330Y395038D01*
X459419Y395028D01*
X459508Y395022D01*
X459597Y395020D01*
X459686Y395022D01*
X459775Y395028D01*
X459864Y395038D01*
X459952Y395051D01*
X460040Y395068D01*
X460127Y395090D01*
X460212Y395115D01*
X460297Y395143D01*
X460380Y395176D01*
X460462Y395212D01*
X460542Y395251D01*
X460620Y395294D01*
X460696Y395340D01*
X460771Y395390D01*
X460843Y395443D01*
X460912Y395499D01*
X460979Y395558D01*
X461044Y395619D01*
X461105Y395684D01*
X461164Y395751D01*
X461220Y395820D01*
X461273Y395892D01*
X461323Y395967D01*
X461369Y396043D01*
X461412Y396121D01*
X461451Y396201D01*
X461487Y396283D01*
X461520Y396366D01*
X461548Y396451D01*
X461573Y396536D01*
X461595Y396623D01*
X461612Y396711D01*
X461625Y396799D01*
X461635Y396888D01*
X461641Y396977D01*
X461643Y397066D01*
X461643Y402386D01*
X465110Y400749D02*
X467156Y402386D01*
X467156Y395020D01*
X465110Y395020D02*
X469202Y395020D01*
X802423Y395034D02*
X802423Y387668D01*
X802423Y395034D02*
X804469Y395034D01*
X804469Y395033D02*
X804558Y395031D01*
X804647Y395025D01*
X804736Y395015D01*
X804824Y395002D01*
X804912Y394985D01*
X804999Y394963D01*
X805084Y394938D01*
X805169Y394910D01*
X805252Y394877D01*
X805334Y394841D01*
X805414Y394802D01*
X805492Y394759D01*
X805568Y394713D01*
X805643Y394663D01*
X805715Y394610D01*
X805784Y394554D01*
X805851Y394495D01*
X805916Y394434D01*
X805977Y394369D01*
X806036Y394302D01*
X806092Y394233D01*
X806145Y394161D01*
X806195Y394086D01*
X806241Y394010D01*
X806284Y393932D01*
X806323Y393852D01*
X806359Y393770D01*
X806392Y393687D01*
X806420Y393602D01*
X806445Y393517D01*
X806467Y393430D01*
X806484Y393342D01*
X806497Y393254D01*
X806507Y393165D01*
X806513Y393076D01*
X806515Y392987D01*
X806513Y392898D01*
X806507Y392809D01*
X806497Y392720D01*
X806484Y392632D01*
X806467Y392544D01*
X806445Y392457D01*
X806420Y392372D01*
X806392Y392287D01*
X806359Y392204D01*
X806323Y392122D01*
X806284Y392042D01*
X806241Y391964D01*
X806195Y391888D01*
X806145Y391813D01*
X806092Y391741D01*
X806036Y391672D01*
X805977Y391605D01*
X805916Y391540D01*
X805851Y391479D01*
X805784Y391420D01*
X805715Y391364D01*
X805643Y391311D01*
X805568Y391261D01*
X805492Y391215D01*
X805414Y391172D01*
X805334Y391133D01*
X805252Y391097D01*
X805169Y391064D01*
X805084Y391036D01*
X804999Y391011D01*
X804912Y390989D01*
X804824Y390972D01*
X804736Y390959D01*
X804647Y390949D01*
X804558Y390943D01*
X804469Y390941D01*
X802423Y390941D01*
X804878Y390941D02*
X806515Y387668D01*
X809687Y393397D02*
X811733Y395034D01*
X811733Y387668D01*
X809687Y387668D02*
X813779Y387668D01*
X802423Y387668D02*
X802423Y395034D01*
X804469Y395034D01*
X804469Y395033D02*
X804558Y395031D01*
X804647Y395025D01*
X804736Y395015D01*
X804824Y395002D01*
X804912Y394985D01*
X804999Y394963D01*
X805084Y394938D01*
X805169Y394910D01*
X805252Y394877D01*
X805334Y394841D01*
X805414Y394802D01*
X805492Y394759D01*
X805568Y394713D01*
X805643Y394663D01*
X805715Y394610D01*
X805784Y394554D01*
X805851Y394495D01*
X805916Y394434D01*
X805977Y394369D01*
X806036Y394302D01*
X806092Y394233D01*
X806145Y394161D01*
X806195Y394086D01*
X806241Y394010D01*
X806284Y393932D01*
X806323Y393852D01*
X806359Y393770D01*
X806392Y393687D01*
X806420Y393602D01*
X806445Y393517D01*
X806467Y393430D01*
X806484Y393342D01*
X806497Y393254D01*
X806507Y393165D01*
X806513Y393076D01*
X806515Y392987D01*
X806513Y392898D01*
X806507Y392809D01*
X806497Y392720D01*
X806484Y392632D01*
X806467Y392544D01*
X806445Y392457D01*
X806420Y392372D01*
X806392Y392287D01*
X806359Y392204D01*
X806323Y392122D01*
X806284Y392042D01*
X806241Y391964D01*
X806195Y391888D01*
X806145Y391813D01*
X806092Y391741D01*
X806036Y391672D01*
X805977Y391605D01*
X805916Y391540D01*
X805851Y391479D01*
X805784Y391420D01*
X805715Y391364D01*
X805643Y391311D01*
X805568Y391261D01*
X805492Y391215D01*
X805414Y391172D01*
X805334Y391133D01*
X805252Y391097D01*
X805169Y391064D01*
X805084Y391036D01*
X804999Y391011D01*
X804912Y390989D01*
X804824Y390972D01*
X804736Y390959D01*
X804647Y390949D01*
X804558Y390943D01*
X804469Y390941D01*
X802423Y390941D01*
X804878Y390941D02*
X806515Y387668D01*
X809687Y393397D02*
X811733Y395034D01*
X811733Y387668D01*
X809687Y387668D02*
X813779Y387668D01*
X802423Y387668D02*
X802423Y395034D01*
X804469Y395034D01*
X804469Y395033D02*
X804558Y395031D01*
X804647Y395025D01*
X804736Y395015D01*
X804824Y395002D01*
X804912Y394985D01*
X804999Y394963D01*
X805084Y394938D01*
X805169Y394910D01*
X805252Y394877D01*
X805334Y394841D01*
X805414Y394802D01*
X805492Y394759D01*
X805568Y394713D01*
X805643Y394663D01*
X805715Y394610D01*
X805784Y394554D01*
X805851Y394495D01*
X805916Y394434D01*
X805977Y394369D01*
X806036Y394302D01*
X806092Y394233D01*
X806145Y394161D01*
X806195Y394086D01*
X806241Y394010D01*
X806284Y393932D01*
X806323Y393852D01*
X806359Y393770D01*
X806392Y393687D01*
X806420Y393602D01*
X806445Y393517D01*
X806467Y393430D01*
X806484Y393342D01*
X806497Y393254D01*
X806507Y393165D01*
X806513Y393076D01*
X806515Y392987D01*
X806513Y392898D01*
X806507Y392809D01*
X806497Y392720D01*
X806484Y392632D01*
X806467Y392544D01*
X806445Y392457D01*
X806420Y392372D01*
X806392Y392287D01*
X806359Y392204D01*
X806323Y392122D01*
X806284Y392042D01*
X806241Y391964D01*
X806195Y391888D01*
X806145Y391813D01*
X806092Y391741D01*
X806036Y391672D01*
X805977Y391605D01*
X805916Y391540D01*
X805851Y391479D01*
X805784Y391420D01*
X805715Y391364D01*
X805643Y391311D01*
X805568Y391261D01*
X805492Y391215D01*
X805414Y391172D01*
X805334Y391133D01*
X805252Y391097D01*
X805169Y391064D01*
X805084Y391036D01*
X804999Y391011D01*
X804912Y390989D01*
X804824Y390972D01*
X804736Y390959D01*
X804647Y390949D01*
X804558Y390943D01*
X804469Y390941D01*
X802423Y390941D01*
X804878Y390941D02*
X806515Y387668D01*
X809687Y393397D02*
X811733Y395034D01*
X811733Y387668D01*
X809687Y387668D02*
X813779Y387668D01*
X802423Y387668D02*
X802423Y395034D01*
X804469Y395034D01*
X804469Y395033D02*
X804558Y395031D01*
X804647Y395025D01*
X804736Y395015D01*
X804824Y395002D01*
X804912Y394985D01*
X804999Y394963D01*
X805084Y394938D01*
X805169Y394910D01*
X805252Y394877D01*
X805334Y394841D01*
X805414Y394802D01*
X805492Y394759D01*
X805568Y394713D01*
X805643Y394663D01*
X805715Y394610D01*
X805784Y394554D01*
X805851Y394495D01*
X805916Y394434D01*
X805977Y394369D01*
X806036Y394302D01*
X806092Y394233D01*
X806145Y394161D01*
X806195Y394086D01*
X806241Y394010D01*
X806284Y393932D01*
X806323Y393852D01*
X806359Y393770D01*
X806392Y393687D01*
X806420Y393602D01*
X806445Y393517D01*
X806467Y393430D01*
X806484Y393342D01*
X806497Y393254D01*
X806507Y393165D01*
X806513Y393076D01*
X806515Y392987D01*
X806513Y392898D01*
X806507Y392809D01*
X806497Y392720D01*
X806484Y392632D01*
X806467Y392544D01*
X806445Y392457D01*
X806420Y392372D01*
X806392Y392287D01*
X806359Y392204D01*
X806323Y392122D01*
X806284Y392042D01*
X806241Y391964D01*
X806195Y391888D01*
X806145Y391813D01*
X806092Y391741D01*
X806036Y391672D01*
X805977Y391605D01*
X805916Y391540D01*
X805851Y391479D01*
X805784Y391420D01*
X805715Y391364D01*
X805643Y391311D01*
X805568Y391261D01*
X805492Y391215D01*
X805414Y391172D01*
X805334Y391133D01*
X805252Y391097D01*
X805169Y391064D01*
X805084Y391036D01*
X804999Y391011D01*
X804912Y390989D01*
X804824Y390972D01*
X804736Y390959D01*
X804647Y390949D01*
X804558Y390943D01*
X804469Y390941D01*
X802423Y390941D01*
X804878Y390941D02*
X806515Y387668D01*
X809687Y393397D02*
X811733Y395034D01*
X811733Y387668D01*
X809687Y387668D02*
X813779Y387668D01*
X802423Y387668D02*
X802423Y395034D01*
X804469Y395034D01*
X804469Y395033D02*
X804558Y395031D01*
X804647Y395025D01*
X804736Y395015D01*
X804824Y395002D01*
X804912Y394985D01*
X804999Y394963D01*
X805084Y394938D01*
X805169Y394910D01*
X805252Y394877D01*
X805334Y394841D01*
X805414Y394802D01*
X805492Y394759D01*
X805568Y394713D01*
X805643Y394663D01*
X805715Y394610D01*
X805784Y394554D01*
X805851Y394495D01*
X805916Y394434D01*
X805977Y394369D01*
X806036Y394302D01*
X806092Y394233D01*
X806145Y394161D01*
X806195Y394086D01*
X806241Y394010D01*
X806284Y393932D01*
X806323Y393852D01*
X806359Y393770D01*
X806392Y393687D01*
X806420Y393602D01*
X806445Y393517D01*
X806467Y393430D01*
X806484Y393342D01*
X806497Y393254D01*
X806507Y393165D01*
X806513Y393076D01*
X806515Y392987D01*
X806513Y392898D01*
X806507Y392809D01*
X806497Y392720D01*
X806484Y392632D01*
X806467Y392544D01*
X806445Y392457D01*
X806420Y392372D01*
X806392Y392287D01*
X806359Y392204D01*
X806323Y392122D01*
X806284Y392042D01*
X806241Y391964D01*
X806195Y391888D01*
X806145Y391813D01*
X806092Y391741D01*
X806036Y391672D01*
X805977Y391605D01*
X805916Y391540D01*
X805851Y391479D01*
X805784Y391420D01*
X805715Y391364D01*
X805643Y391311D01*
X805568Y391261D01*
X805492Y391215D01*
X805414Y391172D01*
X805334Y391133D01*
X805252Y391097D01*
X805169Y391064D01*
X805084Y391036D01*
X804999Y391011D01*
X804912Y390989D01*
X804824Y390972D01*
X804736Y390959D01*
X804647Y390949D01*
X804558Y390943D01*
X804469Y390941D01*
X802423Y390941D01*
X804878Y390941D02*
X806515Y387668D01*
X809687Y393397D02*
X811733Y395034D01*
X811733Y387668D01*
X809687Y387668D02*
X813779Y387668D01*
X802423Y387668D02*
X802423Y395034D01*
X804469Y395034D01*
X804469Y395033D02*
X804558Y395031D01*
X804647Y395025D01*
X804736Y395015D01*
X804824Y395002D01*
X804912Y394985D01*
X804999Y394963D01*
X805084Y394938D01*
X805169Y394910D01*
X805252Y394877D01*
X805334Y394841D01*
X805414Y394802D01*
X805492Y394759D01*
X805568Y394713D01*
X805643Y394663D01*
X805715Y394610D01*
X805784Y394554D01*
X805851Y394495D01*
X805916Y394434D01*
X805977Y394369D01*
X806036Y394302D01*
X806092Y394233D01*
X806145Y394161D01*
X806195Y394086D01*
X806241Y394010D01*
X806284Y393932D01*
X806323Y393852D01*
X806359Y393770D01*
X806392Y393687D01*
X806420Y393602D01*
X806445Y393517D01*
X806467Y393430D01*
X806484Y393342D01*
X806497Y393254D01*
X806507Y393165D01*
X806513Y393076D01*
X806515Y392987D01*
X806513Y392898D01*
X806507Y392809D01*
X806497Y392720D01*
X806484Y392632D01*
X806467Y392544D01*
X806445Y392457D01*
X806420Y392372D01*
X806392Y392287D01*
X806359Y392204D01*
X806323Y392122D01*
X806284Y392042D01*
X806241Y391964D01*
X806195Y391888D01*
X806145Y391813D01*
X806092Y391741D01*
X806036Y391672D01*
X805977Y391605D01*
X805916Y391540D01*
X805851Y391479D01*
X805784Y391420D01*
X805715Y391364D01*
X805643Y391311D01*
X805568Y391261D01*
X805492Y391215D01*
X805414Y391172D01*
X805334Y391133D01*
X805252Y391097D01*
X805169Y391064D01*
X805084Y391036D01*
X804999Y391011D01*
X804912Y390989D01*
X804824Y390972D01*
X804736Y390959D01*
X804647Y390949D01*
X804558Y390943D01*
X804469Y390941D01*
X802423Y390941D01*
X804878Y390941D02*
X806515Y387668D01*
X809687Y393397D02*
X811733Y395034D01*
X811733Y387668D01*
X809687Y387668D02*
X813779Y387668D01*
X802423Y387668D02*
X802423Y395034D01*
X804469Y395034D01*
X804469Y395033D02*
X804558Y395031D01*
X804647Y395025D01*
X804736Y395015D01*
X804824Y395002D01*
X804912Y394985D01*
X804999Y394963D01*
X805084Y394938D01*
X805169Y394910D01*
X805252Y394877D01*
X805334Y394841D01*
X805414Y394802D01*
X805492Y394759D01*
X805568Y394713D01*
X805643Y394663D01*
X805715Y394610D01*
X805784Y394554D01*
X805851Y394495D01*
X805916Y394434D01*
X805977Y394369D01*
X806036Y394302D01*
X806092Y394233D01*
X806145Y394161D01*
X806195Y394086D01*
X806241Y394010D01*
X806284Y393932D01*
X806323Y393852D01*
X806359Y393770D01*
X806392Y393687D01*
X806420Y393602D01*
X806445Y393517D01*
X806467Y393430D01*
X806484Y393342D01*
X806497Y393254D01*
X806507Y393165D01*
X806513Y393076D01*
X806515Y392987D01*
X806513Y392898D01*
X806507Y392809D01*
X806497Y392720D01*
X806484Y392632D01*
X806467Y392544D01*
X806445Y392457D01*
X806420Y392372D01*
X806392Y392287D01*
X806359Y392204D01*
X806323Y392122D01*
X806284Y392042D01*
X806241Y391964D01*
X806195Y391888D01*
X806145Y391813D01*
X806092Y391741D01*
X806036Y391672D01*
X805977Y391605D01*
X805916Y391540D01*
X805851Y391479D01*
X805784Y391420D01*
X805715Y391364D01*
X805643Y391311D01*
X805568Y391261D01*
X805492Y391215D01*
X805414Y391172D01*
X805334Y391133D01*
X805252Y391097D01*
X805169Y391064D01*
X805084Y391036D01*
X804999Y391011D01*
X804912Y390989D01*
X804824Y390972D01*
X804736Y390959D01*
X804647Y390949D01*
X804558Y390943D01*
X804469Y390941D01*
X802423Y390941D01*
X804878Y390941D02*
X806515Y387668D01*
X809687Y393397D02*
X811733Y395034D01*
X811733Y387668D01*
X809687Y387668D02*
X813779Y387668D01*
D13*
X526782Y546797D02*
X485032Y546797D01*
X485032Y514797D02*
X526782Y514797D01*
D14*
X476032Y540797D02*
X476094Y540799D01*
X476155Y540805D01*
X476216Y540814D01*
X476276Y540827D01*
X476335Y540844D01*
X476393Y540865D01*
X476450Y540889D01*
X476505Y540916D01*
X476558Y540947D01*
X476610Y540981D01*
X476659Y541018D01*
X476706Y541058D01*
X476750Y541101D01*
X476791Y541146D01*
X476830Y541194D01*
X476866Y541245D01*
X476898Y541297D01*
X476927Y541351D01*
X476953Y541407D01*
X476975Y541465D01*
X476994Y541523D01*
X477009Y541583D01*
X477020Y541644D01*
X477028Y541705D01*
X477032Y541766D01*
X477032Y541828D01*
X477028Y541889D01*
X477020Y541950D01*
X477009Y542011D01*
X476994Y542071D01*
X476975Y542129D01*
X476953Y542187D01*
X476927Y542243D01*
X476898Y542297D01*
X476866Y542349D01*
X476830Y542400D01*
X476791Y542448D01*
X476750Y542493D01*
X476706Y542536D01*
X476659Y542576D01*
X476610Y542613D01*
X476558Y542647D01*
X476505Y542678D01*
X476450Y542705D01*
X476393Y542729D01*
X476335Y542750D01*
X476276Y542767D01*
X476216Y542780D01*
X476155Y542789D01*
X476094Y542795D01*
X476032Y542797D01*
X475970Y542795D01*
X475909Y542789D01*
X475848Y542780D01*
X475788Y542767D01*
X475729Y542750D01*
X475671Y542729D01*
X475614Y542705D01*
X475559Y542678D01*
X475506Y542647D01*
X475454Y542613D01*
X475405Y542576D01*
X475358Y542536D01*
X475314Y542493D01*
X475273Y542448D01*
X475234Y542400D01*
X475198Y542349D01*
X475166Y542297D01*
X475137Y542243D01*
X475111Y542187D01*
X475089Y542129D01*
X475070Y542071D01*
X475055Y542011D01*
X475044Y541950D01*
X475036Y541889D01*
X475032Y541828D01*
X475032Y541766D01*
X475036Y541705D01*
X475044Y541644D01*
X475055Y541583D01*
X475070Y541523D01*
X475089Y541465D01*
X475111Y541407D01*
X475137Y541351D01*
X475166Y541297D01*
X475198Y541245D01*
X475234Y541194D01*
X475273Y541146D01*
X475314Y541101D01*
X475358Y541058D01*
X475405Y541018D01*
X475454Y540981D01*
X475506Y540947D01*
X475559Y540916D01*
X475614Y540889D01*
X475671Y540865D01*
X475729Y540844D01*
X475788Y540827D01*
X475848Y540814D01*
X475909Y540805D01*
X475970Y540799D01*
X476032Y540797D01*
D11*
X487959Y551434D02*
X488037Y551436D01*
X488115Y551441D01*
X488192Y551451D01*
X488269Y551464D01*
X488345Y551480D01*
X488420Y551500D01*
X488494Y551524D01*
X488567Y551551D01*
X488639Y551582D01*
X488709Y551616D01*
X488778Y551653D01*
X488844Y551694D01*
X488909Y551738D01*
X488971Y551784D01*
X489031Y551834D01*
X489089Y551886D01*
X489144Y551941D01*
X489196Y551999D01*
X489246Y552059D01*
X489292Y552121D01*
X489336Y552186D01*
X489377Y552253D01*
X489414Y552321D01*
X489448Y552391D01*
X489479Y552463D01*
X489506Y552536D01*
X489530Y552610D01*
X489550Y552685D01*
X489566Y552761D01*
X489579Y552838D01*
X489589Y552915D01*
X489594Y552993D01*
X489596Y553071D01*
X487959Y551434D02*
X487845Y551436D01*
X487732Y551441D01*
X487618Y551451D01*
X487505Y551464D01*
X487393Y551481D01*
X487281Y551501D01*
X487170Y551525D01*
X487059Y551553D01*
X486950Y551584D01*
X486842Y551619D01*
X486735Y551658D01*
X486629Y551700D01*
X486525Y551745D01*
X486422Y551794D01*
X486321Y551847D01*
X486222Y551902D01*
X486124Y551961D01*
X486029Y552023D01*
X485936Y552088D01*
X485844Y552156D01*
X485756Y552227D01*
X485669Y552301D01*
X485585Y552378D01*
X485504Y552457D01*
X485708Y557163D02*
X485710Y557241D01*
X485715Y557319D01*
X485725Y557396D01*
X485738Y557473D01*
X485754Y557549D01*
X485774Y557624D01*
X485798Y557698D01*
X485825Y557771D01*
X485856Y557843D01*
X485890Y557913D01*
X485927Y557982D01*
X485968Y558048D01*
X486012Y558113D01*
X486058Y558175D01*
X486108Y558235D01*
X486160Y558293D01*
X486215Y558348D01*
X486273Y558400D01*
X486333Y558450D01*
X486395Y558496D01*
X486460Y558540D01*
X486527Y558581D01*
X486595Y558618D01*
X486665Y558652D01*
X486737Y558683D01*
X486810Y558710D01*
X486884Y558734D01*
X486959Y558754D01*
X487035Y558770D01*
X487112Y558783D01*
X487189Y558793D01*
X487267Y558798D01*
X487345Y558800D01*
X487455Y558798D01*
X487564Y558792D01*
X487674Y558782D01*
X487782Y558769D01*
X487891Y558751D01*
X487998Y558730D01*
X488105Y558704D01*
X488211Y558675D01*
X488316Y558643D01*
X488419Y558606D01*
X488521Y558566D01*
X488622Y558522D01*
X488721Y558474D01*
X488818Y558424D01*
X488913Y558369D01*
X489006Y558311D01*
X489097Y558250D01*
X489186Y558186D01*
X486527Y555730D02*
X486460Y555772D01*
X486395Y555816D01*
X486333Y555864D01*
X486273Y555914D01*
X486215Y555967D01*
X486160Y556023D01*
X486108Y556082D01*
X486058Y556142D01*
X486011Y556206D01*
X485968Y556271D01*
X485927Y556338D01*
X485890Y556407D01*
X485856Y556478D01*
X485825Y556550D01*
X485798Y556624D01*
X485774Y556698D01*
X485754Y556774D01*
X485738Y556851D01*
X485725Y556928D01*
X485715Y557006D01*
X485710Y557085D01*
X485708Y557163D01*
X488778Y554503D02*
X488844Y554461D01*
X488909Y554417D01*
X488971Y554370D01*
X489031Y554319D01*
X489089Y554266D01*
X489144Y554210D01*
X489197Y554152D01*
X489246Y554091D01*
X489293Y554028D01*
X489336Y553963D01*
X489377Y553896D01*
X489414Y553827D01*
X489448Y553756D01*
X489479Y553684D01*
X489506Y553610D01*
X489530Y553535D01*
X489550Y553460D01*
X489566Y553383D01*
X489579Y553306D01*
X489589Y553228D01*
X489594Y553149D01*
X489596Y553071D01*
X488777Y554503D02*
X486527Y555731D01*
X492575Y557163D02*
X494621Y558800D01*
X494621Y551434D01*
X492575Y551434D02*
X496667Y551434D01*
D13*
X485159Y87438D02*
X526909Y87438D01*
X526909Y55438D02*
X485159Y55438D01*
D14*
X476159Y81438D02*
X476221Y81440D01*
X476282Y81446D01*
X476343Y81455D01*
X476403Y81468D01*
X476462Y81485D01*
X476520Y81506D01*
X476577Y81530D01*
X476632Y81557D01*
X476685Y81588D01*
X476737Y81622D01*
X476786Y81659D01*
X476833Y81699D01*
X476877Y81742D01*
X476918Y81787D01*
X476957Y81835D01*
X476993Y81886D01*
X477025Y81938D01*
X477054Y81992D01*
X477080Y82048D01*
X477102Y82106D01*
X477121Y82164D01*
X477136Y82224D01*
X477147Y82285D01*
X477155Y82346D01*
X477159Y82407D01*
X477159Y82469D01*
X477155Y82530D01*
X477147Y82591D01*
X477136Y82652D01*
X477121Y82712D01*
X477102Y82770D01*
X477080Y82828D01*
X477054Y82884D01*
X477025Y82938D01*
X476993Y82990D01*
X476957Y83041D01*
X476918Y83089D01*
X476877Y83134D01*
X476833Y83177D01*
X476786Y83217D01*
X476737Y83254D01*
X476685Y83288D01*
X476632Y83319D01*
X476577Y83346D01*
X476520Y83370D01*
X476462Y83391D01*
X476403Y83408D01*
X476343Y83421D01*
X476282Y83430D01*
X476221Y83436D01*
X476159Y83438D01*
X476097Y83436D01*
X476036Y83430D01*
X475975Y83421D01*
X475915Y83408D01*
X475856Y83391D01*
X475798Y83370D01*
X475741Y83346D01*
X475686Y83319D01*
X475633Y83288D01*
X475581Y83254D01*
X475532Y83217D01*
X475485Y83177D01*
X475441Y83134D01*
X475400Y83089D01*
X475361Y83041D01*
X475325Y82990D01*
X475293Y82938D01*
X475264Y82884D01*
X475238Y82828D01*
X475216Y82770D01*
X475197Y82712D01*
X475182Y82652D01*
X475171Y82591D01*
X475163Y82530D01*
X475159Y82469D01*
X475159Y82407D01*
X475163Y82346D01*
X475171Y82285D01*
X475182Y82224D01*
X475197Y82164D01*
X475216Y82106D01*
X475238Y82048D01*
X475264Y81992D01*
X475293Y81938D01*
X475325Y81886D01*
X475361Y81835D01*
X475400Y81787D01*
X475441Y81742D01*
X475485Y81699D01*
X475532Y81659D01*
X475581Y81622D01*
X475633Y81588D01*
X475686Y81557D01*
X475741Y81530D01*
X475798Y81506D01*
X475856Y81485D01*
X475915Y81468D01*
X475975Y81455D01*
X476036Y81446D01*
X476097Y81440D01*
X476159Y81438D01*
D11*
X486118Y92075D02*
X486196Y92077D01*
X486274Y92082D01*
X486351Y92092D01*
X486428Y92105D01*
X486504Y92121D01*
X486579Y92141D01*
X486653Y92165D01*
X486726Y92192D01*
X486798Y92223D01*
X486868Y92257D01*
X486937Y92294D01*
X487003Y92335D01*
X487068Y92379D01*
X487130Y92425D01*
X487190Y92475D01*
X487248Y92527D01*
X487303Y92582D01*
X487355Y92640D01*
X487405Y92700D01*
X487451Y92762D01*
X487495Y92827D01*
X487536Y92894D01*
X487573Y92962D01*
X487607Y93032D01*
X487638Y93104D01*
X487665Y93177D01*
X487689Y93251D01*
X487709Y93326D01*
X487725Y93402D01*
X487738Y93479D01*
X487748Y93556D01*
X487753Y93634D01*
X487755Y93712D01*
X486118Y92075D02*
X486004Y92077D01*
X485891Y92082D01*
X485777Y92092D01*
X485664Y92105D01*
X485552Y92122D01*
X485440Y92142D01*
X485329Y92166D01*
X485218Y92194D01*
X485109Y92225D01*
X485001Y92260D01*
X484894Y92299D01*
X484788Y92341D01*
X484684Y92386D01*
X484581Y92435D01*
X484480Y92488D01*
X484381Y92543D01*
X484283Y92602D01*
X484188Y92664D01*
X484095Y92729D01*
X484003Y92797D01*
X483915Y92868D01*
X483828Y92942D01*
X483744Y93019D01*
X483663Y93098D01*
X483867Y97804D02*
X483869Y97882D01*
X483874Y97960D01*
X483884Y98037D01*
X483897Y98114D01*
X483913Y98190D01*
X483933Y98265D01*
X483957Y98339D01*
X483984Y98412D01*
X484015Y98484D01*
X484049Y98554D01*
X484086Y98623D01*
X484127Y98689D01*
X484171Y98754D01*
X484217Y98816D01*
X484267Y98876D01*
X484319Y98934D01*
X484374Y98989D01*
X484432Y99041D01*
X484492Y99091D01*
X484554Y99137D01*
X484619Y99181D01*
X484686Y99222D01*
X484754Y99259D01*
X484824Y99293D01*
X484896Y99324D01*
X484969Y99351D01*
X485043Y99375D01*
X485118Y99395D01*
X485194Y99411D01*
X485271Y99424D01*
X485348Y99434D01*
X485426Y99439D01*
X485504Y99441D01*
X485614Y99439D01*
X485723Y99433D01*
X485833Y99423D01*
X485941Y99410D01*
X486050Y99392D01*
X486157Y99371D01*
X486264Y99345D01*
X486370Y99316D01*
X486475Y99284D01*
X486578Y99247D01*
X486680Y99207D01*
X486781Y99163D01*
X486880Y99115D01*
X486977Y99065D01*
X487072Y99010D01*
X487165Y98952D01*
X487256Y98891D01*
X487345Y98827D01*
X484685Y96371D02*
X484618Y96413D01*
X484553Y96457D01*
X484491Y96505D01*
X484431Y96555D01*
X484373Y96608D01*
X484318Y96664D01*
X484266Y96723D01*
X484216Y96783D01*
X484169Y96847D01*
X484126Y96912D01*
X484085Y96979D01*
X484048Y97048D01*
X484014Y97119D01*
X483983Y97191D01*
X483956Y97265D01*
X483932Y97339D01*
X483912Y97415D01*
X483896Y97492D01*
X483883Y97569D01*
X483873Y97647D01*
X483868Y97726D01*
X483866Y97804D01*
X486936Y95144D02*
X487002Y95102D01*
X487067Y95058D01*
X487129Y95011D01*
X487189Y94960D01*
X487247Y94907D01*
X487302Y94851D01*
X487355Y94793D01*
X487404Y94732D01*
X487451Y94669D01*
X487494Y94604D01*
X487535Y94537D01*
X487572Y94468D01*
X487606Y94397D01*
X487637Y94325D01*
X487664Y94251D01*
X487688Y94176D01*
X487708Y94101D01*
X487724Y94024D01*
X487737Y93947D01*
X487747Y93869D01*
X487752Y93790D01*
X487754Y93712D01*
X486936Y95144D02*
X484685Y96372D01*
X492984Y99442D02*
X493069Y99440D01*
X493154Y99434D01*
X493238Y99424D01*
X493322Y99411D01*
X493406Y99393D01*
X493488Y99372D01*
X493569Y99347D01*
X493649Y99318D01*
X493728Y99285D01*
X493805Y99249D01*
X493880Y99209D01*
X493954Y99166D01*
X494025Y99120D01*
X494094Y99070D01*
X494161Y99017D01*
X494225Y98961D01*
X494286Y98902D01*
X494345Y98841D01*
X494401Y98777D01*
X494454Y98710D01*
X494504Y98641D01*
X494550Y98570D01*
X494593Y98496D01*
X494633Y98421D01*
X494669Y98344D01*
X494702Y98265D01*
X494731Y98185D01*
X494756Y98104D01*
X494777Y98022D01*
X494795Y97938D01*
X494808Y97854D01*
X494818Y97770D01*
X494824Y97685D01*
X494826Y97600D01*
X492984Y99441D02*
X492888Y99439D01*
X492792Y99433D01*
X492697Y99423D01*
X492602Y99410D01*
X492507Y99392D01*
X492414Y99371D01*
X492321Y99346D01*
X492230Y99317D01*
X492139Y99285D01*
X492050Y99249D01*
X491963Y99209D01*
X491877Y99166D01*
X491793Y99120D01*
X491711Y99070D01*
X491631Y99016D01*
X491554Y98960D01*
X491479Y98900D01*
X491406Y98838D01*
X491336Y98772D01*
X491268Y98704D01*
X491203Y98633D01*
X491142Y98560D01*
X491083Y98484D01*
X491027Y98405D01*
X490975Y98325D01*
X490926Y98242D01*
X490880Y98158D01*
X490838Y98072D01*
X490800Y97984D01*
X490765Y97895D01*
X490733Y97804D01*
X494212Y96168D02*
X494272Y96227D01*
X494329Y96289D01*
X494384Y96353D01*
X494435Y96420D01*
X494484Y96489D01*
X494530Y96559D01*
X494573Y96632D01*
X494613Y96706D01*
X494649Y96782D01*
X494682Y96860D01*
X494712Y96939D01*
X494739Y97019D01*
X494762Y97100D01*
X494781Y97182D01*
X494797Y97264D01*
X494810Y97348D01*
X494819Y97432D01*
X494824Y97516D01*
X494826Y97600D01*
X494212Y96167D02*
X490734Y92075D01*
X494826Y92075D01*
X802296Y367284D02*
X802296Y374650D01*
X804342Y374650D01*
X804431Y374648D01*
X804520Y374642D01*
X804609Y374632D01*
X804697Y374619D01*
X804785Y374602D01*
X804872Y374580D01*
X804957Y374555D01*
X805042Y374527D01*
X805125Y374494D01*
X805207Y374458D01*
X805287Y374419D01*
X805365Y374376D01*
X805441Y374330D01*
X805516Y374280D01*
X805588Y374227D01*
X805657Y374171D01*
X805724Y374112D01*
X805789Y374051D01*
X805850Y373986D01*
X805909Y373919D01*
X805965Y373850D01*
X806018Y373778D01*
X806068Y373703D01*
X806114Y373627D01*
X806157Y373549D01*
X806196Y373469D01*
X806232Y373387D01*
X806265Y373304D01*
X806293Y373219D01*
X806318Y373134D01*
X806340Y373047D01*
X806357Y372959D01*
X806370Y372871D01*
X806380Y372782D01*
X806386Y372693D01*
X806388Y372604D01*
X806386Y372515D01*
X806380Y372426D01*
X806370Y372337D01*
X806357Y372249D01*
X806340Y372161D01*
X806318Y372074D01*
X806293Y371989D01*
X806265Y371904D01*
X806232Y371821D01*
X806196Y371739D01*
X806157Y371659D01*
X806114Y371581D01*
X806068Y371505D01*
X806018Y371430D01*
X805965Y371358D01*
X805909Y371289D01*
X805850Y371222D01*
X805789Y371157D01*
X805724Y371096D01*
X805657Y371037D01*
X805588Y370981D01*
X805516Y370928D01*
X805441Y370878D01*
X805365Y370832D01*
X805287Y370789D01*
X805207Y370750D01*
X805125Y370714D01*
X805042Y370681D01*
X804957Y370653D01*
X804872Y370628D01*
X804785Y370606D01*
X804697Y370589D01*
X804609Y370576D01*
X804520Y370566D01*
X804431Y370560D01*
X804342Y370558D01*
X802296Y370558D01*
X804751Y370558D02*
X806388Y367284D01*
X813653Y372809D02*
X813651Y372894D01*
X813645Y372979D01*
X813635Y373063D01*
X813622Y373147D01*
X813604Y373231D01*
X813583Y373313D01*
X813558Y373394D01*
X813529Y373474D01*
X813496Y373553D01*
X813460Y373630D01*
X813420Y373705D01*
X813377Y373779D01*
X813331Y373850D01*
X813281Y373919D01*
X813228Y373986D01*
X813172Y374050D01*
X813113Y374111D01*
X813052Y374170D01*
X812988Y374226D01*
X812921Y374279D01*
X812852Y374329D01*
X812781Y374375D01*
X812707Y374418D01*
X812632Y374458D01*
X812555Y374494D01*
X812476Y374527D01*
X812396Y374556D01*
X812315Y374581D01*
X812233Y374602D01*
X812149Y374620D01*
X812065Y374633D01*
X811981Y374643D01*
X811896Y374649D01*
X811811Y374651D01*
X811811Y374650D02*
X811715Y374648D01*
X811619Y374642D01*
X811524Y374632D01*
X811429Y374619D01*
X811334Y374601D01*
X811241Y374580D01*
X811148Y374555D01*
X811057Y374526D01*
X810966Y374494D01*
X810877Y374458D01*
X810790Y374418D01*
X810704Y374375D01*
X810620Y374329D01*
X810538Y374279D01*
X810458Y374225D01*
X810381Y374169D01*
X810306Y374109D01*
X810233Y374047D01*
X810163Y373981D01*
X810095Y373913D01*
X810030Y373842D01*
X809969Y373769D01*
X809910Y373693D01*
X809854Y373614D01*
X809802Y373534D01*
X809753Y373451D01*
X809707Y373367D01*
X809665Y373281D01*
X809627Y373193D01*
X809592Y373104D01*
X809560Y373013D01*
X813038Y371377D02*
X813098Y371436D01*
X813155Y371498D01*
X813210Y371562D01*
X813261Y371629D01*
X813310Y371698D01*
X813356Y371768D01*
X813399Y371841D01*
X813439Y371915D01*
X813475Y371991D01*
X813508Y372069D01*
X813538Y372148D01*
X813565Y372228D01*
X813588Y372309D01*
X813607Y372391D01*
X813623Y372473D01*
X813636Y372557D01*
X813645Y372641D01*
X813650Y372725D01*
X813652Y372809D01*
X813038Y371376D02*
X809560Y367284D01*
X813652Y367284D01*
X802296Y367284D02*
X802296Y374650D01*
X804342Y374650D01*
X804431Y374648D01*
X804520Y374642D01*
X804609Y374632D01*
X804697Y374619D01*
X804785Y374602D01*
X804872Y374580D01*
X804957Y374555D01*
X805042Y374527D01*
X805125Y374494D01*
X805207Y374458D01*
X805287Y374419D01*
X805365Y374376D01*
X805441Y374330D01*
X805516Y374280D01*
X805588Y374227D01*
X805657Y374171D01*
X805724Y374112D01*
X805789Y374051D01*
X805850Y373986D01*
X805909Y373919D01*
X805965Y373850D01*
X806018Y373778D01*
X806068Y373703D01*
X806114Y373627D01*
X806157Y373549D01*
X806196Y373469D01*
X806232Y373387D01*
X806265Y373304D01*
X806293Y373219D01*
X806318Y373134D01*
X806340Y373047D01*
X806357Y372959D01*
X806370Y372871D01*
X806380Y372782D01*
X806386Y372693D01*
X806388Y372604D01*
X806386Y372515D01*
X806380Y372426D01*
X806370Y372337D01*
X806357Y372249D01*
X806340Y372161D01*
X806318Y372074D01*
X806293Y371989D01*
X806265Y371904D01*
X806232Y371821D01*
X806196Y371739D01*
X806157Y371659D01*
X806114Y371581D01*
X806068Y371505D01*
X806018Y371430D01*
X805965Y371358D01*
X805909Y371289D01*
X805850Y371222D01*
X805789Y371157D01*
X805724Y371096D01*
X805657Y371037D01*
X805588Y370981D01*
X805516Y370928D01*
X805441Y370878D01*
X805365Y370832D01*
X805287Y370789D01*
X805207Y370750D01*
X805125Y370714D01*
X805042Y370681D01*
X804957Y370653D01*
X804872Y370628D01*
X804785Y370606D01*
X804697Y370589D01*
X804609Y370576D01*
X804520Y370566D01*
X804431Y370560D01*
X804342Y370558D01*
X802296Y370558D01*
X804751Y370558D02*
X806388Y367284D01*
X813653Y372809D02*
X813651Y372894D01*
X813645Y372979D01*
X813635Y373063D01*
X813622Y373147D01*
X813604Y373231D01*
X813583Y373313D01*
X813558Y373394D01*
X813529Y373474D01*
X813496Y373553D01*
X813460Y373630D01*
X813420Y373705D01*
X813377Y373779D01*
X813331Y373850D01*
X813281Y373919D01*
X813228Y373986D01*
X813172Y374050D01*
X813113Y374111D01*
X813052Y374170D01*
X812988Y374226D01*
X812921Y374279D01*
X812852Y374329D01*
X812781Y374375D01*
X812707Y374418D01*
X812632Y374458D01*
X812555Y374494D01*
X812476Y374527D01*
X812396Y374556D01*
X812315Y374581D01*
X812233Y374602D01*
X812149Y374620D01*
X812065Y374633D01*
X811981Y374643D01*
X811896Y374649D01*
X811811Y374651D01*
X811811Y374650D02*
X811715Y374648D01*
X811619Y374642D01*
X811524Y374632D01*
X811429Y374619D01*
X811334Y374601D01*
X811241Y374580D01*
X811148Y374555D01*
X811057Y374526D01*
X810966Y374494D01*
X810877Y374458D01*
X810790Y374418D01*
X810704Y374375D01*
X810620Y374329D01*
X810538Y374279D01*
X810458Y374225D01*
X810381Y374169D01*
X810306Y374109D01*
X810233Y374047D01*
X810163Y373981D01*
X810095Y373913D01*
X810030Y373842D01*
X809969Y373769D01*
X809910Y373693D01*
X809854Y373614D01*
X809802Y373534D01*
X809753Y373451D01*
X809707Y373367D01*
X809665Y373281D01*
X809627Y373193D01*
X809592Y373104D01*
X809560Y373013D01*
X813038Y371377D02*
X813098Y371436D01*
X813155Y371498D01*
X813210Y371562D01*
X813261Y371629D01*
X813310Y371698D01*
X813356Y371768D01*
X813399Y371841D01*
X813439Y371915D01*
X813475Y371991D01*
X813508Y372069D01*
X813538Y372148D01*
X813565Y372228D01*
X813588Y372309D01*
X813607Y372391D01*
X813623Y372473D01*
X813636Y372557D01*
X813645Y372641D01*
X813650Y372725D01*
X813652Y372809D01*
X813038Y371376D02*
X809560Y367284D01*
X813652Y367284D01*
X802296Y367284D02*
X802296Y374650D01*
X804342Y374650D01*
X804431Y374648D01*
X804520Y374642D01*
X804609Y374632D01*
X804697Y374619D01*
X804785Y374602D01*
X804872Y374580D01*
X804957Y374555D01*
X805042Y374527D01*
X805125Y374494D01*
X805207Y374458D01*
X805287Y374419D01*
X805365Y374376D01*
X805441Y374330D01*
X805516Y374280D01*
X805588Y374227D01*
X805657Y374171D01*
X805724Y374112D01*
X805789Y374051D01*
X805850Y373986D01*
X805909Y373919D01*
X805965Y373850D01*
X806018Y373778D01*
X806068Y373703D01*
X806114Y373627D01*
X806157Y373549D01*
X806196Y373469D01*
X806232Y373387D01*
X806265Y373304D01*
X806293Y373219D01*
X806318Y373134D01*
X806340Y373047D01*
X806357Y372959D01*
X806370Y372871D01*
X806380Y372782D01*
X806386Y372693D01*
X806388Y372604D01*
X806386Y372515D01*
X806380Y372426D01*
X806370Y372337D01*
X806357Y372249D01*
X806340Y372161D01*
X806318Y372074D01*
X806293Y371989D01*
X806265Y371904D01*
X806232Y371821D01*
X806196Y371739D01*
X806157Y371659D01*
X806114Y371581D01*
X806068Y371505D01*
X806018Y371430D01*
X805965Y371358D01*
X805909Y371289D01*
X805850Y371222D01*
X805789Y371157D01*
X805724Y371096D01*
X805657Y371037D01*
X805588Y370981D01*
X805516Y370928D01*
X805441Y370878D01*
X805365Y370832D01*
X805287Y370789D01*
X805207Y370750D01*
X805125Y370714D01*
X805042Y370681D01*
X804957Y370653D01*
X804872Y370628D01*
X804785Y370606D01*
X804697Y370589D01*
X804609Y370576D01*
X804520Y370566D01*
X804431Y370560D01*
X804342Y370558D01*
X802296Y370558D01*
X804751Y370558D02*
X806388Y367284D01*
X813653Y372809D02*
X813651Y372894D01*
X813645Y372979D01*
X813635Y373063D01*
X813622Y373147D01*
X813604Y373231D01*
X813583Y373313D01*
X813558Y373394D01*
X813529Y373474D01*
X813496Y373553D01*
X813460Y373630D01*
X813420Y373705D01*
X813377Y373779D01*
X813331Y373850D01*
X813281Y373919D01*
X813228Y373986D01*
X813172Y374050D01*
X813113Y374111D01*
X813052Y374170D01*
X812988Y374226D01*
X812921Y374279D01*
X812852Y374329D01*
X812781Y374375D01*
X812707Y374418D01*
X812632Y374458D01*
X812555Y374494D01*
X812476Y374527D01*
X812396Y374556D01*
X812315Y374581D01*
X812233Y374602D01*
X812149Y374620D01*
X812065Y374633D01*
X811981Y374643D01*
X811896Y374649D01*
X811811Y374651D01*
X811811Y374650D02*
X811715Y374648D01*
X811619Y374642D01*
X811524Y374632D01*
X811429Y374619D01*
X811334Y374601D01*
X811241Y374580D01*
X811148Y374555D01*
X811057Y374526D01*
X810966Y374494D01*
X810877Y374458D01*
X810790Y374418D01*
X810704Y374375D01*
X810620Y374329D01*
X810538Y374279D01*
X810458Y374225D01*
X810381Y374169D01*
X810306Y374109D01*
X810233Y374047D01*
X810163Y373981D01*
X810095Y373913D01*
X810030Y373842D01*
X809969Y373769D01*
X809910Y373693D01*
X809854Y373614D01*
X809802Y373534D01*
X809753Y373451D01*
X809707Y373367D01*
X809665Y373281D01*
X809627Y373193D01*
X809592Y373104D01*
X809560Y373013D01*
X813038Y371377D02*
X813098Y371436D01*
X813155Y371498D01*
X813210Y371562D01*
X813261Y371629D01*
X813310Y371698D01*
X813356Y371768D01*
X813399Y371841D01*
X813439Y371915D01*
X813475Y371991D01*
X813508Y372069D01*
X813538Y372148D01*
X813565Y372228D01*
X813588Y372309D01*
X813607Y372391D01*
X813623Y372473D01*
X813636Y372557D01*
X813645Y372641D01*
X813650Y372725D01*
X813652Y372809D01*
X813038Y371376D02*
X809560Y367284D01*
X813652Y367284D01*
X802296Y367284D02*
X802296Y374650D01*
X804342Y374650D01*
X804431Y374648D01*
X804520Y374642D01*
X804609Y374632D01*
X804697Y374619D01*
X804785Y374602D01*
X804872Y374580D01*
X804957Y374555D01*
X805042Y374527D01*
X805125Y374494D01*
X805207Y374458D01*
X805287Y374419D01*
X805365Y374376D01*
X805441Y374330D01*
X805516Y374280D01*
X805588Y374227D01*
X805657Y374171D01*
X805724Y374112D01*
X805789Y374051D01*
X805850Y373986D01*
X805909Y373919D01*
X805965Y373850D01*
X806018Y373778D01*
X806068Y373703D01*
X806114Y373627D01*
X806157Y373549D01*
X806196Y373469D01*
X806232Y373387D01*
X806265Y373304D01*
X806293Y373219D01*
X806318Y373134D01*
X806340Y373047D01*
X806357Y372959D01*
X806370Y372871D01*
X806380Y372782D01*
X806386Y372693D01*
X806388Y372604D01*
X806386Y372515D01*
X806380Y372426D01*
X806370Y372337D01*
X806357Y372249D01*
X806340Y372161D01*
X806318Y372074D01*
X806293Y371989D01*
X806265Y371904D01*
X806232Y371821D01*
X806196Y371739D01*
X806157Y371659D01*
X806114Y371581D01*
X806068Y371505D01*
X806018Y371430D01*
X805965Y371358D01*
X805909Y371289D01*
X805850Y371222D01*
X805789Y371157D01*
X805724Y371096D01*
X805657Y371037D01*
X805588Y370981D01*
X805516Y370928D01*
X805441Y370878D01*
X805365Y370832D01*
X805287Y370789D01*
X805207Y370750D01*
X805125Y370714D01*
X805042Y370681D01*
X804957Y370653D01*
X804872Y370628D01*
X804785Y370606D01*
X804697Y370589D01*
X804609Y370576D01*
X804520Y370566D01*
X804431Y370560D01*
X804342Y370558D01*
X802296Y370558D01*
X804751Y370558D02*
X806388Y367284D01*
X813653Y372809D02*
X813651Y372894D01*
X813645Y372979D01*
X813635Y373063D01*
X813622Y373147D01*
X813604Y373231D01*
X813583Y373313D01*
X813558Y373394D01*
X813529Y373474D01*
X813496Y373553D01*
X813460Y373630D01*
X813420Y373705D01*
X813377Y373779D01*
X813331Y373850D01*
X813281Y373919D01*
X813228Y373986D01*
X813172Y374050D01*
X813113Y374111D01*
X813052Y374170D01*
X812988Y374226D01*
X812921Y374279D01*
X812852Y374329D01*
X812781Y374375D01*
X812707Y374418D01*
X812632Y374458D01*
X812555Y374494D01*
X812476Y374527D01*
X812396Y374556D01*
X812315Y374581D01*
X812233Y374602D01*
X812149Y374620D01*
X812065Y374633D01*
X811981Y374643D01*
X811896Y374649D01*
X811811Y374651D01*
X811811Y374650D02*
X811715Y374648D01*
X811619Y374642D01*
X811524Y374632D01*
X811429Y374619D01*
X811334Y374601D01*
X811241Y374580D01*
X811148Y374555D01*
X811057Y374526D01*
X810966Y374494D01*
X810877Y374458D01*
X810790Y374418D01*
X810704Y374375D01*
X810620Y374329D01*
X810538Y374279D01*
X810458Y374225D01*
X810381Y374169D01*
X810306Y374109D01*
X810233Y374047D01*
X810163Y373981D01*
X810095Y373913D01*
X810030Y373842D01*
X809969Y373769D01*
X809910Y373693D01*
X809854Y373614D01*
X809802Y373534D01*
X809753Y373451D01*
X809707Y373367D01*
X809665Y373281D01*
X809627Y373193D01*
X809592Y373104D01*
X809560Y373013D01*
X813038Y371377D02*
X813098Y371436D01*
X813155Y371498D01*
X813210Y371562D01*
X813261Y371629D01*
X813310Y371698D01*
X813356Y371768D01*
X813399Y371841D01*
X813439Y371915D01*
X813475Y371991D01*
X813508Y372069D01*
X813538Y372148D01*
X813565Y372228D01*
X813588Y372309D01*
X813607Y372391D01*
X813623Y372473D01*
X813636Y372557D01*
X813645Y372641D01*
X813650Y372725D01*
X813652Y372809D01*
X813038Y371376D02*
X809560Y367284D01*
X813652Y367284D01*
X802296Y367284D02*
X802296Y374650D01*
X804342Y374650D01*
X804431Y374648D01*
X804520Y374642D01*
X804609Y374632D01*
X804697Y374619D01*
X804785Y374602D01*
X804872Y374580D01*
X804957Y374555D01*
X805042Y374527D01*
X805125Y374494D01*
X805207Y374458D01*
X805287Y374419D01*
X805365Y374376D01*
X805441Y374330D01*
X805516Y374280D01*
X805588Y374227D01*
X805657Y374171D01*
X805724Y374112D01*
X805789Y374051D01*
X805850Y373986D01*
X805909Y373919D01*
X805965Y373850D01*
X806018Y373778D01*
X806068Y373703D01*
X806114Y373627D01*
X806157Y373549D01*
X806196Y373469D01*
X806232Y373387D01*
X806265Y373304D01*
X806293Y373219D01*
X806318Y373134D01*
X806340Y373047D01*
X806357Y372959D01*
X806370Y372871D01*
X806380Y372782D01*
X806386Y372693D01*
X806388Y372604D01*
X806386Y372515D01*
X806380Y372426D01*
X806370Y372337D01*
X806357Y372249D01*
X806340Y372161D01*
X806318Y372074D01*
X806293Y371989D01*
X806265Y371904D01*
X806232Y371821D01*
X806196Y371739D01*
X806157Y371659D01*
X806114Y371581D01*
X806068Y371505D01*
X806018Y371430D01*
X805965Y371358D01*
X805909Y371289D01*
X805850Y371222D01*
X805789Y371157D01*
X805724Y371096D01*
X805657Y371037D01*
X805588Y370981D01*
X805516Y370928D01*
X805441Y370878D01*
X805365Y370832D01*
X805287Y370789D01*
X805207Y370750D01*
X805125Y370714D01*
X805042Y370681D01*
X804957Y370653D01*
X804872Y370628D01*
X804785Y370606D01*
X804697Y370589D01*
X804609Y370576D01*
X804520Y370566D01*
X804431Y370560D01*
X804342Y370558D01*
X802296Y370558D01*
X804751Y370558D02*
X806388Y367284D01*
X813653Y372809D02*
X813651Y372894D01*
X813645Y372979D01*
X813635Y373063D01*
X813622Y373147D01*
X813604Y373231D01*
X813583Y373313D01*
X813558Y373394D01*
X813529Y373474D01*
X813496Y373553D01*
X813460Y373630D01*
X813420Y373705D01*
X813377Y373779D01*
X813331Y373850D01*
X813281Y373919D01*
X813228Y373986D01*
X813172Y374050D01*
X813113Y374111D01*
X813052Y374170D01*
X812988Y374226D01*
X812921Y374279D01*
X812852Y374329D01*
X812781Y374375D01*
X812707Y374418D01*
X812632Y374458D01*
X812555Y374494D01*
X812476Y374527D01*
X812396Y374556D01*
X812315Y374581D01*
X812233Y374602D01*
X812149Y374620D01*
X812065Y374633D01*
X811981Y374643D01*
X811896Y374649D01*
X811811Y374651D01*
X811811Y374650D02*
X811715Y374648D01*
X811619Y374642D01*
X811524Y374632D01*
X811429Y374619D01*
X811334Y374601D01*
X811241Y374580D01*
X811148Y374555D01*
X811057Y374526D01*
X810966Y374494D01*
X810877Y374458D01*
X810790Y374418D01*
X810704Y374375D01*
X810620Y374329D01*
X810538Y374279D01*
X810458Y374225D01*
X810381Y374169D01*
X810306Y374109D01*
X810233Y374047D01*
X810163Y373981D01*
X810095Y373913D01*
X810030Y373842D01*
X809969Y373769D01*
X809910Y373693D01*
X809854Y373614D01*
X809802Y373534D01*
X809753Y373451D01*
X809707Y373367D01*
X809665Y373281D01*
X809627Y373193D01*
X809592Y373104D01*
X809560Y373013D01*
X813038Y371377D02*
X813098Y371436D01*
X813155Y371498D01*
X813210Y371562D01*
X813261Y371629D01*
X813310Y371698D01*
X813356Y371768D01*
X813399Y371841D01*
X813439Y371915D01*
X813475Y371991D01*
X813508Y372069D01*
X813538Y372148D01*
X813565Y372228D01*
X813588Y372309D01*
X813607Y372391D01*
X813623Y372473D01*
X813636Y372557D01*
X813645Y372641D01*
X813650Y372725D01*
X813652Y372809D01*
X813038Y371376D02*
X809560Y367284D01*
X813652Y367284D01*
X802296Y367284D02*
X802296Y374650D01*
X804342Y374650D01*
X804431Y374648D01*
X804520Y374642D01*
X804609Y374632D01*
X804697Y374619D01*
X804785Y374602D01*
X804872Y374580D01*
X804957Y374555D01*
X805042Y374527D01*
X805125Y374494D01*
X805207Y374458D01*
X805287Y374419D01*
X805365Y374376D01*
X805441Y374330D01*
X805516Y374280D01*
X805588Y374227D01*
X805657Y374171D01*
X805724Y374112D01*
X805789Y374051D01*
X805850Y373986D01*
X805909Y373919D01*
X805965Y373850D01*
X806018Y373778D01*
X806068Y373703D01*
X806114Y373627D01*
X806157Y373549D01*
X806196Y373469D01*
X806232Y373387D01*
X806265Y373304D01*
X806293Y373219D01*
X806318Y373134D01*
X806340Y373047D01*
X806357Y372959D01*
X806370Y372871D01*
X806380Y372782D01*
X806386Y372693D01*
X806388Y372604D01*
X806386Y372515D01*
X806380Y372426D01*
X806370Y372337D01*
X806357Y372249D01*
X806340Y372161D01*
X806318Y372074D01*
X806293Y371989D01*
X806265Y371904D01*
X806232Y371821D01*
X806196Y371739D01*
X806157Y371659D01*
X806114Y371581D01*
X806068Y371505D01*
X806018Y371430D01*
X805965Y371358D01*
X805909Y371289D01*
X805850Y371222D01*
X805789Y371157D01*
X805724Y371096D01*
X805657Y371037D01*
X805588Y370981D01*
X805516Y370928D01*
X805441Y370878D01*
X805365Y370832D01*
X805287Y370789D01*
X805207Y370750D01*
X805125Y370714D01*
X805042Y370681D01*
X804957Y370653D01*
X804872Y370628D01*
X804785Y370606D01*
X804697Y370589D01*
X804609Y370576D01*
X804520Y370566D01*
X804431Y370560D01*
X804342Y370558D01*
X802296Y370558D01*
X804751Y370558D02*
X806388Y367284D01*
X813653Y372809D02*
X813651Y372894D01*
X813645Y372979D01*
X813635Y373063D01*
X813622Y373147D01*
X813604Y373231D01*
X813583Y373313D01*
X813558Y373394D01*
X813529Y373474D01*
X813496Y373553D01*
X813460Y373630D01*
X813420Y373705D01*
X813377Y373779D01*
X813331Y373850D01*
X813281Y373919D01*
X813228Y373986D01*
X813172Y374050D01*
X813113Y374111D01*
X813052Y374170D01*
X812988Y374226D01*
X812921Y374279D01*
X812852Y374329D01*
X812781Y374375D01*
X812707Y374418D01*
X812632Y374458D01*
X812555Y374494D01*
X812476Y374527D01*
X812396Y374556D01*
X812315Y374581D01*
X812233Y374602D01*
X812149Y374620D01*
X812065Y374633D01*
X811981Y374643D01*
X811896Y374649D01*
X811811Y374651D01*
X811811Y374650D02*
X811715Y374648D01*
X811619Y374642D01*
X811524Y374632D01*
X811429Y374619D01*
X811334Y374601D01*
X811241Y374580D01*
X811148Y374555D01*
X811057Y374526D01*
X810966Y374494D01*
X810877Y374458D01*
X810790Y374418D01*
X810704Y374375D01*
X810620Y374329D01*
X810538Y374279D01*
X810458Y374225D01*
X810381Y374169D01*
X810306Y374109D01*
X810233Y374047D01*
X810163Y373981D01*
X810095Y373913D01*
X810030Y373842D01*
X809969Y373769D01*
X809910Y373693D01*
X809854Y373614D01*
X809802Y373534D01*
X809753Y373451D01*
X809707Y373367D01*
X809665Y373281D01*
X809627Y373193D01*
X809592Y373104D01*
X809560Y373013D01*
X813038Y371377D02*
X813098Y371436D01*
X813155Y371498D01*
X813210Y371562D01*
X813261Y371629D01*
X813310Y371698D01*
X813356Y371768D01*
X813399Y371841D01*
X813439Y371915D01*
X813475Y371991D01*
X813508Y372069D01*
X813538Y372148D01*
X813565Y372228D01*
X813588Y372309D01*
X813607Y372391D01*
X813623Y372473D01*
X813636Y372557D01*
X813645Y372641D01*
X813650Y372725D01*
X813652Y372809D01*
X813038Y371376D02*
X809560Y367284D01*
X813652Y367284D01*
X802296Y367284D02*
X802296Y374650D01*
X804342Y374650D01*
X804431Y374648D01*
X804520Y374642D01*
X804609Y374632D01*
X804697Y374619D01*
X804785Y374602D01*
X804872Y374580D01*
X804957Y374555D01*
X805042Y374527D01*
X805125Y374494D01*
X805207Y374458D01*
X805287Y374419D01*
X805365Y374376D01*
X805441Y374330D01*
X805516Y374280D01*
X805588Y374227D01*
X805657Y374171D01*
X805724Y374112D01*
X805789Y374051D01*
X805850Y373986D01*
X805909Y373919D01*
X805965Y373850D01*
X806018Y373778D01*
X806068Y373703D01*
X806114Y373627D01*
X806157Y373549D01*
X806196Y373469D01*
X806232Y373387D01*
X806265Y373304D01*
X806293Y373219D01*
X806318Y373134D01*
X806340Y373047D01*
X806357Y372959D01*
X806370Y372871D01*
X806380Y372782D01*
X806386Y372693D01*
X806388Y372604D01*
X806386Y372515D01*
X806380Y372426D01*
X806370Y372337D01*
X806357Y372249D01*
X806340Y372161D01*
X806318Y372074D01*
X806293Y371989D01*
X806265Y371904D01*
X806232Y371821D01*
X806196Y371739D01*
X806157Y371659D01*
X806114Y371581D01*
X806068Y371505D01*
X806018Y371430D01*
X805965Y371358D01*
X805909Y371289D01*
X805850Y371222D01*
X805789Y371157D01*
X805724Y371096D01*
X805657Y371037D01*
X805588Y370981D01*
X805516Y370928D01*
X805441Y370878D01*
X805365Y370832D01*
X805287Y370789D01*
X805207Y370750D01*
X805125Y370714D01*
X805042Y370681D01*
X804957Y370653D01*
X804872Y370628D01*
X804785Y370606D01*
X804697Y370589D01*
X804609Y370576D01*
X804520Y370566D01*
X804431Y370560D01*
X804342Y370558D01*
X802296Y370558D01*
X804751Y370558D02*
X806388Y367284D01*
X813653Y372809D02*
X813651Y372894D01*
X813645Y372979D01*
X813635Y373063D01*
X813622Y373147D01*
X813604Y373231D01*
X813583Y373313D01*
X813558Y373394D01*
X813529Y373474D01*
X813496Y373553D01*
X813460Y373630D01*
X813420Y373705D01*
X813377Y373779D01*
X813331Y373850D01*
X813281Y373919D01*
X813228Y373986D01*
X813172Y374050D01*
X813113Y374111D01*
X813052Y374170D01*
X812988Y374226D01*
X812921Y374279D01*
X812852Y374329D01*
X812781Y374375D01*
X812707Y374418D01*
X812632Y374458D01*
X812555Y374494D01*
X812476Y374527D01*
X812396Y374556D01*
X812315Y374581D01*
X812233Y374602D01*
X812149Y374620D01*
X812065Y374633D01*
X811981Y374643D01*
X811896Y374649D01*
X811811Y374651D01*
X811811Y374650D02*
X811715Y374648D01*
X811619Y374642D01*
X811524Y374632D01*
X811429Y374619D01*
X811334Y374601D01*
X811241Y374580D01*
X811148Y374555D01*
X811057Y374526D01*
X810966Y374494D01*
X810877Y374458D01*
X810790Y374418D01*
X810704Y374375D01*
X810620Y374329D01*
X810538Y374279D01*
X810458Y374225D01*
X810381Y374169D01*
X810306Y374109D01*
X810233Y374047D01*
X810163Y373981D01*
X810095Y373913D01*
X810030Y373842D01*
X809969Y373769D01*
X809910Y373693D01*
X809854Y373614D01*
X809802Y373534D01*
X809753Y373451D01*
X809707Y373367D01*
X809665Y373281D01*
X809627Y373193D01*
X809592Y373104D01*
X809560Y373013D01*
X813038Y371377D02*
X813098Y371436D01*
X813155Y371498D01*
X813210Y371562D01*
X813261Y371629D01*
X813310Y371698D01*
X813356Y371768D01*
X813399Y371841D01*
X813439Y371915D01*
X813475Y371991D01*
X813508Y372069D01*
X813538Y372148D01*
X813565Y372228D01*
X813588Y372309D01*
X813607Y372391D01*
X813623Y372473D01*
X813636Y372557D01*
X813645Y372641D01*
X813650Y372725D01*
X813652Y372809D01*
X813038Y371376D02*
X809560Y367284D01*
X813652Y367284D01*
X802359Y355029D02*
X802359Y347663D01*
X802359Y355029D02*
X804405Y355029D01*
X804405Y355028D02*
X804494Y355026D01*
X804583Y355020D01*
X804672Y355010D01*
X804760Y354997D01*
X804848Y354980D01*
X804935Y354958D01*
X805020Y354933D01*
X805105Y354905D01*
X805188Y354872D01*
X805270Y354836D01*
X805350Y354797D01*
X805428Y354754D01*
X805504Y354708D01*
X805579Y354658D01*
X805651Y354605D01*
X805720Y354549D01*
X805787Y354490D01*
X805852Y354429D01*
X805913Y354364D01*
X805972Y354297D01*
X806028Y354228D01*
X806081Y354156D01*
X806131Y354081D01*
X806177Y354005D01*
X806220Y353927D01*
X806259Y353847D01*
X806295Y353765D01*
X806328Y353682D01*
X806356Y353597D01*
X806381Y353512D01*
X806403Y353425D01*
X806420Y353337D01*
X806433Y353249D01*
X806443Y353160D01*
X806449Y353071D01*
X806451Y352982D01*
X806449Y352893D01*
X806443Y352804D01*
X806433Y352715D01*
X806420Y352627D01*
X806403Y352539D01*
X806381Y352452D01*
X806356Y352367D01*
X806328Y352282D01*
X806295Y352199D01*
X806259Y352117D01*
X806220Y352037D01*
X806177Y351959D01*
X806131Y351883D01*
X806081Y351808D01*
X806028Y351736D01*
X805972Y351667D01*
X805913Y351600D01*
X805852Y351535D01*
X805787Y351474D01*
X805720Y351415D01*
X805651Y351359D01*
X805579Y351306D01*
X805504Y351256D01*
X805428Y351210D01*
X805350Y351167D01*
X805270Y351128D01*
X805188Y351092D01*
X805105Y351059D01*
X805020Y351031D01*
X804935Y351006D01*
X804848Y350984D01*
X804760Y350967D01*
X804672Y350954D01*
X804583Y350944D01*
X804494Y350938D01*
X804405Y350936D01*
X802359Y350936D01*
X804815Y350936D02*
X806452Y347663D01*
X809623Y347663D02*
X811670Y347663D01*
X811759Y347665D01*
X811848Y347671D01*
X811937Y347681D01*
X812025Y347694D01*
X812113Y347711D01*
X812200Y347733D01*
X812285Y347758D01*
X812370Y347786D01*
X812453Y347819D01*
X812535Y347855D01*
X812615Y347894D01*
X812693Y347937D01*
X812769Y347983D01*
X812844Y348033D01*
X812916Y348086D01*
X812985Y348142D01*
X813052Y348201D01*
X813117Y348262D01*
X813178Y348327D01*
X813237Y348394D01*
X813293Y348463D01*
X813346Y348535D01*
X813396Y348610D01*
X813442Y348686D01*
X813485Y348764D01*
X813524Y348844D01*
X813560Y348926D01*
X813593Y349009D01*
X813621Y349094D01*
X813646Y349179D01*
X813668Y349266D01*
X813685Y349354D01*
X813698Y349442D01*
X813708Y349531D01*
X813714Y349620D01*
X813716Y349709D01*
X813714Y349798D01*
X813708Y349887D01*
X813698Y349976D01*
X813685Y350064D01*
X813668Y350152D01*
X813646Y350239D01*
X813621Y350324D01*
X813593Y350409D01*
X813560Y350492D01*
X813524Y350574D01*
X813485Y350654D01*
X813442Y350732D01*
X813396Y350808D01*
X813346Y350883D01*
X813293Y350955D01*
X813237Y351024D01*
X813178Y351091D01*
X813117Y351156D01*
X813052Y351217D01*
X812985Y351276D01*
X812916Y351332D01*
X812844Y351385D01*
X812769Y351435D01*
X812693Y351481D01*
X812615Y351524D01*
X812535Y351563D01*
X812453Y351599D01*
X812370Y351632D01*
X812285Y351660D01*
X812200Y351685D01*
X812113Y351707D01*
X812025Y351724D01*
X811937Y351737D01*
X811848Y351747D01*
X811759Y351753D01*
X811670Y351755D01*
X812079Y355029D02*
X809623Y355029D01*
X812079Y355029D02*
X812158Y355027D01*
X812237Y355021D01*
X812316Y355012D01*
X812394Y354999D01*
X812471Y354981D01*
X812547Y354961D01*
X812622Y354936D01*
X812696Y354908D01*
X812769Y354877D01*
X812840Y354841D01*
X812909Y354803D01*
X812976Y354761D01*
X813041Y354716D01*
X813104Y354668D01*
X813165Y354617D01*
X813222Y354563D01*
X813278Y354507D01*
X813330Y354448D01*
X813380Y354386D01*
X813426Y354322D01*
X813470Y354256D01*
X813510Y354188D01*
X813546Y354118D01*
X813580Y354046D01*
X813610Y353972D01*
X813636Y353898D01*
X813659Y353822D01*
X813677Y353745D01*
X813693Y353668D01*
X813704Y353589D01*
X813712Y353511D01*
X813716Y353432D01*
X813716Y353352D01*
X813712Y353273D01*
X813704Y353195D01*
X813693Y353116D01*
X813677Y353039D01*
X813659Y352962D01*
X813636Y352886D01*
X813610Y352812D01*
X813580Y352738D01*
X813546Y352666D01*
X813510Y352596D01*
X813470Y352528D01*
X813426Y352462D01*
X813380Y352398D01*
X813330Y352336D01*
X813278Y352277D01*
X813222Y352221D01*
X813165Y352167D01*
X813104Y352116D01*
X813041Y352068D01*
X812976Y352023D01*
X812909Y351981D01*
X812840Y351943D01*
X812769Y351907D01*
X812696Y351876D01*
X812622Y351848D01*
X812547Y351823D01*
X812471Y351803D01*
X812394Y351785D01*
X812316Y351772D01*
X812237Y351763D01*
X812158Y351757D01*
X812079Y351755D01*
X810442Y351755D01*
X802359Y355029D02*
X802359Y347663D01*
X802359Y355029D02*
X804405Y355029D01*
X804405Y355028D02*
X804494Y355026D01*
X804583Y355020D01*
X804672Y355010D01*
X804760Y354997D01*
X804848Y354980D01*
X804935Y354958D01*
X805020Y354933D01*
X805105Y354905D01*
X805188Y354872D01*
X805270Y354836D01*
X805350Y354797D01*
X805428Y354754D01*
X805504Y354708D01*
X805579Y354658D01*
X805651Y354605D01*
X805720Y354549D01*
X805787Y354490D01*
X805852Y354429D01*
X805913Y354364D01*
X805972Y354297D01*
X806028Y354228D01*
X806081Y354156D01*
X806131Y354081D01*
X806177Y354005D01*
X806220Y353927D01*
X806259Y353847D01*
X806295Y353765D01*
X806328Y353682D01*
X806356Y353597D01*
X806381Y353512D01*
X806403Y353425D01*
X806420Y353337D01*
X806433Y353249D01*
X806443Y353160D01*
X806449Y353071D01*
X806451Y352982D01*
X806449Y352893D01*
X806443Y352804D01*
X806433Y352715D01*
X806420Y352627D01*
X806403Y352539D01*
X806381Y352452D01*
X806356Y352367D01*
X806328Y352282D01*
X806295Y352199D01*
X806259Y352117D01*
X806220Y352037D01*
X806177Y351959D01*
X806131Y351883D01*
X806081Y351808D01*
X806028Y351736D01*
X805972Y351667D01*
X805913Y351600D01*
X805852Y351535D01*
X805787Y351474D01*
X805720Y351415D01*
X805651Y351359D01*
X805579Y351306D01*
X805504Y351256D01*
X805428Y351210D01*
X805350Y351167D01*
X805270Y351128D01*
X805188Y351092D01*
X805105Y351059D01*
X805020Y351031D01*
X804935Y351006D01*
X804848Y350984D01*
X804760Y350967D01*
X804672Y350954D01*
X804583Y350944D01*
X804494Y350938D01*
X804405Y350936D01*
X802359Y350936D01*
X804815Y350936D02*
X806452Y347663D01*
X809623Y347663D02*
X811670Y347663D01*
X811759Y347665D01*
X811848Y347671D01*
X811937Y347681D01*
X812025Y347694D01*
X812113Y347711D01*
X812200Y347733D01*
X812285Y347758D01*
X812370Y347786D01*
X812453Y347819D01*
X812535Y347855D01*
X812615Y347894D01*
X812693Y347937D01*
X812769Y347983D01*
X812844Y348033D01*
X812916Y348086D01*
X812985Y348142D01*
X813052Y348201D01*
X813117Y348262D01*
X813178Y348327D01*
X813237Y348394D01*
X813293Y348463D01*
X813346Y348535D01*
X813396Y348610D01*
X813442Y348686D01*
X813485Y348764D01*
X813524Y348844D01*
X813560Y348926D01*
X813593Y349009D01*
X813621Y349094D01*
X813646Y349179D01*
X813668Y349266D01*
X813685Y349354D01*
X813698Y349442D01*
X813708Y349531D01*
X813714Y349620D01*
X813716Y349709D01*
X813714Y349798D01*
X813708Y349887D01*
X813698Y349976D01*
X813685Y350064D01*
X813668Y350152D01*
X813646Y350239D01*
X813621Y350324D01*
X813593Y350409D01*
X813560Y350492D01*
X813524Y350574D01*
X813485Y350654D01*
X813442Y350732D01*
X813396Y350808D01*
X813346Y350883D01*
X813293Y350955D01*
X813237Y351024D01*
X813178Y351091D01*
X813117Y351156D01*
X813052Y351217D01*
X812985Y351276D01*
X812916Y351332D01*
X812844Y351385D01*
X812769Y351435D01*
X812693Y351481D01*
X812615Y351524D01*
X812535Y351563D01*
X812453Y351599D01*
X812370Y351632D01*
X812285Y351660D01*
X812200Y351685D01*
X812113Y351707D01*
X812025Y351724D01*
X811937Y351737D01*
X811848Y351747D01*
X811759Y351753D01*
X811670Y351755D01*
X812079Y355029D02*
X809623Y355029D01*
X812079Y355029D02*
X812158Y355027D01*
X812237Y355021D01*
X812316Y355012D01*
X812394Y354999D01*
X812471Y354981D01*
X812547Y354961D01*
X812622Y354936D01*
X812696Y354908D01*
X812769Y354877D01*
X812840Y354841D01*
X812909Y354803D01*
X812976Y354761D01*
X813041Y354716D01*
X813104Y354668D01*
X813165Y354617D01*
X813222Y354563D01*
X813278Y354507D01*
X813330Y354448D01*
X813380Y354386D01*
X813426Y354322D01*
X813470Y354256D01*
X813510Y354188D01*
X813546Y354118D01*
X813580Y354046D01*
X813610Y353972D01*
X813636Y353898D01*
X813659Y353822D01*
X813677Y353745D01*
X813693Y353668D01*
X813704Y353589D01*
X813712Y353511D01*
X813716Y353432D01*
X813716Y353352D01*
X813712Y353273D01*
X813704Y353195D01*
X813693Y353116D01*
X813677Y353039D01*
X813659Y352962D01*
X813636Y352886D01*
X813610Y352812D01*
X813580Y352738D01*
X813546Y352666D01*
X813510Y352596D01*
X813470Y352528D01*
X813426Y352462D01*
X813380Y352398D01*
X813330Y352336D01*
X813278Y352277D01*
X813222Y352221D01*
X813165Y352167D01*
X813104Y352116D01*
X813041Y352068D01*
X812976Y352023D01*
X812909Y351981D01*
X812840Y351943D01*
X812769Y351907D01*
X812696Y351876D01*
X812622Y351848D01*
X812547Y351823D01*
X812471Y351803D01*
X812394Y351785D01*
X812316Y351772D01*
X812237Y351763D01*
X812158Y351757D01*
X812079Y351755D01*
X810442Y351755D01*
X802359Y355029D02*
X802359Y347663D01*
X802359Y355029D02*
X804405Y355029D01*
X804405Y355028D02*
X804494Y355026D01*
X804583Y355020D01*
X804672Y355010D01*
X804760Y354997D01*
X804848Y354980D01*
X804935Y354958D01*
X805020Y354933D01*
X805105Y354905D01*
X805188Y354872D01*
X805270Y354836D01*
X805350Y354797D01*
X805428Y354754D01*
X805504Y354708D01*
X805579Y354658D01*
X805651Y354605D01*
X805720Y354549D01*
X805787Y354490D01*
X805852Y354429D01*
X805913Y354364D01*
X805972Y354297D01*
X806028Y354228D01*
X806081Y354156D01*
X806131Y354081D01*
X806177Y354005D01*
X806220Y353927D01*
X806259Y353847D01*
X806295Y353765D01*
X806328Y353682D01*
X806356Y353597D01*
X806381Y353512D01*
X806403Y353425D01*
X806420Y353337D01*
X806433Y353249D01*
X806443Y353160D01*
X806449Y353071D01*
X806451Y352982D01*
X806449Y352893D01*
X806443Y352804D01*
X806433Y352715D01*
X806420Y352627D01*
X806403Y352539D01*
X806381Y352452D01*
X806356Y352367D01*
X806328Y352282D01*
X806295Y352199D01*
X806259Y352117D01*
X806220Y352037D01*
X806177Y351959D01*
X806131Y351883D01*
X806081Y351808D01*
X806028Y351736D01*
X805972Y351667D01*
X805913Y351600D01*
X805852Y351535D01*
X805787Y351474D01*
X805720Y351415D01*
X805651Y351359D01*
X805579Y351306D01*
X805504Y351256D01*
X805428Y351210D01*
X805350Y351167D01*
X805270Y351128D01*
X805188Y351092D01*
X805105Y351059D01*
X805020Y351031D01*
X804935Y351006D01*
X804848Y350984D01*
X804760Y350967D01*
X804672Y350954D01*
X804583Y350944D01*
X804494Y350938D01*
X804405Y350936D01*
X802359Y350936D01*
X804815Y350936D02*
X806452Y347663D01*
X809623Y347663D02*
X811670Y347663D01*
X811759Y347665D01*
X811848Y347671D01*
X811937Y347681D01*
X812025Y347694D01*
X812113Y347711D01*
X812200Y347733D01*
X812285Y347758D01*
X812370Y347786D01*
X812453Y347819D01*
X812535Y347855D01*
X812615Y347894D01*
X812693Y347937D01*
X812769Y347983D01*
X812844Y348033D01*
X812916Y348086D01*
X812985Y348142D01*
X813052Y348201D01*
X813117Y348262D01*
X813178Y348327D01*
X813237Y348394D01*
X813293Y348463D01*
X813346Y348535D01*
X813396Y348610D01*
X813442Y348686D01*
X813485Y348764D01*
X813524Y348844D01*
X813560Y348926D01*
X813593Y349009D01*
X813621Y349094D01*
X813646Y349179D01*
X813668Y349266D01*
X813685Y349354D01*
X813698Y349442D01*
X813708Y349531D01*
X813714Y349620D01*
X813716Y349709D01*
X813714Y349798D01*
X813708Y349887D01*
X813698Y349976D01*
X813685Y350064D01*
X813668Y350152D01*
X813646Y350239D01*
X813621Y350324D01*
X813593Y350409D01*
X813560Y350492D01*
X813524Y350574D01*
X813485Y350654D01*
X813442Y350732D01*
X813396Y350808D01*
X813346Y350883D01*
X813293Y350955D01*
X813237Y351024D01*
X813178Y351091D01*
X813117Y351156D01*
X813052Y351217D01*
X812985Y351276D01*
X812916Y351332D01*
X812844Y351385D01*
X812769Y351435D01*
X812693Y351481D01*
X812615Y351524D01*
X812535Y351563D01*
X812453Y351599D01*
X812370Y351632D01*
X812285Y351660D01*
X812200Y351685D01*
X812113Y351707D01*
X812025Y351724D01*
X811937Y351737D01*
X811848Y351747D01*
X811759Y351753D01*
X811670Y351755D01*
X812079Y355029D02*
X809623Y355029D01*
X812079Y355029D02*
X812158Y355027D01*
X812237Y355021D01*
X812316Y355012D01*
X812394Y354999D01*
X812471Y354981D01*
X812547Y354961D01*
X812622Y354936D01*
X812696Y354908D01*
X812769Y354877D01*
X812840Y354841D01*
X812909Y354803D01*
X812976Y354761D01*
X813041Y354716D01*
X813104Y354668D01*
X813165Y354617D01*
X813222Y354563D01*
X813278Y354507D01*
X813330Y354448D01*
X813380Y354386D01*
X813426Y354322D01*
X813470Y354256D01*
X813510Y354188D01*
X813546Y354118D01*
X813580Y354046D01*
X813610Y353972D01*
X813636Y353898D01*
X813659Y353822D01*
X813677Y353745D01*
X813693Y353668D01*
X813704Y353589D01*
X813712Y353511D01*
X813716Y353432D01*
X813716Y353352D01*
X813712Y353273D01*
X813704Y353195D01*
X813693Y353116D01*
X813677Y353039D01*
X813659Y352962D01*
X813636Y352886D01*
X813610Y352812D01*
X813580Y352738D01*
X813546Y352666D01*
X813510Y352596D01*
X813470Y352528D01*
X813426Y352462D01*
X813380Y352398D01*
X813330Y352336D01*
X813278Y352277D01*
X813222Y352221D01*
X813165Y352167D01*
X813104Y352116D01*
X813041Y352068D01*
X812976Y352023D01*
X812909Y351981D01*
X812840Y351943D01*
X812769Y351907D01*
X812696Y351876D01*
X812622Y351848D01*
X812547Y351823D01*
X812471Y351803D01*
X812394Y351785D01*
X812316Y351772D01*
X812237Y351763D01*
X812158Y351757D01*
X812079Y351755D01*
X810442Y351755D01*
X802359Y355029D02*
X802359Y347663D01*
X802359Y355029D02*
X804405Y355029D01*
X804405Y355028D02*
X804494Y355026D01*
X804583Y355020D01*
X804672Y355010D01*
X804760Y354997D01*
X804848Y354980D01*
X804935Y354958D01*
X805020Y354933D01*
X805105Y354905D01*
X805188Y354872D01*
X805270Y354836D01*
X805350Y354797D01*
X805428Y354754D01*
X805504Y354708D01*
X805579Y354658D01*
X805651Y354605D01*
X805720Y354549D01*
X805787Y354490D01*
X805852Y354429D01*
X805913Y354364D01*
X805972Y354297D01*
X806028Y354228D01*
X806081Y354156D01*
X806131Y354081D01*
X806177Y354005D01*
X806220Y353927D01*
X806259Y353847D01*
X806295Y353765D01*
X806328Y353682D01*
X806356Y353597D01*
X806381Y353512D01*
X806403Y353425D01*
X806420Y353337D01*
X806433Y353249D01*
X806443Y353160D01*
X806449Y353071D01*
X806451Y352982D01*
X806449Y352893D01*
X806443Y352804D01*
X806433Y352715D01*
X806420Y352627D01*
X806403Y352539D01*
X806381Y352452D01*
X806356Y352367D01*
X806328Y352282D01*
X806295Y352199D01*
X806259Y352117D01*
X806220Y352037D01*
X806177Y351959D01*
X806131Y351883D01*
X806081Y351808D01*
X806028Y351736D01*
X805972Y351667D01*
X805913Y351600D01*
X805852Y351535D01*
X805787Y351474D01*
X805720Y351415D01*
X805651Y351359D01*
X805579Y351306D01*
X805504Y351256D01*
X805428Y351210D01*
X805350Y351167D01*
X805270Y351128D01*
X805188Y351092D01*
X805105Y351059D01*
X805020Y351031D01*
X804935Y351006D01*
X804848Y350984D01*
X804760Y350967D01*
X804672Y350954D01*
X804583Y350944D01*
X804494Y350938D01*
X804405Y350936D01*
X802359Y350936D01*
X804815Y350936D02*
X806452Y347663D01*
X809623Y347663D02*
X811670Y347663D01*
X811759Y347665D01*
X811848Y347671D01*
X811937Y347681D01*
X812025Y347694D01*
X812113Y347711D01*
X812200Y347733D01*
X812285Y347758D01*
X812370Y347786D01*
X812453Y347819D01*
X812535Y347855D01*
X812615Y347894D01*
X812693Y347937D01*
X812769Y347983D01*
X812844Y348033D01*
X812916Y348086D01*
X812985Y348142D01*
X813052Y348201D01*
X813117Y348262D01*
X813178Y348327D01*
X813237Y348394D01*
X813293Y348463D01*
X813346Y348535D01*
X813396Y348610D01*
X813442Y348686D01*
X813485Y348764D01*
X813524Y348844D01*
X813560Y348926D01*
X813593Y349009D01*
X813621Y349094D01*
X813646Y349179D01*
X813668Y349266D01*
X813685Y349354D01*
X813698Y349442D01*
X813708Y349531D01*
X813714Y349620D01*
X813716Y349709D01*
X813714Y349798D01*
X813708Y349887D01*
X813698Y349976D01*
X813685Y350064D01*
X813668Y350152D01*
X813646Y350239D01*
X813621Y350324D01*
X813593Y350409D01*
X813560Y350492D01*
X813524Y350574D01*
X813485Y350654D01*
X813442Y350732D01*
X813396Y350808D01*
X813346Y350883D01*
X813293Y350955D01*
X813237Y351024D01*
X813178Y351091D01*
X813117Y351156D01*
X813052Y351217D01*
X812985Y351276D01*
X812916Y351332D01*
X812844Y351385D01*
X812769Y351435D01*
X812693Y351481D01*
X812615Y351524D01*
X812535Y351563D01*
X812453Y351599D01*
X812370Y351632D01*
X812285Y351660D01*
X812200Y351685D01*
X812113Y351707D01*
X812025Y351724D01*
X811937Y351737D01*
X811848Y351747D01*
X811759Y351753D01*
X811670Y351755D01*
X812079Y355029D02*
X809623Y355029D01*
X812079Y355029D02*
X812158Y355027D01*
X812237Y355021D01*
X812316Y355012D01*
X812394Y354999D01*
X812471Y354981D01*
X812547Y354961D01*
X812622Y354936D01*
X812696Y354908D01*
X812769Y354877D01*
X812840Y354841D01*
X812909Y354803D01*
X812976Y354761D01*
X813041Y354716D01*
X813104Y354668D01*
X813165Y354617D01*
X813222Y354563D01*
X813278Y354507D01*
X813330Y354448D01*
X813380Y354386D01*
X813426Y354322D01*
X813470Y354256D01*
X813510Y354188D01*
X813546Y354118D01*
X813580Y354046D01*
X813610Y353972D01*
X813636Y353898D01*
X813659Y353822D01*
X813677Y353745D01*
X813693Y353668D01*
X813704Y353589D01*
X813712Y353511D01*
X813716Y353432D01*
X813716Y353352D01*
X813712Y353273D01*
X813704Y353195D01*
X813693Y353116D01*
X813677Y353039D01*
X813659Y352962D01*
X813636Y352886D01*
X813610Y352812D01*
X813580Y352738D01*
X813546Y352666D01*
X813510Y352596D01*
X813470Y352528D01*
X813426Y352462D01*
X813380Y352398D01*
X813330Y352336D01*
X813278Y352277D01*
X813222Y352221D01*
X813165Y352167D01*
X813104Y352116D01*
X813041Y352068D01*
X812976Y352023D01*
X812909Y351981D01*
X812840Y351943D01*
X812769Y351907D01*
X812696Y351876D01*
X812622Y351848D01*
X812547Y351823D01*
X812471Y351803D01*
X812394Y351785D01*
X812316Y351772D01*
X812237Y351763D01*
X812158Y351757D01*
X812079Y351755D01*
X810442Y351755D01*
X802359Y355029D02*
X802359Y347663D01*
X802359Y355029D02*
X804405Y355029D01*
X804405Y355028D02*
X804494Y355026D01*
X804583Y355020D01*
X804672Y355010D01*
X804760Y354997D01*
X804848Y354980D01*
X804935Y354958D01*
X805020Y354933D01*
X805105Y354905D01*
X805188Y354872D01*
X805270Y354836D01*
X805350Y354797D01*
X805428Y354754D01*
X805504Y354708D01*
X805579Y354658D01*
X805651Y354605D01*
X805720Y354549D01*
X805787Y354490D01*
X805852Y354429D01*
X805913Y354364D01*
X805972Y354297D01*
X806028Y354228D01*
X806081Y354156D01*
X806131Y354081D01*
X806177Y354005D01*
X806220Y353927D01*
X806259Y353847D01*
X806295Y353765D01*
X806328Y353682D01*
X806356Y353597D01*
X806381Y353512D01*
X806403Y353425D01*
X806420Y353337D01*
X806433Y353249D01*
X806443Y353160D01*
X806449Y353071D01*
X806451Y352982D01*
X806449Y352893D01*
X806443Y352804D01*
X806433Y352715D01*
X806420Y352627D01*
X806403Y352539D01*
X806381Y352452D01*
X806356Y352367D01*
X806328Y352282D01*
X806295Y352199D01*
X806259Y352117D01*
X806220Y352037D01*
X806177Y351959D01*
X806131Y351883D01*
X806081Y351808D01*
X806028Y351736D01*
X805972Y351667D01*
X805913Y351600D01*
X805852Y351535D01*
X805787Y351474D01*
X805720Y351415D01*
X805651Y351359D01*
X805579Y351306D01*
X805504Y351256D01*
X805428Y351210D01*
X805350Y351167D01*
X805270Y351128D01*
X805188Y351092D01*
X805105Y351059D01*
X805020Y351031D01*
X804935Y351006D01*
X804848Y350984D01*
X804760Y350967D01*
X804672Y350954D01*
X804583Y350944D01*
X804494Y350938D01*
X804405Y350936D01*
X802359Y350936D01*
X804815Y350936D02*
X806452Y347663D01*
X809623Y347663D02*
X811670Y347663D01*
X811759Y347665D01*
X811848Y347671D01*
X811937Y347681D01*
X812025Y347694D01*
X812113Y347711D01*
X812200Y347733D01*
X812285Y347758D01*
X812370Y347786D01*
X812453Y347819D01*
X812535Y347855D01*
X812615Y347894D01*
X812693Y347937D01*
X812769Y347983D01*
X812844Y348033D01*
X812916Y348086D01*
X812985Y348142D01*
X813052Y348201D01*
X813117Y348262D01*
X813178Y348327D01*
X813237Y348394D01*
X813293Y348463D01*
X813346Y348535D01*
X813396Y348610D01*
X813442Y348686D01*
X813485Y348764D01*
X813524Y348844D01*
X813560Y348926D01*
X813593Y349009D01*
X813621Y349094D01*
X813646Y349179D01*
X813668Y349266D01*
X813685Y349354D01*
X813698Y349442D01*
X813708Y349531D01*
X813714Y349620D01*
X813716Y349709D01*
X813714Y349798D01*
X813708Y349887D01*
X813698Y349976D01*
X813685Y350064D01*
X813668Y350152D01*
X813646Y350239D01*
X813621Y350324D01*
X813593Y350409D01*
X813560Y350492D01*
X813524Y350574D01*
X813485Y350654D01*
X813442Y350732D01*
X813396Y350808D01*
X813346Y350883D01*
X813293Y350955D01*
X813237Y351024D01*
X813178Y351091D01*
X813117Y351156D01*
X813052Y351217D01*
X812985Y351276D01*
X812916Y351332D01*
X812844Y351385D01*
X812769Y351435D01*
X812693Y351481D01*
X812615Y351524D01*
X812535Y351563D01*
X812453Y351599D01*
X812370Y351632D01*
X812285Y351660D01*
X812200Y351685D01*
X812113Y351707D01*
X812025Y351724D01*
X811937Y351737D01*
X811848Y351747D01*
X811759Y351753D01*
X811670Y351755D01*
X812079Y355029D02*
X809623Y355029D01*
X812079Y355029D02*
X812158Y355027D01*
X812237Y355021D01*
X812316Y355012D01*
X812394Y354999D01*
X812471Y354981D01*
X812547Y354961D01*
X812622Y354936D01*
X812696Y354908D01*
X812769Y354877D01*
X812840Y354841D01*
X812909Y354803D01*
X812976Y354761D01*
X813041Y354716D01*
X813104Y354668D01*
X813165Y354617D01*
X813222Y354563D01*
X813278Y354507D01*
X813330Y354448D01*
X813380Y354386D01*
X813426Y354322D01*
X813470Y354256D01*
X813510Y354188D01*
X813546Y354118D01*
X813580Y354046D01*
X813610Y353972D01*
X813636Y353898D01*
X813659Y353822D01*
X813677Y353745D01*
X813693Y353668D01*
X813704Y353589D01*
X813712Y353511D01*
X813716Y353432D01*
X813716Y353352D01*
X813712Y353273D01*
X813704Y353195D01*
X813693Y353116D01*
X813677Y353039D01*
X813659Y352962D01*
X813636Y352886D01*
X813610Y352812D01*
X813580Y352738D01*
X813546Y352666D01*
X813510Y352596D01*
X813470Y352528D01*
X813426Y352462D01*
X813380Y352398D01*
X813330Y352336D01*
X813278Y352277D01*
X813222Y352221D01*
X813165Y352167D01*
X813104Y352116D01*
X813041Y352068D01*
X812976Y352023D01*
X812909Y351981D01*
X812840Y351943D01*
X812769Y351907D01*
X812696Y351876D01*
X812622Y351848D01*
X812547Y351823D01*
X812471Y351803D01*
X812394Y351785D01*
X812316Y351772D01*
X812237Y351763D01*
X812158Y351757D01*
X812079Y351755D01*
X810442Y351755D01*
X802359Y355029D02*
X802359Y347663D01*
X802359Y355029D02*
X804405Y355029D01*
X804405Y355028D02*
X804494Y355026D01*
X804583Y355020D01*
X804672Y355010D01*
X804760Y354997D01*
X804848Y354980D01*
X804935Y354958D01*
X805020Y354933D01*
X805105Y354905D01*
X805188Y354872D01*
X805270Y354836D01*
X805350Y354797D01*
X805428Y354754D01*
X805504Y354708D01*
X805579Y354658D01*
X805651Y354605D01*
X805720Y354549D01*
X805787Y354490D01*
X805852Y354429D01*
X805913Y354364D01*
X805972Y354297D01*
X806028Y354228D01*
X806081Y354156D01*
X806131Y354081D01*
X806177Y354005D01*
X806220Y353927D01*
X806259Y353847D01*
X806295Y353765D01*
X806328Y353682D01*
X806356Y353597D01*
X806381Y353512D01*
X806403Y353425D01*
X806420Y353337D01*
X806433Y353249D01*
X806443Y353160D01*
X806449Y353071D01*
X806451Y352982D01*
X806449Y352893D01*
X806443Y352804D01*
X806433Y352715D01*
X806420Y352627D01*
X806403Y352539D01*
X806381Y352452D01*
X806356Y352367D01*
X806328Y352282D01*
X806295Y352199D01*
X806259Y352117D01*
X806220Y352037D01*
X806177Y351959D01*
X806131Y351883D01*
X806081Y351808D01*
X806028Y351736D01*
X805972Y351667D01*
X805913Y351600D01*
X805852Y351535D01*
X805787Y351474D01*
X805720Y351415D01*
X805651Y351359D01*
X805579Y351306D01*
X805504Y351256D01*
X805428Y351210D01*
X805350Y351167D01*
X805270Y351128D01*
X805188Y351092D01*
X805105Y351059D01*
X805020Y351031D01*
X804935Y351006D01*
X804848Y350984D01*
X804760Y350967D01*
X804672Y350954D01*
X804583Y350944D01*
X804494Y350938D01*
X804405Y350936D01*
X802359Y350936D01*
X804815Y350936D02*
X806452Y347663D01*
X809623Y347663D02*
X811670Y347663D01*
X811759Y347665D01*
X811848Y347671D01*
X811937Y347681D01*
X812025Y347694D01*
X812113Y347711D01*
X812200Y347733D01*
X812285Y347758D01*
X812370Y347786D01*
X812453Y347819D01*
X812535Y347855D01*
X812615Y347894D01*
X812693Y347937D01*
X812769Y347983D01*
X812844Y348033D01*
X812916Y348086D01*
X812985Y348142D01*
X813052Y348201D01*
X813117Y348262D01*
X813178Y348327D01*
X813237Y348394D01*
X813293Y348463D01*
X813346Y348535D01*
X813396Y348610D01*
X813442Y348686D01*
X813485Y348764D01*
X813524Y348844D01*
X813560Y348926D01*
X813593Y349009D01*
X813621Y349094D01*
X813646Y349179D01*
X813668Y349266D01*
X813685Y349354D01*
X813698Y349442D01*
X813708Y349531D01*
X813714Y349620D01*
X813716Y349709D01*
X813714Y349798D01*
X813708Y349887D01*
X813698Y349976D01*
X813685Y350064D01*
X813668Y350152D01*
X813646Y350239D01*
X813621Y350324D01*
X813593Y350409D01*
X813560Y350492D01*
X813524Y350574D01*
X813485Y350654D01*
X813442Y350732D01*
X813396Y350808D01*
X813346Y350883D01*
X813293Y350955D01*
X813237Y351024D01*
X813178Y351091D01*
X813117Y351156D01*
X813052Y351217D01*
X812985Y351276D01*
X812916Y351332D01*
X812844Y351385D01*
X812769Y351435D01*
X812693Y351481D01*
X812615Y351524D01*
X812535Y351563D01*
X812453Y351599D01*
X812370Y351632D01*
X812285Y351660D01*
X812200Y351685D01*
X812113Y351707D01*
X812025Y351724D01*
X811937Y351737D01*
X811848Y351747D01*
X811759Y351753D01*
X811670Y351755D01*
X812079Y355029D02*
X809623Y355029D01*
X812079Y355029D02*
X812158Y355027D01*
X812237Y355021D01*
X812316Y355012D01*
X812394Y354999D01*
X812471Y354981D01*
X812547Y354961D01*
X812622Y354936D01*
X812696Y354908D01*
X812769Y354877D01*
X812840Y354841D01*
X812909Y354803D01*
X812976Y354761D01*
X813041Y354716D01*
X813104Y354668D01*
X813165Y354617D01*
X813222Y354563D01*
X813278Y354507D01*
X813330Y354448D01*
X813380Y354386D01*
X813426Y354322D01*
X813470Y354256D01*
X813510Y354188D01*
X813546Y354118D01*
X813580Y354046D01*
X813610Y353972D01*
X813636Y353898D01*
X813659Y353822D01*
X813677Y353745D01*
X813693Y353668D01*
X813704Y353589D01*
X813712Y353511D01*
X813716Y353432D01*
X813716Y353352D01*
X813712Y353273D01*
X813704Y353195D01*
X813693Y353116D01*
X813677Y353039D01*
X813659Y352962D01*
X813636Y352886D01*
X813610Y352812D01*
X813580Y352738D01*
X813546Y352666D01*
X813510Y352596D01*
X813470Y352528D01*
X813426Y352462D01*
X813380Y352398D01*
X813330Y352336D01*
X813278Y352277D01*
X813222Y352221D01*
X813165Y352167D01*
X813104Y352116D01*
X813041Y352068D01*
X812976Y352023D01*
X812909Y351981D01*
X812840Y351943D01*
X812769Y351907D01*
X812696Y351876D01*
X812622Y351848D01*
X812547Y351823D01*
X812471Y351803D01*
X812394Y351785D01*
X812316Y351772D01*
X812237Y351763D01*
X812158Y351757D01*
X812079Y351755D01*
X810442Y351755D01*
X802359Y355029D02*
X802359Y347663D01*
X802359Y355029D02*
X804405Y355029D01*
X804405Y355028D02*
X804494Y355026D01*
X804583Y355020D01*
X804672Y355010D01*
X804760Y354997D01*
X804848Y354980D01*
X804935Y354958D01*
X805020Y354933D01*
X805105Y354905D01*
X805188Y354872D01*
X805270Y354836D01*
X805350Y354797D01*
X805428Y354754D01*
X805504Y354708D01*
X805579Y354658D01*
X805651Y354605D01*
X805720Y354549D01*
X805787Y354490D01*
X805852Y354429D01*
X805913Y354364D01*
X805972Y354297D01*
X806028Y354228D01*
X806081Y354156D01*
X806131Y354081D01*
X806177Y354005D01*
X806220Y353927D01*
X806259Y353847D01*
X806295Y353765D01*
X806328Y353682D01*
X806356Y353597D01*
X806381Y353512D01*
X806403Y353425D01*
X806420Y353337D01*
X806433Y353249D01*
X806443Y353160D01*
X806449Y353071D01*
X806451Y352982D01*
X806449Y352893D01*
X806443Y352804D01*
X806433Y352715D01*
X806420Y352627D01*
X806403Y352539D01*
X806381Y352452D01*
X806356Y352367D01*
X806328Y352282D01*
X806295Y352199D01*
X806259Y352117D01*
X806220Y352037D01*
X806177Y351959D01*
X806131Y351883D01*
X806081Y351808D01*
X806028Y351736D01*
X805972Y351667D01*
X805913Y351600D01*
X805852Y351535D01*
X805787Y351474D01*
X805720Y351415D01*
X805651Y351359D01*
X805579Y351306D01*
X805504Y351256D01*
X805428Y351210D01*
X805350Y351167D01*
X805270Y351128D01*
X805188Y351092D01*
X805105Y351059D01*
X805020Y351031D01*
X804935Y351006D01*
X804848Y350984D01*
X804760Y350967D01*
X804672Y350954D01*
X804583Y350944D01*
X804494Y350938D01*
X804405Y350936D01*
X802359Y350936D01*
X804815Y350936D02*
X806452Y347663D01*
X809623Y347663D02*
X811670Y347663D01*
X811759Y347665D01*
X811848Y347671D01*
X811937Y347681D01*
X812025Y347694D01*
X812113Y347711D01*
X812200Y347733D01*
X812285Y347758D01*
X812370Y347786D01*
X812453Y347819D01*
X812535Y347855D01*
X812615Y347894D01*
X812693Y347937D01*
X812769Y347983D01*
X812844Y348033D01*
X812916Y348086D01*
X812985Y348142D01*
X813052Y348201D01*
X813117Y348262D01*
X813178Y348327D01*
X813237Y348394D01*
X813293Y348463D01*
X813346Y348535D01*
X813396Y348610D01*
X813442Y348686D01*
X813485Y348764D01*
X813524Y348844D01*
X813560Y348926D01*
X813593Y349009D01*
X813621Y349094D01*
X813646Y349179D01*
X813668Y349266D01*
X813685Y349354D01*
X813698Y349442D01*
X813708Y349531D01*
X813714Y349620D01*
X813716Y349709D01*
X813714Y349798D01*
X813708Y349887D01*
X813698Y349976D01*
X813685Y350064D01*
X813668Y350152D01*
X813646Y350239D01*
X813621Y350324D01*
X813593Y350409D01*
X813560Y350492D01*
X813524Y350574D01*
X813485Y350654D01*
X813442Y350732D01*
X813396Y350808D01*
X813346Y350883D01*
X813293Y350955D01*
X813237Y351024D01*
X813178Y351091D01*
X813117Y351156D01*
X813052Y351217D01*
X812985Y351276D01*
X812916Y351332D01*
X812844Y351385D01*
X812769Y351435D01*
X812693Y351481D01*
X812615Y351524D01*
X812535Y351563D01*
X812453Y351599D01*
X812370Y351632D01*
X812285Y351660D01*
X812200Y351685D01*
X812113Y351707D01*
X812025Y351724D01*
X811937Y351737D01*
X811848Y351747D01*
X811759Y351753D01*
X811670Y351755D01*
X812079Y355029D02*
X809623Y355029D01*
X812079Y355029D02*
X812158Y355027D01*
X812237Y355021D01*
X812316Y355012D01*
X812394Y354999D01*
X812471Y354981D01*
X812547Y354961D01*
X812622Y354936D01*
X812696Y354908D01*
X812769Y354877D01*
X812840Y354841D01*
X812909Y354803D01*
X812976Y354761D01*
X813041Y354716D01*
X813104Y354668D01*
X813165Y354617D01*
X813222Y354563D01*
X813278Y354507D01*
X813330Y354448D01*
X813380Y354386D01*
X813426Y354322D01*
X813470Y354256D01*
X813510Y354188D01*
X813546Y354118D01*
X813580Y354046D01*
X813610Y353972D01*
X813636Y353898D01*
X813659Y353822D01*
X813677Y353745D01*
X813693Y353668D01*
X813704Y353589D01*
X813712Y353511D01*
X813716Y353432D01*
X813716Y353352D01*
X813712Y353273D01*
X813704Y353195D01*
X813693Y353116D01*
X813677Y353039D01*
X813659Y352962D01*
X813636Y352886D01*
X813610Y352812D01*
X813580Y352738D01*
X813546Y352666D01*
X813510Y352596D01*
X813470Y352528D01*
X813426Y352462D01*
X813380Y352398D01*
X813330Y352336D01*
X813278Y352277D01*
X813222Y352221D01*
X813165Y352167D01*
X813104Y352116D01*
X813041Y352068D01*
X812976Y352023D01*
X812909Y351981D01*
X812840Y351943D01*
X812769Y351907D01*
X812696Y351876D01*
X812622Y351848D01*
X812547Y351823D01*
X812471Y351803D01*
X812394Y351785D01*
X812316Y351772D01*
X812237Y351763D01*
X812158Y351757D01*
X812079Y351755D01*
X810442Y351755D01*
D14*
X885128Y400436D02*
X908628Y400436D01*
X908628Y416936D01*
X885128Y416936D01*
D11*
X882938Y395288D02*
X882938Y387922D01*
X886212Y387922D01*
X889278Y387922D02*
X892552Y387922D01*
X889278Y387922D02*
X889278Y395288D01*
X892552Y395288D01*
X891734Y392014D02*
X889278Y392014D01*
X895602Y395288D02*
X895602Y387922D01*
X895602Y395288D02*
X897648Y395288D01*
X897648Y395287D02*
X897737Y395285D01*
X897826Y395279D01*
X897915Y395269D01*
X898003Y395256D01*
X898091Y395239D01*
X898178Y395217D01*
X898263Y395192D01*
X898348Y395164D01*
X898431Y395131D01*
X898513Y395095D01*
X898593Y395056D01*
X898671Y395013D01*
X898747Y394967D01*
X898822Y394917D01*
X898894Y394864D01*
X898963Y394808D01*
X899030Y394749D01*
X899095Y394688D01*
X899156Y394623D01*
X899215Y394556D01*
X899271Y394487D01*
X899324Y394415D01*
X899374Y394340D01*
X899420Y394264D01*
X899463Y394186D01*
X899502Y394106D01*
X899538Y394024D01*
X899571Y393941D01*
X899599Y393856D01*
X899624Y393771D01*
X899646Y393684D01*
X899663Y393596D01*
X899676Y393508D01*
X899686Y393419D01*
X899692Y393330D01*
X899694Y393241D01*
X899695Y393241D02*
X899695Y389968D01*
X899694Y389968D02*
X899692Y389879D01*
X899686Y389790D01*
X899676Y389701D01*
X899663Y389613D01*
X899646Y389525D01*
X899624Y389438D01*
X899599Y389353D01*
X899571Y389268D01*
X899538Y389185D01*
X899502Y389103D01*
X899463Y389023D01*
X899420Y388945D01*
X899374Y388869D01*
X899324Y388794D01*
X899271Y388722D01*
X899215Y388653D01*
X899156Y388586D01*
X899095Y388521D01*
X899030Y388460D01*
X898963Y388401D01*
X898894Y388345D01*
X898822Y388292D01*
X898747Y388242D01*
X898671Y388196D01*
X898593Y388153D01*
X898513Y388114D01*
X898431Y388078D01*
X898348Y388045D01*
X898263Y388017D01*
X898178Y387992D01*
X898091Y387970D01*
X898003Y387953D01*
X897915Y387940D01*
X897826Y387930D01*
X897737Y387924D01*
X897648Y387922D01*
X895602Y387922D01*
X903161Y393651D02*
X905207Y395288D01*
X905207Y387922D01*
X903161Y387922D02*
X907254Y387922D01*
X802296Y334391D02*
X802296Y327025D01*
X802296Y334391D02*
X804342Y334391D01*
X804431Y334389D01*
X804520Y334383D01*
X804609Y334373D01*
X804697Y334360D01*
X804785Y334343D01*
X804872Y334321D01*
X804957Y334296D01*
X805042Y334268D01*
X805125Y334235D01*
X805207Y334199D01*
X805287Y334160D01*
X805365Y334117D01*
X805441Y334071D01*
X805516Y334021D01*
X805588Y333968D01*
X805657Y333912D01*
X805724Y333853D01*
X805789Y333792D01*
X805850Y333727D01*
X805909Y333660D01*
X805965Y333591D01*
X806018Y333519D01*
X806068Y333444D01*
X806114Y333368D01*
X806157Y333290D01*
X806196Y333210D01*
X806232Y333128D01*
X806265Y333045D01*
X806293Y332960D01*
X806318Y332875D01*
X806340Y332788D01*
X806357Y332700D01*
X806370Y332612D01*
X806380Y332523D01*
X806386Y332434D01*
X806388Y332345D01*
X806386Y332256D01*
X806380Y332167D01*
X806370Y332078D01*
X806357Y331990D01*
X806340Y331902D01*
X806318Y331815D01*
X806293Y331730D01*
X806265Y331645D01*
X806232Y331562D01*
X806196Y331480D01*
X806157Y331400D01*
X806114Y331322D01*
X806068Y331246D01*
X806018Y331171D01*
X805965Y331099D01*
X805909Y331030D01*
X805850Y330963D01*
X805789Y330898D01*
X805724Y330837D01*
X805657Y330778D01*
X805588Y330722D01*
X805516Y330669D01*
X805441Y330619D01*
X805365Y330573D01*
X805287Y330530D01*
X805207Y330491D01*
X805125Y330455D01*
X805042Y330422D01*
X804957Y330394D01*
X804872Y330369D01*
X804785Y330347D01*
X804697Y330330D01*
X804609Y330317D01*
X804520Y330307D01*
X804431Y330301D01*
X804342Y330299D01*
X802296Y330299D01*
X804751Y330299D02*
X806388Y327025D01*
X809560Y328662D02*
X811197Y334391D01*
X809560Y328662D02*
X813652Y328662D01*
X812424Y330299D02*
X812424Y327025D01*
X802296Y327025D02*
X802296Y334391D01*
X804342Y334391D01*
X804431Y334389D01*
X804520Y334383D01*
X804609Y334373D01*
X804697Y334360D01*
X804785Y334343D01*
X804872Y334321D01*
X804957Y334296D01*
X805042Y334268D01*
X805125Y334235D01*
X805207Y334199D01*
X805287Y334160D01*
X805365Y334117D01*
X805441Y334071D01*
X805516Y334021D01*
X805588Y333968D01*
X805657Y333912D01*
X805724Y333853D01*
X805789Y333792D01*
X805850Y333727D01*
X805909Y333660D01*
X805965Y333591D01*
X806018Y333519D01*
X806068Y333444D01*
X806114Y333368D01*
X806157Y333290D01*
X806196Y333210D01*
X806232Y333128D01*
X806265Y333045D01*
X806293Y332960D01*
X806318Y332875D01*
X806340Y332788D01*
X806357Y332700D01*
X806370Y332612D01*
X806380Y332523D01*
X806386Y332434D01*
X806388Y332345D01*
X806386Y332256D01*
X806380Y332167D01*
X806370Y332078D01*
X806357Y331990D01*
X806340Y331902D01*
X806318Y331815D01*
X806293Y331730D01*
X806265Y331645D01*
X806232Y331562D01*
X806196Y331480D01*
X806157Y331400D01*
X806114Y331322D01*
X806068Y331246D01*
X806018Y331171D01*
X805965Y331099D01*
X805909Y331030D01*
X805850Y330963D01*
X805789Y330898D01*
X805724Y330837D01*
X805657Y330778D01*
X805588Y330722D01*
X805516Y330669D01*
X805441Y330619D01*
X805365Y330573D01*
X805287Y330530D01*
X805207Y330491D01*
X805125Y330455D01*
X805042Y330422D01*
X804957Y330394D01*
X804872Y330369D01*
X804785Y330347D01*
X804697Y330330D01*
X804609Y330317D01*
X804520Y330307D01*
X804431Y330301D01*
X804342Y330299D01*
X802296Y330299D01*
X804751Y330299D02*
X806388Y327025D01*
X809560Y328662D02*
X811197Y334391D01*
X809560Y328662D02*
X813652Y328662D01*
X812424Y330299D02*
X812424Y327025D01*
X802296Y327025D02*
X802296Y334391D01*
X804342Y334391D01*
X804431Y334389D01*
X804520Y334383D01*
X804609Y334373D01*
X804697Y334360D01*
X804785Y334343D01*
X804872Y334321D01*
X804957Y334296D01*
X805042Y334268D01*
X805125Y334235D01*
X805207Y334199D01*
X805287Y334160D01*
X805365Y334117D01*
X805441Y334071D01*
X805516Y334021D01*
X805588Y333968D01*
X805657Y333912D01*
X805724Y333853D01*
X805789Y333792D01*
X805850Y333727D01*
X805909Y333660D01*
X805965Y333591D01*
X806018Y333519D01*
X806068Y333444D01*
X806114Y333368D01*
X806157Y333290D01*
X806196Y333210D01*
X806232Y333128D01*
X806265Y333045D01*
X806293Y332960D01*
X806318Y332875D01*
X806340Y332788D01*
X806357Y332700D01*
X806370Y332612D01*
X806380Y332523D01*
X806386Y332434D01*
X806388Y332345D01*
X806386Y332256D01*
X806380Y332167D01*
X806370Y332078D01*
X806357Y331990D01*
X806340Y331902D01*
X806318Y331815D01*
X806293Y331730D01*
X806265Y331645D01*
X806232Y331562D01*
X806196Y331480D01*
X806157Y331400D01*
X806114Y331322D01*
X806068Y331246D01*
X806018Y331171D01*
X805965Y331099D01*
X805909Y331030D01*
X805850Y330963D01*
X805789Y330898D01*
X805724Y330837D01*
X805657Y330778D01*
X805588Y330722D01*
X805516Y330669D01*
X805441Y330619D01*
X805365Y330573D01*
X805287Y330530D01*
X805207Y330491D01*
X805125Y330455D01*
X805042Y330422D01*
X804957Y330394D01*
X804872Y330369D01*
X804785Y330347D01*
X804697Y330330D01*
X804609Y330317D01*
X804520Y330307D01*
X804431Y330301D01*
X804342Y330299D01*
X802296Y330299D01*
X804751Y330299D02*
X806388Y327025D01*
X809560Y328662D02*
X811197Y334391D01*
X809560Y328662D02*
X813652Y328662D01*
X812424Y330299D02*
X812424Y327025D01*
X802296Y327025D02*
X802296Y334391D01*
X804342Y334391D01*
X804431Y334389D01*
X804520Y334383D01*
X804609Y334373D01*
X804697Y334360D01*
X804785Y334343D01*
X804872Y334321D01*
X804957Y334296D01*
X805042Y334268D01*
X805125Y334235D01*
X805207Y334199D01*
X805287Y334160D01*
X805365Y334117D01*
X805441Y334071D01*
X805516Y334021D01*
X805588Y333968D01*
X805657Y333912D01*
X805724Y333853D01*
X805789Y333792D01*
X805850Y333727D01*
X805909Y333660D01*
X805965Y333591D01*
X806018Y333519D01*
X806068Y333444D01*
X806114Y333368D01*
X806157Y333290D01*
X806196Y333210D01*
X806232Y333128D01*
X806265Y333045D01*
X806293Y332960D01*
X806318Y332875D01*
X806340Y332788D01*
X806357Y332700D01*
X806370Y332612D01*
X806380Y332523D01*
X806386Y332434D01*
X806388Y332345D01*
X806386Y332256D01*
X806380Y332167D01*
X806370Y332078D01*
X806357Y331990D01*
X806340Y331902D01*
X806318Y331815D01*
X806293Y331730D01*
X806265Y331645D01*
X806232Y331562D01*
X806196Y331480D01*
X806157Y331400D01*
X806114Y331322D01*
X806068Y331246D01*
X806018Y331171D01*
X805965Y331099D01*
X805909Y331030D01*
X805850Y330963D01*
X805789Y330898D01*
X805724Y330837D01*
X805657Y330778D01*
X805588Y330722D01*
X805516Y330669D01*
X805441Y330619D01*
X805365Y330573D01*
X805287Y330530D01*
X805207Y330491D01*
X805125Y330455D01*
X805042Y330422D01*
X804957Y330394D01*
X804872Y330369D01*
X804785Y330347D01*
X804697Y330330D01*
X804609Y330317D01*
X804520Y330307D01*
X804431Y330301D01*
X804342Y330299D01*
X802296Y330299D01*
X804751Y330299D02*
X806388Y327025D01*
X809560Y328662D02*
X811197Y334391D01*
X809560Y328662D02*
X813652Y328662D01*
X812424Y330299D02*
X812424Y327025D01*
X802296Y327025D02*
X802296Y334391D01*
X804342Y334391D01*
X804431Y334389D01*
X804520Y334383D01*
X804609Y334373D01*
X804697Y334360D01*
X804785Y334343D01*
X804872Y334321D01*
X804957Y334296D01*
X805042Y334268D01*
X805125Y334235D01*
X805207Y334199D01*
X805287Y334160D01*
X805365Y334117D01*
X805441Y334071D01*
X805516Y334021D01*
X805588Y333968D01*
X805657Y333912D01*
X805724Y333853D01*
X805789Y333792D01*
X805850Y333727D01*
X805909Y333660D01*
X805965Y333591D01*
X806018Y333519D01*
X806068Y333444D01*
X806114Y333368D01*
X806157Y333290D01*
X806196Y333210D01*
X806232Y333128D01*
X806265Y333045D01*
X806293Y332960D01*
X806318Y332875D01*
X806340Y332788D01*
X806357Y332700D01*
X806370Y332612D01*
X806380Y332523D01*
X806386Y332434D01*
X806388Y332345D01*
X806386Y332256D01*
X806380Y332167D01*
X806370Y332078D01*
X806357Y331990D01*
X806340Y331902D01*
X806318Y331815D01*
X806293Y331730D01*
X806265Y331645D01*
X806232Y331562D01*
X806196Y331480D01*
X806157Y331400D01*
X806114Y331322D01*
X806068Y331246D01*
X806018Y331171D01*
X805965Y331099D01*
X805909Y331030D01*
X805850Y330963D01*
X805789Y330898D01*
X805724Y330837D01*
X805657Y330778D01*
X805588Y330722D01*
X805516Y330669D01*
X805441Y330619D01*
X805365Y330573D01*
X805287Y330530D01*
X805207Y330491D01*
X805125Y330455D01*
X805042Y330422D01*
X804957Y330394D01*
X804872Y330369D01*
X804785Y330347D01*
X804697Y330330D01*
X804609Y330317D01*
X804520Y330307D01*
X804431Y330301D01*
X804342Y330299D01*
X802296Y330299D01*
X804751Y330299D02*
X806388Y327025D01*
X809560Y328662D02*
X811197Y334391D01*
X809560Y328662D02*
X813652Y328662D01*
X812424Y330299D02*
X812424Y327025D01*
X802296Y327025D02*
X802296Y334391D01*
X804342Y334391D01*
X804431Y334389D01*
X804520Y334383D01*
X804609Y334373D01*
X804697Y334360D01*
X804785Y334343D01*
X804872Y334321D01*
X804957Y334296D01*
X805042Y334268D01*
X805125Y334235D01*
X805207Y334199D01*
X805287Y334160D01*
X805365Y334117D01*
X805441Y334071D01*
X805516Y334021D01*
X805588Y333968D01*
X805657Y333912D01*
X805724Y333853D01*
X805789Y333792D01*
X805850Y333727D01*
X805909Y333660D01*
X805965Y333591D01*
X806018Y333519D01*
X806068Y333444D01*
X806114Y333368D01*
X806157Y333290D01*
X806196Y333210D01*
X806232Y333128D01*
X806265Y333045D01*
X806293Y332960D01*
X806318Y332875D01*
X806340Y332788D01*
X806357Y332700D01*
X806370Y332612D01*
X806380Y332523D01*
X806386Y332434D01*
X806388Y332345D01*
X806386Y332256D01*
X806380Y332167D01*
X806370Y332078D01*
X806357Y331990D01*
X806340Y331902D01*
X806318Y331815D01*
X806293Y331730D01*
X806265Y331645D01*
X806232Y331562D01*
X806196Y331480D01*
X806157Y331400D01*
X806114Y331322D01*
X806068Y331246D01*
X806018Y331171D01*
X805965Y331099D01*
X805909Y331030D01*
X805850Y330963D01*
X805789Y330898D01*
X805724Y330837D01*
X805657Y330778D01*
X805588Y330722D01*
X805516Y330669D01*
X805441Y330619D01*
X805365Y330573D01*
X805287Y330530D01*
X805207Y330491D01*
X805125Y330455D01*
X805042Y330422D01*
X804957Y330394D01*
X804872Y330369D01*
X804785Y330347D01*
X804697Y330330D01*
X804609Y330317D01*
X804520Y330307D01*
X804431Y330301D01*
X804342Y330299D01*
X802296Y330299D01*
X804751Y330299D02*
X806388Y327025D01*
X809560Y328662D02*
X811197Y334391D01*
X809560Y328662D02*
X813652Y328662D01*
X812424Y330299D02*
X812424Y327025D01*
X802296Y327025D02*
X802296Y334391D01*
X804342Y334391D01*
X804431Y334389D01*
X804520Y334383D01*
X804609Y334373D01*
X804697Y334360D01*
X804785Y334343D01*
X804872Y334321D01*
X804957Y334296D01*
X805042Y334268D01*
X805125Y334235D01*
X805207Y334199D01*
X805287Y334160D01*
X805365Y334117D01*
X805441Y334071D01*
X805516Y334021D01*
X805588Y333968D01*
X805657Y333912D01*
X805724Y333853D01*
X805789Y333792D01*
X805850Y333727D01*
X805909Y333660D01*
X805965Y333591D01*
X806018Y333519D01*
X806068Y333444D01*
X806114Y333368D01*
X806157Y333290D01*
X806196Y333210D01*
X806232Y333128D01*
X806265Y333045D01*
X806293Y332960D01*
X806318Y332875D01*
X806340Y332788D01*
X806357Y332700D01*
X806370Y332612D01*
X806380Y332523D01*
X806386Y332434D01*
X806388Y332345D01*
X806386Y332256D01*
X806380Y332167D01*
X806370Y332078D01*
X806357Y331990D01*
X806340Y331902D01*
X806318Y331815D01*
X806293Y331730D01*
X806265Y331645D01*
X806232Y331562D01*
X806196Y331480D01*
X806157Y331400D01*
X806114Y331322D01*
X806068Y331246D01*
X806018Y331171D01*
X805965Y331099D01*
X805909Y331030D01*
X805850Y330963D01*
X805789Y330898D01*
X805724Y330837D01*
X805657Y330778D01*
X805588Y330722D01*
X805516Y330669D01*
X805441Y330619D01*
X805365Y330573D01*
X805287Y330530D01*
X805207Y330491D01*
X805125Y330455D01*
X805042Y330422D01*
X804957Y330394D01*
X804872Y330369D01*
X804785Y330347D01*
X804697Y330330D01*
X804609Y330317D01*
X804520Y330307D01*
X804431Y330301D01*
X804342Y330299D01*
X802296Y330299D01*
X804751Y330299D02*
X806388Y327025D01*
X809560Y328662D02*
X811197Y334391D01*
X809560Y328662D02*
X813652Y328662D01*
X812424Y330299D02*
X812424Y327025D01*
X802550Y313436D02*
X802550Y306070D01*
X802550Y313436D02*
X804596Y313436D01*
X804685Y313434D01*
X804774Y313428D01*
X804863Y313418D01*
X804951Y313405D01*
X805039Y313388D01*
X805126Y313366D01*
X805211Y313341D01*
X805296Y313313D01*
X805379Y313280D01*
X805461Y313244D01*
X805541Y313205D01*
X805619Y313162D01*
X805695Y313116D01*
X805770Y313066D01*
X805842Y313013D01*
X805911Y312957D01*
X805978Y312898D01*
X806043Y312837D01*
X806104Y312772D01*
X806163Y312705D01*
X806219Y312636D01*
X806272Y312564D01*
X806322Y312489D01*
X806368Y312413D01*
X806411Y312335D01*
X806450Y312255D01*
X806486Y312173D01*
X806519Y312090D01*
X806547Y312005D01*
X806572Y311920D01*
X806594Y311833D01*
X806611Y311745D01*
X806624Y311657D01*
X806634Y311568D01*
X806640Y311479D01*
X806642Y311390D01*
X806640Y311301D01*
X806634Y311212D01*
X806624Y311123D01*
X806611Y311035D01*
X806594Y310947D01*
X806572Y310860D01*
X806547Y310775D01*
X806519Y310690D01*
X806486Y310607D01*
X806450Y310525D01*
X806411Y310445D01*
X806368Y310367D01*
X806322Y310291D01*
X806272Y310216D01*
X806219Y310144D01*
X806163Y310075D01*
X806104Y310008D01*
X806043Y309943D01*
X805978Y309882D01*
X805911Y309823D01*
X805842Y309767D01*
X805770Y309714D01*
X805695Y309664D01*
X805619Y309618D01*
X805541Y309575D01*
X805461Y309536D01*
X805379Y309500D01*
X805296Y309467D01*
X805211Y309439D01*
X805126Y309414D01*
X805039Y309392D01*
X804951Y309375D01*
X804863Y309362D01*
X804774Y309352D01*
X804685Y309346D01*
X804596Y309344D01*
X802550Y309344D01*
X805005Y309344D02*
X806642Y306070D01*
X809814Y306070D02*
X812269Y306070D01*
X812347Y306072D01*
X812425Y306077D01*
X812502Y306087D01*
X812579Y306100D01*
X812655Y306116D01*
X812730Y306136D01*
X812804Y306160D01*
X812877Y306187D01*
X812949Y306218D01*
X813019Y306252D01*
X813088Y306289D01*
X813154Y306330D01*
X813219Y306374D01*
X813281Y306420D01*
X813341Y306470D01*
X813399Y306522D01*
X813454Y306577D01*
X813506Y306635D01*
X813556Y306695D01*
X813602Y306757D01*
X813646Y306822D01*
X813687Y306889D01*
X813724Y306957D01*
X813758Y307027D01*
X813789Y307099D01*
X813816Y307172D01*
X813840Y307246D01*
X813860Y307321D01*
X813876Y307397D01*
X813889Y307474D01*
X813899Y307551D01*
X813904Y307629D01*
X813906Y307707D01*
X813906Y308525D01*
X813904Y308603D01*
X813899Y308681D01*
X813889Y308758D01*
X813876Y308835D01*
X813860Y308911D01*
X813840Y308986D01*
X813816Y309060D01*
X813789Y309133D01*
X813758Y309205D01*
X813724Y309275D01*
X813687Y309344D01*
X813646Y309410D01*
X813602Y309475D01*
X813556Y309537D01*
X813506Y309597D01*
X813454Y309655D01*
X813399Y309710D01*
X813341Y309762D01*
X813281Y309812D01*
X813219Y309858D01*
X813154Y309902D01*
X813088Y309943D01*
X813019Y309980D01*
X812949Y310014D01*
X812877Y310045D01*
X812804Y310072D01*
X812730Y310096D01*
X812655Y310116D01*
X812579Y310132D01*
X812502Y310145D01*
X812425Y310155D01*
X812347Y310160D01*
X812269Y310162D01*
X809814Y310162D01*
X809814Y313436D01*
X813906Y313436D01*
X802550Y313436D02*
X802550Y306070D01*
X802550Y313436D02*
X804596Y313436D01*
X804685Y313434D01*
X804774Y313428D01*
X804863Y313418D01*
X804951Y313405D01*
X805039Y313388D01*
X805126Y313366D01*
X805211Y313341D01*
X805296Y313313D01*
X805379Y313280D01*
X805461Y313244D01*
X805541Y313205D01*
X805619Y313162D01*
X805695Y313116D01*
X805770Y313066D01*
X805842Y313013D01*
X805911Y312957D01*
X805978Y312898D01*
X806043Y312837D01*
X806104Y312772D01*
X806163Y312705D01*
X806219Y312636D01*
X806272Y312564D01*
X806322Y312489D01*
X806368Y312413D01*
X806411Y312335D01*
X806450Y312255D01*
X806486Y312173D01*
X806519Y312090D01*
X806547Y312005D01*
X806572Y311920D01*
X806594Y311833D01*
X806611Y311745D01*
X806624Y311657D01*
X806634Y311568D01*
X806640Y311479D01*
X806642Y311390D01*
X806640Y311301D01*
X806634Y311212D01*
X806624Y311123D01*
X806611Y311035D01*
X806594Y310947D01*
X806572Y310860D01*
X806547Y310775D01*
X806519Y310690D01*
X806486Y310607D01*
X806450Y310525D01*
X806411Y310445D01*
X806368Y310367D01*
X806322Y310291D01*
X806272Y310216D01*
X806219Y310144D01*
X806163Y310075D01*
X806104Y310008D01*
X806043Y309943D01*
X805978Y309882D01*
X805911Y309823D01*
X805842Y309767D01*
X805770Y309714D01*
X805695Y309664D01*
X805619Y309618D01*
X805541Y309575D01*
X805461Y309536D01*
X805379Y309500D01*
X805296Y309467D01*
X805211Y309439D01*
X805126Y309414D01*
X805039Y309392D01*
X804951Y309375D01*
X804863Y309362D01*
X804774Y309352D01*
X804685Y309346D01*
X804596Y309344D01*
X802550Y309344D01*
X805005Y309344D02*
X806642Y306070D01*
X809814Y306070D02*
X812269Y306070D01*
X812347Y306072D01*
X812425Y306077D01*
X812502Y306087D01*
X812579Y306100D01*
X812655Y306116D01*
X812730Y306136D01*
X812804Y306160D01*
X812877Y306187D01*
X812949Y306218D01*
X813019Y306252D01*
X813088Y306289D01*
X813154Y306330D01*
X813219Y306374D01*
X813281Y306420D01*
X813341Y306470D01*
X813399Y306522D01*
X813454Y306577D01*
X813506Y306635D01*
X813556Y306695D01*
X813602Y306757D01*
X813646Y306822D01*
X813687Y306889D01*
X813724Y306957D01*
X813758Y307027D01*
X813789Y307099D01*
X813816Y307172D01*
X813840Y307246D01*
X813860Y307321D01*
X813876Y307397D01*
X813889Y307474D01*
X813899Y307551D01*
X813904Y307629D01*
X813906Y307707D01*
X813906Y308525D01*
X813904Y308603D01*
X813899Y308681D01*
X813889Y308758D01*
X813876Y308835D01*
X813860Y308911D01*
X813840Y308986D01*
X813816Y309060D01*
X813789Y309133D01*
X813758Y309205D01*
X813724Y309275D01*
X813687Y309344D01*
X813646Y309410D01*
X813602Y309475D01*
X813556Y309537D01*
X813506Y309597D01*
X813454Y309655D01*
X813399Y309710D01*
X813341Y309762D01*
X813281Y309812D01*
X813219Y309858D01*
X813154Y309902D01*
X813088Y309943D01*
X813019Y309980D01*
X812949Y310014D01*
X812877Y310045D01*
X812804Y310072D01*
X812730Y310096D01*
X812655Y310116D01*
X812579Y310132D01*
X812502Y310145D01*
X812425Y310155D01*
X812347Y310160D01*
X812269Y310162D01*
X809814Y310162D01*
X809814Y313436D01*
X813906Y313436D01*
X802550Y313436D02*
X802550Y306070D01*
X802550Y313436D02*
X804596Y313436D01*
X804685Y313434D01*
X804774Y313428D01*
X804863Y313418D01*
X804951Y313405D01*
X805039Y313388D01*
X805126Y313366D01*
X805211Y313341D01*
X805296Y313313D01*
X805379Y313280D01*
X805461Y313244D01*
X805541Y313205D01*
X805619Y313162D01*
X805695Y313116D01*
X805770Y313066D01*
X805842Y313013D01*
X805911Y312957D01*
X805978Y312898D01*
X806043Y312837D01*
X806104Y312772D01*
X806163Y312705D01*
X806219Y312636D01*
X806272Y312564D01*
X806322Y312489D01*
X806368Y312413D01*
X806411Y312335D01*
X806450Y312255D01*
X806486Y312173D01*
X806519Y312090D01*
X806547Y312005D01*
X806572Y311920D01*
X806594Y311833D01*
X806611Y311745D01*
X806624Y311657D01*
X806634Y311568D01*
X806640Y311479D01*
X806642Y311390D01*
X806640Y311301D01*
X806634Y311212D01*
X806624Y311123D01*
X806611Y311035D01*
X806594Y310947D01*
X806572Y310860D01*
X806547Y310775D01*
X806519Y310690D01*
X806486Y310607D01*
X806450Y310525D01*
X806411Y310445D01*
X806368Y310367D01*
X806322Y310291D01*
X806272Y310216D01*
X806219Y310144D01*
X806163Y310075D01*
X806104Y310008D01*
X806043Y309943D01*
X805978Y309882D01*
X805911Y309823D01*
X805842Y309767D01*
X805770Y309714D01*
X805695Y309664D01*
X805619Y309618D01*
X805541Y309575D01*
X805461Y309536D01*
X805379Y309500D01*
X805296Y309467D01*
X805211Y309439D01*
X805126Y309414D01*
X805039Y309392D01*
X804951Y309375D01*
X804863Y309362D01*
X804774Y309352D01*
X804685Y309346D01*
X804596Y309344D01*
X802550Y309344D01*
X805005Y309344D02*
X806642Y306070D01*
X809814Y306070D02*
X812269Y306070D01*
X812347Y306072D01*
X812425Y306077D01*
X812502Y306087D01*
X812579Y306100D01*
X812655Y306116D01*
X812730Y306136D01*
X812804Y306160D01*
X812877Y306187D01*
X812949Y306218D01*
X813019Y306252D01*
X813088Y306289D01*
X813154Y306330D01*
X813219Y306374D01*
X813281Y306420D01*
X813341Y306470D01*
X813399Y306522D01*
X813454Y306577D01*
X813506Y306635D01*
X813556Y306695D01*
X813602Y306757D01*
X813646Y306822D01*
X813687Y306889D01*
X813724Y306957D01*
X813758Y307027D01*
X813789Y307099D01*
X813816Y307172D01*
X813840Y307246D01*
X813860Y307321D01*
X813876Y307397D01*
X813889Y307474D01*
X813899Y307551D01*
X813904Y307629D01*
X813906Y307707D01*
X813906Y308525D01*
X813904Y308603D01*
X813899Y308681D01*
X813889Y308758D01*
X813876Y308835D01*
X813860Y308911D01*
X813840Y308986D01*
X813816Y309060D01*
X813789Y309133D01*
X813758Y309205D01*
X813724Y309275D01*
X813687Y309344D01*
X813646Y309410D01*
X813602Y309475D01*
X813556Y309537D01*
X813506Y309597D01*
X813454Y309655D01*
X813399Y309710D01*
X813341Y309762D01*
X813281Y309812D01*
X813219Y309858D01*
X813154Y309902D01*
X813088Y309943D01*
X813019Y309980D01*
X812949Y310014D01*
X812877Y310045D01*
X812804Y310072D01*
X812730Y310096D01*
X812655Y310116D01*
X812579Y310132D01*
X812502Y310145D01*
X812425Y310155D01*
X812347Y310160D01*
X812269Y310162D01*
X809814Y310162D01*
X809814Y313436D01*
X813906Y313436D01*
X802550Y313436D02*
X802550Y306070D01*
X802550Y313436D02*
X804596Y313436D01*
X804685Y313434D01*
X804774Y313428D01*
X804863Y313418D01*
X804951Y313405D01*
X805039Y313388D01*
X805126Y313366D01*
X805211Y313341D01*
X805296Y313313D01*
X805379Y313280D01*
X805461Y313244D01*
X805541Y313205D01*
X805619Y313162D01*
X805695Y313116D01*
X805770Y313066D01*
X805842Y313013D01*
X805911Y312957D01*
X805978Y312898D01*
X806043Y312837D01*
X806104Y312772D01*
X806163Y312705D01*
X806219Y312636D01*
X806272Y312564D01*
X806322Y312489D01*
X806368Y312413D01*
X806411Y312335D01*
X806450Y312255D01*
X806486Y312173D01*
X806519Y312090D01*
X806547Y312005D01*
X806572Y311920D01*
X806594Y311833D01*
X806611Y311745D01*
X806624Y311657D01*
X806634Y311568D01*
X806640Y311479D01*
X806642Y311390D01*
X806640Y311301D01*
X806634Y311212D01*
X806624Y311123D01*
X806611Y311035D01*
X806594Y310947D01*
X806572Y310860D01*
X806547Y310775D01*
X806519Y310690D01*
X806486Y310607D01*
X806450Y310525D01*
X806411Y310445D01*
X806368Y310367D01*
X806322Y310291D01*
X806272Y310216D01*
X806219Y310144D01*
X806163Y310075D01*
X806104Y310008D01*
X806043Y309943D01*
X805978Y309882D01*
X805911Y309823D01*
X805842Y309767D01*
X805770Y309714D01*
X805695Y309664D01*
X805619Y309618D01*
X805541Y309575D01*
X805461Y309536D01*
X805379Y309500D01*
X805296Y309467D01*
X805211Y309439D01*
X805126Y309414D01*
X805039Y309392D01*
X804951Y309375D01*
X804863Y309362D01*
X804774Y309352D01*
X804685Y309346D01*
X804596Y309344D01*
X802550Y309344D01*
X805005Y309344D02*
X806642Y306070D01*
X809814Y306070D02*
X812269Y306070D01*
X812347Y306072D01*
X812425Y306077D01*
X812502Y306087D01*
X812579Y306100D01*
X812655Y306116D01*
X812730Y306136D01*
X812804Y306160D01*
X812877Y306187D01*
X812949Y306218D01*
X813019Y306252D01*
X813088Y306289D01*
X813154Y306330D01*
X813219Y306374D01*
X813281Y306420D01*
X813341Y306470D01*
X813399Y306522D01*
X813454Y306577D01*
X813506Y306635D01*
X813556Y306695D01*
X813602Y306757D01*
X813646Y306822D01*
X813687Y306889D01*
X813724Y306957D01*
X813758Y307027D01*
X813789Y307099D01*
X813816Y307172D01*
X813840Y307246D01*
X813860Y307321D01*
X813876Y307397D01*
X813889Y307474D01*
X813899Y307551D01*
X813904Y307629D01*
X813906Y307707D01*
X813906Y308525D01*
X813904Y308603D01*
X813899Y308681D01*
X813889Y308758D01*
X813876Y308835D01*
X813860Y308911D01*
X813840Y308986D01*
X813816Y309060D01*
X813789Y309133D01*
X813758Y309205D01*
X813724Y309275D01*
X813687Y309344D01*
X813646Y309410D01*
X813602Y309475D01*
X813556Y309537D01*
X813506Y309597D01*
X813454Y309655D01*
X813399Y309710D01*
X813341Y309762D01*
X813281Y309812D01*
X813219Y309858D01*
X813154Y309902D01*
X813088Y309943D01*
X813019Y309980D01*
X812949Y310014D01*
X812877Y310045D01*
X812804Y310072D01*
X812730Y310096D01*
X812655Y310116D01*
X812579Y310132D01*
X812502Y310145D01*
X812425Y310155D01*
X812347Y310160D01*
X812269Y310162D01*
X809814Y310162D01*
X809814Y313436D01*
X813906Y313436D01*
X802550Y313436D02*
X802550Y306070D01*
X802550Y313436D02*
X804596Y313436D01*
X804685Y313434D01*
X804774Y313428D01*
X804863Y313418D01*
X804951Y313405D01*
X805039Y313388D01*
X805126Y313366D01*
X805211Y313341D01*
X805296Y313313D01*
X805379Y313280D01*
X805461Y313244D01*
X805541Y313205D01*
X805619Y313162D01*
X805695Y313116D01*
X805770Y313066D01*
X805842Y313013D01*
X805911Y312957D01*
X805978Y312898D01*
X806043Y312837D01*
X806104Y312772D01*
X806163Y312705D01*
X806219Y312636D01*
X806272Y312564D01*
X806322Y312489D01*
X806368Y312413D01*
X806411Y312335D01*
X806450Y312255D01*
X806486Y312173D01*
X806519Y312090D01*
X806547Y312005D01*
X806572Y311920D01*
X806594Y311833D01*
X806611Y311745D01*
X806624Y311657D01*
X806634Y311568D01*
X806640Y311479D01*
X806642Y311390D01*
X806640Y311301D01*
X806634Y311212D01*
X806624Y311123D01*
X806611Y311035D01*
X806594Y310947D01*
X806572Y310860D01*
X806547Y310775D01*
X806519Y310690D01*
X806486Y310607D01*
X806450Y310525D01*
X806411Y310445D01*
X806368Y310367D01*
X806322Y310291D01*
X806272Y310216D01*
X806219Y310144D01*
X806163Y310075D01*
X806104Y310008D01*
X806043Y309943D01*
X805978Y309882D01*
X805911Y309823D01*
X805842Y309767D01*
X805770Y309714D01*
X805695Y309664D01*
X805619Y309618D01*
X805541Y309575D01*
X805461Y309536D01*
X805379Y309500D01*
X805296Y309467D01*
X805211Y309439D01*
X805126Y309414D01*
X805039Y309392D01*
X804951Y309375D01*
X804863Y309362D01*
X804774Y309352D01*
X804685Y309346D01*
X804596Y309344D01*
X802550Y309344D01*
X805005Y309344D02*
X806642Y306070D01*
X809814Y306070D02*
X812269Y306070D01*
X812347Y306072D01*
X812425Y306077D01*
X812502Y306087D01*
X812579Y306100D01*
X812655Y306116D01*
X812730Y306136D01*
X812804Y306160D01*
X812877Y306187D01*
X812949Y306218D01*
X813019Y306252D01*
X813088Y306289D01*
X813154Y306330D01*
X813219Y306374D01*
X813281Y306420D01*
X813341Y306470D01*
X813399Y306522D01*
X813454Y306577D01*
X813506Y306635D01*
X813556Y306695D01*
X813602Y306757D01*
X813646Y306822D01*
X813687Y306889D01*
X813724Y306957D01*
X813758Y307027D01*
X813789Y307099D01*
X813816Y307172D01*
X813840Y307246D01*
X813860Y307321D01*
X813876Y307397D01*
X813889Y307474D01*
X813899Y307551D01*
X813904Y307629D01*
X813906Y307707D01*
X813906Y308525D01*
X813904Y308603D01*
X813899Y308681D01*
X813889Y308758D01*
X813876Y308835D01*
X813860Y308911D01*
X813840Y308986D01*
X813816Y309060D01*
X813789Y309133D01*
X813758Y309205D01*
X813724Y309275D01*
X813687Y309344D01*
X813646Y309410D01*
X813602Y309475D01*
X813556Y309537D01*
X813506Y309597D01*
X813454Y309655D01*
X813399Y309710D01*
X813341Y309762D01*
X813281Y309812D01*
X813219Y309858D01*
X813154Y309902D01*
X813088Y309943D01*
X813019Y309980D01*
X812949Y310014D01*
X812877Y310045D01*
X812804Y310072D01*
X812730Y310096D01*
X812655Y310116D01*
X812579Y310132D01*
X812502Y310145D01*
X812425Y310155D01*
X812347Y310160D01*
X812269Y310162D01*
X809814Y310162D01*
X809814Y313436D01*
X813906Y313436D01*
X802550Y313436D02*
X802550Y306070D01*
X802550Y313436D02*
X804596Y313436D01*
X804685Y313434D01*
X804774Y313428D01*
X804863Y313418D01*
X804951Y313405D01*
X805039Y313388D01*
X805126Y313366D01*
X805211Y313341D01*
X805296Y313313D01*
X805379Y313280D01*
X805461Y313244D01*
X805541Y313205D01*
X805619Y313162D01*
X805695Y313116D01*
X805770Y313066D01*
X805842Y313013D01*
X805911Y312957D01*
X805978Y312898D01*
X806043Y312837D01*
X806104Y312772D01*
X806163Y312705D01*
X806219Y312636D01*
X806272Y312564D01*
X806322Y312489D01*
X806368Y312413D01*
X806411Y312335D01*
X806450Y312255D01*
X806486Y312173D01*
X806519Y312090D01*
X806547Y312005D01*
X806572Y311920D01*
X806594Y311833D01*
X806611Y311745D01*
X806624Y311657D01*
X806634Y311568D01*
X806640Y311479D01*
X806642Y311390D01*
X806640Y311301D01*
X806634Y311212D01*
X806624Y311123D01*
X806611Y311035D01*
X806594Y310947D01*
X806572Y310860D01*
X806547Y310775D01*
X806519Y310690D01*
X806486Y310607D01*
X806450Y310525D01*
X806411Y310445D01*
X806368Y310367D01*
X806322Y310291D01*
X806272Y310216D01*
X806219Y310144D01*
X806163Y310075D01*
X806104Y310008D01*
X806043Y309943D01*
X805978Y309882D01*
X805911Y309823D01*
X805842Y309767D01*
X805770Y309714D01*
X805695Y309664D01*
X805619Y309618D01*
X805541Y309575D01*
X805461Y309536D01*
X805379Y309500D01*
X805296Y309467D01*
X805211Y309439D01*
X805126Y309414D01*
X805039Y309392D01*
X804951Y309375D01*
X804863Y309362D01*
X804774Y309352D01*
X804685Y309346D01*
X804596Y309344D01*
X802550Y309344D01*
X805005Y309344D02*
X806642Y306070D01*
X809814Y306070D02*
X812269Y306070D01*
X812347Y306072D01*
X812425Y306077D01*
X812502Y306087D01*
X812579Y306100D01*
X812655Y306116D01*
X812730Y306136D01*
X812804Y306160D01*
X812877Y306187D01*
X812949Y306218D01*
X813019Y306252D01*
X813088Y306289D01*
X813154Y306330D01*
X813219Y306374D01*
X813281Y306420D01*
X813341Y306470D01*
X813399Y306522D01*
X813454Y306577D01*
X813506Y306635D01*
X813556Y306695D01*
X813602Y306757D01*
X813646Y306822D01*
X813687Y306889D01*
X813724Y306957D01*
X813758Y307027D01*
X813789Y307099D01*
X813816Y307172D01*
X813840Y307246D01*
X813860Y307321D01*
X813876Y307397D01*
X813889Y307474D01*
X813899Y307551D01*
X813904Y307629D01*
X813906Y307707D01*
X813906Y308525D01*
X813904Y308603D01*
X813899Y308681D01*
X813889Y308758D01*
X813876Y308835D01*
X813860Y308911D01*
X813840Y308986D01*
X813816Y309060D01*
X813789Y309133D01*
X813758Y309205D01*
X813724Y309275D01*
X813687Y309344D01*
X813646Y309410D01*
X813602Y309475D01*
X813556Y309537D01*
X813506Y309597D01*
X813454Y309655D01*
X813399Y309710D01*
X813341Y309762D01*
X813281Y309812D01*
X813219Y309858D01*
X813154Y309902D01*
X813088Y309943D01*
X813019Y309980D01*
X812949Y310014D01*
X812877Y310045D01*
X812804Y310072D01*
X812730Y310096D01*
X812655Y310116D01*
X812579Y310132D01*
X812502Y310145D01*
X812425Y310155D01*
X812347Y310160D01*
X812269Y310162D01*
X809814Y310162D01*
X809814Y313436D01*
X813906Y313436D01*
X802550Y313436D02*
X802550Y306070D01*
X802550Y313436D02*
X804596Y313436D01*
X804685Y313434D01*
X804774Y313428D01*
X804863Y313418D01*
X804951Y313405D01*
X805039Y313388D01*
X805126Y313366D01*
X805211Y313341D01*
X805296Y313313D01*
X805379Y313280D01*
X805461Y313244D01*
X805541Y313205D01*
X805619Y313162D01*
X805695Y313116D01*
X805770Y313066D01*
X805842Y313013D01*
X805911Y312957D01*
X805978Y312898D01*
X806043Y312837D01*
X806104Y312772D01*
X806163Y312705D01*
X806219Y312636D01*
X806272Y312564D01*
X806322Y312489D01*
X806368Y312413D01*
X806411Y312335D01*
X806450Y312255D01*
X806486Y312173D01*
X806519Y312090D01*
X806547Y312005D01*
X806572Y311920D01*
X806594Y311833D01*
X806611Y311745D01*
X806624Y311657D01*
X806634Y311568D01*
X806640Y311479D01*
X806642Y311390D01*
X806640Y311301D01*
X806634Y311212D01*
X806624Y311123D01*
X806611Y311035D01*
X806594Y310947D01*
X806572Y310860D01*
X806547Y310775D01*
X806519Y310690D01*
X806486Y310607D01*
X806450Y310525D01*
X806411Y310445D01*
X806368Y310367D01*
X806322Y310291D01*
X806272Y310216D01*
X806219Y310144D01*
X806163Y310075D01*
X806104Y310008D01*
X806043Y309943D01*
X805978Y309882D01*
X805911Y309823D01*
X805842Y309767D01*
X805770Y309714D01*
X805695Y309664D01*
X805619Y309618D01*
X805541Y309575D01*
X805461Y309536D01*
X805379Y309500D01*
X805296Y309467D01*
X805211Y309439D01*
X805126Y309414D01*
X805039Y309392D01*
X804951Y309375D01*
X804863Y309362D01*
X804774Y309352D01*
X804685Y309346D01*
X804596Y309344D01*
X802550Y309344D01*
X805005Y309344D02*
X806642Y306070D01*
X809814Y306070D02*
X812269Y306070D01*
X812347Y306072D01*
X812425Y306077D01*
X812502Y306087D01*
X812579Y306100D01*
X812655Y306116D01*
X812730Y306136D01*
X812804Y306160D01*
X812877Y306187D01*
X812949Y306218D01*
X813019Y306252D01*
X813088Y306289D01*
X813154Y306330D01*
X813219Y306374D01*
X813281Y306420D01*
X813341Y306470D01*
X813399Y306522D01*
X813454Y306577D01*
X813506Y306635D01*
X813556Y306695D01*
X813602Y306757D01*
X813646Y306822D01*
X813687Y306889D01*
X813724Y306957D01*
X813758Y307027D01*
X813789Y307099D01*
X813816Y307172D01*
X813840Y307246D01*
X813860Y307321D01*
X813876Y307397D01*
X813889Y307474D01*
X813899Y307551D01*
X813904Y307629D01*
X813906Y307707D01*
X813906Y308525D01*
X813904Y308603D01*
X813899Y308681D01*
X813889Y308758D01*
X813876Y308835D01*
X813860Y308911D01*
X813840Y308986D01*
X813816Y309060D01*
X813789Y309133D01*
X813758Y309205D01*
X813724Y309275D01*
X813687Y309344D01*
X813646Y309410D01*
X813602Y309475D01*
X813556Y309537D01*
X813506Y309597D01*
X813454Y309655D01*
X813399Y309710D01*
X813341Y309762D01*
X813281Y309812D01*
X813219Y309858D01*
X813154Y309902D01*
X813088Y309943D01*
X813019Y309980D01*
X812949Y310014D01*
X812877Y310045D01*
X812804Y310072D01*
X812730Y310096D01*
X812655Y310116D01*
X812579Y310132D01*
X812502Y310145D01*
X812425Y310155D01*
X812347Y310160D01*
X812269Y310162D01*
X809814Y310162D01*
X809814Y313436D01*
X813906Y313436D01*
D14*
X885191Y297312D02*
X908691Y297312D01*
X908691Y313812D01*
X885191Y313812D01*
D11*
X883700Y292164D02*
X883700Y284798D01*
X886974Y284798D01*
X890040Y284798D02*
X893314Y284798D01*
X890040Y284798D02*
X890040Y292164D01*
X893314Y292164D01*
X892496Y288890D02*
X890040Y288890D01*
X896364Y292164D02*
X896364Y284798D01*
X896364Y292164D02*
X898410Y292164D01*
X898410Y292163D02*
X898499Y292161D01*
X898588Y292155D01*
X898677Y292145D01*
X898765Y292132D01*
X898853Y292115D01*
X898940Y292093D01*
X899025Y292068D01*
X899110Y292040D01*
X899193Y292007D01*
X899275Y291971D01*
X899355Y291932D01*
X899433Y291889D01*
X899509Y291843D01*
X899584Y291793D01*
X899656Y291740D01*
X899725Y291684D01*
X899792Y291625D01*
X899857Y291564D01*
X899918Y291499D01*
X899977Y291432D01*
X900033Y291363D01*
X900086Y291291D01*
X900136Y291216D01*
X900182Y291140D01*
X900225Y291062D01*
X900264Y290982D01*
X900300Y290900D01*
X900333Y290817D01*
X900361Y290732D01*
X900386Y290647D01*
X900408Y290560D01*
X900425Y290472D01*
X900438Y290384D01*
X900448Y290295D01*
X900454Y290206D01*
X900456Y290117D01*
X900457Y290117D02*
X900457Y286844D01*
X900456Y286844D02*
X900454Y286755D01*
X900448Y286666D01*
X900438Y286577D01*
X900425Y286489D01*
X900408Y286401D01*
X900386Y286314D01*
X900361Y286229D01*
X900333Y286144D01*
X900300Y286061D01*
X900264Y285979D01*
X900225Y285899D01*
X900182Y285821D01*
X900136Y285745D01*
X900086Y285670D01*
X900033Y285598D01*
X899977Y285529D01*
X899918Y285462D01*
X899857Y285397D01*
X899792Y285336D01*
X899725Y285277D01*
X899656Y285221D01*
X899584Y285168D01*
X899509Y285118D01*
X899433Y285072D01*
X899355Y285029D01*
X899275Y284990D01*
X899193Y284954D01*
X899110Y284921D01*
X899025Y284893D01*
X898940Y284868D01*
X898853Y284846D01*
X898765Y284829D01*
X898677Y284816D01*
X898588Y284806D01*
X898499Y284800D01*
X898410Y284798D01*
X896364Y284798D01*
X906174Y292164D02*
X906259Y292162D01*
X906344Y292156D01*
X906428Y292146D01*
X906512Y292133D01*
X906596Y292115D01*
X906678Y292094D01*
X906759Y292069D01*
X906839Y292040D01*
X906918Y292007D01*
X906995Y291971D01*
X907070Y291931D01*
X907144Y291888D01*
X907215Y291842D01*
X907284Y291792D01*
X907351Y291739D01*
X907415Y291683D01*
X907476Y291624D01*
X907535Y291563D01*
X907591Y291499D01*
X907644Y291432D01*
X907694Y291363D01*
X907740Y291292D01*
X907783Y291218D01*
X907823Y291143D01*
X907859Y291066D01*
X907892Y290987D01*
X907921Y290907D01*
X907946Y290826D01*
X907967Y290744D01*
X907985Y290660D01*
X907998Y290576D01*
X908008Y290492D01*
X908014Y290407D01*
X908016Y290322D01*
X906174Y292164D02*
X906078Y292162D01*
X905982Y292156D01*
X905887Y292146D01*
X905792Y292133D01*
X905697Y292115D01*
X905604Y292094D01*
X905511Y292069D01*
X905420Y292040D01*
X905329Y292008D01*
X905240Y291972D01*
X905153Y291932D01*
X905067Y291889D01*
X904983Y291843D01*
X904901Y291793D01*
X904821Y291739D01*
X904744Y291683D01*
X904669Y291623D01*
X904596Y291561D01*
X904526Y291495D01*
X904458Y291427D01*
X904393Y291356D01*
X904332Y291283D01*
X904273Y291207D01*
X904217Y291128D01*
X904165Y291048D01*
X904116Y290965D01*
X904070Y290881D01*
X904028Y290795D01*
X903990Y290707D01*
X903955Y290618D01*
X903923Y290527D01*
X907402Y288890D02*
X907462Y288949D01*
X907519Y289011D01*
X907574Y289075D01*
X907625Y289142D01*
X907674Y289211D01*
X907720Y289281D01*
X907763Y289354D01*
X907803Y289428D01*
X907839Y289504D01*
X907872Y289582D01*
X907902Y289661D01*
X907929Y289741D01*
X907952Y289822D01*
X907971Y289904D01*
X907987Y289986D01*
X908000Y290070D01*
X908009Y290154D01*
X908014Y290238D01*
X908016Y290322D01*
X907402Y288890D02*
X903923Y284798D01*
X908016Y284798D01*
X802296Y286068D02*
X802296Y293434D01*
X804342Y293434D01*
X804342Y293433D02*
X804431Y293431D01*
X804520Y293425D01*
X804609Y293415D01*
X804697Y293402D01*
X804785Y293385D01*
X804872Y293363D01*
X804957Y293338D01*
X805042Y293310D01*
X805125Y293277D01*
X805207Y293241D01*
X805287Y293202D01*
X805365Y293159D01*
X805441Y293113D01*
X805516Y293063D01*
X805588Y293010D01*
X805657Y292954D01*
X805724Y292895D01*
X805789Y292834D01*
X805850Y292769D01*
X805909Y292702D01*
X805965Y292633D01*
X806018Y292561D01*
X806068Y292486D01*
X806114Y292410D01*
X806157Y292332D01*
X806196Y292252D01*
X806232Y292170D01*
X806265Y292087D01*
X806293Y292002D01*
X806318Y291917D01*
X806340Y291830D01*
X806357Y291742D01*
X806370Y291654D01*
X806380Y291565D01*
X806386Y291476D01*
X806388Y291387D01*
X806386Y291298D01*
X806380Y291209D01*
X806370Y291120D01*
X806357Y291032D01*
X806340Y290944D01*
X806318Y290857D01*
X806293Y290772D01*
X806265Y290687D01*
X806232Y290604D01*
X806196Y290522D01*
X806157Y290442D01*
X806114Y290364D01*
X806068Y290288D01*
X806018Y290213D01*
X805965Y290141D01*
X805909Y290072D01*
X805850Y290005D01*
X805789Y289940D01*
X805724Y289879D01*
X805657Y289820D01*
X805588Y289764D01*
X805516Y289711D01*
X805441Y289661D01*
X805365Y289615D01*
X805287Y289572D01*
X805207Y289533D01*
X805125Y289497D01*
X805042Y289464D01*
X804957Y289436D01*
X804872Y289411D01*
X804785Y289389D01*
X804697Y289372D01*
X804609Y289359D01*
X804520Y289349D01*
X804431Y289343D01*
X804342Y289341D01*
X802296Y289341D01*
X804751Y289341D02*
X806388Y286068D01*
X809560Y290160D02*
X812015Y290160D01*
X812093Y290158D01*
X812171Y290153D01*
X812248Y290143D01*
X812325Y290130D01*
X812401Y290114D01*
X812476Y290094D01*
X812550Y290070D01*
X812623Y290043D01*
X812695Y290012D01*
X812765Y289978D01*
X812834Y289941D01*
X812900Y289900D01*
X812965Y289856D01*
X813027Y289810D01*
X813087Y289760D01*
X813145Y289708D01*
X813200Y289653D01*
X813252Y289595D01*
X813302Y289535D01*
X813348Y289473D01*
X813392Y289408D01*
X813433Y289342D01*
X813470Y289273D01*
X813504Y289203D01*
X813535Y289131D01*
X813562Y289058D01*
X813586Y288984D01*
X813606Y288909D01*
X813622Y288833D01*
X813635Y288756D01*
X813645Y288679D01*
X813650Y288601D01*
X813652Y288523D01*
X813652Y288114D01*
X813650Y288025D01*
X813644Y287936D01*
X813634Y287847D01*
X813621Y287759D01*
X813604Y287671D01*
X813582Y287584D01*
X813557Y287499D01*
X813529Y287414D01*
X813496Y287331D01*
X813460Y287249D01*
X813421Y287169D01*
X813378Y287091D01*
X813332Y287015D01*
X813282Y286940D01*
X813229Y286868D01*
X813173Y286799D01*
X813114Y286732D01*
X813053Y286667D01*
X812988Y286606D01*
X812921Y286547D01*
X812852Y286491D01*
X812780Y286438D01*
X812705Y286388D01*
X812629Y286342D01*
X812551Y286299D01*
X812471Y286260D01*
X812389Y286224D01*
X812306Y286191D01*
X812221Y286163D01*
X812136Y286138D01*
X812049Y286116D01*
X811961Y286099D01*
X811873Y286086D01*
X811784Y286076D01*
X811695Y286070D01*
X811606Y286068D01*
X811517Y286070D01*
X811428Y286076D01*
X811339Y286086D01*
X811251Y286099D01*
X811163Y286116D01*
X811076Y286138D01*
X810991Y286163D01*
X810906Y286191D01*
X810823Y286224D01*
X810741Y286260D01*
X810661Y286299D01*
X810583Y286342D01*
X810507Y286388D01*
X810432Y286438D01*
X810360Y286491D01*
X810291Y286547D01*
X810224Y286606D01*
X810159Y286667D01*
X810098Y286732D01*
X810039Y286799D01*
X809983Y286868D01*
X809930Y286940D01*
X809880Y287015D01*
X809834Y287091D01*
X809791Y287169D01*
X809752Y287249D01*
X809716Y287331D01*
X809683Y287414D01*
X809655Y287499D01*
X809630Y287584D01*
X809608Y287671D01*
X809591Y287759D01*
X809578Y287847D01*
X809568Y287936D01*
X809562Y288025D01*
X809560Y288114D01*
X809560Y290160D01*
X809562Y290274D01*
X809568Y290388D01*
X809578Y290502D01*
X809592Y290616D01*
X809610Y290729D01*
X809632Y290841D01*
X809657Y290952D01*
X809687Y291062D01*
X809720Y291172D01*
X809757Y291280D01*
X809798Y291386D01*
X809843Y291492D01*
X809891Y291595D01*
X809943Y291697D01*
X809999Y291797D01*
X810057Y291895D01*
X810120Y291991D01*
X810185Y292084D01*
X810254Y292176D01*
X810326Y292264D01*
X810401Y292351D01*
X810479Y292434D01*
X810560Y292515D01*
X810643Y292593D01*
X810730Y292668D01*
X810818Y292740D01*
X810910Y292809D01*
X811003Y292874D01*
X811099Y292936D01*
X811197Y292995D01*
X811297Y293051D01*
X811399Y293103D01*
X811502Y293151D01*
X811608Y293196D01*
X811714Y293237D01*
X811822Y293274D01*
X811932Y293307D01*
X812042Y293337D01*
X812153Y293362D01*
X812265Y293384D01*
X812378Y293402D01*
X812492Y293416D01*
X812606Y293426D01*
X812720Y293432D01*
X812834Y293434D01*
X802296Y293434D02*
X802296Y286068D01*
X802296Y293434D02*
X804342Y293434D01*
X804342Y293433D02*
X804431Y293431D01*
X804520Y293425D01*
X804609Y293415D01*
X804697Y293402D01*
X804785Y293385D01*
X804872Y293363D01*
X804957Y293338D01*
X805042Y293310D01*
X805125Y293277D01*
X805207Y293241D01*
X805287Y293202D01*
X805365Y293159D01*
X805441Y293113D01*
X805516Y293063D01*
X805588Y293010D01*
X805657Y292954D01*
X805724Y292895D01*
X805789Y292834D01*
X805850Y292769D01*
X805909Y292702D01*
X805965Y292633D01*
X806018Y292561D01*
X806068Y292486D01*
X806114Y292410D01*
X806157Y292332D01*
X806196Y292252D01*
X806232Y292170D01*
X806265Y292087D01*
X806293Y292002D01*
X806318Y291917D01*
X806340Y291830D01*
X806357Y291742D01*
X806370Y291654D01*
X806380Y291565D01*
X806386Y291476D01*
X806388Y291387D01*
X806386Y291298D01*
X806380Y291209D01*
X806370Y291120D01*
X806357Y291032D01*
X806340Y290944D01*
X806318Y290857D01*
X806293Y290772D01*
X806265Y290687D01*
X806232Y290604D01*
X806196Y290522D01*
X806157Y290442D01*
X806114Y290364D01*
X806068Y290288D01*
X806018Y290213D01*
X805965Y290141D01*
X805909Y290072D01*
X805850Y290005D01*
X805789Y289940D01*
X805724Y289879D01*
X805657Y289820D01*
X805588Y289764D01*
X805516Y289711D01*
X805441Y289661D01*
X805365Y289615D01*
X805287Y289572D01*
X805207Y289533D01*
X805125Y289497D01*
X805042Y289464D01*
X804957Y289436D01*
X804872Y289411D01*
X804785Y289389D01*
X804697Y289372D01*
X804609Y289359D01*
X804520Y289349D01*
X804431Y289343D01*
X804342Y289341D01*
X802296Y289341D01*
X804751Y289341D02*
X806388Y286068D01*
X809560Y290160D02*
X812015Y290160D01*
X812093Y290158D01*
X812171Y290153D01*
X812248Y290143D01*
X812325Y290130D01*
X812401Y290114D01*
X812476Y290094D01*
X812550Y290070D01*
X812623Y290043D01*
X812695Y290012D01*
X812765Y289978D01*
X812834Y289941D01*
X812900Y289900D01*
X812965Y289856D01*
X813027Y289810D01*
X813087Y289760D01*
X813145Y289708D01*
X813200Y289653D01*
X813252Y289595D01*
X813302Y289535D01*
X813348Y289473D01*
X813392Y289408D01*
X813433Y289342D01*
X813470Y289273D01*
X813504Y289203D01*
X813535Y289131D01*
X813562Y289058D01*
X813586Y288984D01*
X813606Y288909D01*
X813622Y288833D01*
X813635Y288756D01*
X813645Y288679D01*
X813650Y288601D01*
X813652Y288523D01*
X813652Y288114D01*
X813650Y288025D01*
X813644Y287936D01*
X813634Y287847D01*
X813621Y287759D01*
X813604Y287671D01*
X813582Y287584D01*
X813557Y287499D01*
X813529Y287414D01*
X813496Y287331D01*
X813460Y287249D01*
X813421Y287169D01*
X813378Y287091D01*
X813332Y287015D01*
X813282Y286940D01*
X813229Y286868D01*
X813173Y286799D01*
X813114Y286732D01*
X813053Y286667D01*
X812988Y286606D01*
X812921Y286547D01*
X812852Y286491D01*
X812780Y286438D01*
X812705Y286388D01*
X812629Y286342D01*
X812551Y286299D01*
X812471Y286260D01*
X812389Y286224D01*
X812306Y286191D01*
X812221Y286163D01*
X812136Y286138D01*
X812049Y286116D01*
X811961Y286099D01*
X811873Y286086D01*
X811784Y286076D01*
X811695Y286070D01*
X811606Y286068D01*
X811517Y286070D01*
X811428Y286076D01*
X811339Y286086D01*
X811251Y286099D01*
X811163Y286116D01*
X811076Y286138D01*
X810991Y286163D01*
X810906Y286191D01*
X810823Y286224D01*
X810741Y286260D01*
X810661Y286299D01*
X810583Y286342D01*
X810507Y286388D01*
X810432Y286438D01*
X810360Y286491D01*
X810291Y286547D01*
X810224Y286606D01*
X810159Y286667D01*
X810098Y286732D01*
X810039Y286799D01*
X809983Y286868D01*
X809930Y286940D01*
X809880Y287015D01*
X809834Y287091D01*
X809791Y287169D01*
X809752Y287249D01*
X809716Y287331D01*
X809683Y287414D01*
X809655Y287499D01*
X809630Y287584D01*
X809608Y287671D01*
X809591Y287759D01*
X809578Y287847D01*
X809568Y287936D01*
X809562Y288025D01*
X809560Y288114D01*
X809560Y290160D01*
X809562Y290274D01*
X809568Y290388D01*
X809578Y290502D01*
X809592Y290616D01*
X809610Y290729D01*
X809632Y290841D01*
X809657Y290952D01*
X809687Y291062D01*
X809720Y291172D01*
X809757Y291280D01*
X809798Y291386D01*
X809843Y291492D01*
X809891Y291595D01*
X809943Y291697D01*
X809999Y291797D01*
X810057Y291895D01*
X810120Y291991D01*
X810185Y292084D01*
X810254Y292176D01*
X810326Y292264D01*
X810401Y292351D01*
X810479Y292434D01*
X810560Y292515D01*
X810643Y292593D01*
X810730Y292668D01*
X810818Y292740D01*
X810910Y292809D01*
X811003Y292874D01*
X811099Y292936D01*
X811197Y292995D01*
X811297Y293051D01*
X811399Y293103D01*
X811502Y293151D01*
X811608Y293196D01*
X811714Y293237D01*
X811822Y293274D01*
X811932Y293307D01*
X812042Y293337D01*
X812153Y293362D01*
X812265Y293384D01*
X812378Y293402D01*
X812492Y293416D01*
X812606Y293426D01*
X812720Y293432D01*
X812834Y293434D01*
X802296Y293434D02*
X802296Y286068D01*
X802296Y293434D02*
X804342Y293434D01*
X804342Y293433D02*
X804431Y293431D01*
X804520Y293425D01*
X804609Y293415D01*
X804697Y293402D01*
X804785Y293385D01*
X804872Y293363D01*
X804957Y293338D01*
X805042Y293310D01*
X805125Y293277D01*
X805207Y293241D01*
X805287Y293202D01*
X805365Y293159D01*
X805441Y293113D01*
X805516Y293063D01*
X805588Y293010D01*
X805657Y292954D01*
X805724Y292895D01*
X805789Y292834D01*
X805850Y292769D01*
X805909Y292702D01*
X805965Y292633D01*
X806018Y292561D01*
X806068Y292486D01*
X806114Y292410D01*
X806157Y292332D01*
X806196Y292252D01*
X806232Y292170D01*
X806265Y292087D01*
X806293Y292002D01*
X806318Y291917D01*
X806340Y291830D01*
X806357Y291742D01*
X806370Y291654D01*
X806380Y291565D01*
X806386Y291476D01*
X806388Y291387D01*
X806386Y291298D01*
X806380Y291209D01*
X806370Y291120D01*
X806357Y291032D01*
X806340Y290944D01*
X806318Y290857D01*
X806293Y290772D01*
X806265Y290687D01*
X806232Y290604D01*
X806196Y290522D01*
X806157Y290442D01*
X806114Y290364D01*
X806068Y290288D01*
X806018Y290213D01*
X805965Y290141D01*
X805909Y290072D01*
X805850Y290005D01*
X805789Y289940D01*
X805724Y289879D01*
X805657Y289820D01*
X805588Y289764D01*
X805516Y289711D01*
X805441Y289661D01*
X805365Y289615D01*
X805287Y289572D01*
X805207Y289533D01*
X805125Y289497D01*
X805042Y289464D01*
X804957Y289436D01*
X804872Y289411D01*
X804785Y289389D01*
X804697Y289372D01*
X804609Y289359D01*
X804520Y289349D01*
X804431Y289343D01*
X804342Y289341D01*
X802296Y289341D01*
X804751Y289341D02*
X806388Y286068D01*
X809560Y290160D02*
X812015Y290160D01*
X812093Y290158D01*
X812171Y290153D01*
X812248Y290143D01*
X812325Y290130D01*
X812401Y290114D01*
X812476Y290094D01*
X812550Y290070D01*
X812623Y290043D01*
X812695Y290012D01*
X812765Y289978D01*
X812834Y289941D01*
X812900Y289900D01*
X812965Y289856D01*
X813027Y289810D01*
X813087Y289760D01*
X813145Y289708D01*
X813200Y289653D01*
X813252Y289595D01*
X813302Y289535D01*
X813348Y289473D01*
X813392Y289408D01*
X813433Y289342D01*
X813470Y289273D01*
X813504Y289203D01*
X813535Y289131D01*
X813562Y289058D01*
X813586Y288984D01*
X813606Y288909D01*
X813622Y288833D01*
X813635Y288756D01*
X813645Y288679D01*
X813650Y288601D01*
X813652Y288523D01*
X813652Y288114D01*
X813650Y288025D01*
X813644Y287936D01*
X813634Y287847D01*
X813621Y287759D01*
X813604Y287671D01*
X813582Y287584D01*
X813557Y287499D01*
X813529Y287414D01*
X813496Y287331D01*
X813460Y287249D01*
X813421Y287169D01*
X813378Y287091D01*
X813332Y287015D01*
X813282Y286940D01*
X813229Y286868D01*
X813173Y286799D01*
X813114Y286732D01*
X813053Y286667D01*
X812988Y286606D01*
X812921Y286547D01*
X812852Y286491D01*
X812780Y286438D01*
X812705Y286388D01*
X812629Y286342D01*
X812551Y286299D01*
X812471Y286260D01*
X812389Y286224D01*
X812306Y286191D01*
X812221Y286163D01*
X812136Y286138D01*
X812049Y286116D01*
X811961Y286099D01*
X811873Y286086D01*
X811784Y286076D01*
X811695Y286070D01*
X811606Y286068D01*
X811517Y286070D01*
X811428Y286076D01*
X811339Y286086D01*
X811251Y286099D01*
X811163Y286116D01*
X811076Y286138D01*
X810991Y286163D01*
X810906Y286191D01*
X810823Y286224D01*
X810741Y286260D01*
X810661Y286299D01*
X810583Y286342D01*
X810507Y286388D01*
X810432Y286438D01*
X810360Y286491D01*
X810291Y286547D01*
X810224Y286606D01*
X810159Y286667D01*
X810098Y286732D01*
X810039Y286799D01*
X809983Y286868D01*
X809930Y286940D01*
X809880Y287015D01*
X809834Y287091D01*
X809791Y287169D01*
X809752Y287249D01*
X809716Y287331D01*
X809683Y287414D01*
X809655Y287499D01*
X809630Y287584D01*
X809608Y287671D01*
X809591Y287759D01*
X809578Y287847D01*
X809568Y287936D01*
X809562Y288025D01*
X809560Y288114D01*
X809560Y290160D01*
X809562Y290274D01*
X809568Y290388D01*
X809578Y290502D01*
X809592Y290616D01*
X809610Y290729D01*
X809632Y290841D01*
X809657Y290952D01*
X809687Y291062D01*
X809720Y291172D01*
X809757Y291280D01*
X809798Y291386D01*
X809843Y291492D01*
X809891Y291595D01*
X809943Y291697D01*
X809999Y291797D01*
X810057Y291895D01*
X810120Y291991D01*
X810185Y292084D01*
X810254Y292176D01*
X810326Y292264D01*
X810401Y292351D01*
X810479Y292434D01*
X810560Y292515D01*
X810643Y292593D01*
X810730Y292668D01*
X810818Y292740D01*
X810910Y292809D01*
X811003Y292874D01*
X811099Y292936D01*
X811197Y292995D01*
X811297Y293051D01*
X811399Y293103D01*
X811502Y293151D01*
X811608Y293196D01*
X811714Y293237D01*
X811822Y293274D01*
X811932Y293307D01*
X812042Y293337D01*
X812153Y293362D01*
X812265Y293384D01*
X812378Y293402D01*
X812492Y293416D01*
X812606Y293426D01*
X812720Y293432D01*
X812834Y293434D01*
X802296Y293434D02*
X802296Y286068D01*
X802296Y293434D02*
X804342Y293434D01*
X804342Y293433D02*
X804431Y293431D01*
X804520Y293425D01*
X804609Y293415D01*
X804697Y293402D01*
X804785Y293385D01*
X804872Y293363D01*
X804957Y293338D01*
X805042Y293310D01*
X805125Y293277D01*
X805207Y293241D01*
X805287Y293202D01*
X805365Y293159D01*
X805441Y293113D01*
X805516Y293063D01*
X805588Y293010D01*
X805657Y292954D01*
X805724Y292895D01*
X805789Y292834D01*
X805850Y292769D01*
X805909Y292702D01*
X805965Y292633D01*
X806018Y292561D01*
X806068Y292486D01*
X806114Y292410D01*
X806157Y292332D01*
X806196Y292252D01*
X806232Y292170D01*
X806265Y292087D01*
X806293Y292002D01*
X806318Y291917D01*
X806340Y291830D01*
X806357Y291742D01*
X806370Y291654D01*
X806380Y291565D01*
X806386Y291476D01*
X806388Y291387D01*
X806386Y291298D01*
X806380Y291209D01*
X806370Y291120D01*
X806357Y291032D01*
X806340Y290944D01*
X806318Y290857D01*
X806293Y290772D01*
X806265Y290687D01*
X806232Y290604D01*
X806196Y290522D01*
X806157Y290442D01*
X806114Y290364D01*
X806068Y290288D01*
X806018Y290213D01*
X805965Y290141D01*
X805909Y290072D01*
X805850Y290005D01*
X805789Y289940D01*
X805724Y289879D01*
X805657Y289820D01*
X805588Y289764D01*
X805516Y289711D01*
X805441Y289661D01*
X805365Y289615D01*
X805287Y289572D01*
X805207Y289533D01*
X805125Y289497D01*
X805042Y289464D01*
X804957Y289436D01*
X804872Y289411D01*
X804785Y289389D01*
X804697Y289372D01*
X804609Y289359D01*
X804520Y289349D01*
X804431Y289343D01*
X804342Y289341D01*
X802296Y289341D01*
X804751Y289341D02*
X806388Y286068D01*
X809560Y290160D02*
X812015Y290160D01*
X812093Y290158D01*
X812171Y290153D01*
X812248Y290143D01*
X812325Y290130D01*
X812401Y290114D01*
X812476Y290094D01*
X812550Y290070D01*
X812623Y290043D01*
X812695Y290012D01*
X812765Y289978D01*
X812834Y289941D01*
X812900Y289900D01*
X812965Y289856D01*
X813027Y289810D01*
X813087Y289760D01*
X813145Y289708D01*
X813200Y289653D01*
X813252Y289595D01*
X813302Y289535D01*
X813348Y289473D01*
X813392Y289408D01*
X813433Y289342D01*
X813470Y289273D01*
X813504Y289203D01*
X813535Y289131D01*
X813562Y289058D01*
X813586Y288984D01*
X813606Y288909D01*
X813622Y288833D01*
X813635Y288756D01*
X813645Y288679D01*
X813650Y288601D01*
X813652Y288523D01*
X813652Y288114D01*
X813650Y288025D01*
X813644Y287936D01*
X813634Y287847D01*
X813621Y287759D01*
X813604Y287671D01*
X813582Y287584D01*
X813557Y287499D01*
X813529Y287414D01*
X813496Y287331D01*
X813460Y287249D01*
X813421Y287169D01*
X813378Y287091D01*
X813332Y287015D01*
X813282Y286940D01*
X813229Y286868D01*
X813173Y286799D01*
X813114Y286732D01*
X813053Y286667D01*
X812988Y286606D01*
X812921Y286547D01*
X812852Y286491D01*
X812780Y286438D01*
X812705Y286388D01*
X812629Y286342D01*
X812551Y286299D01*
X812471Y286260D01*
X812389Y286224D01*
X812306Y286191D01*
X812221Y286163D01*
X812136Y286138D01*
X812049Y286116D01*
X811961Y286099D01*
X811873Y286086D01*
X811784Y286076D01*
X811695Y286070D01*
X811606Y286068D01*
X811517Y286070D01*
X811428Y286076D01*
X811339Y286086D01*
X811251Y286099D01*
X811163Y286116D01*
X811076Y286138D01*
X810991Y286163D01*
X810906Y286191D01*
X810823Y286224D01*
X810741Y286260D01*
X810661Y286299D01*
X810583Y286342D01*
X810507Y286388D01*
X810432Y286438D01*
X810360Y286491D01*
X810291Y286547D01*
X810224Y286606D01*
X810159Y286667D01*
X810098Y286732D01*
X810039Y286799D01*
X809983Y286868D01*
X809930Y286940D01*
X809880Y287015D01*
X809834Y287091D01*
X809791Y287169D01*
X809752Y287249D01*
X809716Y287331D01*
X809683Y287414D01*
X809655Y287499D01*
X809630Y287584D01*
X809608Y287671D01*
X809591Y287759D01*
X809578Y287847D01*
X809568Y287936D01*
X809562Y288025D01*
X809560Y288114D01*
X809560Y290160D01*
X809562Y290274D01*
X809568Y290388D01*
X809578Y290502D01*
X809592Y290616D01*
X809610Y290729D01*
X809632Y290841D01*
X809657Y290952D01*
X809687Y291062D01*
X809720Y291172D01*
X809757Y291280D01*
X809798Y291386D01*
X809843Y291492D01*
X809891Y291595D01*
X809943Y291697D01*
X809999Y291797D01*
X810057Y291895D01*
X810120Y291991D01*
X810185Y292084D01*
X810254Y292176D01*
X810326Y292264D01*
X810401Y292351D01*
X810479Y292434D01*
X810560Y292515D01*
X810643Y292593D01*
X810730Y292668D01*
X810818Y292740D01*
X810910Y292809D01*
X811003Y292874D01*
X811099Y292936D01*
X811197Y292995D01*
X811297Y293051D01*
X811399Y293103D01*
X811502Y293151D01*
X811608Y293196D01*
X811714Y293237D01*
X811822Y293274D01*
X811932Y293307D01*
X812042Y293337D01*
X812153Y293362D01*
X812265Y293384D01*
X812378Y293402D01*
X812492Y293416D01*
X812606Y293426D01*
X812720Y293432D01*
X812834Y293434D01*
X802296Y293434D02*
X802296Y286068D01*
X802296Y293434D02*
X804342Y293434D01*
X804342Y293433D02*
X804431Y293431D01*
X804520Y293425D01*
X804609Y293415D01*
X804697Y293402D01*
X804785Y293385D01*
X804872Y293363D01*
X804957Y293338D01*
X805042Y293310D01*
X805125Y293277D01*
X805207Y293241D01*
X805287Y293202D01*
X805365Y293159D01*
X805441Y293113D01*
X805516Y293063D01*
X805588Y293010D01*
X805657Y292954D01*
X805724Y292895D01*
X805789Y292834D01*
X805850Y292769D01*
X805909Y292702D01*
X805965Y292633D01*
X806018Y292561D01*
X806068Y292486D01*
X806114Y292410D01*
X806157Y292332D01*
X806196Y292252D01*
X806232Y292170D01*
X806265Y292087D01*
X806293Y292002D01*
X806318Y291917D01*
X806340Y291830D01*
X806357Y291742D01*
X806370Y291654D01*
X806380Y291565D01*
X806386Y291476D01*
X806388Y291387D01*
X806386Y291298D01*
X806380Y291209D01*
X806370Y291120D01*
X806357Y291032D01*
X806340Y290944D01*
X806318Y290857D01*
X806293Y290772D01*
X806265Y290687D01*
X806232Y290604D01*
X806196Y290522D01*
X806157Y290442D01*
X806114Y290364D01*
X806068Y290288D01*
X806018Y290213D01*
X805965Y290141D01*
X805909Y290072D01*
X805850Y290005D01*
X805789Y289940D01*
X805724Y289879D01*
X805657Y289820D01*
X805588Y289764D01*
X805516Y289711D01*
X805441Y289661D01*
X805365Y289615D01*
X805287Y289572D01*
X805207Y289533D01*
X805125Y289497D01*
X805042Y289464D01*
X804957Y289436D01*
X804872Y289411D01*
X804785Y289389D01*
X804697Y289372D01*
X804609Y289359D01*
X804520Y289349D01*
X804431Y289343D01*
X804342Y289341D01*
X802296Y289341D01*
X804751Y289341D02*
X806388Y286068D01*
X809560Y290160D02*
X812015Y290160D01*
X812093Y290158D01*
X812171Y290153D01*
X812248Y290143D01*
X812325Y290130D01*
X812401Y290114D01*
X812476Y290094D01*
X812550Y290070D01*
X812623Y290043D01*
X812695Y290012D01*
X812765Y289978D01*
X812834Y289941D01*
X812900Y289900D01*
X812965Y289856D01*
X813027Y289810D01*
X813087Y289760D01*
X813145Y289708D01*
X813200Y289653D01*
X813252Y289595D01*
X813302Y289535D01*
X813348Y289473D01*
X813392Y289408D01*
X813433Y289342D01*
X813470Y289273D01*
X813504Y289203D01*
X813535Y289131D01*
X813562Y289058D01*
X813586Y288984D01*
X813606Y288909D01*
X813622Y288833D01*
X813635Y288756D01*
X813645Y288679D01*
X813650Y288601D01*
X813652Y288523D01*
X813652Y288114D01*
X813650Y288025D01*
X813644Y287936D01*
X813634Y287847D01*
X813621Y287759D01*
X813604Y287671D01*
X813582Y287584D01*
X813557Y287499D01*
X813529Y287414D01*
X813496Y287331D01*
X813460Y287249D01*
X813421Y287169D01*
X813378Y287091D01*
X813332Y287015D01*
X813282Y286940D01*
X813229Y286868D01*
X813173Y286799D01*
X813114Y286732D01*
X813053Y286667D01*
X812988Y286606D01*
X812921Y286547D01*
X812852Y286491D01*
X812780Y286438D01*
X812705Y286388D01*
X812629Y286342D01*
X812551Y286299D01*
X812471Y286260D01*
X812389Y286224D01*
X812306Y286191D01*
X812221Y286163D01*
X812136Y286138D01*
X812049Y286116D01*
X811961Y286099D01*
X811873Y286086D01*
X811784Y286076D01*
X811695Y286070D01*
X811606Y286068D01*
X811517Y286070D01*
X811428Y286076D01*
X811339Y286086D01*
X811251Y286099D01*
X811163Y286116D01*
X811076Y286138D01*
X810991Y286163D01*
X810906Y286191D01*
X810823Y286224D01*
X810741Y286260D01*
X810661Y286299D01*
X810583Y286342D01*
X810507Y286388D01*
X810432Y286438D01*
X810360Y286491D01*
X810291Y286547D01*
X810224Y286606D01*
X810159Y286667D01*
X810098Y286732D01*
X810039Y286799D01*
X809983Y286868D01*
X809930Y286940D01*
X809880Y287015D01*
X809834Y287091D01*
X809791Y287169D01*
X809752Y287249D01*
X809716Y287331D01*
X809683Y287414D01*
X809655Y287499D01*
X809630Y287584D01*
X809608Y287671D01*
X809591Y287759D01*
X809578Y287847D01*
X809568Y287936D01*
X809562Y288025D01*
X809560Y288114D01*
X809560Y290160D01*
X809562Y290274D01*
X809568Y290388D01*
X809578Y290502D01*
X809592Y290616D01*
X809610Y290729D01*
X809632Y290841D01*
X809657Y290952D01*
X809687Y291062D01*
X809720Y291172D01*
X809757Y291280D01*
X809798Y291386D01*
X809843Y291492D01*
X809891Y291595D01*
X809943Y291697D01*
X809999Y291797D01*
X810057Y291895D01*
X810120Y291991D01*
X810185Y292084D01*
X810254Y292176D01*
X810326Y292264D01*
X810401Y292351D01*
X810479Y292434D01*
X810560Y292515D01*
X810643Y292593D01*
X810730Y292668D01*
X810818Y292740D01*
X810910Y292809D01*
X811003Y292874D01*
X811099Y292936D01*
X811197Y292995D01*
X811297Y293051D01*
X811399Y293103D01*
X811502Y293151D01*
X811608Y293196D01*
X811714Y293237D01*
X811822Y293274D01*
X811932Y293307D01*
X812042Y293337D01*
X812153Y293362D01*
X812265Y293384D01*
X812378Y293402D01*
X812492Y293416D01*
X812606Y293426D01*
X812720Y293432D01*
X812834Y293434D01*
X802296Y293434D02*
X802296Y286068D01*
X802296Y293434D02*
X804342Y293434D01*
X804342Y293433D02*
X804431Y293431D01*
X804520Y293425D01*
X804609Y293415D01*
X804697Y293402D01*
X804785Y293385D01*
X804872Y293363D01*
X804957Y293338D01*
X805042Y293310D01*
X805125Y293277D01*
X805207Y293241D01*
X805287Y293202D01*
X805365Y293159D01*
X805441Y293113D01*
X805516Y293063D01*
X805588Y293010D01*
X805657Y292954D01*
X805724Y292895D01*
X805789Y292834D01*
X805850Y292769D01*
X805909Y292702D01*
X805965Y292633D01*
X806018Y292561D01*
X806068Y292486D01*
X806114Y292410D01*
X806157Y292332D01*
X806196Y292252D01*
X806232Y292170D01*
X806265Y292087D01*
X806293Y292002D01*
X806318Y291917D01*
X806340Y291830D01*
X806357Y291742D01*
X806370Y291654D01*
X806380Y291565D01*
X806386Y291476D01*
X806388Y291387D01*
X806386Y291298D01*
X806380Y291209D01*
X806370Y291120D01*
X806357Y291032D01*
X806340Y290944D01*
X806318Y290857D01*
X806293Y290772D01*
X806265Y290687D01*
X806232Y290604D01*
X806196Y290522D01*
X806157Y290442D01*
X806114Y290364D01*
X806068Y290288D01*
X806018Y290213D01*
X805965Y290141D01*
X805909Y290072D01*
X805850Y290005D01*
X805789Y289940D01*
X805724Y289879D01*
X805657Y289820D01*
X805588Y289764D01*
X805516Y289711D01*
X805441Y289661D01*
X805365Y289615D01*
X805287Y289572D01*
X805207Y289533D01*
X805125Y289497D01*
X805042Y289464D01*
X804957Y289436D01*
X804872Y289411D01*
X804785Y289389D01*
X804697Y289372D01*
X804609Y289359D01*
X804520Y289349D01*
X804431Y289343D01*
X804342Y289341D01*
X802296Y289341D01*
X804751Y289341D02*
X806388Y286068D01*
X809560Y290160D02*
X812015Y290160D01*
X812093Y290158D01*
X812171Y290153D01*
X812248Y290143D01*
X812325Y290130D01*
X812401Y290114D01*
X812476Y290094D01*
X812550Y290070D01*
X812623Y290043D01*
X812695Y290012D01*
X812765Y289978D01*
X812834Y289941D01*
X812900Y289900D01*
X812965Y289856D01*
X813027Y289810D01*
X813087Y289760D01*
X813145Y289708D01*
X813200Y289653D01*
X813252Y289595D01*
X813302Y289535D01*
X813348Y289473D01*
X813392Y289408D01*
X813433Y289342D01*
X813470Y289273D01*
X813504Y289203D01*
X813535Y289131D01*
X813562Y289058D01*
X813586Y288984D01*
X813606Y288909D01*
X813622Y288833D01*
X813635Y288756D01*
X813645Y288679D01*
X813650Y288601D01*
X813652Y288523D01*
X813652Y288114D01*
X813650Y288025D01*
X813644Y287936D01*
X813634Y287847D01*
X813621Y287759D01*
X813604Y287671D01*
X813582Y287584D01*
X813557Y287499D01*
X813529Y287414D01*
X813496Y287331D01*
X813460Y287249D01*
X813421Y287169D01*
X813378Y287091D01*
X813332Y287015D01*
X813282Y286940D01*
X813229Y286868D01*
X813173Y286799D01*
X813114Y286732D01*
X813053Y286667D01*
X812988Y286606D01*
X812921Y286547D01*
X812852Y286491D01*
X812780Y286438D01*
X812705Y286388D01*
X812629Y286342D01*
X812551Y286299D01*
X812471Y286260D01*
X812389Y286224D01*
X812306Y286191D01*
X812221Y286163D01*
X812136Y286138D01*
X812049Y286116D01*
X811961Y286099D01*
X811873Y286086D01*
X811784Y286076D01*
X811695Y286070D01*
X811606Y286068D01*
X811517Y286070D01*
X811428Y286076D01*
X811339Y286086D01*
X811251Y286099D01*
X811163Y286116D01*
X811076Y286138D01*
X810991Y286163D01*
X810906Y286191D01*
X810823Y286224D01*
X810741Y286260D01*
X810661Y286299D01*
X810583Y286342D01*
X810507Y286388D01*
X810432Y286438D01*
X810360Y286491D01*
X810291Y286547D01*
X810224Y286606D01*
X810159Y286667D01*
X810098Y286732D01*
X810039Y286799D01*
X809983Y286868D01*
X809930Y286940D01*
X809880Y287015D01*
X809834Y287091D01*
X809791Y287169D01*
X809752Y287249D01*
X809716Y287331D01*
X809683Y287414D01*
X809655Y287499D01*
X809630Y287584D01*
X809608Y287671D01*
X809591Y287759D01*
X809578Y287847D01*
X809568Y287936D01*
X809562Y288025D01*
X809560Y288114D01*
X809560Y290160D01*
X809562Y290274D01*
X809568Y290388D01*
X809578Y290502D01*
X809592Y290616D01*
X809610Y290729D01*
X809632Y290841D01*
X809657Y290952D01*
X809687Y291062D01*
X809720Y291172D01*
X809757Y291280D01*
X809798Y291386D01*
X809843Y291492D01*
X809891Y291595D01*
X809943Y291697D01*
X809999Y291797D01*
X810057Y291895D01*
X810120Y291991D01*
X810185Y292084D01*
X810254Y292176D01*
X810326Y292264D01*
X810401Y292351D01*
X810479Y292434D01*
X810560Y292515D01*
X810643Y292593D01*
X810730Y292668D01*
X810818Y292740D01*
X810910Y292809D01*
X811003Y292874D01*
X811099Y292936D01*
X811197Y292995D01*
X811297Y293051D01*
X811399Y293103D01*
X811502Y293151D01*
X811608Y293196D01*
X811714Y293237D01*
X811822Y293274D01*
X811932Y293307D01*
X812042Y293337D01*
X812153Y293362D01*
X812265Y293384D01*
X812378Y293402D01*
X812492Y293416D01*
X812606Y293426D01*
X812720Y293432D01*
X812834Y293434D01*
X802296Y293434D02*
X802296Y286068D01*
X802296Y293434D02*
X804342Y293434D01*
X804342Y293433D02*
X804431Y293431D01*
X804520Y293425D01*
X804609Y293415D01*
X804697Y293402D01*
X804785Y293385D01*
X804872Y293363D01*
X804957Y293338D01*
X805042Y293310D01*
X805125Y293277D01*
X805207Y293241D01*
X805287Y293202D01*
X805365Y293159D01*
X805441Y293113D01*
X805516Y293063D01*
X805588Y293010D01*
X805657Y292954D01*
X805724Y292895D01*
X805789Y292834D01*
X805850Y292769D01*
X805909Y292702D01*
X805965Y292633D01*
X806018Y292561D01*
X806068Y292486D01*
X806114Y292410D01*
X806157Y292332D01*
X806196Y292252D01*
X806232Y292170D01*
X806265Y292087D01*
X806293Y292002D01*
X806318Y291917D01*
X806340Y291830D01*
X806357Y291742D01*
X806370Y291654D01*
X806380Y291565D01*
X806386Y291476D01*
X806388Y291387D01*
X806386Y291298D01*
X806380Y291209D01*
X806370Y291120D01*
X806357Y291032D01*
X806340Y290944D01*
X806318Y290857D01*
X806293Y290772D01*
X806265Y290687D01*
X806232Y290604D01*
X806196Y290522D01*
X806157Y290442D01*
X806114Y290364D01*
X806068Y290288D01*
X806018Y290213D01*
X805965Y290141D01*
X805909Y290072D01*
X805850Y290005D01*
X805789Y289940D01*
X805724Y289879D01*
X805657Y289820D01*
X805588Y289764D01*
X805516Y289711D01*
X805441Y289661D01*
X805365Y289615D01*
X805287Y289572D01*
X805207Y289533D01*
X805125Y289497D01*
X805042Y289464D01*
X804957Y289436D01*
X804872Y289411D01*
X804785Y289389D01*
X804697Y289372D01*
X804609Y289359D01*
X804520Y289349D01*
X804431Y289343D01*
X804342Y289341D01*
X802296Y289341D01*
X804751Y289341D02*
X806388Y286068D01*
X809560Y290160D02*
X812015Y290160D01*
X812093Y290158D01*
X812171Y290153D01*
X812248Y290143D01*
X812325Y290130D01*
X812401Y290114D01*
X812476Y290094D01*
X812550Y290070D01*
X812623Y290043D01*
X812695Y290012D01*
X812765Y289978D01*
X812834Y289941D01*
X812900Y289900D01*
X812965Y289856D01*
X813027Y289810D01*
X813087Y289760D01*
X813145Y289708D01*
X813200Y289653D01*
X813252Y289595D01*
X813302Y289535D01*
X813348Y289473D01*
X813392Y289408D01*
X813433Y289342D01*
X813470Y289273D01*
X813504Y289203D01*
X813535Y289131D01*
X813562Y289058D01*
X813586Y288984D01*
X813606Y288909D01*
X813622Y288833D01*
X813635Y288756D01*
X813645Y288679D01*
X813650Y288601D01*
X813652Y288523D01*
X813652Y288114D01*
X813650Y288025D01*
X813644Y287936D01*
X813634Y287847D01*
X813621Y287759D01*
X813604Y287671D01*
X813582Y287584D01*
X813557Y287499D01*
X813529Y287414D01*
X813496Y287331D01*
X813460Y287249D01*
X813421Y287169D01*
X813378Y287091D01*
X813332Y287015D01*
X813282Y286940D01*
X813229Y286868D01*
X813173Y286799D01*
X813114Y286732D01*
X813053Y286667D01*
X812988Y286606D01*
X812921Y286547D01*
X812852Y286491D01*
X812780Y286438D01*
X812705Y286388D01*
X812629Y286342D01*
X812551Y286299D01*
X812471Y286260D01*
X812389Y286224D01*
X812306Y286191D01*
X812221Y286163D01*
X812136Y286138D01*
X812049Y286116D01*
X811961Y286099D01*
X811873Y286086D01*
X811784Y286076D01*
X811695Y286070D01*
X811606Y286068D01*
X811517Y286070D01*
X811428Y286076D01*
X811339Y286086D01*
X811251Y286099D01*
X811163Y286116D01*
X811076Y286138D01*
X810991Y286163D01*
X810906Y286191D01*
X810823Y286224D01*
X810741Y286260D01*
X810661Y286299D01*
X810583Y286342D01*
X810507Y286388D01*
X810432Y286438D01*
X810360Y286491D01*
X810291Y286547D01*
X810224Y286606D01*
X810159Y286667D01*
X810098Y286732D01*
X810039Y286799D01*
X809983Y286868D01*
X809930Y286940D01*
X809880Y287015D01*
X809834Y287091D01*
X809791Y287169D01*
X809752Y287249D01*
X809716Y287331D01*
X809683Y287414D01*
X809655Y287499D01*
X809630Y287584D01*
X809608Y287671D01*
X809591Y287759D01*
X809578Y287847D01*
X809568Y287936D01*
X809562Y288025D01*
X809560Y288114D01*
X809560Y290160D01*
X809562Y290274D01*
X809568Y290388D01*
X809578Y290502D01*
X809592Y290616D01*
X809610Y290729D01*
X809632Y290841D01*
X809657Y290952D01*
X809687Y291062D01*
X809720Y291172D01*
X809757Y291280D01*
X809798Y291386D01*
X809843Y291492D01*
X809891Y291595D01*
X809943Y291697D01*
X809999Y291797D01*
X810057Y291895D01*
X810120Y291991D01*
X810185Y292084D01*
X810254Y292176D01*
X810326Y292264D01*
X810401Y292351D01*
X810479Y292434D01*
X810560Y292515D01*
X810643Y292593D01*
X810730Y292668D01*
X810818Y292740D01*
X810910Y292809D01*
X811003Y292874D01*
X811099Y292936D01*
X811197Y292995D01*
X811297Y293051D01*
X811399Y293103D01*
X811502Y293151D01*
X811608Y293196D01*
X811714Y293237D01*
X811822Y293274D01*
X811932Y293307D01*
X812042Y293337D01*
X812153Y293362D01*
X812265Y293384D01*
X812378Y293402D01*
X812492Y293416D01*
X812606Y293426D01*
X812720Y293432D01*
X812834Y293434D01*
X802486Y274066D02*
X802486Y266700D01*
X802486Y274066D02*
X804532Y274066D01*
X804621Y274064D01*
X804710Y274058D01*
X804799Y274048D01*
X804887Y274035D01*
X804975Y274018D01*
X805062Y273996D01*
X805147Y273971D01*
X805232Y273943D01*
X805315Y273910D01*
X805397Y273874D01*
X805477Y273835D01*
X805555Y273792D01*
X805631Y273746D01*
X805706Y273696D01*
X805778Y273643D01*
X805847Y273587D01*
X805914Y273528D01*
X805979Y273467D01*
X806040Y273402D01*
X806099Y273335D01*
X806155Y273266D01*
X806208Y273194D01*
X806258Y273119D01*
X806304Y273043D01*
X806347Y272965D01*
X806386Y272885D01*
X806422Y272803D01*
X806455Y272720D01*
X806483Y272635D01*
X806508Y272550D01*
X806530Y272463D01*
X806547Y272375D01*
X806560Y272287D01*
X806570Y272198D01*
X806576Y272109D01*
X806578Y272020D01*
X806576Y271931D01*
X806570Y271842D01*
X806560Y271753D01*
X806547Y271665D01*
X806530Y271577D01*
X806508Y271490D01*
X806483Y271405D01*
X806455Y271320D01*
X806422Y271237D01*
X806386Y271155D01*
X806347Y271075D01*
X806304Y270997D01*
X806258Y270921D01*
X806208Y270846D01*
X806155Y270774D01*
X806099Y270705D01*
X806040Y270638D01*
X805979Y270573D01*
X805914Y270512D01*
X805847Y270453D01*
X805778Y270397D01*
X805706Y270344D01*
X805631Y270294D01*
X805555Y270248D01*
X805477Y270205D01*
X805397Y270166D01*
X805315Y270130D01*
X805232Y270097D01*
X805147Y270069D01*
X805062Y270044D01*
X804975Y270022D01*
X804887Y270005D01*
X804799Y269992D01*
X804710Y269982D01*
X804621Y269976D01*
X804532Y269974D01*
X802486Y269974D01*
X804942Y269974D02*
X806579Y266700D01*
X809750Y273248D02*
X809750Y274066D01*
X813843Y274066D01*
X811797Y266700D01*
X802486Y266700D02*
X802486Y274066D01*
X804532Y274066D01*
X804621Y274064D01*
X804710Y274058D01*
X804799Y274048D01*
X804887Y274035D01*
X804975Y274018D01*
X805062Y273996D01*
X805147Y273971D01*
X805232Y273943D01*
X805315Y273910D01*
X805397Y273874D01*
X805477Y273835D01*
X805555Y273792D01*
X805631Y273746D01*
X805706Y273696D01*
X805778Y273643D01*
X805847Y273587D01*
X805914Y273528D01*
X805979Y273467D01*
X806040Y273402D01*
X806099Y273335D01*
X806155Y273266D01*
X806208Y273194D01*
X806258Y273119D01*
X806304Y273043D01*
X806347Y272965D01*
X806386Y272885D01*
X806422Y272803D01*
X806455Y272720D01*
X806483Y272635D01*
X806508Y272550D01*
X806530Y272463D01*
X806547Y272375D01*
X806560Y272287D01*
X806570Y272198D01*
X806576Y272109D01*
X806578Y272020D01*
X806576Y271931D01*
X806570Y271842D01*
X806560Y271753D01*
X806547Y271665D01*
X806530Y271577D01*
X806508Y271490D01*
X806483Y271405D01*
X806455Y271320D01*
X806422Y271237D01*
X806386Y271155D01*
X806347Y271075D01*
X806304Y270997D01*
X806258Y270921D01*
X806208Y270846D01*
X806155Y270774D01*
X806099Y270705D01*
X806040Y270638D01*
X805979Y270573D01*
X805914Y270512D01*
X805847Y270453D01*
X805778Y270397D01*
X805706Y270344D01*
X805631Y270294D01*
X805555Y270248D01*
X805477Y270205D01*
X805397Y270166D01*
X805315Y270130D01*
X805232Y270097D01*
X805147Y270069D01*
X805062Y270044D01*
X804975Y270022D01*
X804887Y270005D01*
X804799Y269992D01*
X804710Y269982D01*
X804621Y269976D01*
X804532Y269974D01*
X802486Y269974D01*
X804942Y269974D02*
X806579Y266700D01*
X809750Y273248D02*
X809750Y274066D01*
X813843Y274066D01*
X811797Y266700D01*
X802486Y266700D02*
X802486Y274066D01*
X804532Y274066D01*
X804621Y274064D01*
X804710Y274058D01*
X804799Y274048D01*
X804887Y274035D01*
X804975Y274018D01*
X805062Y273996D01*
X805147Y273971D01*
X805232Y273943D01*
X805315Y273910D01*
X805397Y273874D01*
X805477Y273835D01*
X805555Y273792D01*
X805631Y273746D01*
X805706Y273696D01*
X805778Y273643D01*
X805847Y273587D01*
X805914Y273528D01*
X805979Y273467D01*
X806040Y273402D01*
X806099Y273335D01*
X806155Y273266D01*
X806208Y273194D01*
X806258Y273119D01*
X806304Y273043D01*
X806347Y272965D01*
X806386Y272885D01*
X806422Y272803D01*
X806455Y272720D01*
X806483Y272635D01*
X806508Y272550D01*
X806530Y272463D01*
X806547Y272375D01*
X806560Y272287D01*
X806570Y272198D01*
X806576Y272109D01*
X806578Y272020D01*
X806576Y271931D01*
X806570Y271842D01*
X806560Y271753D01*
X806547Y271665D01*
X806530Y271577D01*
X806508Y271490D01*
X806483Y271405D01*
X806455Y271320D01*
X806422Y271237D01*
X806386Y271155D01*
X806347Y271075D01*
X806304Y270997D01*
X806258Y270921D01*
X806208Y270846D01*
X806155Y270774D01*
X806099Y270705D01*
X806040Y270638D01*
X805979Y270573D01*
X805914Y270512D01*
X805847Y270453D01*
X805778Y270397D01*
X805706Y270344D01*
X805631Y270294D01*
X805555Y270248D01*
X805477Y270205D01*
X805397Y270166D01*
X805315Y270130D01*
X805232Y270097D01*
X805147Y270069D01*
X805062Y270044D01*
X804975Y270022D01*
X804887Y270005D01*
X804799Y269992D01*
X804710Y269982D01*
X804621Y269976D01*
X804532Y269974D01*
X802486Y269974D01*
X804942Y269974D02*
X806579Y266700D01*
X809750Y273248D02*
X809750Y274066D01*
X813843Y274066D01*
X811797Y266700D01*
X802486Y266700D02*
X802486Y274066D01*
X804532Y274066D01*
X804621Y274064D01*
X804710Y274058D01*
X804799Y274048D01*
X804887Y274035D01*
X804975Y274018D01*
X805062Y273996D01*
X805147Y273971D01*
X805232Y273943D01*
X805315Y273910D01*
X805397Y273874D01*
X805477Y273835D01*
X805555Y273792D01*
X805631Y273746D01*
X805706Y273696D01*
X805778Y273643D01*
X805847Y273587D01*
X805914Y273528D01*
X805979Y273467D01*
X806040Y273402D01*
X806099Y273335D01*
X806155Y273266D01*
X806208Y273194D01*
X806258Y273119D01*
X806304Y273043D01*
X806347Y272965D01*
X806386Y272885D01*
X806422Y272803D01*
X806455Y272720D01*
X806483Y272635D01*
X806508Y272550D01*
X806530Y272463D01*
X806547Y272375D01*
X806560Y272287D01*
X806570Y272198D01*
X806576Y272109D01*
X806578Y272020D01*
X806576Y271931D01*
X806570Y271842D01*
X806560Y271753D01*
X806547Y271665D01*
X806530Y271577D01*
X806508Y271490D01*
X806483Y271405D01*
X806455Y271320D01*
X806422Y271237D01*
X806386Y271155D01*
X806347Y271075D01*
X806304Y270997D01*
X806258Y270921D01*
X806208Y270846D01*
X806155Y270774D01*
X806099Y270705D01*
X806040Y270638D01*
X805979Y270573D01*
X805914Y270512D01*
X805847Y270453D01*
X805778Y270397D01*
X805706Y270344D01*
X805631Y270294D01*
X805555Y270248D01*
X805477Y270205D01*
X805397Y270166D01*
X805315Y270130D01*
X805232Y270097D01*
X805147Y270069D01*
X805062Y270044D01*
X804975Y270022D01*
X804887Y270005D01*
X804799Y269992D01*
X804710Y269982D01*
X804621Y269976D01*
X804532Y269974D01*
X802486Y269974D01*
X804942Y269974D02*
X806579Y266700D01*
X809750Y273248D02*
X809750Y274066D01*
X813843Y274066D01*
X811797Y266700D01*
X802486Y266700D02*
X802486Y274066D01*
X804532Y274066D01*
X804621Y274064D01*
X804710Y274058D01*
X804799Y274048D01*
X804887Y274035D01*
X804975Y274018D01*
X805062Y273996D01*
X805147Y273971D01*
X805232Y273943D01*
X805315Y273910D01*
X805397Y273874D01*
X805477Y273835D01*
X805555Y273792D01*
X805631Y273746D01*
X805706Y273696D01*
X805778Y273643D01*
X805847Y273587D01*
X805914Y273528D01*
X805979Y273467D01*
X806040Y273402D01*
X806099Y273335D01*
X806155Y273266D01*
X806208Y273194D01*
X806258Y273119D01*
X806304Y273043D01*
X806347Y272965D01*
X806386Y272885D01*
X806422Y272803D01*
X806455Y272720D01*
X806483Y272635D01*
X806508Y272550D01*
X806530Y272463D01*
X806547Y272375D01*
X806560Y272287D01*
X806570Y272198D01*
X806576Y272109D01*
X806578Y272020D01*
X806576Y271931D01*
X806570Y271842D01*
X806560Y271753D01*
X806547Y271665D01*
X806530Y271577D01*
X806508Y271490D01*
X806483Y271405D01*
X806455Y271320D01*
X806422Y271237D01*
X806386Y271155D01*
X806347Y271075D01*
X806304Y270997D01*
X806258Y270921D01*
X806208Y270846D01*
X806155Y270774D01*
X806099Y270705D01*
X806040Y270638D01*
X805979Y270573D01*
X805914Y270512D01*
X805847Y270453D01*
X805778Y270397D01*
X805706Y270344D01*
X805631Y270294D01*
X805555Y270248D01*
X805477Y270205D01*
X805397Y270166D01*
X805315Y270130D01*
X805232Y270097D01*
X805147Y270069D01*
X805062Y270044D01*
X804975Y270022D01*
X804887Y270005D01*
X804799Y269992D01*
X804710Y269982D01*
X804621Y269976D01*
X804532Y269974D01*
X802486Y269974D01*
X804942Y269974D02*
X806579Y266700D01*
X809750Y273248D02*
X809750Y274066D01*
X813843Y274066D01*
X811797Y266700D01*
X802486Y266700D02*
X802486Y274066D01*
X804532Y274066D01*
X804621Y274064D01*
X804710Y274058D01*
X804799Y274048D01*
X804887Y274035D01*
X804975Y274018D01*
X805062Y273996D01*
X805147Y273971D01*
X805232Y273943D01*
X805315Y273910D01*
X805397Y273874D01*
X805477Y273835D01*
X805555Y273792D01*
X805631Y273746D01*
X805706Y273696D01*
X805778Y273643D01*
X805847Y273587D01*
X805914Y273528D01*
X805979Y273467D01*
X806040Y273402D01*
X806099Y273335D01*
X806155Y273266D01*
X806208Y273194D01*
X806258Y273119D01*
X806304Y273043D01*
X806347Y272965D01*
X806386Y272885D01*
X806422Y272803D01*
X806455Y272720D01*
X806483Y272635D01*
X806508Y272550D01*
X806530Y272463D01*
X806547Y272375D01*
X806560Y272287D01*
X806570Y272198D01*
X806576Y272109D01*
X806578Y272020D01*
X806576Y271931D01*
X806570Y271842D01*
X806560Y271753D01*
X806547Y271665D01*
X806530Y271577D01*
X806508Y271490D01*
X806483Y271405D01*
X806455Y271320D01*
X806422Y271237D01*
X806386Y271155D01*
X806347Y271075D01*
X806304Y270997D01*
X806258Y270921D01*
X806208Y270846D01*
X806155Y270774D01*
X806099Y270705D01*
X806040Y270638D01*
X805979Y270573D01*
X805914Y270512D01*
X805847Y270453D01*
X805778Y270397D01*
X805706Y270344D01*
X805631Y270294D01*
X805555Y270248D01*
X805477Y270205D01*
X805397Y270166D01*
X805315Y270130D01*
X805232Y270097D01*
X805147Y270069D01*
X805062Y270044D01*
X804975Y270022D01*
X804887Y270005D01*
X804799Y269992D01*
X804710Y269982D01*
X804621Y269976D01*
X804532Y269974D01*
X802486Y269974D01*
X804942Y269974D02*
X806579Y266700D01*
X809750Y273248D02*
X809750Y274066D01*
X813843Y274066D01*
X811797Y266700D01*
X802486Y266700D02*
X802486Y274066D01*
X804532Y274066D01*
X804621Y274064D01*
X804710Y274058D01*
X804799Y274048D01*
X804887Y274035D01*
X804975Y274018D01*
X805062Y273996D01*
X805147Y273971D01*
X805232Y273943D01*
X805315Y273910D01*
X805397Y273874D01*
X805477Y273835D01*
X805555Y273792D01*
X805631Y273746D01*
X805706Y273696D01*
X805778Y273643D01*
X805847Y273587D01*
X805914Y273528D01*
X805979Y273467D01*
X806040Y273402D01*
X806099Y273335D01*
X806155Y273266D01*
X806208Y273194D01*
X806258Y273119D01*
X806304Y273043D01*
X806347Y272965D01*
X806386Y272885D01*
X806422Y272803D01*
X806455Y272720D01*
X806483Y272635D01*
X806508Y272550D01*
X806530Y272463D01*
X806547Y272375D01*
X806560Y272287D01*
X806570Y272198D01*
X806576Y272109D01*
X806578Y272020D01*
X806576Y271931D01*
X806570Y271842D01*
X806560Y271753D01*
X806547Y271665D01*
X806530Y271577D01*
X806508Y271490D01*
X806483Y271405D01*
X806455Y271320D01*
X806422Y271237D01*
X806386Y271155D01*
X806347Y271075D01*
X806304Y270997D01*
X806258Y270921D01*
X806208Y270846D01*
X806155Y270774D01*
X806099Y270705D01*
X806040Y270638D01*
X805979Y270573D01*
X805914Y270512D01*
X805847Y270453D01*
X805778Y270397D01*
X805706Y270344D01*
X805631Y270294D01*
X805555Y270248D01*
X805477Y270205D01*
X805397Y270166D01*
X805315Y270130D01*
X805232Y270097D01*
X805147Y270069D01*
X805062Y270044D01*
X804975Y270022D01*
X804887Y270005D01*
X804799Y269992D01*
X804710Y269982D01*
X804621Y269976D01*
X804532Y269974D01*
X802486Y269974D01*
X804942Y269974D02*
X806579Y266700D01*
X809750Y273248D02*
X809750Y274066D01*
X813843Y274066D01*
X811797Y266700D01*
D14*
X885064Y192283D02*
X908564Y192283D01*
X908564Y208783D01*
X885064Y208783D01*
D11*
X884208Y187135D02*
X884208Y179769D01*
X887482Y179769D01*
X890548Y179769D02*
X893822Y179769D01*
X890548Y179769D02*
X890548Y187135D01*
X893822Y187135D01*
X893004Y183861D02*
X890548Y183861D01*
X896872Y187135D02*
X896872Y179769D01*
X896872Y187135D02*
X898918Y187135D01*
X898918Y187134D02*
X899007Y187132D01*
X899096Y187126D01*
X899185Y187116D01*
X899273Y187103D01*
X899361Y187086D01*
X899448Y187064D01*
X899533Y187039D01*
X899618Y187011D01*
X899701Y186978D01*
X899783Y186942D01*
X899863Y186903D01*
X899941Y186860D01*
X900017Y186814D01*
X900092Y186764D01*
X900164Y186711D01*
X900233Y186655D01*
X900300Y186596D01*
X900365Y186535D01*
X900426Y186470D01*
X900485Y186403D01*
X900541Y186334D01*
X900594Y186262D01*
X900644Y186187D01*
X900690Y186111D01*
X900733Y186033D01*
X900772Y185953D01*
X900808Y185871D01*
X900841Y185788D01*
X900869Y185703D01*
X900894Y185618D01*
X900916Y185531D01*
X900933Y185443D01*
X900946Y185355D01*
X900956Y185266D01*
X900962Y185177D01*
X900964Y185088D01*
X900965Y185088D02*
X900965Y181815D01*
X900964Y181815D02*
X900962Y181726D01*
X900956Y181637D01*
X900946Y181548D01*
X900933Y181460D01*
X900916Y181372D01*
X900894Y181285D01*
X900869Y181200D01*
X900841Y181115D01*
X900808Y181032D01*
X900772Y180950D01*
X900733Y180870D01*
X900690Y180792D01*
X900644Y180716D01*
X900594Y180641D01*
X900541Y180569D01*
X900485Y180500D01*
X900426Y180433D01*
X900365Y180368D01*
X900300Y180307D01*
X900233Y180248D01*
X900164Y180192D01*
X900092Y180139D01*
X900017Y180089D01*
X899941Y180043D01*
X899863Y180000D01*
X899783Y179961D01*
X899701Y179925D01*
X899618Y179892D01*
X899533Y179864D01*
X899448Y179839D01*
X899361Y179817D01*
X899273Y179800D01*
X899185Y179787D01*
X899096Y179777D01*
X899007Y179771D01*
X898918Y179769D01*
X896872Y179769D01*
X904431Y179769D02*
X906477Y179769D01*
X906566Y179771D01*
X906655Y179777D01*
X906744Y179787D01*
X906832Y179800D01*
X906920Y179817D01*
X907007Y179839D01*
X907092Y179864D01*
X907177Y179892D01*
X907260Y179925D01*
X907342Y179961D01*
X907422Y180000D01*
X907500Y180043D01*
X907576Y180089D01*
X907651Y180139D01*
X907723Y180192D01*
X907792Y180248D01*
X907859Y180307D01*
X907924Y180368D01*
X907985Y180433D01*
X908044Y180500D01*
X908100Y180569D01*
X908153Y180641D01*
X908203Y180716D01*
X908249Y180792D01*
X908292Y180870D01*
X908331Y180950D01*
X908367Y181032D01*
X908400Y181115D01*
X908428Y181200D01*
X908453Y181285D01*
X908475Y181372D01*
X908492Y181460D01*
X908505Y181548D01*
X908515Y181637D01*
X908521Y181726D01*
X908523Y181815D01*
X908521Y181904D01*
X908515Y181993D01*
X908505Y182082D01*
X908492Y182170D01*
X908475Y182258D01*
X908453Y182345D01*
X908428Y182430D01*
X908400Y182515D01*
X908367Y182598D01*
X908331Y182680D01*
X908292Y182760D01*
X908249Y182838D01*
X908203Y182914D01*
X908153Y182989D01*
X908100Y183061D01*
X908044Y183130D01*
X907985Y183197D01*
X907924Y183262D01*
X907859Y183323D01*
X907792Y183382D01*
X907723Y183438D01*
X907651Y183491D01*
X907576Y183541D01*
X907500Y183587D01*
X907422Y183630D01*
X907342Y183669D01*
X907260Y183705D01*
X907177Y183738D01*
X907092Y183766D01*
X907007Y183791D01*
X906920Y183813D01*
X906832Y183830D01*
X906744Y183843D01*
X906655Y183853D01*
X906566Y183859D01*
X906477Y183861D01*
X906887Y187135D02*
X904431Y187135D01*
X906887Y187135D02*
X906966Y187133D01*
X907045Y187127D01*
X907124Y187118D01*
X907202Y187105D01*
X907279Y187087D01*
X907355Y187067D01*
X907430Y187042D01*
X907504Y187014D01*
X907577Y186983D01*
X907648Y186947D01*
X907717Y186909D01*
X907784Y186867D01*
X907849Y186822D01*
X907912Y186774D01*
X907973Y186723D01*
X908030Y186669D01*
X908086Y186613D01*
X908138Y186554D01*
X908188Y186492D01*
X908234Y186428D01*
X908278Y186362D01*
X908318Y186294D01*
X908354Y186224D01*
X908388Y186152D01*
X908418Y186078D01*
X908444Y186004D01*
X908467Y185928D01*
X908485Y185851D01*
X908501Y185774D01*
X908512Y185695D01*
X908520Y185617D01*
X908524Y185538D01*
X908524Y185458D01*
X908520Y185379D01*
X908512Y185301D01*
X908501Y185222D01*
X908485Y185145D01*
X908467Y185068D01*
X908444Y184992D01*
X908418Y184918D01*
X908388Y184844D01*
X908354Y184772D01*
X908318Y184702D01*
X908278Y184634D01*
X908234Y184568D01*
X908188Y184504D01*
X908138Y184442D01*
X908086Y184383D01*
X908030Y184327D01*
X907973Y184273D01*
X907912Y184222D01*
X907849Y184174D01*
X907784Y184129D01*
X907717Y184087D01*
X907648Y184049D01*
X907577Y184013D01*
X907504Y183982D01*
X907430Y183954D01*
X907355Y183929D01*
X907279Y183909D01*
X907202Y183891D01*
X907124Y183878D01*
X907045Y183869D01*
X906966Y183863D01*
X906887Y183861D01*
X905250Y183861D01*
D12*
X816877Y220355D02*
X798877Y220355D01*
X816877Y220355D02*
X816877Y245355D01*
X815377Y245355D01*
X799377Y245355D02*
X780377Y245355D01*
X764377Y245355D02*
X762877Y245355D01*
X762877Y220355D01*
X781377Y220355D01*
D14*
X806377Y256505D02*
X806379Y256568D01*
X806385Y256630D01*
X806395Y256692D01*
X806408Y256754D01*
X806426Y256814D01*
X806447Y256873D01*
X806472Y256931D01*
X806501Y256987D01*
X806533Y257041D01*
X806568Y257093D01*
X806606Y257142D01*
X806648Y257190D01*
X806692Y257234D01*
X806740Y257276D01*
X806789Y257314D01*
X806841Y257349D01*
X806895Y257381D01*
X806951Y257410D01*
X807009Y257435D01*
X807068Y257456D01*
X807128Y257474D01*
X807190Y257487D01*
X807252Y257497D01*
X807314Y257503D01*
X807377Y257505D01*
X807440Y257503D01*
X807502Y257497D01*
X807564Y257487D01*
X807626Y257474D01*
X807686Y257456D01*
X807745Y257435D01*
X807803Y257410D01*
X807859Y257381D01*
X807913Y257349D01*
X807965Y257314D01*
X808014Y257276D01*
X808062Y257234D01*
X808106Y257190D01*
X808148Y257142D01*
X808186Y257093D01*
X808221Y257041D01*
X808253Y256987D01*
X808282Y256931D01*
X808307Y256873D01*
X808328Y256814D01*
X808346Y256754D01*
X808359Y256692D01*
X808369Y256630D01*
X808375Y256568D01*
X808377Y256505D01*
X808375Y256442D01*
X808369Y256380D01*
X808359Y256318D01*
X808346Y256256D01*
X808328Y256196D01*
X808307Y256137D01*
X808282Y256079D01*
X808253Y256023D01*
X808221Y255969D01*
X808186Y255917D01*
X808148Y255868D01*
X808106Y255820D01*
X808062Y255776D01*
X808014Y255734D01*
X807965Y255696D01*
X807913Y255661D01*
X807859Y255629D01*
X807803Y255600D01*
X807745Y255575D01*
X807686Y255554D01*
X807626Y255536D01*
X807564Y255523D01*
X807502Y255513D01*
X807440Y255507D01*
X807377Y255505D01*
X807314Y255507D01*
X807252Y255513D01*
X807190Y255523D01*
X807128Y255536D01*
X807068Y255554D01*
X807009Y255575D01*
X806951Y255600D01*
X806895Y255629D01*
X806841Y255661D01*
X806789Y255696D01*
X806740Y255734D01*
X806692Y255776D01*
X806648Y255820D01*
X806606Y255868D01*
X806568Y255917D01*
X806533Y255969D01*
X806501Y256023D01*
X806472Y256079D01*
X806447Y256137D01*
X806426Y256196D01*
X806408Y256256D01*
X806395Y256318D01*
X806385Y256380D01*
X806379Y256442D01*
X806377Y256505D01*
D11*
X807041Y208682D02*
X807039Y208604D01*
X807034Y208526D01*
X807024Y208449D01*
X807011Y208372D01*
X806995Y208296D01*
X806975Y208221D01*
X806951Y208147D01*
X806924Y208074D01*
X806893Y208002D01*
X806859Y207932D01*
X806822Y207864D01*
X806781Y207797D01*
X806737Y207732D01*
X806691Y207670D01*
X806641Y207610D01*
X806589Y207552D01*
X806534Y207497D01*
X806476Y207445D01*
X806416Y207395D01*
X806354Y207349D01*
X806289Y207305D01*
X806223Y207264D01*
X806154Y207227D01*
X806084Y207193D01*
X806012Y207162D01*
X805939Y207135D01*
X805865Y207111D01*
X805790Y207091D01*
X805714Y207075D01*
X805637Y207062D01*
X805560Y207052D01*
X805482Y207047D01*
X805404Y207045D01*
X805290Y207047D01*
X805177Y207052D01*
X805063Y207062D01*
X804950Y207075D01*
X804838Y207092D01*
X804726Y207112D01*
X804615Y207136D01*
X804504Y207164D01*
X804395Y207195D01*
X804287Y207230D01*
X804180Y207269D01*
X804074Y207311D01*
X803970Y207356D01*
X803867Y207405D01*
X803766Y207458D01*
X803667Y207513D01*
X803569Y207572D01*
X803474Y207634D01*
X803381Y207699D01*
X803289Y207767D01*
X803201Y207838D01*
X803114Y207912D01*
X803030Y207989D01*
X802949Y208068D01*
X803153Y212774D02*
X803155Y212852D01*
X803160Y212930D01*
X803170Y213007D01*
X803183Y213084D01*
X803199Y213160D01*
X803219Y213235D01*
X803243Y213309D01*
X803270Y213382D01*
X803301Y213454D01*
X803335Y213524D01*
X803372Y213593D01*
X803413Y213659D01*
X803457Y213724D01*
X803503Y213786D01*
X803553Y213846D01*
X803605Y213904D01*
X803660Y213959D01*
X803718Y214011D01*
X803778Y214061D01*
X803840Y214107D01*
X803905Y214151D01*
X803972Y214192D01*
X804040Y214229D01*
X804110Y214263D01*
X804182Y214294D01*
X804255Y214321D01*
X804329Y214345D01*
X804404Y214365D01*
X804480Y214381D01*
X804557Y214394D01*
X804634Y214404D01*
X804712Y214409D01*
X804790Y214411D01*
X804900Y214409D01*
X805009Y214403D01*
X805119Y214393D01*
X805227Y214380D01*
X805336Y214362D01*
X805443Y214341D01*
X805550Y214315D01*
X805656Y214286D01*
X805761Y214254D01*
X805864Y214217D01*
X805966Y214177D01*
X806067Y214133D01*
X806166Y214085D01*
X806263Y214035D01*
X806358Y213980D01*
X806451Y213922D01*
X806542Y213861D01*
X806631Y213797D01*
X803972Y211341D02*
X803905Y211383D01*
X803840Y211427D01*
X803778Y211475D01*
X803718Y211525D01*
X803660Y211578D01*
X803605Y211634D01*
X803553Y211693D01*
X803503Y211753D01*
X803456Y211817D01*
X803413Y211882D01*
X803372Y211949D01*
X803335Y212018D01*
X803301Y212089D01*
X803270Y212161D01*
X803243Y212235D01*
X803219Y212309D01*
X803199Y212385D01*
X803183Y212462D01*
X803170Y212539D01*
X803160Y212617D01*
X803155Y212696D01*
X803153Y212774D01*
X806223Y210114D02*
X806289Y210072D01*
X806354Y210028D01*
X806416Y209981D01*
X806476Y209930D01*
X806534Y209877D01*
X806589Y209821D01*
X806642Y209763D01*
X806691Y209702D01*
X806738Y209639D01*
X806781Y209574D01*
X806822Y209507D01*
X806859Y209438D01*
X806893Y209367D01*
X806924Y209295D01*
X806951Y209221D01*
X806975Y209146D01*
X806995Y209071D01*
X807011Y208994D01*
X807024Y208917D01*
X807034Y208839D01*
X807039Y208760D01*
X807041Y208682D01*
X806223Y210114D02*
X803972Y211342D01*
X810020Y207045D02*
X812066Y207045D01*
X812155Y207047D01*
X812244Y207053D01*
X812333Y207063D01*
X812421Y207076D01*
X812509Y207093D01*
X812596Y207115D01*
X812681Y207140D01*
X812766Y207168D01*
X812849Y207201D01*
X812931Y207237D01*
X813011Y207276D01*
X813089Y207319D01*
X813165Y207365D01*
X813240Y207415D01*
X813312Y207468D01*
X813381Y207524D01*
X813448Y207583D01*
X813513Y207644D01*
X813574Y207709D01*
X813633Y207776D01*
X813689Y207845D01*
X813742Y207917D01*
X813792Y207992D01*
X813838Y208068D01*
X813881Y208146D01*
X813920Y208226D01*
X813956Y208308D01*
X813989Y208391D01*
X814017Y208476D01*
X814042Y208561D01*
X814064Y208648D01*
X814081Y208736D01*
X814094Y208824D01*
X814104Y208913D01*
X814110Y209002D01*
X814112Y209091D01*
X814110Y209180D01*
X814104Y209269D01*
X814094Y209358D01*
X814081Y209446D01*
X814064Y209534D01*
X814042Y209621D01*
X814017Y209706D01*
X813989Y209791D01*
X813956Y209874D01*
X813920Y209956D01*
X813881Y210036D01*
X813838Y210114D01*
X813792Y210190D01*
X813742Y210265D01*
X813689Y210337D01*
X813633Y210406D01*
X813574Y210473D01*
X813513Y210538D01*
X813448Y210599D01*
X813381Y210658D01*
X813312Y210714D01*
X813240Y210767D01*
X813165Y210817D01*
X813089Y210863D01*
X813011Y210906D01*
X812931Y210945D01*
X812849Y210981D01*
X812766Y211014D01*
X812681Y211042D01*
X812596Y211067D01*
X812509Y211089D01*
X812421Y211106D01*
X812333Y211119D01*
X812244Y211129D01*
X812155Y211135D01*
X812066Y211137D01*
X812476Y214411D02*
X810020Y214411D01*
X812476Y214411D02*
X812555Y214409D01*
X812634Y214403D01*
X812713Y214394D01*
X812791Y214381D01*
X812868Y214363D01*
X812944Y214343D01*
X813019Y214318D01*
X813093Y214290D01*
X813166Y214259D01*
X813237Y214223D01*
X813306Y214185D01*
X813373Y214143D01*
X813438Y214098D01*
X813501Y214050D01*
X813562Y213999D01*
X813619Y213945D01*
X813675Y213889D01*
X813727Y213830D01*
X813777Y213768D01*
X813823Y213704D01*
X813867Y213638D01*
X813907Y213570D01*
X813943Y213500D01*
X813977Y213428D01*
X814007Y213354D01*
X814033Y213280D01*
X814056Y213204D01*
X814074Y213127D01*
X814090Y213050D01*
X814101Y212971D01*
X814109Y212893D01*
X814113Y212814D01*
X814113Y212734D01*
X814109Y212655D01*
X814101Y212577D01*
X814090Y212498D01*
X814074Y212421D01*
X814056Y212344D01*
X814033Y212268D01*
X814007Y212194D01*
X813977Y212120D01*
X813943Y212048D01*
X813907Y211978D01*
X813867Y211910D01*
X813823Y211844D01*
X813777Y211780D01*
X813727Y211718D01*
X813675Y211659D01*
X813619Y211603D01*
X813562Y211549D01*
X813501Y211498D01*
X813438Y211450D01*
X813373Y211405D01*
X813306Y211363D01*
X813237Y211325D01*
X813166Y211289D01*
X813093Y211258D01*
X813019Y211230D01*
X812944Y211205D01*
X812868Y211185D01*
X812791Y211167D01*
X812713Y211154D01*
X812634Y211145D01*
X812555Y211139D01*
X812476Y211137D01*
X810839Y211137D01*
M02*
