G04 EAGLE Gerber RS-274X export*
G75*
%MOMM*%
%FSLAX34Y34*%
%LPD*%
%INSoldermask Top*%
%IPPOS*%
%AMOC8*
5,1,8,0,0,1.08239X$1,22.5*%
G01*
%ADD10R,1.727200X1.727200*%
%ADD11C,1.727200*%
%ADD12R,1.403200X2.203200*%
%ADD13R,1.903200X1.303200*%
%ADD14R,0.953200X0.803200*%
%ADD15R,1.253200X0.853200*%
%ADD16R,1.003200X1.153200*%
%ADD17R,1.203200X1.803200*%
%ADD18C,0.959600*%


D10*
X596964Y41275D03*
D11*
X622364Y41275D03*
X647764Y41275D03*
X673164Y41275D03*
X698564Y41275D03*
X723964Y41275D03*
X749364Y41275D03*
X774764Y41275D03*
X800164Y41275D03*
X825564Y41275D03*
X850964Y41275D03*
D10*
X850011Y560515D03*
D11*
X824611Y560515D03*
X799211Y560515D03*
X773811Y560515D03*
X748411Y560515D03*
X723011Y560515D03*
X697611Y560515D03*
X672211Y560515D03*
X646811Y560515D03*
X621411Y560515D03*
X596011Y560515D03*
D12*
X533250Y229165D03*
X553250Y229165D03*
X573250Y229165D03*
X593250Y229165D03*
X613250Y229165D03*
X633250Y229165D03*
X653250Y229165D03*
X673250Y229165D03*
X673250Y379165D03*
X653250Y379165D03*
X633250Y379165D03*
X613250Y379165D03*
X593250Y379165D03*
X573250Y379165D03*
X553250Y379165D03*
X533250Y379165D03*
D13*
X688250Y254165D03*
X688250Y274165D03*
X688250Y294165D03*
X688250Y314165D03*
X688250Y334165D03*
X688250Y354165D03*
D14*
X784377Y391351D03*
X795377Y391351D03*
D15*
X485282Y541547D03*
X526782Y541547D03*
X485282Y520047D03*
X526782Y520047D03*
X485409Y82188D03*
X526909Y82188D03*
X485409Y60688D03*
X526909Y60688D03*
D14*
X784250Y370967D03*
X795250Y370967D03*
X784313Y351346D03*
X795313Y351346D03*
D16*
X901128Y408686D03*
X885128Y408686D03*
D14*
X784250Y330708D03*
X795250Y330708D03*
X784504Y309753D03*
X795504Y309753D03*
D16*
X901191Y305562D03*
X885191Y305562D03*
D14*
X784250Y289751D03*
X795250Y289751D03*
X784440Y270383D03*
X795440Y270383D03*
D16*
X901064Y200533D03*
X885064Y200533D03*
D17*
X789877Y221355D03*
X807377Y244355D03*
X772377Y244355D03*
D18*
X638400Y395200D03*
X657600Y395200D03*
X598400Y137600D03*
X624000Y137600D03*
X619200Y152000D03*
X577600Y51200D03*
X859200Y30400D03*
X764800Y377600D03*
X691200Y377600D03*
X828800Y377600D03*
X545600Y307200D03*
X822400Y307200D03*
X531200Y267200D03*
X550400Y267200D03*
X776000Y321600D03*
X795200Y321600D03*
X822400Y353600D03*
X840000Y350400D03*
X760000Y321600D03*
X772800Y297600D03*
X641600Y297600D03*
X774400Y276800D03*
X760000Y276800D03*
X601600Y276800D03*
X772800Y363200D03*
X627200Y363200D03*
X868800Y408000D03*
X601600Y408000D03*
X795200Y340800D03*
X822400Y340800D03*
X795200Y300800D03*
X913600Y300800D03*
X760000Y291200D03*
X555200Y291200D03*
M02*
