G04 EAGLE Gerber RS-274X export*
G75*
%MOMM*%
%FSLAX34Y34*%
%LPD*%
%INBottom Copper*%
%IPPOS*%
%AMOC8*
5,1,8,0,0,1.08239X$1,22.5*%
G01*
%ADD10C,1.650000*%
%ADD11R,1.524000X1.524000*%
%ADD12C,1.524000*%
%ADD13C,1.270000*%
%ADD14C,0.152400*%
%ADD15C,0.756400*%
%ADD16C,3.000000*%


D10*
X901947Y401162D03*
X901947Y426562D03*
X876547Y426562D03*
X876547Y401162D03*
X901947Y375762D03*
X876547Y375762D03*
X901947Y350362D03*
X876547Y350362D03*
X901947Y324962D03*
X876547Y324962D03*
X901947Y299562D03*
X876547Y299562D03*
X901947Y274162D03*
X876547Y274162D03*
X901947Y248762D03*
X876547Y248762D03*
X901947Y223362D03*
X876547Y223362D03*
X901947Y197962D03*
X876547Y197962D03*
X901947Y172562D03*
X876547Y172562D03*
D11*
X596964Y41275D03*
D12*
X622364Y41275D03*
X647764Y41275D03*
X673164Y41275D03*
X698564Y41275D03*
X723964Y41275D03*
X749364Y41275D03*
X774764Y41275D03*
X800164Y41275D03*
X825564Y41275D03*
X850964Y41275D03*
D11*
X850011Y560515D03*
D12*
X824611Y560515D03*
X799211Y560515D03*
X773811Y560515D03*
X748411Y560515D03*
X723011Y560515D03*
X697611Y560515D03*
X672211Y560515D03*
X646811Y560515D03*
X621411Y560515D03*
X596011Y560515D03*
D13*
X47638Y242424D03*
X47638Y192424D03*
X20638Y252424D03*
X20638Y182424D03*
D14*
X540800Y238400D02*
X640000Y238400D01*
X644000Y234400D01*
X660000Y234400D02*
X680000Y234400D01*
X660000Y234400D02*
X644000Y234400D01*
D15*
X540800Y238400D03*
X680000Y234400D03*
X541600Y370400D03*
X661600Y355200D03*
X660000Y234400D03*
D14*
X574544Y370400D02*
X541600Y370400D01*
X574544Y370400D02*
X576040Y368903D01*
X580644Y368903D01*
X581645Y369904D01*
X583511Y369904D01*
X586733Y373126D01*
X609283Y373126D01*
X627209Y355200D01*
X661600Y355200D01*
X650400Y213600D02*
X573600Y213600D01*
D15*
X573600Y213600D03*
X650400Y213600D03*
D14*
X709600Y191200D02*
X540800Y191200D01*
D15*
X540800Y191200D03*
X709600Y191200D03*
D14*
X270400Y240000D02*
X231200Y240000D01*
X236800Y153600D02*
X232000Y148800D01*
X236800Y153600D02*
X249600Y153600D01*
X495821Y193600D02*
X499758Y197537D01*
X495821Y193600D02*
X471200Y193600D01*
X529359Y303759D02*
X531200Y305600D01*
X529359Y303759D02*
X498525Y303759D01*
X272800Y193600D02*
X271200Y195200D01*
X272800Y193600D02*
X471200Y193600D01*
X231200Y240000D02*
X219200Y228000D01*
X167200Y228000D01*
X163200Y224000D01*
X163200Y208000D01*
X258400Y208000D01*
X271200Y195200D01*
X681600Y287200D02*
X695200Y287200D01*
X655200Y399200D02*
X542400Y399200D01*
X665600Y388800D02*
X711200Y388800D01*
X665600Y388800D02*
X655200Y399200D01*
X180000Y412800D02*
X34400Y412800D01*
X180000Y416000D02*
X196800Y432800D01*
X180000Y416000D02*
X180000Y412800D01*
X632800Y574400D02*
X646400Y560800D01*
X632800Y574400D02*
X590400Y574400D01*
X588800Y572800D01*
X381600Y572800D01*
X378400Y576000D01*
X646400Y560800D02*
X646811Y560515D01*
X529600Y412000D02*
X542400Y399200D01*
X529600Y412000D02*
X302400Y412000D01*
X300000Y409600D01*
X183200Y409600D01*
X180000Y412800D01*
X526719Y317575D02*
X529093Y315200D01*
X526719Y317575D02*
X526719Y321258D01*
X529093Y315200D02*
X629600Y315200D01*
X657600Y287200D01*
X681600Y287200D01*
D15*
X270400Y240000D03*
X231200Y240000D03*
X232000Y148800D03*
X249600Y153600D03*
X471200Y193600D03*
X499758Y197537D03*
X531200Y305600D03*
X498525Y303759D03*
X271200Y195200D03*
X695200Y287200D03*
X681600Y287200D03*
X655200Y399200D03*
X542400Y399200D03*
X711200Y388800D03*
X180000Y412800D03*
X34400Y412800D03*
X196800Y432800D03*
X378400Y576000D03*
X526719Y321258D03*
D14*
X499391Y396000D02*
X495784Y399607D01*
X499391Y396000D02*
X536800Y396000D01*
X540000Y392800D01*
X563200Y392800D01*
X566400Y396000D01*
X591291Y396000D01*
X601601Y385690D01*
D15*
X495784Y399607D03*
X601601Y385690D03*
X597130Y360167D03*
X694400Y352800D03*
D14*
X667782Y352800D01*
X664114Y349132D01*
X612610Y349132D01*
X601575Y360167D02*
X597130Y360167D01*
X601575Y360167D02*
X612610Y349132D01*
X499696Y160000D02*
X471200Y160000D01*
X376000Y560000D02*
X596000Y560000D01*
X596011Y560515D01*
X470400Y451200D02*
X467200Y454400D01*
X318400Y454400D01*
D15*
X471200Y160000D03*
X499696Y160000D03*
X471353Y296597D03*
X577220Y298819D03*
X376000Y560000D03*
X470400Y451200D03*
X318400Y454400D03*
D14*
X471353Y296597D02*
X473881Y294069D01*
X480314Y294069D01*
X485446Y299200D01*
X494502Y299200D01*
X496011Y297691D01*
X540672Y297691D02*
X541801Y298819D01*
X577220Y298819D01*
X540672Y297691D02*
X496011Y297691D01*
X857600Y445600D02*
X870400Y458400D01*
X280800Y432800D02*
X268000Y432800D01*
X473385Y290185D02*
X499531Y290185D01*
X473385Y290185D02*
X470400Y287200D01*
X464800Y207200D02*
X482600Y207200D01*
X570400Y207200D02*
X573600Y204000D01*
X567200Y207200D02*
X521653Y207200D01*
X567200Y207200D02*
X570400Y207200D01*
X685600Y225600D02*
X686400Y226400D01*
X685600Y225600D02*
X614400Y225600D01*
X613600Y226400D01*
X577600Y226400D01*
X567200Y216000D01*
X567200Y207200D01*
X470400Y287200D02*
X457600Y287200D01*
X315200Y228000D02*
X254400Y228000D01*
X315200Y228000D02*
X322400Y220800D01*
X348000Y220800D01*
X351200Y224000D01*
X386525Y224000D01*
X611200Y550400D02*
X620800Y560000D01*
X611200Y550400D02*
X312000Y550400D01*
X307200Y545600D01*
X620800Y560000D02*
X621411Y560515D01*
D15*
X857600Y445600D03*
X870400Y458400D03*
X280800Y432800D03*
X268000Y432800D03*
X470400Y287200D03*
X499531Y290185D03*
X464800Y207200D03*
X499188Y210947D03*
X573600Y204000D03*
X686400Y226400D03*
X457600Y287200D03*
X254400Y228000D03*
X307200Y545600D03*
D14*
X386525Y224000D02*
X403325Y207200D01*
X464800Y207200D01*
X499188Y210947D02*
X517906Y210947D01*
X521653Y207200D01*
X499188Y210947D02*
X486347Y210947D01*
X482600Y207200D01*
X855200Y363200D02*
X856800Y361600D01*
X890400Y361600D01*
X901600Y350400D01*
X901947Y350362D01*
D15*
X855200Y363200D03*
D14*
X721600Y205600D02*
X617600Y205600D01*
D15*
X721600Y205600D03*
X617600Y205600D03*
X352800Y270400D03*
X577372Y270337D03*
D14*
X542781Y270337D01*
X540512Y272606D01*
X516873Y272606D01*
X508318Y264050D01*
X394191Y270400D02*
X352800Y270400D01*
X400541Y264050D02*
X508318Y264050D01*
X400541Y264050D02*
X394191Y270400D01*
X709549Y168800D02*
X728000Y168800D01*
X392495Y242134D02*
X391987Y242642D01*
X370540Y242642D01*
X456800Y176800D02*
X592609Y176800D01*
X603925Y165485D01*
D15*
X728000Y168800D03*
X603925Y165485D03*
X370540Y242642D03*
X392495Y242134D03*
X456800Y176800D03*
D14*
X702518Y175832D02*
X709549Y168800D01*
X614272Y175832D02*
X603925Y165485D01*
X614272Y175832D02*
X702518Y175832D01*
X564800Y389600D02*
X501600Y389600D01*
X564800Y389600D02*
X568000Y392800D01*
X572800Y392800D01*
X578400Y387200D01*
X578400Y376800D01*
X611200Y220000D02*
X725600Y220000D01*
X582248Y372952D02*
X578400Y376800D01*
X602527Y270452D02*
X609549Y270452D01*
X615200Y264800D01*
D15*
X501600Y389600D03*
X578400Y376800D03*
X611200Y220000D03*
X725600Y220000D03*
X616800Y376000D03*
X615200Y264800D03*
X602527Y270452D03*
D14*
X582248Y372952D02*
X587693Y378397D01*
X614404Y378397D02*
X616800Y376000D01*
X614404Y378397D02*
X587693Y378397D01*
X715200Y175200D02*
X736000Y175200D01*
D15*
X715200Y175200D03*
X736000Y175200D03*
D14*
X779200Y158400D02*
X903200Y158400D01*
X914400Y169600D01*
X914400Y204800D01*
X901600Y401600D02*
X876800Y401600D01*
X876547Y401162D01*
X901600Y401600D02*
X901947Y401162D01*
D15*
X779200Y158400D03*
X914400Y204800D03*
D14*
X874400Y348000D02*
X805600Y348000D01*
X874400Y348000D02*
X876000Y349600D01*
X876547Y350362D01*
D15*
X805600Y348000D03*
D14*
X807200Y253600D02*
X794400Y253600D01*
X789600Y253600D01*
X853600Y275200D02*
X856000Y277600D01*
X853600Y275200D02*
X798400Y275200D01*
X794400Y271200D01*
X794400Y253600D01*
D15*
X789600Y253600D03*
X807200Y253600D03*
X856000Y277600D03*
D14*
X774400Y292800D02*
X774400Y296000D01*
X770400Y300000D01*
X770400Y312800D01*
X798400Y312800D02*
X889600Y312800D01*
X798400Y312800D02*
X770400Y312800D01*
X889600Y312800D02*
X901600Y324800D01*
X901947Y324962D01*
X818400Y354400D02*
X798400Y354400D01*
D15*
X774400Y292800D03*
X818400Y354400D03*
X798400Y354400D03*
X798400Y312800D03*
D14*
X812000Y369600D02*
X867200Y369600D01*
X872000Y364800D01*
X903200Y364800D01*
X912800Y355200D01*
X912800Y300000D01*
X902400Y300000D01*
X901947Y299562D01*
D15*
X812000Y369600D03*
D14*
X736000Y260800D02*
X653600Y260800D01*
X568800Y200000D02*
X524193Y200000D01*
X475044Y200000D02*
X331200Y200000D01*
X568800Y200000D02*
X571200Y197600D01*
X636000Y197600D01*
D15*
X653600Y260800D03*
X736000Y260800D03*
X331200Y200000D03*
X636000Y197600D03*
D14*
X479196Y204152D02*
X475044Y200000D01*
X479196Y204152D02*
X500975Y204152D01*
X502753Y205931D01*
X518262Y205931D02*
X524193Y200000D01*
X518262Y205931D02*
X502753Y205931D01*
X650400Y247200D02*
X736000Y247200D01*
X352800Y293600D02*
X336800Y293600D01*
X364800Y233600D02*
X536800Y233600D01*
X538400Y232000D01*
X636000Y232000D01*
D15*
X650400Y247200D03*
X736000Y247200D03*
X352800Y293600D03*
X336800Y293600D03*
X364800Y233600D03*
X636000Y232000D03*
D14*
X642400Y240800D02*
X726400Y240800D01*
X642400Y240800D02*
X636800Y246400D01*
X636000Y246400D01*
X364000Y276800D02*
X350400Y276800D01*
X338400Y264800D01*
X338400Y251841D01*
X537655Y244800D02*
X637600Y244800D01*
X636000Y246400D01*
D15*
X726400Y240800D03*
X636000Y246400D03*
X364000Y276800D03*
D14*
X529503Y236648D02*
X537655Y244800D01*
X414973Y236648D02*
X411480Y236648D01*
X414973Y236648D02*
X529503Y236648D01*
X341512Y248730D02*
X338400Y251841D01*
X341512Y248730D02*
X343980Y248730D01*
X346782Y251532D01*
X375345Y251532D01*
X377749Y253937D01*
X394192Y253937D02*
X411480Y236648D01*
X394192Y253937D02*
X377749Y253937D01*
X660800Y213600D02*
X753600Y213600D01*
X641600Y254400D02*
X638400Y257600D01*
D15*
X660800Y213600D03*
X753600Y213600D03*
X372800Y261880D03*
X641600Y254400D03*
D14*
X402680Y257600D02*
X398401Y261880D01*
X402680Y257600D02*
X638400Y257600D01*
X398401Y261880D02*
X372800Y261880D01*
X684800Y328800D02*
X789600Y328800D01*
X850400Y328800D01*
X534400Y227200D02*
X531606Y224406D01*
X499695Y224406D01*
X496774Y227327D01*
X29600Y192000D02*
X20800Y183200D01*
X29600Y192000D02*
X47200Y192000D01*
X20800Y183200D02*
X20638Y182424D01*
X47200Y192000D02*
X47638Y192424D01*
X29600Y243200D02*
X20800Y252000D01*
X29600Y243200D02*
X47200Y243200D01*
X20800Y252000D02*
X20638Y252424D01*
X47200Y243200D02*
X47638Y242424D01*
X219200Y356800D02*
X280800Y356800D01*
X324927Y227327D02*
X324800Y227200D01*
X573600Y184800D02*
X636000Y184800D01*
D15*
X789600Y328800D03*
X684800Y328800D03*
X850400Y328800D03*
X499695Y224406D03*
X534400Y227200D03*
X426639Y227327D03*
X219200Y356800D03*
X280800Y356800D03*
X324800Y227200D03*
X636000Y184800D03*
X573600Y184800D03*
D14*
X426639Y227327D02*
X324927Y227327D01*
X426639Y227327D02*
X496774Y227327D01*
X776800Y302400D02*
X779200Y300000D01*
X832800Y300000D02*
X876000Y300000D01*
X832800Y300000D02*
X779200Y300000D01*
X876000Y300000D02*
X876547Y299562D01*
D15*
X776800Y302400D03*
X832800Y300000D03*
D14*
X774400Y319200D02*
X771200Y316000D01*
X768800Y316000D01*
X767200Y314400D01*
X767200Y286400D01*
X851200Y286400D01*
X852000Y287200D01*
X888800Y287200D01*
X901600Y274400D01*
X901947Y274162D01*
X859200Y263200D02*
X853600Y257600D01*
X859200Y263200D02*
X891200Y263200D01*
X901600Y273600D01*
X901947Y274162D01*
D15*
X774400Y319200D03*
X853600Y257600D03*
D14*
X820000Y247200D02*
X815200Y242400D01*
X811200Y242400D01*
X804000Y235200D01*
X804000Y184800D01*
X878400Y184800D01*
X891200Y197600D01*
X891200Y209600D01*
X908000Y209600D01*
X921600Y223200D01*
X921600Y248000D01*
X902400Y248000D01*
X901947Y248762D01*
D15*
X820000Y247200D03*
D14*
X852800Y283200D02*
X761600Y283200D01*
X852800Y283200D02*
X853600Y284000D01*
X866400Y284000D01*
X876000Y274400D01*
X876547Y274162D01*
X845600Y262400D02*
X840800Y257600D01*
X845600Y262400D02*
X849600Y262400D01*
X860800Y273600D01*
X876000Y273600D01*
X876547Y274162D01*
D15*
X761600Y283200D03*
X840800Y257600D03*
D14*
X847200Y341600D02*
X762400Y341600D01*
X847200Y248000D02*
X876000Y248000D01*
X876547Y248762D01*
D15*
X762400Y341600D03*
X847200Y341600D03*
X847200Y248000D03*
D14*
X871200Y335200D02*
X755200Y335200D01*
X871200Y335200D02*
X872000Y336000D01*
X893600Y336000D01*
D15*
X755200Y335200D03*
X893600Y336000D03*
D14*
X828800Y196800D02*
X834400Y191200D01*
X864000Y191200D01*
D15*
X828800Y196800D03*
X864000Y191200D03*
D14*
X783200Y387200D02*
X770400Y387200D01*
X800800Y268800D02*
X847200Y268800D01*
X852800Y204800D02*
X834400Y204800D01*
D15*
X770400Y387200D03*
X783200Y387200D03*
X800800Y268800D03*
X847200Y268800D03*
X834400Y204800D03*
X852800Y204800D03*
D14*
X727200Y304000D02*
X714400Y304000D01*
X891200Y161600D02*
X901600Y172000D01*
X891200Y161600D02*
X816000Y161600D01*
X812800Y164800D01*
X901600Y172000D02*
X901947Y172562D01*
D15*
X714400Y304000D03*
X727200Y304000D03*
X812800Y164800D03*
D14*
X808800Y414400D02*
X868800Y414400D01*
X876000Y197600D02*
X842400Y197600D01*
X876000Y197600D02*
X876547Y197962D01*
D15*
X808800Y414400D03*
X868800Y414400D03*
X842400Y197600D03*
D14*
X736800Y271200D02*
X640000Y271200D01*
X634400Y276800D02*
X406400Y276800D01*
X634400Y276800D02*
X640000Y271200D01*
D15*
X640000Y271200D03*
X736800Y271200D03*
X406400Y276800D03*
D14*
X636000Y284000D02*
X676000Y284000D01*
X679200Y280800D01*
X701600Y280800D01*
X704800Y284000D01*
X429600Y292000D02*
X428000Y293600D01*
X429600Y292000D02*
X444000Y292000D01*
X455137Y280864D01*
X632864Y280864D01*
X636000Y284000D01*
D15*
X636000Y284000D03*
X704800Y284000D03*
X428000Y293600D03*
D14*
X653600Y277600D02*
X724800Y277600D01*
X292000Y343200D02*
X288000Y347200D01*
X292000Y343200D02*
X307200Y343200D01*
X409512Y244621D02*
X501245Y244621D01*
X603441Y293816D02*
X639784Y293816D01*
X640800Y292800D01*
D15*
X653600Y277600D03*
X724800Y277600D03*
X288000Y347200D03*
X307200Y343200D03*
X344800Y257600D03*
X501245Y244621D03*
X523252Y289435D03*
X640800Y292800D03*
D14*
X603441Y293816D02*
X599059Y289435D01*
X523252Y289435D01*
X376931Y257429D02*
X375314Y255812D01*
X346589Y255812D01*
X344800Y257600D01*
X396704Y257429D02*
X409512Y244621D01*
X396704Y257429D02*
X376931Y257429D01*
X653600Y300000D02*
X658400Y295200D01*
X736000Y295200D01*
X528000Y328800D02*
X385600Y328800D01*
X528000Y328800D02*
X538400Y318400D01*
X635200Y318400D01*
X653600Y300000D01*
D15*
X653600Y300000D03*
X736000Y295200D03*
X385600Y328800D03*
D14*
X624000Y338400D02*
X743200Y338400D01*
X512800Y352000D02*
X371200Y352000D01*
X512800Y352000D02*
X526400Y338400D01*
X624000Y338400D01*
D15*
X624000Y338400D03*
X743200Y338400D03*
X371200Y352000D03*
D14*
X660800Y371200D02*
X732000Y371200D01*
X396000Y332000D02*
X392800Y335200D01*
X396000Y332000D02*
X631200Y332000D01*
D15*
X660800Y371200D03*
X732000Y371200D03*
X392800Y335200D03*
X631200Y332000D03*
D14*
X700800Y361600D02*
X732000Y361600D01*
X700800Y361600D02*
X642400Y361600D01*
X381600Y362400D02*
X379200Y364800D01*
X381600Y362400D02*
X543751Y362400D01*
X587469Y350931D02*
X596000Y342400D01*
X619200Y342400D01*
X622400Y345600D01*
X696000Y345600D01*
X700800Y350400D01*
X700800Y361600D01*
D15*
X642400Y361600D03*
X732000Y361600D03*
X379200Y364800D03*
D14*
X587154Y350931D02*
X587469Y350931D01*
X587154Y350931D02*
X572326Y365760D01*
X547111Y365760D01*
X543751Y362400D01*
X633600Y377600D02*
X734400Y377600D01*
X734800Y377200D02*
X738400Y373600D01*
X734800Y377200D02*
X734400Y377600D01*
X738400Y373600D02*
X738400Y352000D01*
X735200Y352000D01*
X430400Y470400D02*
X427200Y473600D01*
X430400Y470400D02*
X608000Y470400D01*
X609600Y472000D01*
X701600Y472000D01*
X738400Y435200D01*
X738400Y377600D01*
X735200Y377600D01*
X734800Y377200D01*
D15*
X633600Y377600D03*
X735200Y352000D03*
X427200Y473600D03*
D14*
X648000Y413600D02*
X687200Y413600D01*
X689600Y416000D01*
X707200Y416000D01*
X528800Y428800D02*
X360000Y428800D01*
X528800Y428800D02*
X547200Y410400D01*
X644800Y410400D01*
X648000Y413600D01*
D15*
X648000Y413600D03*
X707200Y416000D03*
X360000Y428800D03*
D14*
X636000Y430400D02*
X636000Y427200D01*
X636000Y416800D01*
X636000Y430400D02*
X716800Y430400D01*
X719200Y432800D01*
X732000Y432800D01*
X527200Y435200D02*
X320000Y435200D01*
X527200Y435200D02*
X535200Y427200D01*
X636000Y427200D01*
D15*
X636000Y416800D03*
X732000Y432800D03*
X320000Y435200D03*
D14*
X294400Y358400D02*
X532800Y358400D01*
X535200Y356000D01*
D15*
X294400Y358400D03*
X535200Y356000D03*
D14*
X286400Y322400D02*
X281600Y317600D01*
X286400Y322400D02*
X405600Y322400D01*
X520000Y531200D02*
X523200Y534400D01*
X824000Y534400D01*
X849600Y560000D01*
X850011Y560515D01*
D15*
X281600Y317600D03*
X405600Y322400D03*
X520000Y531200D03*
D14*
X206400Y336800D02*
X174400Y336800D01*
X199200Y164000D02*
X275200Y164000D01*
D15*
X206400Y336800D03*
X174400Y336800D03*
X199200Y164000D03*
X275200Y164000D03*
D14*
X680000Y446400D02*
X682400Y444000D01*
X680000Y446400D02*
X640000Y446400D01*
X564000Y502400D02*
X96800Y502400D01*
X36800Y442400D01*
X45600Y396800D02*
X147200Y396800D01*
X166400Y396800D01*
X45600Y428000D02*
X37600Y436000D01*
X37600Y442400D01*
X36800Y442400D01*
X195200Y182400D02*
X234400Y182400D01*
X160000Y383200D02*
X159200Y384000D01*
X151200Y384000D01*
X147200Y388000D01*
X147200Y396800D01*
X243200Y173600D02*
X336000Y173600D01*
X243200Y173600D02*
X234400Y182400D01*
D15*
X682400Y444000D03*
X640000Y446400D03*
X564000Y502400D03*
X36800Y442400D03*
X166400Y396800D03*
X45600Y396800D03*
X45600Y428000D03*
X234400Y182400D03*
X195200Y182400D03*
X160000Y383200D03*
X336000Y173600D03*
D14*
X536000Y440000D02*
X664800Y440000D01*
X499200Y476800D02*
X496000Y480000D01*
X172800Y480000D01*
X170400Y428000D02*
X176000Y422400D01*
X170400Y428000D02*
X122400Y428000D01*
X142400Y358400D02*
X161600Y358400D01*
X707200Y57600D02*
X723200Y41600D01*
X707200Y57600D02*
X540000Y57600D01*
X386400Y211200D02*
X195200Y211200D01*
X192000Y214400D01*
X723200Y41600D02*
X723964Y41275D01*
D15*
X664800Y440000D03*
X536000Y440000D03*
X499200Y476800D03*
X172800Y480000D03*
X176000Y422400D03*
X122400Y428000D03*
X161600Y358400D03*
X142400Y358400D03*
X540000Y57600D03*
X386400Y211200D03*
X192000Y214400D03*
D14*
X208800Y390400D02*
X153600Y390400D01*
X445600Y496000D02*
X870400Y496000D01*
X360000Y392800D02*
X211200Y392800D01*
X208800Y390400D01*
D15*
X208800Y390400D03*
X153600Y390400D03*
X870400Y496000D03*
X445600Y496000D03*
X360000Y392800D03*
D14*
X280800Y403200D02*
X216000Y403200D01*
X292800Y428800D02*
X327200Y428800D01*
X384800Y508800D02*
X372000Y521600D01*
X372000Y537600D01*
X751200Y537600D01*
X773600Y560000D01*
X773811Y560515D01*
D15*
X216000Y403200D03*
X280800Y403200D03*
X292800Y428800D03*
X327200Y428800D03*
X384800Y508800D03*
D14*
X206000Y434800D02*
X201600Y439200D01*
X206000Y434800D02*
X216000Y424800D01*
X201600Y439200D02*
X141600Y439200D01*
X138400Y436000D01*
X128800Y436000D01*
X143200Y201600D02*
X204000Y201600D01*
X723200Y585600D02*
X748000Y560800D01*
X723200Y585600D02*
X333600Y585600D01*
X311200Y563200D01*
X748000Y560800D02*
X748411Y560515D01*
X206400Y435200D02*
X206000Y434800D01*
D15*
X216000Y424800D03*
X128800Y436000D03*
X143200Y201600D03*
X204000Y201600D03*
X311200Y563200D03*
X206400Y435200D03*
D14*
X304800Y160000D02*
X317600Y160000D01*
X612000Y465600D02*
X610400Y467200D01*
X215200Y467200D01*
X208800Y460800D01*
X179200Y460800D01*
X160000Y404000D02*
X39200Y404000D01*
X302400Y157600D02*
X304800Y160000D01*
X302400Y157600D02*
X254400Y157600D01*
X252000Y160000D01*
X204000Y160000D01*
X201600Y157600D01*
X176800Y157600D01*
X84000Y338400D02*
X39200Y383200D01*
X39200Y404000D01*
D15*
X304800Y160000D03*
X317600Y160000D03*
X612000Y465600D03*
X179200Y460800D03*
X39200Y404000D03*
X160000Y404000D03*
X176800Y157600D03*
X84000Y338400D03*
D14*
X617600Y433600D02*
X712000Y433600D01*
X717600Y439200D01*
X311200Y448000D02*
X310400Y448800D01*
X311200Y448000D02*
X464800Y448000D01*
X474400Y438400D01*
X528800Y438400D01*
X533600Y433600D01*
X617600Y433600D01*
D15*
X617600Y433600D03*
X717600Y439200D03*
X310400Y448800D03*
D14*
X644800Y426400D02*
X721600Y426400D01*
X644800Y426400D02*
X642400Y424000D01*
X602400Y460800D02*
X293600Y460800D01*
D15*
X721600Y426400D03*
X642400Y424000D03*
X293600Y460800D03*
X602400Y460800D03*
D14*
X437600Y287200D02*
X439200Y285600D01*
X437600Y287200D02*
X259200Y287200D01*
X229600Y316800D01*
X229600Y344000D01*
D15*
X439200Y285600D03*
X229600Y344000D03*
D14*
X493600Y348800D02*
X496800Y345600D01*
X493600Y348800D02*
X376800Y348800D01*
X358400Y330400D01*
X260800Y330400D01*
X248000Y317600D01*
D15*
X496800Y345600D03*
X248000Y317600D03*
D14*
X498641Y316064D02*
X514033Y316064D01*
X537583Y309618D02*
X540800Y306400D01*
X448800Y386400D02*
X261600Y386400D01*
X449943Y316166D02*
X450045Y316064D01*
X498641Y316064D01*
D15*
X498641Y316064D03*
X540800Y306400D03*
X261600Y386400D03*
X448800Y386400D03*
X449943Y316166D03*
D14*
X535764Y309618D02*
X537583Y309618D01*
X535764Y309618D02*
X533714Y311668D01*
X518429Y311668D02*
X514033Y316064D01*
X518429Y311668D02*
X533714Y311668D01*
X224000Y365600D02*
X128800Y365600D01*
X183200Y137600D02*
X676800Y137600D01*
X689600Y150400D01*
D15*
X224000Y365600D03*
X128800Y365600D03*
X183200Y137600D03*
X689600Y150400D03*
D14*
X469600Y342400D02*
X442400Y342400D01*
X442400Y379200D02*
X228800Y379200D01*
D15*
X469600Y342400D03*
X442400Y342400D03*
X442400Y379200D03*
X228800Y379200D03*
D14*
X379200Y311200D02*
X398400Y311200D01*
X371200Y217600D02*
X353600Y217600D01*
D15*
X398400Y311200D03*
X379200Y311200D03*
X371200Y217600D03*
X353600Y217600D03*
D14*
X354400Y68000D02*
X371200Y51200D01*
X688800Y51200D01*
X698400Y41600D01*
X698564Y41275D01*
D15*
X354400Y68000D03*
D14*
X276800Y183200D02*
X271200Y188800D01*
X182400Y188800D01*
X179200Y470400D02*
X209600Y470400D01*
X364800Y569600D02*
X590400Y569600D01*
X592000Y571200D01*
X624800Y571200D01*
X636800Y559200D01*
X636800Y550400D01*
X688000Y550400D01*
X697600Y560000D01*
X697611Y560515D01*
D15*
X276800Y183200D03*
X182400Y188800D03*
X179200Y470400D03*
X209600Y470400D03*
X364800Y569600D03*
D14*
X328800Y180000D02*
X304800Y180000D01*
X740800Y31200D02*
X815200Y31200D01*
X824800Y40800D01*
X825564Y41275D01*
D15*
X304800Y180000D03*
X328800Y180000D03*
X740800Y31200D03*
D14*
X534400Y377600D02*
X536800Y380000D01*
X534400Y377600D02*
X456000Y377600D01*
X536000Y544000D02*
X539200Y547200D01*
X709600Y547200D01*
X722400Y560000D01*
X723011Y560515D01*
X388000Y304800D02*
X294400Y304800D01*
X388000Y304800D02*
X389600Y306400D01*
X394400Y306400D01*
X396000Y304800D01*
X431200Y304800D01*
X437279Y310879D01*
X378400Y544000D02*
X536000Y544000D01*
D15*
X536800Y380000D03*
X456000Y377600D03*
X536000Y544000D03*
X294400Y304800D03*
X437293Y322477D03*
X378400Y544000D03*
D14*
X437279Y322462D02*
X437279Y310879D01*
X437279Y322462D02*
X437293Y322477D01*
X297600Y317600D02*
X294400Y314400D01*
X297600Y317600D02*
X401600Y317600D01*
X403200Y316000D01*
X417600Y316000D01*
X436800Y422400D02*
X367200Y422400D01*
X586400Y579200D02*
X588000Y577600D01*
X655200Y577600D01*
X672000Y560800D01*
X672211Y560515D01*
D15*
X294400Y314400D03*
X417600Y316000D03*
X436800Y422400D03*
X367200Y422400D03*
X586400Y579200D03*
D14*
X570400Y386400D02*
X507200Y386400D01*
X504000Y383200D01*
X464000Y383200D01*
X463200Y384000D01*
X375200Y40800D02*
X596800Y40800D01*
X596964Y41275D01*
D15*
X570400Y386400D03*
X463200Y384000D03*
X375200Y40800D03*
D14*
X459454Y405854D02*
X525398Y405854D01*
X459454Y405854D02*
X459200Y405600D01*
X435200Y300000D02*
X392000Y300000D01*
D15*
X525398Y405854D03*
X459200Y405600D03*
X435200Y300000D03*
X392000Y300000D03*
D14*
X275200Y318400D02*
X272000Y315200D01*
X275200Y318400D02*
X275200Y327200D01*
X375200Y327200D01*
X390400Y342400D01*
X399200Y342400D01*
D15*
X272000Y315200D03*
X399200Y342400D03*
D14*
X272000Y221600D02*
X169600Y221600D01*
X136000Y442400D02*
X381600Y442400D01*
X382400Y441600D01*
D15*
X272000Y221600D03*
X169600Y221600D03*
X136000Y442400D03*
X382400Y441600D03*
D14*
X184800Y483200D02*
X672800Y483200D01*
X184800Y483200D02*
X181600Y486400D01*
X170400Y486400D01*
X116000Y432000D01*
X116000Y419200D01*
X153600Y419200D01*
X195200Y255200D02*
X270400Y255200D01*
D15*
X672800Y483200D03*
X153600Y419200D03*
X195200Y255200D03*
X270400Y255200D03*
D14*
X288800Y186400D02*
X279200Y176800D01*
X250400Y176800D01*
X247200Y180000D01*
D15*
X500533Y185448D03*
X247200Y180000D03*
D14*
X499581Y186400D02*
X500533Y185448D01*
X499581Y186400D02*
X288800Y186400D01*
X684800Y402400D02*
X689200Y406800D01*
X692000Y409600D01*
X684800Y402400D02*
X684800Y395200D01*
X223200Y332000D02*
X208000Y316800D01*
X223200Y332000D02*
X223200Y350400D01*
X273600Y350400D01*
X298400Y415200D02*
X297600Y416000D01*
X298400Y415200D02*
X537600Y415200D01*
X545600Y407200D01*
X688800Y407200D01*
X689200Y406800D01*
D15*
X692000Y409600D03*
X684800Y395200D03*
X208000Y316800D03*
X273600Y350400D03*
X297600Y416000D03*
D14*
X201600Y324000D02*
X21600Y324000D01*
D15*
X201600Y324000D03*
X21600Y324000D03*
D14*
X237600Y317600D02*
X264000Y344000D01*
X266400Y344000D01*
X378400Y524800D02*
X832800Y524800D01*
X860000Y552000D01*
X860000Y571200D01*
X810400Y571200D01*
X800000Y560800D01*
X799211Y560515D01*
D15*
X237600Y317600D03*
X266400Y344000D03*
X378400Y524800D03*
D14*
X260000Y153600D02*
X250400Y144000D01*
X260000Y153600D02*
X684000Y153600D01*
X687200Y156800D01*
X692000Y156800D01*
X800000Y48800D01*
X800000Y41600D01*
X800164Y41275D01*
D15*
X250400Y144000D03*
D14*
X813600Y236000D02*
X883200Y236000D01*
D15*
X813600Y236000D03*
X883200Y236000D03*
D14*
X906400Y212800D02*
X810400Y212800D01*
X906400Y212800D02*
X915200Y221600D01*
X915200Y229600D01*
D15*
X810400Y212800D03*
X915200Y229600D03*
D14*
X681600Y420000D02*
X668000Y420000D01*
D15*
X681600Y420000D03*
X668000Y420000D03*
D14*
X139200Y153600D02*
X121600Y153600D01*
X28000Y442400D02*
X41600Y456000D01*
X28000Y442400D02*
X28000Y338400D01*
X34400Y338400D01*
X524800Y264000D02*
X537600Y264000D01*
X541131Y251454D02*
X528649Y251454D01*
X528395Y251200D01*
X156000Y170400D02*
X139200Y153600D01*
X156000Y170400D02*
X330400Y170400D01*
X334400Y166400D01*
D15*
X139200Y153600D03*
X121600Y153600D03*
X41600Y456000D03*
X34400Y338400D03*
X535200Y162400D03*
X524800Y264000D03*
X537600Y264000D03*
X541131Y251454D03*
X528395Y251200D03*
D14*
X531200Y166400D02*
X535200Y162400D01*
X531200Y166400D02*
X334400Y166400D01*
X674400Y324800D02*
X675200Y324000D01*
X674400Y324800D02*
X540800Y324800D01*
X456800Y489600D02*
X225600Y489600D01*
X416000Y369600D02*
X496800Y369600D01*
D15*
X675200Y324000D03*
X540800Y324800D03*
X225600Y489600D03*
X456800Y489600D03*
X416000Y369600D03*
X496800Y369600D03*
D14*
X564710Y170400D02*
X573104Y162006D01*
X564710Y170400D02*
X540800Y170400D01*
X612000Y31200D02*
X377600Y31200D01*
X612000Y31200D02*
X621600Y40800D01*
X622364Y41275D01*
D15*
X528000Y345600D03*
X577245Y345600D03*
X573104Y162006D03*
X540800Y170400D03*
X377600Y31200D03*
D14*
X577245Y345600D02*
X572913Y349932D01*
X532332Y349932D01*
X528000Y345600D01*
D16*
X29147Y572326D03*
X28385Y29845D03*
X912813Y30671D03*
X914845Y571754D03*
M02*
