G04 EAGLE Gerber RS-274X export*
G75*
%MOMM*%
%FSLAX34Y34*%
%LPD*%
%INTop Copper*%
%IPPOS*%
%AMOC8*
5,1,8,0,0,1.08239X$1,22.5*%
G01*
%ADD10R,0.600000X0.300000*%
%ADD11R,0.300000X0.600000*%
%ADD12R,0.750000X0.940000*%
%ADD13R,0.600000X0.620000*%
%ADD14R,0.990000X1.780000*%
%ADD15R,0.780000X0.980000*%
%ADD16R,1.350000X0.700000*%
%ADD17R,1.200000X0.600000*%
%ADD18R,0.400000X1.200000*%
%ADD19R,1.475000X0.300000*%
%ADD20R,0.300000X1.475000*%
%ADD21R,1.250000X0.600000*%
%ADD22R,1.168400X0.355600*%
%ADD23C,1.650000*%
%ADD24R,0.950000X0.800000*%
%ADD25R,1.400000X0.600000*%
%ADD26R,0.950000X0.550000*%
%ADD27R,0.750000X0.600000*%
%ADD28R,1.050000X0.650000*%
%ADD29R,1.676400X0.431800*%
%ADD30R,1.800000X1.400000*%
%ADD31R,0.950000X1.750000*%
%ADD32R,3.200000X1.750000*%
%ADD33R,0.950000X0.400000*%
%ADD34C,0.317500*%
%ADD35R,1.524000X1.524000*%
%ADD36C,1.524000*%
%ADD37R,1.750000X0.700000*%
%ADD38R,1.550000X1.000000*%
%ADD39R,1.000000X1.450000*%
%ADD40R,1.500000X1.500000*%
%ADD41R,1.500000X1.300000*%
%ADD42R,1.400000X0.800000*%
%ADD43R,1.500000X0.800000*%
%ADD44R,1.350000X0.400000*%
%ADD45C,1.270000*%
%ADD46R,1.550000X1.500000*%
%ADD47C,0.152400*%
%ADD48C,0.756400*%
%ADD49C,3.000000*%

G36*
X28442Y240423D02*
X28442Y240423D01*
X28441Y240424D01*
X28442Y240424D01*
X28442Y240474D01*
X28438Y240478D01*
X28392Y240478D01*
X28392Y252424D01*
X28266Y253537D01*
X28266Y253538D01*
X27896Y254595D01*
X27896Y254596D01*
X27300Y255544D01*
X26508Y256336D01*
X26507Y256336D01*
X26507Y256337D01*
X25559Y256932D01*
X25558Y256933D01*
X24502Y257303D01*
X24501Y257302D01*
X24501Y257303D01*
X23388Y257428D01*
X17888Y257428D01*
X17887Y257428D01*
X16777Y257306D01*
X16776Y257305D01*
X16776Y257306D01*
X15721Y256940D01*
X15721Y256939D01*
X15720Y256939D01*
X14773Y256347D01*
X14772Y256347D01*
X13980Y255559D01*
X13980Y255558D01*
X13383Y254614D01*
X13383Y254613D01*
X13011Y253560D01*
X13012Y253559D01*
X13011Y253559D01*
X13011Y253557D01*
X13010Y253553D01*
X13009Y253544D01*
X13009Y253540D01*
X13008Y253532D01*
X13007Y253527D01*
X13007Y253519D01*
X13006Y253519D01*
X13007Y253519D01*
X13006Y253515D01*
X13005Y253506D01*
X13005Y253502D01*
X13004Y253493D01*
X13003Y253489D01*
X13002Y253481D01*
X13002Y253476D01*
X13001Y253468D01*
X13000Y253464D01*
X12999Y253455D01*
X12999Y253451D01*
X12998Y253442D01*
X12997Y253438D01*
X12996Y253430D01*
X12996Y253425D01*
X12995Y253417D01*
X12994Y253413D01*
X12993Y253404D01*
X12993Y253400D01*
X12992Y253391D01*
X12991Y253387D01*
X12990Y253379D01*
X12990Y253374D01*
X12989Y253366D01*
X12988Y253362D01*
X12987Y253353D01*
X12987Y253349D01*
X12986Y253340D01*
X12985Y253336D01*
X12984Y253328D01*
X12984Y253323D01*
X12983Y253315D01*
X12983Y253311D01*
X12982Y253311D01*
X12983Y253311D01*
X12981Y253298D01*
X12980Y253285D01*
X12978Y253272D01*
X12977Y253260D01*
X12976Y253255D01*
X12975Y253247D01*
X12975Y253243D01*
X12974Y253234D01*
X12973Y253230D01*
X12972Y253221D01*
X12972Y253217D01*
X12971Y253209D01*
X12970Y253204D01*
X12969Y253196D01*
X12969Y253192D01*
X12968Y253183D01*
X12967Y253179D01*
X12966Y253170D01*
X12966Y253166D01*
X12965Y253158D01*
X12964Y253153D01*
X12963Y253145D01*
X12963Y253141D01*
X12962Y253132D01*
X12961Y253128D01*
X12960Y253119D01*
X12960Y253115D01*
X12959Y253107D01*
X12959Y253102D01*
X12958Y253102D01*
X12959Y253102D01*
X12958Y253094D01*
X12957Y253090D01*
X12956Y253081D01*
X12956Y253077D01*
X12955Y253068D01*
X12954Y253064D01*
X12953Y253056D01*
X12953Y253051D01*
X12952Y253043D01*
X12951Y253039D01*
X12950Y253030D01*
X12950Y253026D01*
X12949Y253017D01*
X12948Y253013D01*
X12947Y253005D01*
X12947Y253000D01*
X12946Y252992D01*
X12945Y252988D01*
X12944Y252979D01*
X12944Y252975D01*
X12942Y252962D01*
X12941Y252949D01*
X12939Y252937D01*
X12938Y252924D01*
X12936Y252911D01*
X12936Y252907D01*
X12935Y252898D01*
X12935Y252894D01*
X12934Y252894D01*
X12935Y252894D01*
X12934Y252886D01*
X12933Y252881D01*
X12932Y252873D01*
X12932Y252869D01*
X12931Y252860D01*
X12930Y252856D01*
X12929Y252847D01*
X12929Y252843D01*
X12928Y252835D01*
X12927Y252830D01*
X12926Y252822D01*
X12926Y252818D01*
X12925Y252809D01*
X12924Y252805D01*
X12923Y252796D01*
X12923Y252792D01*
X12922Y252784D01*
X12921Y252779D01*
X12920Y252771D01*
X12920Y252767D01*
X12919Y252758D01*
X12918Y252754D01*
X12917Y252745D01*
X12917Y252741D01*
X12916Y252733D01*
X12915Y252728D01*
X12914Y252720D01*
X12914Y252716D01*
X12913Y252707D01*
X12912Y252703D01*
X12912Y252694D01*
X12911Y252694D01*
X12912Y252694D01*
X12911Y252690D01*
X12910Y252682D01*
X12910Y252677D01*
X12909Y252669D01*
X12908Y252665D01*
X12907Y252656D01*
X12907Y252652D01*
X12906Y252643D01*
X12905Y252639D01*
X12904Y252631D01*
X12904Y252626D01*
X12902Y252614D01*
X12901Y252601D01*
X12899Y252588D01*
X12898Y252575D01*
X12896Y252563D01*
X12896Y252558D01*
X12895Y252550D01*
X12894Y252546D01*
X12893Y252537D01*
X12893Y252533D01*
X12892Y252524D01*
X12891Y252520D01*
X12890Y252512D01*
X12890Y252507D01*
X12889Y252499D01*
X12888Y252495D01*
X12888Y252486D01*
X12887Y252486D01*
X12888Y252486D01*
X12887Y252482D01*
X12886Y252473D01*
X12886Y252469D01*
X12885Y252461D01*
X12884Y252456D01*
X12883Y252450D01*
X12887Y252445D01*
X12888Y252445D01*
X14888Y252445D01*
X14892Y252448D01*
X14893Y252459D01*
X14893Y252460D01*
X14894Y252468D01*
X14896Y252481D01*
X14897Y252489D01*
X14899Y252502D01*
X14902Y252523D01*
X14905Y252544D01*
X14905Y252545D01*
X14908Y252566D01*
X14911Y252587D01*
X14912Y252600D01*
X14914Y252608D01*
X14915Y252621D01*
X14916Y252629D01*
X14917Y252629D01*
X14916Y252630D01*
X14918Y252642D01*
X14919Y252651D01*
X14921Y252663D01*
X14921Y252664D01*
X14922Y252672D01*
X14924Y252685D01*
X14925Y252693D01*
X14927Y252706D01*
X14928Y252714D01*
X14928Y252715D01*
X14930Y252727D01*
X14931Y252736D01*
X14933Y252748D01*
X14933Y252749D01*
X14934Y252757D01*
X14936Y252770D01*
X14937Y252778D01*
X14939Y252791D01*
X14940Y252799D01*
X14940Y252800D01*
X14941Y252812D01*
X14942Y252812D01*
X14941Y252812D01*
X14943Y252821D01*
X14944Y252833D01*
X14944Y252834D01*
X14946Y252842D01*
X14947Y252855D01*
X14948Y252863D01*
X14950Y252876D01*
X14951Y252884D01*
X14951Y252885D01*
X14953Y252897D01*
X14954Y252906D01*
X14956Y252918D01*
X14956Y252919D01*
X14957Y252927D01*
X14959Y252940D01*
X14962Y252961D01*
X14965Y252982D01*
X14968Y253003D01*
X14968Y253004D01*
X14971Y253025D01*
X14972Y253037D01*
X14972Y253038D01*
X14973Y253046D01*
X14975Y253059D01*
X14976Y253067D01*
X14978Y253080D01*
X14979Y253088D01*
X14979Y253089D01*
X14980Y253091D01*
X15231Y253689D01*
X15628Y254201D01*
X16144Y254593D01*
X16744Y254838D01*
X17388Y254920D01*
X23887Y254920D01*
X24533Y254835D01*
X25135Y254585D01*
X25652Y254189D01*
X26049Y253672D01*
X26298Y253070D01*
X26383Y252424D01*
X26382Y252414D01*
X26381Y252410D01*
X26381Y252405D01*
X26380Y252401D01*
X26376Y252371D01*
X26376Y252367D01*
X26375Y252363D01*
X26375Y252359D01*
X26370Y252325D01*
X26370Y252320D01*
X26369Y252316D01*
X26368Y252312D01*
X26365Y252282D01*
X26364Y252278D01*
X26363Y252274D01*
X26363Y252269D01*
X26358Y252235D01*
X26358Y252231D01*
X26357Y252227D01*
X26357Y252223D01*
X26353Y252193D01*
X26352Y252189D01*
X26352Y252184D01*
X26351Y252180D01*
X26347Y252146D01*
X26346Y252142D01*
X26346Y252138D01*
X26345Y252138D01*
X26346Y252138D01*
X26345Y252133D01*
X26341Y252104D01*
X26340Y252099D01*
X26340Y252095D01*
X26339Y252091D01*
X26335Y252057D01*
X26334Y252053D01*
X26334Y252048D01*
X26333Y252044D01*
X26329Y252014D01*
X26329Y252010D01*
X26328Y252006D01*
X26328Y252002D01*
X26323Y251968D01*
X26323Y251963D01*
X26322Y251959D01*
X26321Y251955D01*
X26318Y251925D01*
X26317Y251921D01*
X26316Y251917D01*
X26316Y251912D01*
X26311Y251878D01*
X26311Y251874D01*
X26310Y251870D01*
X26310Y251866D01*
X26306Y251836D01*
X26305Y251832D01*
X26305Y251827D01*
X26304Y251823D01*
X26300Y251789D01*
X26299Y251785D01*
X26299Y251781D01*
X26298Y251781D01*
X26299Y251781D01*
X26298Y251778D01*
X26049Y251176D01*
X25652Y250659D01*
X25135Y250263D01*
X24533Y250013D01*
X23887Y249928D01*
X17388Y249928D01*
X16744Y250010D01*
X16144Y250255D01*
X15628Y250647D01*
X15231Y251159D01*
X14980Y251757D01*
X14892Y252400D01*
X14888Y252403D01*
X12888Y252403D01*
X12883Y252400D01*
X12884Y252399D01*
X12883Y252399D01*
X12883Y240424D01*
X12887Y240420D01*
X12888Y240420D01*
X28438Y240420D01*
X28442Y240423D01*
G37*
G36*
X23388Y177420D02*
X23388Y177420D01*
X24498Y177542D01*
X24499Y177543D01*
X24499Y177542D01*
X25554Y177909D01*
X25555Y177909D01*
X26502Y178501D01*
X26503Y178501D01*
X27295Y179289D01*
X27295Y179290D01*
X27892Y180234D01*
X27892Y180235D01*
X28264Y181288D01*
X28263Y181289D01*
X28264Y181289D01*
X28264Y181291D01*
X28265Y181295D01*
X28266Y181304D01*
X28266Y181308D01*
X28267Y181316D01*
X28267Y181317D01*
X28268Y181321D01*
X28269Y181329D01*
X28269Y181333D01*
X28269Y181334D01*
X28270Y181342D01*
X28270Y181346D01*
X28271Y181346D01*
X28270Y181346D01*
X28271Y181355D01*
X28272Y181359D01*
X28273Y181367D01*
X28273Y181368D01*
X28273Y181372D01*
X28274Y181380D01*
X28275Y181384D01*
X28275Y181385D01*
X28276Y181393D01*
X28276Y181397D01*
X28277Y181406D01*
X28278Y181410D01*
X28279Y181418D01*
X28279Y181419D01*
X28279Y181423D01*
X28280Y181431D01*
X28281Y181435D01*
X28281Y181436D01*
X28282Y181444D01*
X28282Y181448D01*
X28283Y181457D01*
X28284Y181461D01*
X28285Y181469D01*
X28285Y181470D01*
X28285Y181474D01*
X28286Y181482D01*
X28287Y181486D01*
X28287Y181487D01*
X28288Y181495D01*
X28288Y181499D01*
X28289Y181508D01*
X28290Y181512D01*
X28291Y181520D01*
X28291Y181521D01*
X28291Y181525D01*
X28292Y181533D01*
X28293Y181537D01*
X28293Y181538D01*
X28294Y181550D01*
X28295Y181563D01*
X28297Y181576D01*
X28298Y181588D01*
X28298Y181589D01*
X28299Y181593D01*
X28300Y181601D01*
X28300Y181605D01*
X28300Y181606D01*
X28301Y181614D01*
X28302Y181618D01*
X28303Y181627D01*
X28303Y181631D01*
X28304Y181639D01*
X28304Y181640D01*
X28305Y181644D01*
X28306Y181652D01*
X28306Y181656D01*
X28306Y181657D01*
X28307Y181665D01*
X28308Y181669D01*
X28309Y181678D01*
X28309Y181682D01*
X28310Y181690D01*
X28310Y181691D01*
X28311Y181695D01*
X28312Y181703D01*
X28312Y181707D01*
X28312Y181708D01*
X28313Y181716D01*
X28314Y181720D01*
X28315Y181729D01*
X28315Y181733D01*
X28316Y181741D01*
X28316Y181742D01*
X28317Y181746D01*
X28317Y181754D01*
X28318Y181754D01*
X28317Y181754D01*
X28318Y181758D01*
X28318Y181759D01*
X28319Y181767D01*
X28319Y181771D01*
X28320Y181780D01*
X28321Y181784D01*
X28322Y181792D01*
X28322Y181793D01*
X28322Y181797D01*
X28323Y181805D01*
X28324Y181809D01*
X28324Y181810D01*
X28325Y181818D01*
X28325Y181822D01*
X28326Y181831D01*
X28327Y181835D01*
X28328Y181843D01*
X28328Y181844D01*
X28328Y181848D01*
X28329Y181856D01*
X28330Y181860D01*
X28330Y181861D01*
X28331Y181869D01*
X28331Y181873D01*
X28333Y181886D01*
X28334Y181899D01*
X28336Y181911D01*
X28336Y181912D01*
X28337Y181924D01*
X28339Y181937D01*
X28339Y181941D01*
X28340Y181950D01*
X28341Y181954D01*
X28341Y181962D01*
X28342Y181962D01*
X28341Y181963D01*
X28342Y181967D01*
X28343Y181975D01*
X28343Y181979D01*
X28343Y181980D01*
X28344Y181988D01*
X28345Y181992D01*
X28346Y182001D01*
X28346Y182005D01*
X28347Y182013D01*
X28347Y182014D01*
X28348Y182018D01*
X28349Y182026D01*
X28349Y182030D01*
X28349Y182031D01*
X28350Y182039D01*
X28351Y182043D01*
X28352Y182052D01*
X28352Y182056D01*
X28353Y182064D01*
X28353Y182065D01*
X28354Y182069D01*
X28355Y182077D01*
X28355Y182081D01*
X28355Y182082D01*
X28356Y182090D01*
X28357Y182094D01*
X28358Y182103D01*
X28358Y182107D01*
X28359Y182115D01*
X28359Y182116D01*
X28360Y182120D01*
X28361Y182128D01*
X28361Y182132D01*
X28361Y182133D01*
X28362Y182141D01*
X28363Y182145D01*
X28364Y182154D01*
X28364Y182158D01*
X28365Y182166D01*
X28365Y182167D01*
X28365Y182171D01*
X28366Y182171D01*
X28365Y182171D01*
X28366Y182179D01*
X28367Y182183D01*
X28367Y182184D01*
X28368Y182192D01*
X28368Y182196D01*
X28369Y182205D01*
X28370Y182209D01*
X28371Y182217D01*
X28371Y182218D01*
X28371Y182222D01*
X28373Y182234D01*
X28373Y182235D01*
X28374Y182247D01*
X28376Y182260D01*
X28377Y182273D01*
X28379Y182285D01*
X28379Y182286D01*
X28379Y182290D01*
X28380Y182298D01*
X28381Y182302D01*
X28381Y182303D01*
X28382Y182311D01*
X28382Y182315D01*
X28383Y182324D01*
X28384Y182328D01*
X28385Y182336D01*
X28385Y182337D01*
X28385Y182341D01*
X28386Y182349D01*
X28387Y182353D01*
X28387Y182354D01*
X28388Y182362D01*
X28388Y182366D01*
X28389Y182375D01*
X28389Y182379D01*
X28390Y182379D01*
X28389Y182379D01*
X28390Y182387D01*
X28390Y182388D01*
X28391Y182392D01*
X28392Y182399D01*
X28389Y182403D01*
X28388Y182403D01*
X26388Y182403D01*
X26383Y182400D01*
X26382Y182389D01*
X26381Y182380D01*
X26379Y182367D01*
X26378Y182359D01*
X26376Y182346D01*
X26373Y182325D01*
X26370Y182304D01*
X26367Y182282D01*
X26364Y182261D01*
X26363Y182248D01*
X26361Y182240D01*
X26360Y182227D01*
X26359Y182219D01*
X26357Y182206D01*
X26356Y182197D01*
X26354Y182185D01*
X26353Y182176D01*
X26351Y182163D01*
X26350Y182155D01*
X26348Y182142D01*
X26347Y182134D01*
X26345Y182121D01*
X26344Y182112D01*
X26342Y182100D01*
X26341Y182091D01*
X26339Y182078D01*
X26338Y182070D01*
X26336Y182057D01*
X26335Y182049D01*
X26334Y182036D01*
X26332Y182027D01*
X26331Y182015D01*
X26329Y182006D01*
X26328Y181993D01*
X26327Y181985D01*
X26325Y181972D01*
X26324Y181964D01*
X26322Y181951D01*
X26321Y181942D01*
X26319Y181930D01*
X26318Y181921D01*
X26316Y181908D01*
X26313Y181887D01*
X26310Y181866D01*
X26307Y181845D01*
X26304Y181823D01*
X26303Y181811D01*
X26302Y181802D01*
X26300Y181789D01*
X26299Y181781D01*
X26297Y181768D01*
X26296Y181760D01*
X26295Y181757D01*
X26044Y181159D01*
X25647Y180647D01*
X25131Y180255D01*
X24531Y180010D01*
X23887Y179928D01*
X17388Y179928D01*
X16742Y180013D01*
X16140Y180263D01*
X15623Y180659D01*
X15226Y181176D01*
X14977Y181778D01*
X14892Y182424D01*
X14893Y182434D01*
X14894Y182438D01*
X14894Y182439D01*
X14894Y182443D01*
X14895Y182447D01*
X14899Y182477D01*
X14899Y182481D01*
X14900Y182485D01*
X14900Y182489D01*
X14900Y182490D01*
X14905Y182523D01*
X14905Y182524D01*
X14905Y182528D01*
X14906Y182532D01*
X14907Y182536D01*
X14910Y182566D01*
X14911Y182566D01*
X14911Y182570D01*
X14912Y182574D01*
X14912Y182575D01*
X14912Y182579D01*
X14917Y182613D01*
X14917Y182617D01*
X14918Y182621D01*
X14918Y182625D01*
X14918Y182626D01*
X14922Y182655D01*
X14923Y182659D01*
X14923Y182660D01*
X14923Y182664D01*
X14924Y182668D01*
X14928Y182702D01*
X14929Y182706D01*
X14930Y182710D01*
X14930Y182711D01*
X14930Y182715D01*
X14934Y182744D01*
X14934Y182745D01*
X14935Y182749D01*
X14935Y182753D01*
X14936Y182757D01*
X14940Y182791D01*
X14941Y182795D01*
X14941Y182796D01*
X14941Y182800D01*
X14942Y182804D01*
X14946Y182834D01*
X14946Y182838D01*
X14947Y182842D01*
X14947Y182846D01*
X14947Y182847D01*
X14952Y182880D01*
X14952Y182881D01*
X14952Y182885D01*
X14953Y182889D01*
X14954Y182893D01*
X14957Y182923D01*
X14958Y182923D01*
X14958Y182927D01*
X14959Y182931D01*
X14959Y182932D01*
X14959Y182936D01*
X14964Y182970D01*
X14964Y182974D01*
X14965Y182978D01*
X14965Y182982D01*
X14965Y182983D01*
X14969Y183012D01*
X14970Y183016D01*
X14970Y183017D01*
X14970Y183021D01*
X14971Y183025D01*
X14975Y183059D01*
X14976Y183063D01*
X14977Y183067D01*
X14977Y183068D01*
X14977Y183070D01*
X15226Y183672D01*
X15623Y184189D01*
X16140Y184585D01*
X16742Y184835D01*
X17388Y184920D01*
X23887Y184920D01*
X24531Y184838D01*
X25131Y184593D01*
X25647Y184201D01*
X26044Y183689D01*
X26295Y183091D01*
X26383Y182448D01*
X26387Y182445D01*
X26388Y182445D01*
X28388Y182445D01*
X28392Y182448D01*
X28391Y182449D01*
X28392Y182449D01*
X28392Y194424D01*
X28388Y194428D01*
X12838Y194428D01*
X12833Y194425D01*
X12834Y194424D01*
X12833Y194424D01*
X12833Y194374D01*
X12837Y194370D01*
X12838Y194370D01*
X12883Y194370D01*
X12883Y182424D01*
X13009Y181311D01*
X13009Y181310D01*
X13379Y180253D01*
X13379Y180252D01*
X13975Y179304D01*
X14767Y178512D01*
X14768Y178512D01*
X14768Y178511D01*
X15716Y177916D01*
X15717Y177915D01*
X16774Y177545D01*
X16774Y177546D01*
X16774Y177545D01*
X17887Y177420D01*
X17888Y177420D01*
X23388Y177420D01*
X23388Y177420D01*
G37*
D10*
X673773Y450479D03*
X673773Y445479D03*
X673773Y440479D03*
X673773Y435479D03*
X673773Y430479D03*
D11*
X680773Y428479D03*
X685773Y428479D03*
X690773Y428479D03*
D10*
X697773Y430479D03*
X697773Y435479D03*
X697773Y440479D03*
X697773Y445479D03*
X697773Y450479D03*
D11*
X690773Y452479D03*
X685773Y452479D03*
X680773Y452479D03*
D12*
X550264Y219680D03*
X564264Y219680D03*
D13*
X478604Y368895D03*
X487804Y368895D03*
X478720Y446448D03*
X487920Y446448D03*
X478539Y420487D03*
X487739Y420487D03*
X478852Y316056D03*
X488052Y316056D03*
X488720Y237240D03*
X479520Y237240D03*
X488703Y224178D03*
X479503Y224178D03*
D12*
X550236Y249337D03*
X564236Y249337D03*
D13*
X478747Y459306D03*
X487947Y459306D03*
X487796Y342206D03*
X478596Y342206D03*
D12*
X550069Y305515D03*
X564069Y305515D03*
D13*
X487942Y329193D03*
X478742Y329193D03*
D14*
X672331Y157265D03*
X700331Y157265D03*
D13*
X487849Y407641D03*
X478649Y407641D03*
X487712Y381783D03*
X478512Y381783D03*
D12*
X550185Y189782D03*
X564185Y189782D03*
D13*
X478657Y433672D03*
X487857Y433672D03*
D12*
X564056Y319697D03*
X550056Y319697D03*
D15*
X564140Y277949D03*
X550140Y277949D03*
X564140Y291949D03*
X550140Y291949D03*
D16*
X564310Y335364D03*
X549310Y335364D03*
D13*
X478536Y394570D03*
X487736Y394570D03*
D15*
X564244Y175273D03*
X550244Y175273D03*
X564140Y263849D03*
X550140Y263849D03*
D16*
X564110Y351864D03*
X549110Y351864D03*
D13*
X479170Y264327D03*
X488370Y264327D03*
D12*
X564213Y234909D03*
X550213Y234909D03*
D13*
X488071Y290563D03*
X478871Y290563D03*
X478868Y277413D03*
X488068Y277413D03*
D12*
X564390Y204477D03*
X550390Y204477D03*
D17*
X697831Y194265D03*
X697831Y203765D03*
X697831Y213265D03*
X672831Y213265D03*
X672831Y203765D03*
X672831Y194265D03*
D18*
X834447Y185148D03*
X827947Y185148D03*
X821447Y185148D03*
X821447Y166148D03*
X827947Y166148D03*
X834447Y166148D03*
D19*
X310665Y350724D03*
X310665Y355724D03*
X310665Y360724D03*
X310665Y365724D03*
X310665Y370724D03*
X310665Y375724D03*
X310665Y380724D03*
X310665Y385724D03*
X310665Y390724D03*
X310665Y395724D03*
X310665Y400724D03*
X310665Y405724D03*
X310665Y410724D03*
X310665Y415724D03*
X310665Y420724D03*
X310665Y425724D03*
D20*
X290785Y445604D03*
X285785Y445604D03*
X280785Y445604D03*
X275785Y445604D03*
X270785Y445604D03*
X265785Y445604D03*
X260785Y445604D03*
X255785Y445604D03*
X250785Y445604D03*
X245785Y445604D03*
X240785Y445604D03*
X235785Y445604D03*
X230785Y445604D03*
X225785Y445604D03*
X220785Y445604D03*
X215785Y445604D03*
D19*
X195905Y425724D03*
X195905Y420724D03*
X195905Y415724D03*
X195905Y410724D03*
X195905Y405724D03*
X195905Y400724D03*
X195905Y395724D03*
X195905Y390724D03*
X195905Y385724D03*
X195905Y380724D03*
X195905Y375724D03*
X195905Y370724D03*
X195905Y365724D03*
X195905Y360724D03*
X195905Y355724D03*
X195905Y350724D03*
D20*
X215785Y330844D03*
X220785Y330844D03*
X225785Y330844D03*
X230785Y330844D03*
X235785Y330844D03*
X240785Y330844D03*
X245785Y330844D03*
X250785Y330844D03*
X255785Y330844D03*
X260785Y330844D03*
X265785Y330844D03*
X270785Y330844D03*
X275785Y330844D03*
X280785Y330844D03*
X285785Y330844D03*
X290785Y330844D03*
D17*
X673531Y363065D03*
X673531Y353565D03*
X673531Y344065D03*
X698531Y344065D03*
X698531Y363065D03*
D21*
X673431Y262065D03*
X673431Y252565D03*
X673431Y243065D03*
X698431Y243065D03*
X698431Y262065D03*
D18*
X832761Y335148D03*
X826261Y335148D03*
X819761Y335148D03*
X819761Y316148D03*
X826261Y316148D03*
X832761Y316148D03*
X832761Y385248D03*
X826261Y385248D03*
X819761Y385248D03*
X819761Y366248D03*
X826261Y366248D03*
X832761Y366248D03*
X832761Y435348D03*
X826261Y435348D03*
X819761Y435348D03*
X819761Y416348D03*
X826261Y416348D03*
X832761Y416348D03*
D22*
X696465Y388622D03*
X696465Y395226D03*
X696465Y401830D03*
X675637Y401830D03*
X675637Y388622D03*
D18*
X832761Y285448D03*
X826261Y285448D03*
X819761Y285448D03*
X819761Y266448D03*
X826261Y266448D03*
X832761Y266448D03*
X834413Y235736D03*
X827913Y235736D03*
X821413Y235736D03*
X821413Y216736D03*
X827913Y216736D03*
X834413Y216736D03*
D23*
X901947Y401162D03*
X901947Y426562D03*
X876547Y426562D03*
X876547Y401162D03*
X901947Y375762D03*
X876547Y375762D03*
X901947Y350362D03*
X876547Y350362D03*
X901947Y324962D03*
X876547Y324962D03*
X901947Y299562D03*
X876547Y299562D03*
X901947Y274162D03*
X876547Y274162D03*
X901947Y248762D03*
X876547Y248762D03*
X901947Y223362D03*
X876547Y223362D03*
X901947Y197962D03*
X876547Y197962D03*
X901947Y172562D03*
X876547Y172562D03*
D24*
X408759Y292000D03*
X408759Y308000D03*
D25*
X673031Y314765D03*
X673031Y305265D03*
X673031Y295765D03*
X698031Y295765D03*
X698031Y314765D03*
D24*
X764257Y173185D03*
D26*
X764257Y182435D03*
X764257Y190435D03*
D24*
X764257Y199685D03*
X746257Y199685D03*
D26*
X746257Y190435D03*
X746257Y182435D03*
D24*
X746257Y173185D03*
X764420Y231692D03*
D26*
X764420Y240942D03*
X764420Y248942D03*
D24*
X764420Y258192D03*
X746420Y258192D03*
D26*
X746420Y248942D03*
X746420Y240942D03*
D24*
X746420Y231692D03*
X764211Y293094D03*
D26*
X764211Y302344D03*
X764211Y310344D03*
D24*
X764211Y319594D03*
X746211Y319594D03*
D26*
X746211Y310344D03*
X746211Y302344D03*
D24*
X746211Y293094D03*
X763684Y351073D03*
D26*
X763684Y360323D03*
X763684Y368323D03*
D24*
X763684Y377573D03*
X745684Y377573D03*
D26*
X745684Y368323D03*
X745684Y360323D03*
D24*
X745684Y351073D03*
X763211Y405553D03*
D26*
X763211Y414803D03*
X763211Y422803D03*
D24*
X763211Y432053D03*
X745211Y432053D03*
D26*
X745211Y422803D03*
X745211Y414803D03*
D24*
X745211Y405553D03*
D27*
X550783Y367403D03*
X561783Y367403D03*
X561737Y393211D03*
X550737Y393211D03*
X561712Y380337D03*
X550712Y380337D03*
X561685Y405971D03*
X550685Y405971D03*
D28*
X322971Y61592D03*
X364471Y61592D03*
X322971Y40092D03*
X364471Y40092D03*
X323061Y560489D03*
X364561Y560489D03*
X323061Y538989D03*
X364561Y538989D03*
D29*
X290554Y149923D03*
X290554Y156423D03*
X290554Y162923D03*
X290554Y169423D03*
X290554Y175923D03*
X290554Y182423D03*
X290554Y188923D03*
X290554Y195423D03*
X290554Y201923D03*
X290554Y208423D03*
X290554Y214923D03*
X290554Y221423D03*
X290554Y227923D03*
X290554Y234423D03*
X218207Y234423D03*
X218207Y227923D03*
X218207Y221423D03*
X218207Y214923D03*
X218207Y208423D03*
X218207Y201923D03*
X218207Y195423D03*
X218207Y188923D03*
X218207Y182423D03*
X218207Y175923D03*
X218207Y169423D03*
X218207Y162923D03*
X218207Y156423D03*
X218207Y149923D03*
D30*
X550981Y566232D03*
X506981Y566232D03*
X506981Y542232D03*
X550981Y542232D03*
D31*
X168071Y82516D03*
X145071Y82516D03*
X122071Y82516D03*
D32*
X145071Y19516D03*
D31*
X123697Y517996D03*
X146697Y517996D03*
X169697Y517996D03*
D32*
X146697Y580996D03*
D13*
X488839Y185358D03*
X479639Y185358D03*
X488649Y250740D03*
X479449Y250740D03*
X478906Y303205D03*
X488106Y303205D03*
X488903Y172295D03*
X479703Y172295D03*
X479703Y159319D03*
X488903Y159319D03*
X479766Y146588D03*
X488966Y146588D03*
X488903Y198207D03*
X479703Y198207D03*
X488712Y211120D03*
X479512Y211120D03*
X487760Y355671D03*
X478560Y355671D03*
D33*
X608690Y255748D03*
X608690Y247748D03*
X608690Y239748D03*
X608690Y231748D03*
X625690Y231748D03*
X625690Y239748D03*
X625690Y247748D03*
X625690Y255748D03*
X625690Y174748D03*
X625690Y182748D03*
X625690Y190748D03*
X625690Y198748D03*
X608690Y198748D03*
X608690Y190748D03*
X608690Y182748D03*
X608690Y174748D03*
X608690Y312748D03*
X608690Y304748D03*
X608690Y296748D03*
X608690Y288748D03*
X625690Y288748D03*
X625690Y296748D03*
X625690Y304748D03*
X625690Y312748D03*
X608690Y369748D03*
X608690Y361748D03*
X608690Y353748D03*
X608690Y345748D03*
X625690Y345748D03*
X625690Y353748D03*
X625690Y361748D03*
X625690Y369748D03*
X608690Y426748D03*
X608690Y418748D03*
X608690Y410748D03*
X608690Y402748D03*
X625690Y402748D03*
X625690Y410748D03*
X625690Y418748D03*
X625690Y426748D03*
D34*
X562357Y430150D02*
X559181Y430150D01*
X562357Y430150D02*
X562357Y426974D01*
X559181Y426974D01*
X559181Y430150D01*
X559181Y429990D02*
X562357Y429990D01*
X553467Y430150D02*
X550291Y430150D01*
X553467Y430150D02*
X553467Y426974D01*
X550291Y426974D01*
X550291Y430150D01*
X550291Y429990D02*
X553467Y429990D01*
X553340Y416560D02*
X550164Y416560D01*
X550164Y419736D01*
X553340Y419736D01*
X553340Y416560D01*
X553340Y419576D02*
X550164Y419576D01*
X559054Y416560D02*
X562230Y416560D01*
X559054Y416560D02*
X559054Y419736D01*
X562230Y419736D01*
X562230Y416560D01*
X562230Y419576D02*
X559054Y419576D01*
D35*
X596964Y41275D03*
D36*
X622364Y41275D03*
X647764Y41275D03*
X673164Y41275D03*
X698564Y41275D03*
X723964Y41275D03*
X749364Y41275D03*
X774764Y41275D03*
X800164Y41275D03*
X825564Y41275D03*
X850964Y41275D03*
D35*
X850011Y560515D03*
D36*
X824611Y560515D03*
X799211Y560515D03*
X773811Y560515D03*
X748411Y560515D03*
X723011Y560515D03*
X697611Y560515D03*
X672211Y560515D03*
X646811Y560515D03*
X621411Y560515D03*
X596011Y560515D03*
D37*
X19825Y371924D03*
X19825Y382924D03*
X19825Y393924D03*
X19825Y404924D03*
X19825Y415924D03*
X19825Y426924D03*
X19825Y437924D03*
X19825Y448924D03*
D38*
X127825Y348174D03*
D39*
X112075Y460174D03*
D40*
X21075Y347424D03*
D41*
X21075Y460924D03*
D42*
X103575Y344174D03*
D43*
X97075Y463424D03*
D44*
X47638Y230424D03*
X47638Y223924D03*
X47638Y217424D03*
X47638Y210924D03*
X47638Y204424D03*
D45*
X47638Y242424D03*
X47638Y192424D03*
X20638Y252424D03*
D46*
X20638Y227424D03*
X20638Y207424D03*
D45*
X20638Y182424D03*
D47*
X549600Y247200D02*
X549600Y248800D01*
X549600Y247200D02*
X540800Y238400D01*
X680000Y234400D02*
X680000Y218400D01*
X694400Y204000D01*
X697600Y204000D01*
X550236Y249337D02*
X549600Y248800D01*
X697600Y204000D02*
X697831Y203765D01*
X500800Y407200D02*
X488000Y407200D01*
X500800Y407200D02*
X537600Y370400D01*
X541600Y370400D01*
X661600Y355200D02*
X671200Y355200D01*
X672800Y353600D01*
X488000Y407200D02*
X487849Y407641D01*
X672800Y353600D02*
X673531Y353565D01*
X673600Y352800D02*
X673600Y344800D01*
X673531Y344065D01*
X673600Y352800D02*
X673531Y353565D01*
X660000Y331200D02*
X660000Y234400D01*
X660000Y331200D02*
X672800Y344000D01*
X673531Y344065D01*
D48*
X540800Y238400D03*
X680000Y234400D03*
X541600Y370400D03*
X661600Y355200D03*
X660000Y234400D03*
D47*
X568000Y219200D02*
X564800Y219200D01*
X568000Y219200D02*
X573600Y213600D01*
X650400Y213600D02*
X669600Y194400D01*
X672800Y194400D01*
X564800Y219200D02*
X564264Y219680D01*
X672800Y194400D02*
X672831Y194265D01*
D48*
X573600Y213600D03*
X650400Y213600D03*
D47*
X549600Y216000D02*
X549600Y219200D01*
X549600Y216000D02*
X540800Y207200D01*
X540800Y191200D01*
X709600Y191200D02*
X709600Y204800D01*
X701600Y212800D01*
X698400Y212800D01*
X550264Y219680D02*
X549600Y219200D01*
X697831Y213265D02*
X698400Y212800D01*
D48*
X540800Y191200D03*
X709600Y191200D03*
D47*
X196000Y338400D02*
X196000Y350400D01*
X196000Y338400D02*
X213600Y320800D01*
X218400Y320800D01*
X218800Y321200D02*
X220000Y322400D01*
X218800Y321200D02*
X218400Y320800D01*
X220000Y322400D02*
X220000Y330400D01*
X196000Y350400D02*
X195905Y350724D01*
X220000Y330400D02*
X220785Y330844D01*
X230400Y330400D02*
X230400Y323200D01*
X228000Y320800D01*
X219200Y320800D01*
X230400Y330400D02*
X230785Y330844D01*
X219200Y320800D02*
X218800Y321200D01*
X218400Y320800D02*
X218400Y240000D01*
X218400Y235200D01*
X218207Y234423D01*
X282400Y228000D02*
X290400Y228000D01*
X282400Y228000D02*
X270400Y240000D01*
X231200Y240000D02*
X218400Y240000D01*
X290400Y228000D02*
X290554Y227923D01*
X231200Y149600D02*
X218400Y149600D01*
X231200Y149600D02*
X232000Y148800D01*
X249600Y153600D02*
X249600Y158400D01*
X242000Y166000D02*
X225600Y182400D01*
X242000Y166000D02*
X249600Y158400D01*
X225600Y182400D02*
X218400Y182400D01*
X218207Y149923D02*
X218400Y149600D01*
X218400Y182400D02*
X218207Y182423D01*
X471200Y193600D02*
X479200Y185600D01*
X512000Y209780D02*
X512000Y222441D01*
X512000Y209780D02*
X499758Y197537D01*
X494400Y257239D02*
X494400Y280800D01*
X488800Y286400D01*
X488800Y290400D01*
X479200Y185600D02*
X479639Y185358D01*
X488800Y290400D02*
X488071Y290563D01*
X544800Y319200D02*
X549600Y319200D01*
X544800Y319200D02*
X531200Y305600D01*
X549600Y319200D02*
X550056Y319697D01*
X271200Y195200D02*
X242000Y166000D01*
X672800Y204000D02*
X672800Y212800D01*
X672800Y204000D02*
X672831Y203765D01*
X672800Y212800D02*
X672831Y213265D01*
X673600Y213600D02*
X673600Y242400D01*
X673431Y243065D01*
X673600Y213600D02*
X672831Y213265D01*
X673600Y261600D02*
X677600Y261600D01*
X682400Y256800D01*
X682400Y248800D01*
X676800Y243200D01*
X673600Y243200D01*
X673600Y261600D02*
X673431Y262065D01*
X673600Y243200D02*
X673431Y243065D01*
X698400Y308800D02*
X698400Y314400D01*
X698400Y308800D02*
X708000Y299200D01*
X708000Y292000D01*
X706400Y290400D01*
X698400Y290400D01*
X695200Y287200D01*
X681600Y287200D02*
X681600Y264800D01*
X678400Y261600D01*
X698400Y314400D02*
X698031Y314765D01*
X678400Y261600D02*
X673431Y262065D01*
X674400Y451200D02*
X674400Y454400D01*
X678400Y458400D01*
X688000Y458400D01*
X690400Y456000D01*
X690400Y452800D01*
X674400Y451200D02*
X673773Y450479D01*
X690400Y452800D02*
X690773Y452479D01*
X675200Y391200D02*
X675200Y388800D01*
X661200Y405200D02*
X658400Y408000D01*
X661200Y405200D02*
X675200Y391200D01*
X658400Y408000D02*
X658400Y442400D01*
X666400Y450400D01*
X673600Y450400D01*
X675200Y388800D02*
X675637Y388622D01*
X673600Y450400D02*
X673773Y450479D01*
X488000Y433600D02*
X488000Y420800D01*
X487739Y420487D01*
X488000Y433600D02*
X487857Y433672D01*
X488000Y434400D02*
X488000Y446400D01*
X487920Y446448D01*
X488000Y434400D02*
X487857Y433672D01*
X488000Y447200D02*
X488000Y459200D01*
X487947Y459306D01*
X488000Y447200D02*
X487920Y446448D01*
X519200Y393600D02*
X542400Y393600D01*
X550400Y393600D01*
X519200Y393600D02*
X492800Y420000D01*
X488000Y420000D01*
X550400Y393600D02*
X550737Y393211D01*
X488000Y420000D02*
X487739Y420487D01*
X655200Y399200D02*
X661200Y405200D01*
X542400Y399200D02*
X542400Y393600D01*
X698400Y331200D02*
X698400Y315200D01*
X698400Y331200D02*
X711200Y344000D01*
X711200Y388800D01*
X698400Y315200D02*
X698031Y314765D01*
X364000Y560800D02*
X323200Y560800D01*
X323061Y560489D01*
X364000Y560800D02*
X364561Y560489D01*
X195200Y415200D02*
X182400Y415200D01*
X180000Y412800D01*
X34400Y412800D02*
X32800Y412800D01*
X25600Y405600D01*
X20000Y405600D01*
X195200Y415200D02*
X195905Y415724D01*
X20000Y405600D02*
X19825Y404924D01*
X313600Y569600D02*
X322400Y560800D01*
X313600Y569600D02*
X308800Y569600D01*
X294400Y555200D01*
X294400Y541600D01*
X196800Y444000D01*
X196800Y432800D01*
X322400Y560800D02*
X323061Y560489D01*
X378400Y574400D02*
X378400Y576000D01*
X378400Y574400D02*
X364800Y560800D01*
X364561Y560489D01*
D48*
X270400Y240000D03*
X231200Y240000D03*
X232000Y148800D03*
X249600Y153600D03*
X471200Y193600D03*
X499758Y197537D03*
X531200Y305600D03*
X498525Y303759D03*
X271200Y195200D03*
X695200Y287200D03*
X681600Y287200D03*
X655200Y399200D03*
X542400Y399200D03*
X711200Y388800D03*
X180000Y412800D03*
X34400Y412800D03*
X196800Y432800D03*
X378400Y576000D03*
X526719Y321258D03*
D47*
X510731Y283401D02*
X510731Y271209D01*
X499990Y260468D01*
X498287Y260468D01*
X495057Y257239D01*
X494400Y257239D01*
X498525Y303759D02*
X509220Y303759D01*
X526719Y321258D01*
X494400Y257239D02*
X494400Y240041D01*
X512000Y222441D01*
X510731Y283401D02*
X505599Y288533D01*
X505599Y296685D01*
X498525Y303759D01*
X482400Y391200D02*
X479200Y394400D01*
X482400Y391200D02*
X482400Y390400D01*
X484000Y388800D01*
X492000Y388800D01*
X495784Y392584D01*
X495784Y399607D01*
X601601Y385690D02*
X601601Y370416D01*
X597130Y365945D01*
X597130Y360167D01*
X694400Y352800D02*
X694400Y348800D01*
X698400Y344800D01*
X479200Y394400D02*
X478536Y394570D01*
X698400Y344800D02*
X698531Y344065D01*
D48*
X495784Y399607D03*
X601601Y385690D03*
X597130Y360167D03*
X694400Y352800D03*
D47*
X479200Y316000D02*
X479200Y304000D01*
X478906Y303205D01*
X479200Y316000D02*
X478852Y316056D01*
X478400Y268000D02*
X478400Y264800D01*
X478400Y268000D02*
X464000Y282400D01*
X464000Y289600D01*
X470997Y296597D02*
X471353Y296953D01*
X478400Y264800D02*
X479170Y264327D01*
X479200Y316800D02*
X479200Y328800D01*
X478742Y329193D01*
X479200Y316800D02*
X478852Y316056D01*
X478400Y329600D02*
X478400Y341600D01*
X478596Y342206D01*
X478400Y329600D02*
X478742Y329193D01*
X478400Y342400D02*
X478400Y355200D01*
X478560Y355671D01*
X478400Y342400D02*
X478596Y342206D01*
X570400Y298819D02*
X570400Y240800D01*
X564800Y235200D01*
X564213Y234909D01*
X480000Y159200D02*
X480000Y147200D01*
X480000Y159200D02*
X479703Y159319D01*
X480000Y147200D02*
X479766Y146588D01*
X488800Y198400D02*
X488800Y210400D01*
X488712Y211120D01*
X488800Y198400D02*
X488903Y198207D01*
X479200Y160000D02*
X471200Y160000D01*
X494400Y192800D02*
X489600Y197600D01*
X479200Y160000D02*
X479703Y159319D01*
X489600Y197600D02*
X488903Y198207D01*
X564800Y231200D02*
X564800Y234400D01*
X564800Y231200D02*
X580000Y216000D01*
X580000Y178400D01*
X579600Y178000D02*
X554400Y152800D01*
X579600Y178000D02*
X580000Y178400D01*
X554400Y152800D02*
X506896Y152800D01*
X499696Y160000D01*
X564800Y234400D02*
X564213Y234909D01*
X471353Y296597D02*
X471353Y296953D01*
X570400Y298819D02*
X570765Y298819D01*
X577220Y298819D01*
X820800Y165600D02*
X820800Y164000D01*
X800800Y144000D01*
X721600Y144000D02*
X685600Y144000D01*
X721600Y144000D02*
X800800Y144000D01*
X685600Y144000D02*
X672800Y156800D01*
X820800Y165600D02*
X821447Y166148D01*
X672800Y156800D02*
X672331Y157265D01*
X695200Y362400D02*
X698400Y362400D01*
X695200Y362400D02*
X688000Y355200D01*
X688000Y334400D01*
X691200Y331200D01*
X691200Y321600D01*
X688000Y318400D01*
X688000Y285600D01*
X715200Y258400D01*
X715200Y194400D01*
X721600Y188000D01*
X721600Y144000D01*
X698400Y362400D02*
X698531Y363065D01*
X587200Y177600D02*
X580000Y177600D01*
X587200Y177600D02*
X592426Y172374D01*
X580000Y177600D02*
X579600Y178000D01*
X672000Y157600D02*
X672331Y157265D01*
X236000Y331200D02*
X236000Y364000D01*
X250400Y378400D01*
X250400Y445600D01*
X236000Y331200D02*
X235785Y330844D01*
X250400Y445600D02*
X250785Y445604D01*
X216000Y446400D02*
X216000Y453600D01*
X221600Y459200D01*
X244800Y459200D01*
X250000Y454000D02*
X250400Y453600D01*
X250000Y454000D02*
X244800Y459200D01*
X250400Y453600D02*
X250400Y446400D01*
X216000Y446400D02*
X215785Y445604D01*
X250400Y446400D02*
X250785Y445604D01*
X260000Y446400D02*
X260000Y453600D01*
X258000Y455600D02*
X257600Y456000D01*
X258000Y455600D02*
X260000Y453600D01*
X257600Y456000D02*
X252000Y456000D01*
X250000Y454000D01*
X260000Y446400D02*
X260785Y445604D01*
X260000Y331200D02*
X256000Y331200D01*
X255785Y330844D01*
X260000Y331200D02*
X260785Y330844D01*
X275200Y436000D02*
X275200Y445600D01*
X275200Y436000D02*
X274400Y435200D01*
X274400Y382400D01*
X260000Y368000D01*
X260000Y332000D01*
X275200Y445600D02*
X275785Y445604D01*
X260000Y332000D02*
X260785Y330844D01*
X360800Y544800D02*
X376000Y560000D01*
X360800Y544800D02*
X316800Y544800D01*
X310400Y538400D01*
X310400Y488000D01*
X297600Y475200D02*
X276000Y453600D01*
X297600Y475200D02*
X310400Y488000D01*
X276000Y453600D02*
X276000Y446400D01*
X275785Y445604D01*
X258400Y456000D02*
X258400Y496000D01*
X300800Y538400D01*
X300800Y548000D01*
X304800Y552000D01*
X309600Y552000D01*
X316800Y544800D01*
X258400Y456000D02*
X258000Y455600D01*
X478400Y359200D02*
X478400Y356000D01*
X478400Y359200D02*
X469600Y368000D01*
X469600Y450400D01*
X470400Y451200D01*
X318400Y454400D02*
X297600Y475200D01*
X478400Y356000D02*
X478560Y355671D01*
D48*
X471200Y160000D03*
X499696Y160000D03*
X471353Y296597D03*
X577220Y298819D03*
X376000Y560000D03*
X470400Y451200D03*
X318400Y454400D03*
D47*
X470997Y296597D02*
X464000Y289600D01*
X470997Y296597D02*
X471353Y296597D01*
X472654Y296953D02*
X478906Y303205D01*
X472654Y296953D02*
X471353Y296953D01*
X494400Y165296D02*
X499696Y160000D01*
X494400Y165296D02*
X494400Y192800D01*
X592426Y172374D02*
X592426Y156683D01*
X668134Y153734D02*
X672000Y157600D01*
X595376Y153734D02*
X592426Y156683D01*
X595376Y153734D02*
X668134Y153734D01*
X570765Y298819D02*
X564069Y305515D01*
X826400Y436000D02*
X826400Y440800D01*
X831200Y445600D01*
X857600Y445600D01*
X870400Y458400D02*
X870400Y487200D01*
X876800Y493600D01*
X876800Y503111D01*
X860000Y574400D02*
X635200Y574400D01*
X621600Y560800D01*
X826400Y436000D02*
X826261Y435348D01*
X621600Y560800D02*
X621411Y560515D01*
X270400Y445600D02*
X268000Y445600D01*
X266400Y445600D01*
X265785Y445604D01*
X270400Y445600D02*
X270785Y445604D01*
X280800Y445600D02*
X280800Y432800D01*
X268000Y432800D02*
X268000Y445600D01*
X280785Y445604D02*
X280800Y445600D01*
X240800Y338400D02*
X240800Y331200D01*
X240800Y338400D02*
X243200Y340800D01*
X248000Y340800D01*
X248400Y340400D02*
X250400Y338400D01*
X248400Y340400D02*
X248000Y340800D01*
X250400Y338400D02*
X250400Y331200D01*
X240800Y331200D02*
X240785Y330844D01*
X250400Y331200D02*
X250785Y330844D01*
X265600Y330400D02*
X265600Y323200D01*
X263200Y320800D01*
X254400Y320800D02*
X253600Y320800D01*
X254400Y320800D02*
X263200Y320800D01*
X253600Y320800D02*
X251200Y323200D01*
X251200Y330400D01*
X265600Y330400D02*
X265785Y330844D01*
X251200Y330400D02*
X250785Y330844D01*
X268000Y380800D02*
X268000Y432800D01*
X268000Y380800D02*
X248800Y361600D01*
X248800Y340800D01*
X248400Y340400D01*
X478400Y279200D02*
X478400Y277600D01*
X478400Y279200D02*
X470400Y287200D01*
X499531Y290185D02*
X499531Y292470D01*
X488800Y303200D01*
X478400Y277600D02*
X478868Y277413D01*
X488106Y303205D02*
X488800Y303200D01*
X488000Y304000D02*
X488000Y316000D01*
X488052Y316056D01*
X488000Y304000D02*
X488106Y303205D01*
X480000Y236800D02*
X480000Y224800D01*
X479503Y224178D01*
X480000Y236800D02*
X479520Y237240D01*
X480000Y237600D02*
X480000Y250400D01*
X479449Y250740D01*
X480000Y237600D02*
X479520Y237240D01*
X479200Y176000D02*
X479200Y172800D01*
X479200Y176000D02*
X464800Y190400D01*
X464800Y207200D01*
X498654Y210947D02*
X499188Y210947D01*
X498654Y210947D02*
X491200Y218400D01*
X484800Y218400D01*
X479200Y224000D01*
X479200Y172800D02*
X479703Y172295D01*
X479200Y224000D02*
X479503Y224178D01*
X564800Y204000D02*
X573600Y204000D01*
X564800Y204000D02*
X564390Y204477D01*
X698400Y256000D02*
X698400Y261600D01*
X698400Y256000D02*
X686400Y244000D01*
X686400Y226400D01*
X698400Y261600D02*
X698431Y262065D01*
X457600Y272800D02*
X457600Y287200D01*
X457600Y272800D02*
X479200Y251200D01*
X479449Y250740D01*
X254400Y228000D02*
X254400Y320800D01*
X307200Y489600D02*
X307200Y545600D01*
X307200Y489600D02*
X271200Y453600D01*
X271200Y446400D01*
X270785Y445604D01*
D48*
X857600Y445600D03*
X870400Y458400D03*
X280800Y432800D03*
X268000Y432800D03*
X470400Y287200D03*
X499531Y290185D03*
X464800Y207200D03*
X499188Y210947D03*
X573600Y204000D03*
X686400Y226400D03*
X457600Y287200D03*
X254400Y228000D03*
X307200Y545600D03*
D47*
X873759Y506151D02*
X876800Y503111D01*
X864870Y563878D02*
X864870Y569530D01*
X860000Y574400D01*
X864870Y563878D02*
X873759Y554989D01*
X873759Y506151D01*
X820000Y372000D02*
X820000Y366400D01*
X820000Y372000D02*
X823200Y375200D01*
X843200Y375200D01*
X855200Y363200D01*
X820000Y366400D02*
X819761Y366248D01*
D48*
X855200Y363200D03*
D47*
X745600Y191200D02*
X736000Y191200D01*
X721600Y205600D01*
X617600Y205600D02*
X617600Y197600D01*
X611200Y191200D01*
X608800Y191200D01*
X745600Y191200D02*
X746257Y190435D01*
X608800Y191200D02*
X608690Y190748D01*
X311200Y348000D02*
X311200Y350400D01*
X311200Y348000D02*
X343200Y316000D01*
X343200Y280000D01*
X352800Y270400D01*
X577372Y270337D02*
X577372Y223429D01*
X601600Y199200D01*
X601600Y195200D01*
X605600Y191200D01*
X608000Y191200D01*
X311200Y350400D02*
X310665Y350724D01*
X608000Y191200D02*
X608690Y190748D01*
D48*
X721600Y205600D03*
X617600Y205600D03*
X352800Y270400D03*
X577372Y270337D03*
D47*
X742400Y172800D02*
X745600Y172800D01*
X742400Y172800D02*
X738400Y168800D01*
X728000Y168800D01*
X608690Y170250D02*
X608690Y174748D01*
X608690Y170250D02*
X603925Y165485D01*
X745600Y172800D02*
X746257Y173185D01*
X318400Y355200D02*
X311200Y355200D01*
X318400Y355200D02*
X346400Y327200D01*
X346400Y285600D01*
X366400Y265600D01*
X366400Y249600D01*
X370540Y245461D01*
X370540Y242642D01*
X392495Y242134D02*
X392495Y241105D01*
X456800Y176800D01*
X311200Y355200D02*
X310665Y355724D01*
D48*
X728000Y168800D03*
X603925Y165485D03*
X370540Y242642D03*
X392495Y242134D03*
X456800Y176800D03*
D47*
X488000Y382400D02*
X494400Y382400D01*
X501600Y389600D01*
X568800Y376800D02*
X578400Y376800D01*
X568800Y376800D02*
X564800Y372800D01*
X556000Y372800D01*
X551200Y368000D01*
X488000Y382400D02*
X487712Y381783D01*
X550783Y367403D02*
X551200Y368000D01*
X608800Y217600D02*
X608800Y199200D01*
X608800Y217600D02*
X611200Y220000D01*
X725600Y220000D02*
X745600Y200000D01*
X608800Y199200D02*
X608690Y198748D01*
X745600Y200000D02*
X746257Y199685D01*
X616800Y266400D02*
X616800Y376000D01*
X616800Y266400D02*
X615200Y264800D01*
X602527Y260127D02*
X602527Y270452D01*
X602527Y260127D02*
X601600Y259200D01*
X601600Y228800D01*
X610400Y220000D01*
X611200Y220000D01*
D48*
X501600Y389600D03*
X578400Y376800D03*
X611200Y220000D03*
X725600Y220000D03*
X616800Y376000D03*
X615200Y264800D03*
X602527Y270452D03*
D47*
X608800Y182400D02*
X611200Y182400D01*
X618400Y175200D01*
X618400Y172000D01*
X620000Y170400D01*
X710400Y170400D01*
X715200Y175200D01*
X736000Y175200D02*
X743200Y182400D01*
X745600Y182400D01*
X608800Y182400D02*
X608690Y182748D01*
X745600Y182400D02*
X746257Y182435D01*
D48*
X715200Y175200D03*
X736000Y175200D03*
D47*
X820000Y411200D02*
X820000Y416000D01*
X820000Y411200D02*
X829600Y401600D01*
X876000Y401600D01*
X820000Y416000D02*
X819761Y416348D01*
X876000Y401600D02*
X876547Y401162D01*
X764800Y172800D02*
X779200Y158400D01*
X914400Y204800D02*
X914400Y215200D01*
X924800Y225600D01*
X924800Y378400D01*
X902400Y400800D01*
X764257Y173185D02*
X764800Y172800D01*
X902400Y400800D02*
X901947Y401162D01*
D48*
X779200Y158400D03*
X914400Y204800D03*
D47*
X786400Y241600D02*
X764800Y241600D01*
X786400Y241600D02*
X807200Y262400D01*
X807200Y346400D01*
X805600Y348000D01*
X764800Y241600D02*
X764420Y240942D01*
X832800Y335200D02*
X832800Y340800D01*
X843200Y351200D01*
X875200Y351200D01*
X876000Y350400D01*
X832800Y335200D02*
X832761Y335148D01*
X876000Y350400D02*
X876547Y350362D01*
D48*
X805600Y348000D03*
D47*
X785600Y257600D02*
X764800Y257600D01*
X785600Y257600D02*
X789600Y253600D01*
X807200Y253600D02*
X807200Y257600D01*
X810400Y260800D01*
X810400Y295200D01*
X825600Y310400D01*
X825600Y316000D01*
X764420Y258192D02*
X764800Y257600D01*
X825600Y316000D02*
X826261Y316148D01*
X876000Y314400D02*
X876000Y324800D01*
X876000Y314400D02*
X856000Y294400D01*
X856000Y277600D01*
X876000Y324800D02*
X876547Y324962D01*
D48*
X789600Y253600D03*
X807200Y253600D03*
X856000Y277600D03*
D47*
X764000Y249600D02*
X760800Y249600D01*
X756800Y253600D01*
X756800Y269600D01*
X774400Y287200D01*
X774400Y292800D01*
X764000Y249600D02*
X764420Y248942D01*
X825600Y335200D02*
X825600Y347200D01*
X818400Y354400D01*
X798400Y354400D02*
X798400Y312800D01*
X825600Y335200D02*
X826261Y335148D01*
D48*
X774400Y292800D03*
X818400Y354400D03*
X798400Y354400D03*
X798400Y312800D03*
D47*
X819200Y316800D02*
X819200Y324000D01*
X812000Y331200D01*
X812000Y369600D01*
X819200Y316800D02*
X819761Y316148D01*
D48*
X812000Y369600D03*
D47*
X625600Y232000D02*
X623200Y232000D01*
X618400Y236800D01*
X618400Y259200D01*
X620000Y260800D01*
X653600Y260800D01*
X736000Y260800D02*
X744000Y260800D01*
X746400Y258400D01*
X625690Y231748D02*
X625600Y232000D01*
X746420Y258192D02*
X746400Y258400D01*
X310400Y360000D02*
X302400Y360000D01*
X300800Y358400D01*
X300800Y260800D01*
X331200Y230400D01*
X331200Y200000D01*
X636000Y197600D02*
X636000Y221600D01*
X626400Y231200D01*
X310400Y360000D02*
X310665Y360724D01*
X625690Y231748D02*
X626400Y231200D01*
D48*
X653600Y260800D03*
X736000Y260800D03*
X331200Y200000D03*
X636000Y197600D03*
D47*
X636000Y240000D02*
X643200Y240000D01*
X636000Y240000D02*
X626400Y240000D01*
X643200Y240000D02*
X650400Y247200D01*
X736000Y247200D02*
X744800Y247200D01*
X746400Y248800D01*
X626400Y240000D02*
X625690Y239748D01*
X746400Y248800D02*
X746420Y248942D01*
X318400Y365600D02*
X311200Y365600D01*
X318400Y365600D02*
X352800Y331200D01*
X352800Y293600D01*
X336800Y293600D02*
X336800Y274400D01*
X636000Y240000D02*
X636000Y232000D01*
X311200Y365600D02*
X310665Y365724D01*
D48*
X650400Y247200D03*
X736000Y247200D03*
X352800Y293600D03*
X336800Y293600D03*
X364800Y233600D03*
X636000Y232000D03*
D47*
X364800Y233600D02*
X351981Y246420D01*
X351981Y259220D01*
X336800Y274400D01*
X726400Y240800D02*
X746400Y240800D01*
X636000Y246400D02*
X627200Y246400D01*
X626400Y247200D01*
X746400Y240800D02*
X746420Y240942D01*
X626400Y247200D02*
X625690Y247748D01*
X318400Y370400D02*
X311200Y370400D01*
X318400Y370400D02*
X364000Y324800D01*
X364000Y276800D01*
X311200Y370400D02*
X310665Y370724D01*
D48*
X726400Y240800D03*
X636000Y246400D03*
X364000Y276800D03*
D47*
X641600Y255200D02*
X650400Y255200D01*
X641600Y255200D02*
X626400Y255200D01*
X650400Y255200D02*
X652000Y253600D01*
X652800Y253600D01*
X656800Y249600D01*
X656800Y240000D01*
X653600Y236800D01*
X653600Y220800D01*
X660800Y213600D01*
X753600Y213600D02*
X753600Y224800D01*
X747200Y231200D01*
X626400Y255200D02*
X625690Y255748D01*
X746420Y231692D02*
X747200Y231200D01*
X318400Y375200D02*
X311200Y375200D01*
X318400Y375200D02*
X372800Y320800D01*
X372800Y261880D01*
X641600Y255200D02*
X641600Y254400D01*
X311200Y375200D02*
X310665Y375724D01*
D48*
X660800Y213600D03*
X753600Y213600D03*
X372800Y261880D03*
X641600Y254400D03*
D47*
X626400Y182400D02*
X626400Y175200D01*
X625690Y174748D01*
X626400Y182400D02*
X625690Y182748D01*
X626400Y191200D02*
X626400Y198400D01*
X626400Y191200D02*
X625690Y190748D01*
X626400Y198400D02*
X625690Y198748D01*
X684800Y193600D02*
X697600Y193600D01*
X684800Y193600D02*
X680000Y188800D01*
X636000Y188800D02*
X628000Y188800D01*
X636000Y188800D02*
X680000Y188800D01*
X628000Y188800D02*
X626400Y190400D01*
X697600Y193600D02*
X697831Y194265D01*
X626400Y190400D02*
X625690Y190748D01*
X626400Y189600D02*
X626400Y183200D01*
X625690Y182748D01*
X626400Y189600D02*
X625690Y190748D01*
X479200Y434400D02*
X479200Y446400D01*
X479200Y434400D02*
X478657Y433672D01*
X479200Y446400D02*
X478720Y446448D01*
X479200Y447200D02*
X479200Y459200D01*
X478747Y459306D01*
X479200Y447200D02*
X478720Y446448D01*
X478400Y372000D02*
X478400Y369600D01*
X478400Y372000D02*
X472800Y377600D01*
X472800Y401600D01*
X478400Y407200D01*
X478400Y369600D02*
X478604Y368895D01*
X478400Y407200D02*
X478649Y407641D01*
X478400Y408000D02*
X478400Y420000D01*
X478539Y420487D01*
X478400Y408000D02*
X478649Y407641D01*
X487200Y397600D02*
X487200Y395200D01*
X487200Y397600D02*
X478400Y406400D01*
X487200Y395200D02*
X487736Y394570D01*
X478400Y406400D02*
X478649Y407641D01*
X479200Y420800D02*
X479200Y433600D01*
X478657Y433672D01*
X479200Y420800D02*
X478539Y420487D01*
X552000Y420000D02*
X552000Y418400D01*
X552000Y420000D02*
X560000Y428000D01*
X552000Y418400D02*
X551752Y418148D01*
X560000Y428000D02*
X560769Y428562D01*
X561600Y408000D02*
X561600Y406400D01*
X561600Y408000D02*
X552000Y417600D01*
X561600Y406400D02*
X561685Y405971D01*
X552000Y417600D02*
X551752Y418148D01*
X562400Y380000D02*
X572800Y380000D01*
X576400Y383600D02*
X576800Y384000D01*
X576400Y383600D02*
X572800Y380000D01*
X576800Y384000D02*
X576800Y391200D01*
X575758Y392243D02*
X562400Y405600D01*
X575758Y392243D02*
X576800Y391200D01*
X562400Y380000D02*
X561712Y380337D01*
X562400Y405600D02*
X561685Y405971D01*
X548800Y341600D02*
X548800Y336000D01*
X548800Y341600D02*
X548800Y351200D01*
X549110Y351864D01*
X548800Y336000D02*
X549310Y335364D01*
X608800Y403200D02*
X608800Y410400D01*
X608800Y403200D02*
X608690Y402748D01*
X608800Y410400D02*
X608690Y410748D01*
X608800Y419200D02*
X608800Y426400D01*
X608800Y419200D02*
X608690Y418748D01*
X608800Y426400D02*
X608690Y426748D01*
X608800Y418400D02*
X608800Y411200D01*
X608690Y410748D01*
X608800Y418400D02*
X608690Y418748D01*
X608800Y353600D02*
X608800Y346400D01*
X608690Y345748D01*
X608800Y353600D02*
X608690Y353748D01*
X608800Y362400D02*
X608800Y369600D01*
X608800Y362400D02*
X608690Y361748D01*
X608800Y369600D02*
X608690Y369748D01*
X608800Y361600D02*
X608800Y354400D01*
X608690Y353748D01*
X608800Y361600D02*
X608690Y361748D01*
X608800Y239200D02*
X608800Y232000D01*
X608690Y231748D01*
X608800Y239200D02*
X608690Y239748D01*
X608800Y248000D02*
X608800Y255200D01*
X608800Y248000D02*
X608690Y247748D01*
X608800Y255200D02*
X608690Y255748D01*
X608800Y247200D02*
X608800Y240000D01*
X608690Y239748D01*
X608800Y247200D02*
X608690Y247748D01*
X608800Y288800D02*
X608800Y296000D01*
X608800Y288800D02*
X608690Y288748D01*
X608800Y296000D02*
X608690Y296748D01*
X601600Y319200D02*
X573600Y319200D01*
X564800Y319200D01*
X602000Y318800D02*
X608000Y312800D01*
X602000Y318800D02*
X601600Y319200D01*
X564800Y319200D02*
X564056Y319697D01*
X608000Y312800D02*
X608690Y312748D01*
X608800Y312000D02*
X608800Y304800D01*
X608690Y304748D01*
X608800Y312000D02*
X608690Y312748D01*
X608800Y304000D02*
X608800Y296800D01*
X608690Y296748D01*
X608800Y304000D02*
X608690Y304748D01*
X608800Y288000D02*
X608800Y256000D01*
X608690Y255748D01*
X608800Y288000D02*
X608690Y288748D01*
X608000Y324800D02*
X608000Y345600D01*
X608000Y324800D02*
X602000Y318800D01*
X608000Y345600D02*
X608690Y345748D01*
X608800Y370400D02*
X608800Y383200D01*
X608800Y384000D01*
X608800Y392684D01*
X608800Y399126D01*
X608800Y400114D02*
X608800Y402400D01*
X608690Y402748D01*
X608800Y370400D02*
X608690Y369748D01*
X572000Y341600D02*
X548800Y341600D01*
X572000Y341600D02*
X573600Y340000D01*
X573600Y319200D01*
X479200Y460000D02*
X484000Y464800D01*
X502400Y464800D01*
X546400Y420800D01*
X552000Y420800D01*
X479200Y460000D02*
X478747Y459306D01*
X552000Y420800D02*
X551752Y418148D01*
X625600Y214400D02*
X625600Y199200D01*
X625600Y214400D02*
X608800Y231200D01*
X625600Y199200D02*
X625690Y198748D01*
X608800Y231200D02*
X608690Y231748D01*
X764800Y183200D02*
X819200Y183200D01*
X820800Y184800D01*
X764800Y183200D02*
X764257Y182435D01*
X820800Y184800D02*
X821447Y185148D01*
X819200Y277600D02*
X819200Y284800D01*
X819200Y277600D02*
X813600Y272000D01*
X813600Y244800D01*
X820800Y237600D01*
X820800Y236000D01*
X819200Y284800D02*
X819761Y285448D01*
X820800Y236000D02*
X821413Y235736D01*
X820000Y329600D02*
X820000Y334400D01*
X820000Y329600D02*
X824800Y324800D01*
X836000Y324800D01*
X836400Y324400D02*
X837600Y323200D01*
X836400Y324400D02*
X836000Y324800D01*
X837600Y323200D02*
X837600Y309600D01*
X834400Y306400D01*
X830400Y306400D01*
X820000Y296000D01*
X820000Y285600D01*
X820000Y334400D02*
X819761Y335148D01*
X820000Y285600D02*
X819761Y285448D01*
X820800Y200000D02*
X820800Y185600D01*
X820800Y200000D02*
X816800Y204000D01*
X816800Y230400D01*
X821600Y235200D01*
X820800Y185600D02*
X821447Y185148D01*
X821600Y235200D02*
X821413Y235736D01*
X819200Y385600D02*
X819200Y405600D01*
X815200Y409600D01*
X815200Y426400D02*
X815200Y431200D01*
X815200Y426400D02*
X815200Y409600D01*
X815200Y431200D02*
X819200Y435200D01*
X819200Y385600D02*
X819761Y385248D01*
X819200Y435200D02*
X819761Y435348D01*
X832000Y435200D02*
X832000Y429600D01*
X831600Y429200D02*
X828800Y426400D01*
X831600Y429200D02*
X832000Y429600D01*
X828800Y426400D02*
X815200Y426400D01*
X832000Y435200D02*
X832761Y435348D01*
X876800Y427200D02*
X901600Y427200D01*
X876800Y427200D02*
X876547Y426562D01*
X901600Y427200D02*
X901947Y426562D01*
X874400Y428800D02*
X832000Y428800D01*
X874400Y428800D02*
X876000Y427200D01*
X832000Y428800D02*
X831600Y429200D01*
X876000Y427200D02*
X876547Y426562D01*
X672800Y252800D02*
X669600Y252800D01*
X663200Y259200D01*
X663200Y299200D01*
X668800Y304800D01*
X672800Y304800D01*
X672800Y252800D02*
X673431Y252565D01*
X672800Y304800D02*
X673031Y305265D01*
X694400Y436000D02*
X697600Y436000D01*
X694400Y436000D02*
X692000Y438400D01*
X692000Y443200D01*
X693600Y444800D01*
X697600Y444800D01*
X697600Y436000D02*
X697773Y435479D01*
X697600Y444800D02*
X697773Y445479D01*
X674400Y430400D02*
X674400Y418400D01*
X690400Y402400D01*
X696000Y402400D01*
X674400Y430400D02*
X673773Y430479D01*
X696000Y402400D02*
X696465Y401830D01*
X698400Y435200D02*
X700800Y435200D01*
X703200Y432800D01*
X703200Y420800D01*
X698400Y416000D01*
X698400Y404800D02*
X698400Y404000D01*
X698400Y404800D02*
X698400Y416000D01*
X698400Y404000D02*
X696800Y402400D01*
X698400Y435200D02*
X697773Y435479D01*
X696800Y402400D02*
X696465Y401830D01*
X682400Y363200D02*
X673600Y363200D01*
X682400Y363200D02*
X704800Y385600D01*
X704800Y398400D01*
X698400Y404800D01*
X673600Y363200D02*
X673531Y363065D01*
X668000Y306400D02*
X668000Y304800D01*
X668000Y306400D02*
X663200Y311200D01*
X663200Y320800D01*
X678000Y335600D02*
X682400Y340000D01*
X678000Y335600D02*
X663200Y320800D01*
X682400Y340000D02*
X682400Y363200D01*
X673031Y305265D02*
X668000Y304800D01*
X810400Y376000D02*
X819200Y384800D01*
X810400Y376000D02*
X809600Y376000D01*
X789600Y356000D01*
X789600Y328800D01*
X684800Y328800D02*
X678000Y335600D01*
X819200Y384800D02*
X819761Y385248D01*
X836800Y327200D02*
X836800Y324800D01*
X836800Y327200D02*
X840800Y331200D01*
X840800Y344000D01*
X844800Y348000D01*
X849600Y348000D01*
X853600Y344000D01*
X853600Y332000D01*
X850400Y328800D01*
X836800Y324800D02*
X836400Y324400D01*
X656800Y384000D02*
X608800Y384000D01*
X656800Y384000D02*
X673600Y367200D01*
X673600Y364000D01*
X673531Y363065D01*
X488800Y236800D02*
X488800Y227200D01*
X488800Y224800D01*
X488703Y224178D01*
X488800Y236800D02*
X488720Y237240D01*
X488800Y237600D02*
X488800Y250400D01*
X488649Y250740D01*
X488800Y237600D02*
X488720Y237240D01*
X488000Y264800D02*
X488000Y276800D01*
X488068Y277413D01*
X488000Y264800D02*
X488370Y264327D01*
X479200Y287200D02*
X479200Y290400D01*
X479200Y287200D02*
X488800Y277600D01*
X488068Y277413D01*
X488800Y264000D02*
X488800Y251200D01*
X488649Y250740D01*
X488800Y264000D02*
X488370Y264327D01*
X564000Y184800D02*
X564000Y176000D01*
X564000Y184800D02*
X564000Y189600D01*
X564185Y189782D01*
X564000Y176000D02*
X564244Y175273D01*
X564000Y190400D02*
X550400Y204000D01*
X550390Y204477D01*
X564000Y190400D02*
X564185Y189782D01*
X550400Y235200D02*
X564000Y248800D01*
X550400Y235200D02*
X550213Y234909D01*
X564000Y248800D02*
X564236Y249337D01*
X564800Y264000D02*
X564800Y277600D01*
X564800Y264000D02*
X564140Y263849D01*
X564800Y277600D02*
X564140Y277949D01*
X564800Y278400D02*
X564800Y291200D01*
X564140Y291949D01*
X564800Y278400D02*
X564140Y277949D01*
X564000Y263200D02*
X564000Y249600D01*
X564236Y249337D01*
X564000Y263200D02*
X564140Y263849D01*
X550400Y208000D02*
X550400Y204800D01*
X550400Y208000D02*
X556800Y214400D01*
X556800Y228000D01*
X550400Y234400D01*
X550400Y204800D02*
X550390Y204477D01*
X550400Y234400D02*
X550213Y234909D01*
X499695Y224406D02*
X488710Y224406D01*
X534400Y227200D02*
X542400Y227200D01*
X549600Y234400D01*
X488800Y227200D02*
X488710Y224406D01*
X488703Y224178D01*
X549600Y234400D02*
X550213Y234909D01*
X488800Y159200D02*
X488800Y147200D01*
X488966Y146588D01*
X488800Y159200D02*
X488903Y159319D01*
X488800Y160000D02*
X488800Y166400D01*
X488800Y172000D01*
X488903Y172295D01*
X488800Y160000D02*
X488903Y159319D01*
X488800Y172800D02*
X488800Y184800D01*
X488839Y185358D01*
X488800Y172800D02*
X488903Y172295D01*
X489600Y146400D02*
X489600Y124800D01*
X586400Y28000D01*
X634400Y28000D01*
X647200Y40800D01*
X489600Y146400D02*
X488966Y146588D01*
X647200Y40800D02*
X647764Y41275D01*
X488800Y166400D02*
X476000Y166400D01*
X208800Y426400D02*
X196000Y426400D01*
X216400Y434000D02*
X220000Y437600D01*
X216400Y434000D02*
X208800Y426400D01*
X220000Y437600D02*
X220000Y445600D01*
X196000Y426400D02*
X195905Y425724D01*
X220000Y445600D02*
X220785Y445604D01*
X216000Y338400D02*
X216000Y331200D01*
X218000Y340400D02*
X218400Y340800D01*
X218000Y340400D02*
X216000Y338400D01*
X218400Y340800D02*
X223200Y340800D01*
X225600Y338400D01*
X225600Y331200D01*
X216000Y331200D02*
X215785Y330844D01*
X225600Y331200D02*
X225785Y330844D01*
X203200Y385600D02*
X196000Y385600D01*
X208400Y380400D02*
X217600Y371200D01*
X208400Y380400D02*
X203200Y385600D01*
X217600Y356800D02*
X217600Y340800D01*
X217600Y356800D02*
X217600Y371200D01*
X196000Y385600D02*
X195905Y385724D01*
X217600Y340800D02*
X218000Y340400D01*
X222400Y428000D02*
X216400Y434000D01*
X222400Y428000D02*
X222400Y394400D01*
X208400Y380400D01*
X27200Y460800D02*
X21600Y460800D01*
X42800Y445200D02*
X43200Y444800D01*
X42800Y445200D02*
X27200Y460800D01*
X43200Y444800D02*
X43200Y440000D01*
X30400Y427200D01*
X20000Y427200D01*
X21600Y460800D02*
X21075Y460924D01*
X20000Y427200D02*
X19825Y426924D01*
X60800Y463200D02*
X96800Y463200D01*
X60800Y463200D02*
X42800Y445200D01*
X96800Y463200D02*
X97075Y463424D01*
X123200Y489600D02*
X123200Y517600D01*
X122800Y489200D02*
X97600Y464000D01*
X122800Y489200D02*
X123200Y489600D01*
X123200Y517600D02*
X123697Y517996D01*
X97600Y464000D02*
X97075Y463424D01*
X194400Y426400D02*
X195200Y426400D01*
X194400Y426400D02*
X185600Y435200D01*
X185600Y476000D01*
X172800Y488800D01*
X123200Y488800D01*
X195200Y426400D02*
X195905Y425724D01*
X123200Y488800D02*
X122800Y489200D01*
X28000Y344800D02*
X24000Y344800D01*
X28000Y344800D02*
X103200Y344800D01*
X24000Y344800D02*
X21600Y347200D01*
X103200Y344800D02*
X103575Y344174D01*
X21600Y347200D02*
X21075Y347424D01*
X20800Y227200D02*
X20800Y208000D01*
X20638Y207424D01*
X20800Y227200D02*
X20638Y227424D01*
X48000Y204000D02*
X48000Y192800D01*
X48000Y204000D02*
X47638Y204424D01*
X48000Y192800D02*
X47638Y192424D01*
X39200Y207200D02*
X20800Y207200D01*
X39200Y207200D02*
X41600Y204800D01*
X47200Y204800D01*
X20800Y207200D02*
X20638Y207424D01*
X47200Y204800D02*
X47638Y204424D01*
X47200Y242400D02*
X35200Y242400D01*
X34800Y242000D02*
X20800Y228000D01*
X34800Y242000D02*
X35200Y242400D01*
X47200Y242400D02*
X47638Y242424D01*
X20800Y228000D02*
X20638Y227424D01*
X28000Y258400D02*
X28000Y344800D01*
X28000Y258400D02*
X34400Y252000D01*
X34400Y242400D01*
X28000Y344800D02*
X21075Y347424D01*
X34400Y242400D02*
X34800Y242000D01*
X271200Y331200D02*
X271200Y338400D01*
X273600Y340800D01*
X280800Y340800D02*
X288000Y340800D01*
X280800Y340800D02*
X273600Y340800D01*
X288000Y340800D02*
X290400Y338400D01*
X290400Y331200D01*
X271200Y331200D02*
X270785Y330844D01*
X290400Y331200D02*
X290785Y330844D01*
X290400Y196000D02*
X279200Y196000D01*
X278800Y196400D02*
X267200Y208000D01*
X278800Y196400D02*
X279200Y196000D01*
X260800Y208000D02*
X218400Y208000D01*
X260800Y208000D02*
X267200Y208000D01*
X290400Y196000D02*
X290554Y195423D01*
X218400Y208000D02*
X218207Y208423D01*
X270400Y322400D02*
X270400Y330400D01*
X270400Y322400D02*
X260800Y312800D01*
X260800Y208000D01*
X270400Y330400D02*
X270785Y330844D01*
X323200Y61600D02*
X364000Y61600D01*
X323200Y61600D02*
X322971Y61592D01*
X364000Y61600D02*
X364471Y61592D01*
X217600Y156000D02*
X210400Y156000D01*
X169200Y114800D02*
X168800Y114400D01*
X169200Y114800D02*
X210400Y156000D01*
X168800Y114400D02*
X168800Y83200D01*
X217600Y156000D02*
X218207Y156423D01*
X168800Y83200D02*
X168071Y82516D01*
X322400Y63200D02*
X322400Y61600D01*
X250800Y134800D02*
X238400Y147200D01*
X250800Y134800D02*
X322400Y63200D01*
X238400Y147200D02*
X238400Y151200D01*
X233600Y156000D01*
X218400Y156000D01*
X322400Y61600D02*
X322971Y61592D01*
X218400Y156000D02*
X218207Y156423D01*
X278400Y193600D02*
X278400Y196000D01*
X278400Y193600D02*
X256800Y172000D01*
X256800Y140800D01*
X250800Y134800D01*
X278400Y196000D02*
X278800Y196400D01*
X92000Y192000D02*
X48000Y192000D01*
X92000Y192000D02*
X169200Y114800D01*
X48000Y192000D02*
X47638Y192424D01*
X217600Y356800D02*
X219200Y356800D01*
X280800Y356800D02*
X280800Y340800D01*
X324800Y227200D02*
X324800Y221600D01*
X299200Y196000D01*
X291200Y196000D01*
X290554Y195423D01*
X636000Y188800D02*
X636000Y184800D01*
X573600Y184800D02*
X564000Y184800D01*
D48*
X789600Y328800D03*
X684800Y328800D03*
X850400Y328800D03*
X499695Y224406D03*
X534400Y227200D03*
X426639Y227327D03*
X219200Y356800D03*
X280800Y356800D03*
X324800Y227200D03*
X636000Y184800D03*
X573600Y184800D03*
D47*
X479038Y290563D02*
X478871Y290563D01*
X479038Y290563D02*
X479200Y290400D01*
X426639Y227327D02*
X426639Y215761D01*
X476000Y166400D01*
X575758Y392243D02*
X601917Y392243D01*
X608800Y399126D01*
X608800Y400114D01*
X764800Y302400D02*
X776800Y302400D01*
X764800Y302400D02*
X764211Y302344D01*
X832800Y300000D02*
X832800Y285600D01*
X832761Y285448D01*
D48*
X776800Y302400D03*
X832800Y300000D03*
D47*
X767200Y310400D02*
X764800Y310400D01*
X767200Y310400D02*
X774400Y317600D01*
X774400Y319200D01*
X764800Y310400D02*
X764211Y310344D01*
X826400Y284800D02*
X826400Y280000D01*
X831200Y275200D01*
X836000Y275200D01*
X840800Y270400D01*
X840800Y266400D01*
X849600Y257600D01*
X853600Y257600D01*
X826400Y284800D02*
X826261Y285448D01*
D48*
X774400Y319200D03*
X853600Y257600D03*
D47*
X820000Y266400D02*
X820000Y247200D01*
X820000Y266400D02*
X819761Y266448D01*
D48*
X820000Y247200D03*
D47*
X764000Y319200D02*
X761600Y319200D01*
X756800Y314400D01*
X756800Y288000D01*
X761600Y283200D01*
X764000Y319200D02*
X764211Y319594D01*
X826400Y266400D02*
X826400Y260800D01*
X829600Y257600D01*
X840800Y257600D01*
X826400Y266400D02*
X826261Y266448D01*
D48*
X761600Y283200D03*
X840800Y257600D03*
D47*
X767200Y360000D02*
X764000Y360000D01*
X767200Y360000D02*
X771200Y356000D01*
X771200Y346400D01*
X766400Y341600D01*
X762400Y341600D01*
X847200Y341600D02*
X847200Y334400D01*
X844000Y331200D01*
X844000Y280800D01*
X876000Y248800D01*
X764000Y360000D02*
X763684Y360323D01*
X876000Y248800D02*
X876547Y248762D01*
X847200Y248000D02*
X835200Y236000D01*
X834413Y235736D01*
D48*
X762400Y341600D03*
X847200Y341600D03*
X847200Y248000D03*
D47*
X763200Y368000D02*
X760000Y368000D01*
X755200Y363200D01*
X755200Y335200D01*
X893600Y336000D02*
X893600Y332000D01*
X891200Y329600D01*
X891200Y234400D01*
X901600Y224000D01*
X763684Y368323D02*
X763200Y368000D01*
X901600Y224000D02*
X901947Y223362D01*
X828000Y230400D02*
X828000Y235200D01*
X828000Y230400D02*
X832800Y225600D01*
X836800Y225600D01*
X846400Y216000D01*
X846400Y202400D01*
X850400Y198400D01*
X861600Y198400D01*
X876000Y212800D01*
X881600Y212800D01*
X896800Y228000D01*
X828000Y235200D02*
X827913Y235736D01*
X896800Y228000D02*
X901947Y223362D01*
D48*
X755200Y335200D03*
X893600Y336000D03*
D47*
X821600Y216000D02*
X821600Y204000D01*
X828800Y196800D01*
X864000Y191200D02*
X868000Y191200D01*
X872000Y187200D01*
X891200Y187200D01*
X901600Y197600D01*
X821600Y216000D02*
X821413Y216736D01*
X901600Y197600D02*
X901947Y197962D01*
D48*
X828800Y196800D03*
X864000Y191200D03*
D47*
X764000Y377600D02*
X764000Y380800D01*
X770400Y387200D01*
X783200Y387200D02*
X783200Y286400D01*
X800800Y268800D01*
X847200Y268800D02*
X851200Y268800D01*
X865600Y254400D01*
X865600Y234400D01*
X876000Y224000D01*
X764000Y377600D02*
X763684Y377573D01*
X876000Y224000D02*
X876547Y223362D01*
X828000Y216000D02*
X828000Y211200D01*
X834400Y204800D01*
X852800Y204800D02*
X873600Y225600D01*
X827913Y216736D02*
X828000Y216000D01*
X873600Y225600D02*
X876547Y223362D01*
D48*
X770400Y387200D03*
X783200Y387200D03*
X800800Y268800D03*
X847200Y268800D03*
X834400Y204800D03*
X852800Y204800D03*
D47*
X763200Y422400D02*
X760000Y422400D01*
X752800Y415200D01*
X752800Y400800D01*
X714400Y362400D01*
X714400Y304000D01*
X727200Y304000D02*
X727200Y300000D01*
X718400Y291200D01*
X718400Y240000D01*
X756800Y201600D01*
X756800Y168000D01*
X772800Y152000D01*
X796000Y152000D01*
X810800Y166800D02*
X820800Y176800D01*
X810800Y166800D02*
X796000Y152000D01*
X820800Y176800D02*
X824800Y176800D01*
X827200Y179200D01*
X827200Y184800D01*
X763200Y422400D02*
X763211Y422803D01*
X827947Y185148D02*
X827200Y184800D01*
X810800Y166800D02*
X812800Y164800D01*
D48*
X714400Y304000D03*
X727200Y304000D03*
X812800Y164800D03*
D47*
X808800Y414400D02*
X764000Y414400D01*
X868800Y414400D02*
X878400Y414400D01*
X891200Y401600D01*
X891200Y396800D01*
X901600Y386400D01*
X906400Y386400D01*
X921600Y371200D01*
X921600Y227200D01*
X903200Y208800D01*
X887200Y208800D01*
X876800Y198400D01*
X764000Y414400D02*
X763211Y414803D01*
X876800Y198400D02*
X876547Y197962D01*
X835200Y190400D02*
X835200Y185600D01*
X835200Y190400D02*
X842400Y197600D01*
X835200Y185600D02*
X834447Y185148D01*
D48*
X808800Y414400D03*
X868800Y414400D03*
X842400Y197600D03*
D47*
X805600Y432800D02*
X764000Y432800D01*
X805600Y432800D02*
X824800Y452000D01*
X892000Y452000D01*
X928000Y416000D01*
X928000Y208800D01*
X902400Y183200D01*
X887200Y183200D01*
X876800Y172800D01*
X763211Y432053D02*
X764000Y432800D01*
X876800Y172800D02*
X876547Y172562D01*
X828000Y171200D02*
X828000Y166400D01*
X828000Y171200D02*
X832000Y175200D01*
X873600Y175200D01*
X876000Y172800D01*
X828000Y166400D02*
X827947Y166148D01*
X876000Y172800D02*
X876547Y172562D01*
X626400Y284800D02*
X626400Y288000D01*
X626400Y284800D02*
X640000Y271200D01*
X736800Y271200D02*
X753600Y288000D01*
X753600Y314400D01*
X748800Y319200D01*
X746400Y319200D01*
X626400Y288000D02*
X625690Y288748D01*
X746211Y319594D02*
X746400Y319200D01*
X319200Y380000D02*
X311200Y380000D01*
X319200Y380000D02*
X385600Y313600D01*
X385600Y297600D01*
X406400Y276800D01*
X311200Y380000D02*
X310665Y380724D01*
D48*
X640000Y271200D03*
X736800Y271200D03*
X406400Y276800D03*
D47*
X626400Y296000D02*
X628800Y296000D01*
X636000Y288800D01*
X636000Y284000D01*
X704800Y284000D02*
X720800Y300000D01*
X720800Y306400D01*
X724800Y310400D01*
X745600Y310400D01*
X626400Y296000D02*
X625690Y296748D01*
X745600Y310400D02*
X746211Y310344D01*
X318400Y385600D02*
X311200Y385600D01*
X318400Y385600D02*
X392000Y312000D01*
X392000Y308800D01*
X402400Y298400D01*
X423200Y298400D01*
X428000Y293600D01*
X311200Y385600D02*
X310665Y385724D01*
D48*
X636000Y284000D03*
X704800Y284000D03*
X428000Y293600D03*
D47*
X626400Y304000D02*
X628800Y304000D01*
X640400Y292400D02*
X653600Y279200D01*
X640400Y292400D02*
X628800Y304000D01*
X653600Y279200D02*
X653600Y277600D01*
X724800Y277600D02*
X724800Y292800D01*
X733600Y301600D01*
X745600Y301600D01*
X626400Y304000D02*
X625690Y304748D01*
X745600Y301600D02*
X746211Y302344D01*
X310400Y390400D02*
X303200Y390400D01*
X288000Y375200D01*
X288000Y347200D01*
X307200Y343200D02*
X307200Y295200D01*
X344800Y257600D01*
X310400Y390400D02*
X310665Y390724D01*
X640400Y292400D02*
X640800Y292800D01*
D48*
X653600Y277600D03*
X724800Y277600D03*
X288000Y347200D03*
X307200Y343200D03*
X344800Y257600D03*
X501245Y244621D03*
X523252Y289435D03*
X640800Y292800D03*
D47*
X513779Y257155D02*
X501245Y244621D01*
X513779Y279962D02*
X523252Y289435D01*
X513779Y279962D02*
X513779Y257155D01*
X626400Y312000D02*
X641600Y312000D01*
X653600Y300000D01*
X736000Y295200D02*
X744000Y295200D01*
X745600Y293600D01*
X626400Y312000D02*
X625690Y312748D01*
X745600Y293600D02*
X746211Y293094D01*
X319200Y395200D02*
X311200Y395200D01*
X319200Y395200D02*
X385600Y328800D01*
X311200Y395200D02*
X310665Y395724D01*
D48*
X653600Y300000D03*
X736000Y295200D03*
X385600Y328800D03*
D47*
X625600Y340000D02*
X625600Y345600D01*
X625600Y340000D02*
X624000Y338400D01*
X743200Y338400D02*
X752800Y328800D01*
X758400Y328800D01*
X776800Y347200D01*
X776800Y389600D01*
X772800Y393600D01*
X762400Y393600D01*
X746400Y377600D01*
X625690Y345748D02*
X625600Y345600D01*
X745684Y377573D02*
X746400Y377600D01*
X323200Y400000D02*
X311200Y400000D01*
X323200Y400000D02*
X371200Y352000D01*
X311200Y400000D02*
X310665Y400724D01*
D48*
X624000Y338400D03*
X743200Y338400D03*
X371200Y352000D03*
D47*
X632800Y354400D02*
X644000Y354400D01*
X632800Y354400D02*
X626400Y354400D01*
X644000Y354400D02*
X660800Y371200D01*
X732000Y371200D02*
X743200Y371200D01*
X745600Y368800D01*
X626400Y354400D02*
X625690Y353748D01*
X745600Y368800D02*
X745684Y368323D01*
X326400Y405600D02*
X311200Y405600D01*
X326400Y405600D02*
X392800Y339200D01*
X392800Y335200D01*
X631200Y332000D02*
X631200Y340800D01*
X632800Y342400D01*
X632800Y354400D01*
X311200Y405600D02*
X310665Y405724D01*
D48*
X660800Y371200D03*
X732000Y371200D03*
X392800Y335200D03*
X631200Y332000D03*
D47*
X626400Y361600D02*
X642400Y361600D01*
X732000Y361600D02*
X744800Y361600D01*
X745600Y360800D01*
X626400Y361600D02*
X625690Y361748D01*
X745600Y360800D02*
X745684Y360323D01*
X333600Y410400D02*
X311200Y410400D01*
X333600Y410400D02*
X379200Y364800D01*
X311200Y410400D02*
X310665Y410724D01*
D48*
X642400Y361600D03*
X732000Y361600D03*
X379200Y364800D03*
D47*
X626400Y370400D02*
X633600Y377600D01*
X735200Y352000D02*
X744800Y352000D01*
X745600Y351200D01*
X626400Y370400D02*
X625690Y369748D01*
X745600Y351200D02*
X745684Y351073D01*
X369600Y416000D02*
X311200Y416000D01*
X369600Y416000D02*
X427200Y473600D01*
X311200Y416000D02*
X310665Y415724D01*
D48*
X633600Y377600D03*
X735200Y352000D03*
X427200Y473600D03*
D47*
X626400Y403200D02*
X637600Y403200D01*
X648000Y413600D01*
X707200Y416000D02*
X707200Y437600D01*
X715200Y445600D01*
X732000Y445600D01*
X744800Y432800D01*
X626400Y403200D02*
X625690Y402748D01*
X744800Y432800D02*
X745211Y432053D01*
X352000Y420800D02*
X311200Y420800D01*
X352000Y420800D02*
X360000Y428800D01*
X311200Y420800D02*
X310665Y420724D01*
D48*
X648000Y413600D03*
X707200Y416000D03*
X360000Y428800D03*
D47*
X626400Y411200D02*
X630400Y411200D01*
X636000Y416800D01*
X732000Y432800D02*
X741600Y423200D01*
X744800Y423200D01*
X626400Y411200D02*
X625690Y410748D01*
X744800Y423200D02*
X745211Y422803D01*
X320000Y435200D02*
X311200Y426400D01*
X310665Y425724D01*
D48*
X636000Y416800D03*
X732000Y432800D03*
X320000Y435200D03*
D47*
X285600Y331200D02*
X280800Y331200D01*
X280785Y330844D01*
X285600Y331200D02*
X285785Y330844D01*
X479200Y381600D02*
X482400Y378400D01*
X482400Y377600D01*
X484000Y376000D01*
X527200Y376000D01*
X541200Y362000D02*
X541600Y361600D01*
X541200Y362000D02*
X527200Y376000D01*
X541600Y361600D02*
X556000Y361600D01*
X561600Y367200D01*
X479200Y381600D02*
X478512Y381783D01*
X561600Y367200D02*
X561783Y367403D01*
X286400Y330400D02*
X286400Y322400D01*
X288000Y320800D01*
X293600Y320800D01*
X295200Y322400D01*
X295200Y357600D01*
X294400Y358400D01*
X535200Y356000D02*
X541200Y362000D01*
X286400Y330400D02*
X285785Y330844D01*
D48*
X294400Y358400D03*
X535200Y356000D03*
D47*
X276000Y330400D02*
X276000Y323200D01*
X281600Y317600D01*
X405600Y322400D02*
X405600Y350400D01*
X428800Y373600D01*
X428800Y423200D01*
X469600Y464000D01*
X469600Y480800D01*
X520000Y531200D01*
X275785Y330844D02*
X276000Y330400D01*
D48*
X281600Y317600D03*
X405600Y322400D03*
X520000Y531200D03*
D47*
X204000Y355200D02*
X196000Y355200D01*
X204000Y355200D02*
X206400Y352800D01*
X206400Y336800D01*
X174400Y336800D02*
X174400Y332800D01*
X185600Y321600D01*
X185600Y205600D01*
X201600Y189600D01*
X201600Y166400D01*
X199200Y164000D01*
X275200Y164000D02*
X282400Y156800D01*
X290400Y156800D01*
X196000Y355200D02*
X195905Y355724D01*
X290400Y156800D02*
X290554Y156423D01*
D48*
X206400Y336800D03*
X174400Y336800D03*
X199200Y164000D03*
X275200Y164000D03*
D47*
X685600Y428800D02*
X685600Y440800D01*
X682400Y444000D01*
X640000Y446400D02*
X602400Y484000D01*
X578400Y484000D01*
X564000Y498400D01*
X564000Y502400D01*
X36800Y442400D02*
X24000Y442400D01*
X20000Y438400D01*
X685600Y428800D02*
X685773Y428479D01*
X20000Y438400D02*
X19825Y437924D01*
X187200Y376000D02*
X195200Y376000D01*
X187200Y376000D02*
X166400Y396800D01*
X45600Y396800D02*
X45600Y428000D01*
X195200Y376000D02*
X195905Y375724D01*
X218400Y188800D02*
X228000Y188800D01*
X234400Y182400D01*
X195200Y182400D02*
X195200Y191200D01*
X182400Y204000D01*
X182400Y320000D01*
X155200Y347200D01*
X155200Y378400D01*
X160000Y383200D01*
X218207Y188923D02*
X218400Y188800D01*
X737600Y40800D02*
X748800Y40800D01*
X737600Y40800D02*
X718400Y21600D01*
X562400Y21600D01*
X410400Y173600D01*
X336000Y173600D01*
X748800Y40800D02*
X749364Y41275D01*
D48*
X682400Y444000D03*
X640000Y446400D03*
X564000Y502400D03*
X36800Y442400D03*
X166400Y396800D03*
X45600Y396800D03*
X45600Y428000D03*
X234400Y182400D03*
X195200Y182400D03*
X160000Y383200D03*
X336000Y173600D03*
D47*
X668800Y436000D02*
X673600Y436000D01*
X668800Y436000D02*
X664800Y440000D01*
X536000Y440000D02*
X499200Y476800D01*
X172800Y480000D02*
X148000Y480000D01*
X118800Y450800D02*
X118400Y450400D01*
X118800Y450800D02*
X127600Y459600D01*
X148000Y480000D01*
X118400Y450400D02*
X92800Y450400D01*
X88800Y454400D01*
X60000Y454400D01*
X46400Y440800D01*
X46400Y437600D01*
X24800Y416000D01*
X20000Y416000D01*
X673600Y436000D02*
X673773Y435479D01*
X20000Y416000D02*
X19825Y415924D01*
X188000Y391200D02*
X195200Y391200D01*
X188000Y391200D02*
X173600Y405600D01*
X173600Y420000D01*
X176000Y422400D01*
X122400Y428000D02*
X122400Y447200D01*
X118800Y450800D01*
X195200Y391200D02*
X195905Y390724D01*
X210400Y169600D02*
X217600Y169600D01*
X210400Y169600D02*
X204800Y175200D01*
X204800Y192000D01*
X188800Y208000D01*
X188800Y214400D02*
X188800Y331200D01*
X188800Y214400D02*
X188800Y208000D01*
X188800Y331200D02*
X161600Y358400D01*
X142400Y358400D02*
X142400Y444800D01*
X127600Y459600D01*
X217600Y169600D02*
X218207Y169423D01*
X386400Y211200D02*
X540000Y57600D01*
X192000Y214400D02*
X188800Y214400D01*
D48*
X664800Y440000D03*
X536000Y440000D03*
X499200Y476800D03*
X172800Y480000D03*
X176000Y422400D03*
X122400Y428000D03*
X161600Y358400D03*
X142400Y358400D03*
X540000Y57600D03*
X386400Y211200D03*
X192000Y214400D03*
D47*
X196000Y395200D02*
X204000Y395200D01*
X208800Y390400D01*
X153600Y390400D02*
X153600Y381600D01*
X150400Y378400D01*
X150400Y373600D01*
X152000Y372000D01*
X152000Y345600D01*
X179200Y318400D01*
X179200Y202400D01*
X188800Y192800D01*
X188800Y165600D01*
X196800Y157600D01*
X205600Y157600D01*
X210400Y162400D01*
X217600Y162400D01*
X196000Y395200D02*
X195905Y395724D01*
X218207Y162923D02*
X217600Y162400D01*
X824800Y560800D02*
X831200Y560800D01*
X841600Y571200D01*
X858400Y571200D01*
X861104Y568496D01*
X870400Y554038D02*
X870400Y496000D01*
X445600Y496000D02*
X445600Y483200D01*
X360000Y397600D01*
X360000Y392800D01*
X824611Y560515D02*
X824800Y560800D01*
D48*
X208800Y390400D03*
X153600Y390400D03*
X870400Y496000D03*
X445600Y496000D03*
X360000Y392800D03*
D47*
X861104Y563334D02*
X870400Y554038D01*
X861104Y563334D02*
X861104Y568496D01*
X213600Y405600D02*
X196000Y405600D01*
X213600Y405600D02*
X216000Y403200D01*
X280800Y403200D02*
X280800Y416800D01*
X292800Y428800D01*
X327200Y428800D02*
X327200Y449600D01*
X384800Y507200D01*
X384800Y508800D01*
X196000Y405600D02*
X195905Y405724D01*
D48*
X216000Y403200D03*
X280800Y403200D03*
X292800Y428800D03*
X327200Y428800D03*
X384800Y508800D03*
D47*
X204000Y411200D02*
X196000Y411200D01*
X204000Y411200D02*
X216000Y423200D01*
X216000Y424800D01*
X128800Y426400D02*
X128800Y436000D01*
X128800Y426400D02*
X132000Y423200D01*
X132000Y377600D01*
X114400Y360000D01*
X114400Y230400D01*
X143200Y201600D01*
X204000Y201600D02*
X209600Y196000D01*
X217600Y196000D01*
X195905Y410724D02*
X196000Y411200D01*
X217600Y196000D02*
X218207Y195423D01*
X297600Y549600D02*
X311200Y563200D01*
X297600Y549600D02*
X297600Y540000D01*
X206400Y448800D01*
X206400Y435200D01*
D48*
X216000Y424800D03*
X128800Y436000D03*
X143200Y201600D03*
X204000Y201600D03*
X311200Y563200D03*
X206400Y435200D03*
D47*
X291200Y162400D02*
X302400Y162400D01*
X304800Y160000D01*
X317600Y160000D02*
X317600Y140800D01*
X384000Y74400D01*
X384000Y18400D01*
X387200Y15200D01*
X748800Y15200D01*
X774400Y40800D01*
X291200Y162400D02*
X290554Y162923D01*
X774400Y40800D02*
X774764Y41275D01*
X696000Y388000D02*
X686400Y388000D01*
X682400Y384000D01*
X661600Y384000D01*
X648800Y396800D01*
X648800Y405600D01*
X654400Y411200D01*
X654400Y423200D01*
X612000Y465600D01*
X179200Y460800D02*
X179200Y429600D01*
X179600Y429200D02*
X188000Y420800D01*
X179600Y429200D02*
X179200Y429600D01*
X188000Y420800D02*
X195200Y420800D01*
X696000Y388000D02*
X696465Y388622D01*
X195905Y420724D02*
X195200Y420800D01*
X29600Y394400D02*
X20000Y394400D01*
X29600Y394400D02*
X39200Y404000D01*
X160000Y404000D02*
X160000Y415200D01*
X173600Y428800D01*
X179200Y428800D01*
X20000Y394400D02*
X19825Y393924D01*
X179200Y428800D02*
X179600Y429200D01*
X176800Y159200D02*
X176800Y157600D01*
X176800Y159200D02*
X84000Y252000D01*
X84000Y338400D01*
D48*
X304800Y160000D03*
X317600Y160000D03*
X612000Y465600D03*
X179200Y460800D03*
X39200Y404000D03*
X160000Y404000D03*
X176800Y157600D03*
X84000Y338400D03*
D47*
X624000Y427200D02*
X625600Y427200D01*
X624000Y427200D02*
X617600Y433600D01*
X717600Y431200D02*
X717600Y439200D01*
X717600Y431200D02*
X715200Y428800D01*
X715200Y424000D01*
X733600Y405600D01*
X744800Y405600D01*
X625690Y426748D02*
X625600Y427200D01*
X744800Y405600D02*
X745211Y405553D01*
X308000Y446400D02*
X291200Y446400D01*
X308000Y446400D02*
X310400Y448800D01*
X291200Y446400D02*
X290785Y445604D01*
D48*
X617600Y433600D03*
X717600Y439200D03*
X310400Y448800D03*
D47*
X732800Y415200D02*
X744800Y415200D01*
X732800Y415200D02*
X721600Y426400D01*
X642400Y424000D02*
X633600Y424000D01*
X633200Y423600D02*
X628800Y419200D01*
X633200Y423600D02*
X633600Y424000D01*
X628800Y419200D02*
X626400Y419200D01*
X744800Y415200D02*
X745211Y414803D01*
X626400Y419200D02*
X625690Y418748D01*
X286400Y446400D02*
X286400Y453600D01*
X293600Y460800D01*
X602400Y460800D02*
X632800Y430400D01*
X632800Y424000D01*
X286400Y446400D02*
X285785Y445604D01*
X632800Y424000D02*
X633200Y423600D01*
D48*
X721600Y426400D03*
X642400Y424000D03*
X293600Y460800D03*
X602400Y460800D03*
D47*
X479200Y201600D02*
X479200Y198400D01*
X479200Y201600D02*
X439200Y241600D01*
X439200Y285600D01*
X229600Y344000D02*
X229600Y362400D01*
X245600Y378400D01*
X245600Y445600D01*
X479200Y198400D02*
X479703Y198207D01*
X245785Y445604D02*
X245600Y445600D01*
D48*
X439200Y285600D03*
X229600Y344000D03*
D47*
X231200Y446400D02*
X231200Y453600D01*
X233600Y456000D01*
X237600Y456000D01*
X240000Y453600D01*
X240000Y446400D01*
X231200Y446400D02*
X230785Y445604D01*
X240000Y446400D02*
X240785Y445604D01*
X488000Y345600D02*
X488000Y342400D01*
X488000Y345600D02*
X488000Y355200D01*
X487760Y355671D01*
X488000Y342400D02*
X487796Y342206D01*
X488000Y345600D02*
X496800Y345600D01*
X248000Y320800D02*
X248000Y317600D01*
X248000Y320800D02*
X246400Y322400D01*
X246400Y330400D01*
X245785Y330844D01*
D48*
X496800Y345600D03*
X248000Y317600D03*
D47*
X488363Y326342D02*
X498641Y316064D01*
X540800Y306400D02*
X548800Y306400D01*
X549600Y305600D01*
X488363Y326342D02*
X487942Y329193D01*
X549600Y305600D02*
X550069Y305515D01*
X256000Y392000D02*
X256000Y445600D01*
X256000Y392000D02*
X261600Y386400D01*
X448800Y386400D02*
X448800Y337884D01*
X256000Y445600D02*
X255785Y445604D01*
D48*
X498641Y316064D03*
X540800Y306400D03*
X261600Y386400D03*
X448800Y386400D03*
X449943Y316166D03*
D47*
X445371Y334455D02*
X435928Y334455D01*
X427482Y326009D01*
X427482Y321374D01*
X432690Y316166D01*
X445371Y334455D02*
X448800Y337884D01*
X449943Y316166D02*
X432690Y316166D01*
X235200Y376800D02*
X235200Y445600D01*
X235200Y376800D02*
X224000Y365600D01*
X128800Y365600D02*
X117600Y354400D01*
X117600Y236000D01*
X183200Y170400D01*
X183200Y137600D01*
X689600Y150400D02*
X693600Y150400D01*
X700000Y156800D01*
X235785Y445604D02*
X235200Y445600D01*
X700000Y156800D02*
X700331Y157265D01*
D48*
X224000Y365600D03*
X128800Y365600D03*
X183200Y137600D03*
X689600Y150400D03*
D47*
X479200Y211200D02*
X479200Y214400D01*
X451200Y242400D01*
X451200Y301600D01*
X459007Y309407D01*
X442400Y342400D02*
X442400Y379200D01*
X228800Y379200D02*
X228800Y435200D01*
X226400Y437600D01*
X226400Y445600D01*
X479200Y211200D02*
X479512Y211120D01*
X226400Y445600D02*
X225785Y445604D01*
D48*
X469600Y342400D03*
X442400Y342400D03*
X442400Y379200D03*
X228800Y379200D03*
D47*
X459007Y309896D02*
X459007Y309407D01*
X459007Y309896D02*
X459550Y310439D01*
X459550Y332359D01*
X469591Y342400D01*
X469600Y342400D01*
X408759Y308000D02*
X401600Y308000D01*
X398400Y311200D01*
X379200Y311200D02*
X379200Y239200D01*
X355600Y215600D02*
X329600Y189600D01*
X355600Y215600D02*
X379200Y239200D01*
X329600Y189600D02*
X323200Y189600D01*
X303200Y169600D01*
X291200Y169600D01*
X290554Y169423D01*
X661600Y40800D02*
X672800Y40800D01*
X661600Y40800D02*
X645600Y24800D01*
X564000Y24800D01*
X371200Y217600D01*
X355600Y215600D02*
X353600Y217600D01*
X672800Y40800D02*
X673164Y41275D01*
D48*
X398400Y311200D03*
X379200Y311200D03*
X371200Y217600D03*
X353600Y217600D03*
D47*
X290400Y175200D02*
X277600Y175200D01*
X268800Y166400D01*
X268800Y153600D01*
X354400Y68000D01*
X290400Y175200D02*
X290554Y175923D01*
D48*
X354400Y68000D03*
D47*
X290400Y183200D02*
X276800Y183200D01*
X182400Y188800D02*
X182400Y194400D01*
X176000Y200800D01*
X176000Y316800D01*
X148800Y344000D01*
X148800Y370400D01*
X147200Y372000D01*
X147200Y438400D01*
X179200Y470400D01*
X209600Y470400D02*
X215200Y470400D01*
X291200Y546400D01*
X291200Y556800D01*
X307200Y572800D01*
X361600Y572800D01*
X364800Y569600D01*
X290400Y183200D02*
X290554Y182423D01*
D48*
X276800Y183200D03*
X182400Y188800D03*
X179200Y470400D03*
X209600Y470400D03*
X364800Y569600D03*
D47*
X298400Y188800D02*
X291200Y188800D01*
X298400Y188800D02*
X304800Y182400D01*
X304800Y180000D01*
X328800Y180000D02*
X328800Y172000D01*
X413600Y87200D01*
X492000Y87200D01*
X560800Y18400D01*
X728000Y18400D01*
X740800Y31200D01*
X291200Y188800D02*
X290554Y188923D01*
D48*
X304800Y180000D03*
X328800Y180000D03*
X740800Y31200D03*
D47*
X364000Y539200D02*
X323200Y539200D01*
X323061Y538989D01*
X364000Y539200D02*
X364561Y538989D01*
X536800Y380000D02*
X550400Y380000D01*
X456000Y377600D02*
X456000Y393600D01*
X465600Y403200D01*
X465600Y447200D01*
X464000Y448800D01*
X464000Y453600D01*
X472800Y462400D01*
X472800Y475200D01*
X536000Y538400D01*
X536000Y544000D01*
X550712Y380337D02*
X550400Y380000D01*
X298400Y215200D02*
X291200Y215200D01*
X298400Y215200D02*
X304800Y221600D01*
X304800Y252000D01*
X294400Y262400D01*
X294400Y304800D01*
X455200Y376800D02*
X456000Y377600D01*
X291200Y215200D02*
X290554Y214923D01*
X364800Y539200D02*
X373600Y539200D01*
X378400Y544000D01*
X364800Y539200D02*
X364561Y538989D01*
D48*
X536800Y380000D03*
X456000Y377600D03*
X536000Y544000D03*
X294400Y304800D03*
X437293Y322477D03*
X378400Y544000D03*
D47*
X455200Y376800D02*
X455200Y338868D01*
X438809Y322477D01*
X437293Y322477D01*
X298400Y221600D02*
X291200Y221600D01*
X298400Y221600D02*
X301600Y224800D01*
X301600Y250400D01*
X288000Y264000D01*
X288000Y308000D01*
X294400Y314400D01*
X417600Y316000D02*
X417600Y357600D01*
X432000Y372000D01*
X432000Y417600D01*
X436800Y422400D01*
X367200Y422400D02*
X367200Y435200D01*
X492000Y560000D01*
X492000Y576000D01*
X495200Y579200D01*
X586400Y579200D01*
X291200Y221600D02*
X290554Y221423D01*
D48*
X294400Y314400D03*
X417600Y316000D03*
X436800Y422400D03*
X367200Y422400D03*
X586400Y579200D03*
D47*
X364000Y40000D02*
X323200Y40000D01*
X322971Y40092D01*
X364000Y40000D02*
X364471Y40092D01*
X562400Y392800D02*
X564000Y392800D01*
X570400Y386400D01*
X463200Y384000D02*
X463200Y340772D01*
X382566Y237766D02*
X331200Y186400D01*
X413871Y269071D02*
X456502Y311702D01*
X331200Y186400D02*
X326400Y186400D01*
X311200Y171200D01*
X311200Y157600D01*
X304000Y150400D01*
X303200Y150400D02*
X291200Y150400D01*
X303200Y150400D02*
X304000Y150400D01*
X561737Y393211D02*
X562400Y392800D01*
X291200Y150400D02*
X290554Y149923D01*
X364800Y49600D02*
X364800Y40800D01*
X364800Y49600D02*
X372800Y57600D01*
X372800Y80800D01*
X303200Y150400D01*
X364800Y40800D02*
X364471Y40092D01*
X365600Y40800D02*
X375200Y40800D01*
X365600Y40800D02*
X364471Y40092D01*
D48*
X570400Y386400D03*
X463200Y384000D03*
X375200Y40800D03*
D47*
X456502Y334074D02*
X463200Y340772D01*
X456502Y334074D02*
X456502Y311702D01*
X382566Y251756D02*
X382566Y237766D01*
X399881Y269071D02*
X413871Y269071D01*
X399881Y269071D02*
X382566Y251756D01*
X525398Y405854D02*
X550595Y405854D01*
X459200Y405600D02*
X435200Y381600D01*
X396000Y300000D02*
X392000Y300000D01*
X396000Y300000D02*
X404000Y292000D01*
X408759Y292000D01*
X550595Y405854D02*
X550685Y405971D01*
D48*
X525398Y405854D03*
X459200Y405600D03*
X435200Y300000D03*
X392000Y300000D03*
D47*
X423291Y327660D02*
X435200Y339569D01*
X423291Y327660D02*
X423291Y318891D01*
X435200Y306982D01*
X435200Y300000D01*
X435200Y339569D02*
X435200Y381600D01*
X290400Y202400D02*
X282400Y202400D01*
X264000Y220800D01*
X264000Y307200D01*
X272000Y315200D01*
X399200Y342400D02*
X399200Y432000D01*
X450400Y483200D01*
X450400Y492000D01*
X500000Y541600D01*
X506400Y541600D01*
X290400Y202400D02*
X290554Y201923D01*
X506400Y541600D02*
X506981Y542232D01*
D48*
X272000Y315200D03*
X399200Y342400D03*
D47*
X290400Y208800D02*
X282400Y208800D01*
X272000Y219200D01*
X272000Y221600D01*
X169600Y221600D02*
X169600Y318400D01*
X138400Y349600D01*
X138400Y353600D01*
X136000Y356000D01*
X136000Y442400D01*
X382400Y441600D02*
X382400Y445600D01*
X495200Y558400D01*
X495200Y574400D01*
X496800Y576000D01*
X540800Y576000D01*
X550400Y566400D01*
X290400Y208800D02*
X290554Y208423D01*
X550400Y566400D02*
X550981Y566232D01*
D48*
X272000Y221600D03*
X169600Y221600D03*
X136000Y442400D03*
X382400Y441600D03*
D47*
X698400Y440800D02*
X701600Y440800D01*
X703200Y442400D01*
X703200Y452800D01*
X672800Y483200D01*
X153600Y419200D02*
X153600Y399200D01*
X185600Y367200D01*
X185600Y339200D01*
X195200Y329600D01*
X195200Y255200D01*
X270400Y255200D02*
X290400Y235200D01*
X697773Y440479D02*
X698400Y440800D01*
X290400Y235200D02*
X290554Y234423D01*
D48*
X672800Y483200D03*
X153600Y419200D03*
X195200Y255200D03*
X270400Y255200D03*
D47*
X550400Y189600D02*
X550400Y187200D01*
X556800Y180800D01*
X556800Y169600D01*
X543200Y156000D01*
X532800Y156000D01*
X503353Y185448D01*
X500533Y185448D01*
X247200Y180000D02*
X229600Y197600D01*
X229600Y198400D01*
X226400Y201600D01*
X218400Y201600D01*
X550185Y189782D02*
X550400Y189600D01*
X218400Y201600D02*
X218207Y201923D01*
D48*
X500533Y185448D03*
X247200Y180000D03*
D47*
X691200Y410400D02*
X691200Y428000D01*
X691200Y410400D02*
X692000Y409600D01*
X696000Y395200D02*
X684800Y395200D01*
X691200Y428000D02*
X690773Y428479D01*
X696000Y395200D02*
X696465Y395226D01*
X217600Y228000D02*
X210400Y228000D01*
X207200Y231200D01*
X207200Y316000D01*
X208000Y316800D01*
X273600Y350400D02*
X273600Y357600D01*
X272800Y358400D01*
X272800Y371200D01*
X297600Y396000D01*
X297600Y416000D01*
X218207Y227923D02*
X217600Y228000D01*
D48*
X692000Y409600D03*
X684800Y395200D03*
X208000Y316800D03*
X273600Y350400D03*
X297600Y416000D03*
D47*
X217600Y221600D02*
X210400Y221600D01*
X201600Y230400D01*
X201600Y324000D01*
X21600Y324000D02*
X21600Y328000D01*
X11200Y338400D01*
X11200Y356000D01*
X20800Y365600D01*
X29600Y365600D01*
X31200Y367200D01*
X31200Y376800D01*
X25600Y382400D01*
X20000Y382400D01*
X217600Y221600D02*
X218207Y221423D01*
X20000Y382400D02*
X19825Y382924D01*
D48*
X201600Y324000D03*
X21600Y324000D03*
D47*
X218400Y215200D02*
X226400Y215200D01*
X237600Y226400D01*
X237600Y317600D01*
X266400Y344000D02*
X266400Y369600D01*
X291200Y394400D01*
X291200Y418400D01*
X378400Y505600D01*
X378400Y524800D01*
X218400Y215200D02*
X218207Y214923D01*
D48*
X237600Y317600D03*
X266400Y344000D03*
X378400Y524800D03*
D47*
X226400Y175200D02*
X218400Y175200D01*
X226400Y175200D02*
X243200Y158400D01*
X243200Y151200D01*
X250400Y144000D01*
X218400Y175200D02*
X218207Y175923D01*
D48*
X250400Y144000D03*
D47*
X764800Y200000D02*
X777600Y200000D01*
X813600Y236000D01*
X883200Y236000D02*
X883200Y240000D01*
X887200Y244000D01*
X887200Y364800D01*
X876800Y375200D01*
X764800Y200000D02*
X764257Y199685D01*
X876800Y375200D02*
X876547Y375762D01*
X826400Y365600D02*
X826400Y360800D01*
X830400Y356800D01*
X857600Y356800D01*
X876000Y375200D01*
X826400Y365600D02*
X826261Y366248D01*
X876000Y375200D02*
X876547Y375762D01*
D48*
X813600Y236000D03*
X883200Y236000D03*
D47*
X788800Y191200D02*
X764800Y191200D01*
X788800Y191200D02*
X810400Y212800D01*
X915200Y229600D02*
X915200Y362400D01*
X902400Y375200D01*
X764800Y191200D02*
X764257Y190435D01*
X902400Y375200D02*
X901947Y375762D01*
X826400Y385600D02*
X826400Y390400D01*
X829600Y393600D01*
X868800Y393600D01*
X876000Y386400D01*
X891200Y386400D01*
X901600Y376000D01*
X826400Y385600D02*
X826261Y385248D01*
X901600Y376000D02*
X901947Y375762D01*
D48*
X810400Y212800D03*
X915200Y229600D03*
D47*
X680800Y420800D02*
X680800Y428000D01*
X680800Y420800D02*
X681600Y420000D01*
X668000Y420000D02*
X668000Y409600D01*
X675200Y402400D01*
X680800Y428000D02*
X680773Y428479D01*
X675200Y402400D02*
X675637Y401830D01*
D48*
X681600Y420000D03*
X668000Y420000D03*
D47*
X62400Y230400D02*
X56800Y230400D01*
X48000Y230400D01*
X62400Y230400D02*
X139200Y153600D01*
X121600Y153600D02*
X121600Y83200D01*
X48000Y230400D02*
X47638Y230424D01*
X121600Y83200D02*
X122071Y82516D01*
X163200Y517600D02*
X169600Y517600D01*
X163200Y517600D02*
X152000Y506400D01*
X140800Y506400D01*
X131200Y516000D01*
X131200Y528000D01*
X129600Y529600D01*
X115200Y529600D01*
X41600Y456000D01*
X34400Y338400D02*
X34400Y268000D01*
X56800Y245600D01*
X56800Y230400D01*
X169600Y517600D02*
X169697Y517996D01*
X549600Y175200D02*
X549600Y170400D01*
X541600Y162400D01*
X535200Y162400D01*
X549600Y175200D02*
X550244Y175273D01*
X524800Y264800D02*
X534019Y274019D01*
X537600Y277600D01*
X524800Y264800D02*
X524800Y264000D01*
X537600Y264000D02*
X537600Y254985D01*
X541131Y251454D01*
X528395Y173546D02*
X528395Y169206D01*
X535200Y162400D01*
D48*
X139200Y153600D03*
X121600Y153600D03*
X41600Y456000D03*
X34400Y338400D03*
X535200Y162400D03*
X524800Y264000D03*
X537600Y264000D03*
X541131Y251454D03*
X528395Y251200D03*
D47*
X528395Y246571D01*
X516065Y234241D01*
X516065Y185876D02*
X528395Y173546D01*
X516065Y185876D02*
X516065Y234241D01*
X537600Y277600D02*
X537949Y277949D01*
X550140Y277949D01*
X147200Y529600D02*
X147200Y580800D01*
X147200Y529600D02*
X147200Y518400D01*
X146697Y517996D01*
X147200Y580800D02*
X146697Y580996D01*
X673600Y296000D02*
X677600Y296000D01*
X682400Y300800D01*
X682400Y309600D01*
X677600Y314400D01*
X673600Y314400D01*
X673600Y296000D02*
X673031Y295765D01*
X673600Y314400D02*
X673031Y314765D01*
X513600Y368800D02*
X496800Y368800D01*
X488000Y368800D01*
X513600Y368800D02*
X540000Y342400D01*
X540000Y330400D01*
X541200Y329200D02*
X541600Y328800D01*
X541200Y329200D02*
X540000Y330400D01*
X556800Y328800D02*
X557600Y328800D01*
X556800Y328800D02*
X541600Y328800D01*
X557600Y328800D02*
X564000Y335200D01*
X488000Y368800D02*
X487804Y368895D01*
X564000Y335200D02*
X564310Y335364D01*
X550400Y293600D02*
X550400Y292000D01*
X550400Y293600D02*
X556800Y300000D01*
X556800Y328800D01*
X550400Y292000D02*
X550140Y291949D01*
X673600Y315200D02*
X673600Y322400D01*
X675200Y324000D01*
X540800Y324800D02*
X540800Y328800D01*
X673031Y314765D02*
X673600Y315200D01*
X541200Y329200D02*
X540800Y328800D01*
X185600Y529600D02*
X147200Y529600D01*
X185600Y529600D02*
X225600Y489600D01*
X456800Y489600D02*
X456800Y456000D01*
X416000Y415200D01*
X416000Y369600D01*
X496800Y369600D02*
X496800Y368800D01*
D48*
X675200Y324000D03*
X540800Y324800D03*
X225600Y489600D03*
X456800Y489600D03*
X416000Y369600D03*
X496800Y369600D03*
D47*
X145600Y31200D02*
X145600Y20000D01*
X145600Y31200D02*
X145600Y82400D01*
X145071Y82516D01*
X145600Y20000D02*
X145071Y19516D01*
X546400Y264000D02*
X549600Y264000D01*
X546400Y264000D02*
X540000Y270400D01*
X535200Y270400D01*
X531200Y266400D01*
X531200Y261600D01*
X527200Y257600D01*
X522400Y257600D01*
X518400Y261600D01*
X518400Y267970D01*
X570618Y345600D02*
X577245Y345600D01*
X550140Y263849D02*
X549600Y264000D01*
X570618Y345600D02*
X564110Y351864D01*
X615200Y40800D02*
X621600Y40800D01*
X615200Y40800D02*
X605600Y31200D01*
X588000Y31200D01*
X573104Y46096D01*
X573104Y162006D01*
X622364Y41275D02*
X621600Y40800D01*
X377600Y31200D02*
X145600Y31200D01*
D48*
X528000Y345600D03*
X577245Y345600D03*
X573104Y162006D03*
X540800Y170400D03*
X377600Y31200D03*
D47*
X524800Y310551D02*
X533019Y318770D01*
X533019Y340581D01*
X528000Y345600D01*
X524800Y310551D02*
X524800Y301816D01*
X533019Y293597D01*
X533019Y282589D02*
X518400Y267970D01*
X533019Y282589D02*
X533019Y293597D01*
X531200Y261600D02*
X534552Y258248D01*
X534552Y236295D01*
X522732Y224475D01*
X522732Y188468D02*
X540800Y170400D01*
X522732Y188468D02*
X522732Y224475D01*
X560800Y418400D02*
X566400Y424000D01*
X566400Y491200D01*
X557600Y500000D01*
X557600Y529600D01*
X562400Y534400D01*
X562400Y550400D01*
X556000Y556800D01*
X516000Y556800D01*
X507200Y565600D01*
X560800Y418400D02*
X560642Y418148D01*
X507200Y565600D02*
X506981Y566232D01*
X551200Y541600D02*
X551200Y428800D01*
X551879Y428562D01*
X551200Y541600D02*
X550981Y542232D01*
D49*
X29147Y572326D03*
X28385Y29845D03*
X912813Y30671D03*
X914845Y571754D03*
M02*
