G04 EAGLE Gerber RS-274X export*
G75*
%MOMM*%
%FSLAX34Y34*%
%LPD*%
%INSolderpaste Top*%
%IPPOS*%
%AMOC8*
5,1,8,0,0,1.08239X$1,22.5*%
G01*
%ADD10R,0.600000X0.300000*%
%ADD11R,0.300000X0.600000*%
%ADD12R,0.750000X0.940000*%
%ADD13R,0.600000X0.620000*%
%ADD14R,0.990000X1.780000*%
%ADD15R,0.780000X0.980000*%
%ADD16R,1.350000X0.700000*%
%ADD17R,1.200000X0.600000*%
%ADD18R,0.400000X1.200000*%
%ADD19R,1.475000X0.300000*%
%ADD20R,0.300000X1.475000*%
%ADD21R,1.250000X0.600000*%
%ADD22R,1.168400X0.355600*%
%ADD23R,0.950000X0.800000*%
%ADD24R,1.400000X0.600000*%
%ADD25R,0.950000X0.550000*%
%ADD26R,0.750000X0.600000*%
%ADD27R,1.050000X0.650000*%
%ADD28R,1.676400X0.431800*%
%ADD29R,1.800000X1.400000*%
%ADD30R,0.950000X1.750000*%
%ADD31R,3.200000X1.750000*%
%ADD32R,0.950000X0.400000*%
%ADD33C,0.317500*%
%ADD34R,1.750000X0.700000*%
%ADD35R,1.550000X1.000000*%
%ADD36R,1.000000X1.450000*%
%ADD37R,1.500000X1.500000*%
%ADD38R,1.500000X1.300000*%
%ADD39R,1.400000X0.800000*%
%ADD40R,1.500000X0.800000*%
%ADD41C,0.000100*%
%ADD42R,1.350000X0.400000*%
%ADD43R,1.550000X1.500000*%

G36*
X23388Y177420D02*
X23388Y177420D01*
X23388Y177419D01*
X24501Y177545D01*
X24502Y177545D01*
X25558Y177915D01*
X25559Y177915D01*
X26507Y178511D01*
X26508Y178512D01*
X27300Y179303D01*
X27300Y179304D01*
X27301Y179304D01*
X27896Y180252D01*
X27896Y180253D01*
X27897Y180253D01*
X28267Y181310D01*
X28266Y181311D01*
X28267Y181311D01*
X28267Y181314D01*
X28268Y181318D01*
X28268Y181323D01*
X28269Y181328D01*
X28270Y181342D01*
X28271Y181347D01*
X28271Y181352D01*
X28272Y181356D01*
X28273Y181361D01*
X28273Y181366D01*
X28275Y181380D01*
X28275Y181385D01*
X28276Y181390D01*
X28276Y181394D01*
X28277Y181399D01*
X28277Y181404D01*
X28279Y181418D01*
X28279Y181423D01*
X28280Y181423D01*
X28279Y181423D01*
X28280Y181428D01*
X28281Y181432D01*
X28281Y181437D01*
X28282Y181442D01*
X28283Y181456D01*
X28284Y181461D01*
X28284Y181466D01*
X28285Y181470D01*
X28285Y181475D01*
X28287Y181489D01*
X28288Y181494D01*
X28288Y181499D01*
X28289Y181504D01*
X28289Y181508D01*
X28290Y181513D01*
X28291Y181527D01*
X28292Y181532D01*
X28292Y181537D01*
X28293Y181542D01*
X28293Y181546D01*
X28294Y181551D01*
X28296Y181565D01*
X28296Y181570D01*
X28297Y181575D01*
X28297Y181580D01*
X28298Y181584D01*
X28298Y181589D01*
X28300Y181603D01*
X28300Y181608D01*
X28301Y181613D01*
X28301Y181618D01*
X28302Y181622D01*
X28304Y181641D01*
X28305Y181646D01*
X28305Y181651D01*
X28306Y181656D01*
X28306Y181660D01*
X28308Y181675D01*
X28308Y181679D01*
X28309Y181684D01*
X28309Y181689D01*
X28310Y181694D01*
X28311Y181698D01*
X28312Y181713D01*
X28313Y181717D01*
X28313Y181722D01*
X28314Y181727D01*
X28314Y181732D01*
X28315Y181736D01*
X28316Y181751D01*
X28317Y181755D01*
X28317Y181760D01*
X28318Y181760D01*
X28317Y181760D01*
X28318Y181765D01*
X28319Y181770D01*
X28319Y181774D01*
X28321Y181789D01*
X28321Y181793D01*
X28322Y181798D01*
X28322Y181803D01*
X28323Y181808D01*
X28325Y181827D01*
X28326Y181831D01*
X28326Y181836D01*
X28327Y181841D01*
X28327Y181846D01*
X28329Y181860D01*
X28329Y181865D01*
X28330Y181869D01*
X28330Y181874D01*
X28331Y181879D01*
X28331Y181884D01*
X28333Y181898D01*
X28334Y181903D01*
X28334Y181907D01*
X28335Y181912D01*
X28335Y181917D01*
X28336Y181922D01*
X28337Y181936D01*
X28338Y181941D01*
X28338Y181945D01*
X28339Y181950D01*
X28339Y181955D01*
X28340Y181960D01*
X28342Y181974D01*
X28342Y181979D01*
X28343Y181983D01*
X28343Y181988D01*
X28344Y181993D01*
X28345Y182007D01*
X28346Y182012D01*
X28346Y182017D01*
X28347Y182021D01*
X28347Y182026D01*
X28348Y182031D01*
X28350Y182045D01*
X28350Y182050D01*
X28351Y182055D01*
X28351Y182059D01*
X28352Y182064D01*
X28352Y182069D01*
X28354Y182083D01*
X28354Y182088D01*
X28355Y182093D01*
X28355Y182097D01*
X28356Y182097D01*
X28355Y182097D01*
X28356Y182102D01*
X28357Y182107D01*
X28358Y182121D01*
X28359Y182126D01*
X28359Y182131D01*
X28360Y182135D01*
X28360Y182140D01*
X28362Y182159D01*
X28363Y182164D01*
X28364Y182169D01*
X28364Y182173D01*
X28365Y182178D01*
X28366Y182192D01*
X28367Y182197D01*
X28367Y182202D01*
X28368Y182207D01*
X28368Y182211D01*
X28369Y182216D01*
X28370Y182230D01*
X28371Y182230D01*
X28370Y182230D01*
X28371Y182235D01*
X28372Y182240D01*
X28372Y182245D01*
X28373Y182249D01*
X28373Y182254D01*
X28375Y182268D01*
X28375Y182273D01*
X28376Y182278D01*
X28376Y182283D01*
X28377Y182287D01*
X28377Y182292D01*
X28379Y182306D01*
X28380Y182311D01*
X28380Y182316D01*
X28381Y182321D01*
X28381Y182325D01*
X28383Y182344D01*
X28384Y182349D01*
X28384Y182354D01*
X28385Y182359D01*
X28385Y182363D01*
X28387Y182378D01*
X28388Y182382D01*
X28388Y182387D01*
X28389Y182392D01*
X28389Y182397D01*
X28390Y182401D01*
X28391Y182416D01*
X28392Y182420D01*
X28392Y182423D01*
X28392Y182424D01*
X28392Y194424D01*
X28388Y194429D01*
X28388Y194428D01*
X28388Y194429D01*
X12888Y194429D01*
X12883Y194425D01*
X12883Y194424D01*
X12883Y182424D01*
X12883Y182423D01*
X13008Y181311D01*
X13009Y181310D01*
X13008Y181310D01*
X13378Y180253D01*
X13379Y180253D01*
X13379Y180252D01*
X13974Y179304D01*
X13975Y179304D01*
X13975Y179303D01*
X14767Y178512D01*
X14767Y178511D01*
X14768Y178511D01*
X15716Y177915D01*
X15717Y177915D01*
X16773Y177545D01*
X16774Y177545D01*
X17887Y177419D01*
X17887Y177420D01*
X17888Y177419D01*
X23388Y177419D01*
X23388Y177420D01*
G37*
G36*
X28392Y240423D02*
X28392Y240423D01*
X28392Y240424D01*
X28392Y252424D01*
X28392Y252425D01*
X28267Y253537D01*
X28266Y253538D01*
X28267Y253538D01*
X27897Y254595D01*
X27896Y254595D01*
X27896Y254596D01*
X27301Y255544D01*
X27300Y255544D01*
X27300Y255545D01*
X26508Y256337D01*
X26507Y256337D01*
X25559Y256933D01*
X25558Y256933D01*
X24502Y257303D01*
X24501Y257303D01*
X23388Y257429D01*
X17888Y257429D01*
X17887Y257429D01*
X16774Y257303D01*
X16773Y257303D01*
X15717Y256933D01*
X15716Y256933D01*
X14768Y256337D01*
X14767Y256336D01*
X14767Y256337D01*
X13975Y255545D01*
X13975Y255544D01*
X13974Y255544D01*
X13379Y254596D01*
X13379Y254595D01*
X13378Y254595D01*
X13008Y253538D01*
X13009Y253538D01*
X13008Y253537D01*
X13008Y253531D01*
X13007Y253531D01*
X13008Y253531D01*
X13007Y253527D01*
X13006Y253522D01*
X13006Y253517D01*
X13005Y253512D01*
X13005Y253508D01*
X13003Y253493D01*
X13003Y253489D01*
X13002Y253484D01*
X13002Y253479D01*
X13001Y253474D01*
X12999Y253455D01*
X12998Y253451D01*
X12998Y253446D01*
X12997Y253441D01*
X12997Y253436D01*
X12995Y253422D01*
X12995Y253417D01*
X12994Y253413D01*
X12994Y253408D01*
X12993Y253403D01*
X12993Y253398D01*
X12991Y253384D01*
X12990Y253379D01*
X12990Y253375D01*
X12989Y253370D01*
X12989Y253365D01*
X12988Y253360D01*
X12987Y253346D01*
X12986Y253341D01*
X12986Y253337D01*
X12985Y253332D01*
X12985Y253327D01*
X12984Y253327D01*
X12985Y253327D01*
X12984Y253322D01*
X12982Y253308D01*
X12982Y253303D01*
X12981Y253299D01*
X12981Y253294D01*
X12980Y253289D01*
X12979Y253275D01*
X12978Y253270D01*
X12978Y253265D01*
X12977Y253261D01*
X12976Y253256D01*
X12976Y253251D01*
X12974Y253237D01*
X12974Y253232D01*
X12973Y253227D01*
X12973Y253223D01*
X12972Y253218D01*
X12972Y253213D01*
X12970Y253199D01*
X12970Y253194D01*
X12969Y253194D01*
X12970Y253194D01*
X12969Y253189D01*
X12968Y253185D01*
X12968Y253180D01*
X12967Y253175D01*
X12966Y253161D01*
X12965Y253156D01*
X12965Y253151D01*
X12964Y253147D01*
X12964Y253142D01*
X12961Y253123D01*
X12961Y253118D01*
X12960Y253113D01*
X12960Y253109D01*
X12959Y253104D01*
X12958Y253090D01*
X12957Y253085D01*
X12957Y253080D01*
X12956Y253075D01*
X12956Y253071D01*
X12955Y253066D01*
X12953Y253052D01*
X12953Y253047D01*
X12952Y253042D01*
X12952Y253037D01*
X12951Y253033D01*
X12951Y253028D01*
X12949Y253014D01*
X12949Y253009D01*
X12948Y253004D01*
X12948Y252999D01*
X12947Y252995D01*
X12947Y252990D01*
X12946Y252990D01*
X12945Y252976D01*
X12944Y252971D01*
X12944Y252966D01*
X12943Y252961D01*
X12943Y252957D01*
X12941Y252938D01*
X12940Y252933D01*
X12940Y252928D01*
X12939Y252923D01*
X12938Y252919D01*
X12937Y252904D01*
X12936Y252900D01*
X12936Y252895D01*
X12935Y252890D01*
X12935Y252885D01*
X12934Y252881D01*
X12933Y252866D01*
X12932Y252862D01*
X12932Y252857D01*
X12931Y252857D01*
X12932Y252857D01*
X12931Y252852D01*
X12930Y252847D01*
X12930Y252843D01*
X12928Y252828D01*
X12928Y252824D01*
X12927Y252819D01*
X12927Y252814D01*
X12926Y252809D01*
X12926Y252805D01*
X12924Y252790D01*
X12923Y252786D01*
X12923Y252781D01*
X12922Y252776D01*
X12922Y252771D01*
X12920Y252757D01*
X12920Y252752D01*
X12919Y252748D01*
X12919Y252743D01*
X12918Y252738D01*
X12918Y252733D01*
X12916Y252719D01*
X12915Y252714D01*
X12915Y252710D01*
X12914Y252705D01*
X12914Y252700D01*
X12913Y252695D01*
X12912Y252681D01*
X12911Y252676D01*
X12911Y252672D01*
X12910Y252667D01*
X12910Y252662D01*
X12909Y252657D01*
X12907Y252643D01*
X12907Y252638D01*
X12906Y252634D01*
X12906Y252629D01*
X12905Y252624D01*
X12903Y252605D01*
X12903Y252600D01*
X12902Y252596D01*
X12902Y252591D01*
X12901Y252586D01*
X12899Y252572D01*
X12899Y252567D01*
X12898Y252562D01*
X12898Y252558D01*
X12897Y252553D01*
X12897Y252548D01*
X12895Y252534D01*
X12895Y252529D01*
X12894Y252524D01*
X12894Y252520D01*
X12893Y252520D01*
X12894Y252520D01*
X12893Y252515D01*
X12892Y252510D01*
X12891Y252496D01*
X12890Y252491D01*
X12890Y252486D01*
X12889Y252482D01*
X12889Y252477D01*
X12888Y252472D01*
X12887Y252458D01*
X12886Y252453D01*
X12885Y252448D01*
X12885Y252444D01*
X12884Y252439D01*
X12883Y252425D01*
X12883Y252424D01*
X12883Y240424D01*
X12887Y240419D01*
X12887Y240420D01*
X12888Y240419D01*
X28388Y240419D01*
X28392Y240423D01*
G37*
%LPC*%
G36*
X17388Y249929D02*
X17388Y249929D01*
X16742Y250014D01*
X16140Y250263D01*
X15623Y250660D01*
X15227Y251177D01*
X14977Y251778D01*
X14892Y252424D01*
X14893Y252428D01*
X14893Y252433D01*
X14894Y252433D01*
X14893Y252433D01*
X14894Y252438D01*
X14895Y252442D01*
X14895Y252447D01*
X14896Y252452D01*
X14897Y252457D01*
X14897Y252461D01*
X14898Y252466D01*
X14898Y252471D01*
X14899Y252471D01*
X14898Y252471D01*
X14899Y252476D01*
X14900Y252480D01*
X14900Y252485D01*
X14901Y252490D01*
X14902Y252495D01*
X14902Y252499D01*
X14903Y252504D01*
X14903Y252509D01*
X14904Y252509D01*
X14903Y252509D01*
X14904Y252514D01*
X14905Y252518D01*
X14905Y252523D01*
X14906Y252528D01*
X14907Y252533D01*
X14907Y252537D01*
X14908Y252542D01*
X14908Y252547D01*
X14909Y252547D01*
X14908Y252547D01*
X14909Y252552D01*
X14910Y252556D01*
X14910Y252561D01*
X14911Y252566D01*
X14912Y252571D01*
X14912Y252575D01*
X14949Y252851D01*
X14949Y252856D01*
X14950Y252860D01*
X14950Y252865D01*
X14951Y252870D01*
X14952Y252875D01*
X14952Y252879D01*
X14953Y252884D01*
X14954Y252889D01*
X14954Y252894D01*
X14955Y252898D01*
X14955Y252903D01*
X14956Y252908D01*
X14957Y252913D01*
X14957Y252917D01*
X14958Y252922D01*
X14959Y252927D01*
X14959Y252932D01*
X14960Y252936D01*
X14960Y252941D01*
X14961Y252946D01*
X14962Y252951D01*
X14962Y252955D01*
X14963Y252960D01*
X14964Y252965D01*
X14964Y252970D01*
X14965Y252974D01*
X14965Y252979D01*
X14966Y252984D01*
X14967Y252989D01*
X14967Y252993D01*
X14968Y252998D01*
X14969Y253003D01*
X14977Y253070D01*
X15227Y253672D01*
X15623Y254188D01*
X16140Y254585D01*
X16742Y254834D01*
X17388Y254919D01*
X23887Y254919D01*
X24533Y254834D01*
X25135Y254585D01*
X25652Y254188D01*
X26048Y253672D01*
X26298Y253070D01*
X26383Y252424D01*
X26298Y251778D01*
X26048Y251177D01*
X25652Y250660D01*
X25135Y250263D01*
X24533Y250014D01*
X23887Y249929D01*
X17388Y249929D01*
G37*
%LPD*%
%LPC*%
G36*
X17388Y179929D02*
X17388Y179929D01*
X16742Y180014D01*
X16140Y180263D01*
X15623Y180660D01*
X15227Y181177D01*
X14977Y181778D01*
X14892Y182424D01*
X14977Y183070D01*
X15227Y183672D01*
X15623Y184188D01*
X16140Y184585D01*
X16742Y184834D01*
X17388Y184919D01*
X23887Y184919D01*
X24533Y184834D01*
X25135Y184585D01*
X25652Y184188D01*
X26048Y183672D01*
X26298Y183070D01*
X26383Y182424D01*
X26362Y182265D01*
X26361Y182260D01*
X26361Y182255D01*
X26360Y182255D01*
X26361Y182255D01*
X26360Y182251D01*
X26359Y182246D01*
X26359Y182241D01*
X26358Y182236D01*
X26357Y182232D01*
X26357Y182227D01*
X26356Y182222D01*
X26356Y182217D01*
X26355Y182217D01*
X26356Y182217D01*
X26355Y182213D01*
X26354Y182208D01*
X26354Y182203D01*
X26353Y182198D01*
X26352Y182194D01*
X26352Y182189D01*
X26351Y182184D01*
X26351Y182179D01*
X26350Y182179D01*
X26351Y182179D01*
X26350Y182175D01*
X26349Y182170D01*
X26349Y182165D01*
X26348Y182160D01*
X26347Y182156D01*
X26347Y182151D01*
X26346Y182146D01*
X26346Y182141D01*
X26345Y182141D01*
X26345Y182137D01*
X26344Y182132D01*
X26344Y182127D01*
X26343Y182122D01*
X26342Y182118D01*
X26342Y182113D01*
X26306Y181842D01*
X26305Y181837D01*
X26305Y181833D01*
X26304Y181828D01*
X26304Y181823D01*
X26303Y181818D01*
X26302Y181814D01*
X26302Y181809D01*
X26301Y181804D01*
X26300Y181799D01*
X26300Y181795D01*
X26299Y181790D01*
X26299Y181785D01*
X26298Y181780D01*
X26298Y181778D01*
X26048Y181177D01*
X25652Y180660D01*
X25135Y180263D01*
X24533Y180014D01*
X23887Y179929D01*
X17388Y179929D01*
G37*
%LPD*%
D10*
X673773Y450479D03*
X673773Y445479D03*
X673773Y440479D03*
X673773Y435479D03*
X673773Y430479D03*
D11*
X680773Y428479D03*
X685773Y428479D03*
X690773Y428479D03*
D10*
X697773Y430479D03*
X697773Y435479D03*
X697773Y440479D03*
X697773Y445479D03*
X697773Y450479D03*
D11*
X690773Y452479D03*
X685773Y452479D03*
X680773Y452479D03*
D12*
X550264Y219680D03*
X564264Y219680D03*
D13*
X478604Y368895D03*
X487804Y368895D03*
X478720Y446448D03*
X487920Y446448D03*
X478539Y420487D03*
X487739Y420487D03*
X478852Y316056D03*
X488052Y316056D03*
X488720Y237240D03*
X479520Y237240D03*
X488703Y224178D03*
X479503Y224178D03*
D12*
X550236Y249337D03*
X564236Y249337D03*
D13*
X478747Y459306D03*
X487947Y459306D03*
X487796Y342206D03*
X478596Y342206D03*
D12*
X550069Y305515D03*
X564069Y305515D03*
D13*
X487942Y329193D03*
X478742Y329193D03*
D14*
X672331Y157265D03*
X700331Y157265D03*
D13*
X487849Y407641D03*
X478649Y407641D03*
X487712Y381783D03*
X478512Y381783D03*
D12*
X550185Y189782D03*
X564185Y189782D03*
D13*
X478657Y433672D03*
X487857Y433672D03*
D12*
X564056Y319697D03*
X550056Y319697D03*
D15*
X564140Y277949D03*
X550140Y277949D03*
X564140Y291949D03*
X550140Y291949D03*
D16*
X564310Y335364D03*
X549310Y335364D03*
D13*
X478536Y394570D03*
X487736Y394570D03*
D15*
X564244Y175273D03*
X550244Y175273D03*
X564140Y263849D03*
X550140Y263849D03*
D16*
X564110Y351864D03*
X549110Y351864D03*
D13*
X479170Y264327D03*
X488370Y264327D03*
D12*
X564213Y234909D03*
X550213Y234909D03*
D13*
X488071Y290563D03*
X478871Y290563D03*
X478868Y277413D03*
X488068Y277413D03*
D12*
X564390Y204477D03*
X550390Y204477D03*
D17*
X697831Y194265D03*
X697831Y203765D03*
X697831Y213265D03*
X672831Y213265D03*
X672831Y203765D03*
X672831Y194265D03*
D18*
X834447Y185148D03*
X827947Y185148D03*
X821447Y185148D03*
X821447Y166148D03*
X827947Y166148D03*
X834447Y166148D03*
D19*
X310665Y350724D03*
X310665Y355724D03*
X310665Y360724D03*
X310665Y365724D03*
X310665Y370724D03*
X310665Y375724D03*
X310665Y380724D03*
X310665Y385724D03*
X310665Y390724D03*
X310665Y395724D03*
X310665Y400724D03*
X310665Y405724D03*
X310665Y410724D03*
X310665Y415724D03*
X310665Y420724D03*
X310665Y425724D03*
D20*
X290785Y445604D03*
X285785Y445604D03*
X280785Y445604D03*
X275785Y445604D03*
X270785Y445604D03*
X265785Y445604D03*
X260785Y445604D03*
X255785Y445604D03*
X250785Y445604D03*
X245785Y445604D03*
X240785Y445604D03*
X235785Y445604D03*
X230785Y445604D03*
X225785Y445604D03*
X220785Y445604D03*
X215785Y445604D03*
D19*
X195905Y425724D03*
X195905Y420724D03*
X195905Y415724D03*
X195905Y410724D03*
X195905Y405724D03*
X195905Y400724D03*
X195905Y395724D03*
X195905Y390724D03*
X195905Y385724D03*
X195905Y380724D03*
X195905Y375724D03*
X195905Y370724D03*
X195905Y365724D03*
X195905Y360724D03*
X195905Y355724D03*
X195905Y350724D03*
D20*
X215785Y330844D03*
X220785Y330844D03*
X225785Y330844D03*
X230785Y330844D03*
X235785Y330844D03*
X240785Y330844D03*
X245785Y330844D03*
X250785Y330844D03*
X255785Y330844D03*
X260785Y330844D03*
X265785Y330844D03*
X270785Y330844D03*
X275785Y330844D03*
X280785Y330844D03*
X285785Y330844D03*
X290785Y330844D03*
D17*
X673531Y363065D03*
X673531Y353565D03*
X673531Y344065D03*
X698531Y344065D03*
X698531Y363065D03*
D21*
X673431Y262065D03*
X673431Y252565D03*
X673431Y243065D03*
X698431Y243065D03*
X698431Y262065D03*
D18*
X832761Y335148D03*
X826261Y335148D03*
X819761Y335148D03*
X819761Y316148D03*
X826261Y316148D03*
X832761Y316148D03*
X832761Y385248D03*
X826261Y385248D03*
X819761Y385248D03*
X819761Y366248D03*
X826261Y366248D03*
X832761Y366248D03*
X832761Y435348D03*
X826261Y435348D03*
X819761Y435348D03*
X819761Y416348D03*
X826261Y416348D03*
X832761Y416348D03*
D22*
X696465Y388622D03*
X696465Y395226D03*
X696465Y401830D03*
X675637Y401830D03*
X675637Y388622D03*
D18*
X832761Y285448D03*
X826261Y285448D03*
X819761Y285448D03*
X819761Y266448D03*
X826261Y266448D03*
X832761Y266448D03*
X834413Y235736D03*
X827913Y235736D03*
X821413Y235736D03*
X821413Y216736D03*
X827913Y216736D03*
X834413Y216736D03*
D23*
X408759Y292000D03*
X408759Y308000D03*
D24*
X673031Y314765D03*
X673031Y305265D03*
X673031Y295765D03*
X698031Y295765D03*
X698031Y314765D03*
D23*
X764257Y173185D03*
D25*
X764257Y182435D03*
X764257Y190435D03*
D23*
X764257Y199685D03*
X746257Y199685D03*
D25*
X746257Y190435D03*
X746257Y182435D03*
D23*
X746257Y173185D03*
X764420Y231692D03*
D25*
X764420Y240942D03*
X764420Y248942D03*
D23*
X764420Y258192D03*
X746420Y258192D03*
D25*
X746420Y248942D03*
X746420Y240942D03*
D23*
X746420Y231692D03*
X764211Y293094D03*
D25*
X764211Y302344D03*
X764211Y310344D03*
D23*
X764211Y319594D03*
X746211Y319594D03*
D25*
X746211Y310344D03*
X746211Y302344D03*
D23*
X746211Y293094D03*
X763684Y351073D03*
D25*
X763684Y360323D03*
X763684Y368323D03*
D23*
X763684Y377573D03*
X745684Y377573D03*
D25*
X745684Y368323D03*
X745684Y360323D03*
D23*
X745684Y351073D03*
X763211Y405553D03*
D25*
X763211Y414803D03*
X763211Y422803D03*
D23*
X763211Y432053D03*
X745211Y432053D03*
D25*
X745211Y422803D03*
X745211Y414803D03*
D23*
X745211Y405553D03*
D26*
X550783Y367403D03*
X561783Y367403D03*
X561737Y393211D03*
X550737Y393211D03*
X561712Y380337D03*
X550712Y380337D03*
X561685Y405971D03*
X550685Y405971D03*
D27*
X322971Y61592D03*
X364471Y61592D03*
X322971Y40092D03*
X364471Y40092D03*
X323061Y560489D03*
X364561Y560489D03*
X323061Y538989D03*
X364561Y538989D03*
D28*
X290554Y149923D03*
X290554Y156423D03*
X290554Y162923D03*
X290554Y169423D03*
X290554Y175923D03*
X290554Y182423D03*
X290554Y188923D03*
X290554Y195423D03*
X290554Y201923D03*
X290554Y208423D03*
X290554Y214923D03*
X290554Y221423D03*
X290554Y227923D03*
X290554Y234423D03*
X218207Y234423D03*
X218207Y227923D03*
X218207Y221423D03*
X218207Y214923D03*
X218207Y208423D03*
X218207Y201923D03*
X218207Y195423D03*
X218207Y188923D03*
X218207Y182423D03*
X218207Y175923D03*
X218207Y169423D03*
X218207Y162923D03*
X218207Y156423D03*
X218207Y149923D03*
D29*
X550981Y566232D03*
X506981Y566232D03*
X506981Y542232D03*
X550981Y542232D03*
D30*
X168071Y82516D03*
X145071Y82516D03*
X122071Y82516D03*
D31*
X145071Y19516D03*
D30*
X123697Y517996D03*
X146697Y517996D03*
X169697Y517996D03*
D31*
X146697Y580996D03*
D13*
X488839Y185358D03*
X479639Y185358D03*
X488649Y250740D03*
X479449Y250740D03*
X478906Y303205D03*
X488106Y303205D03*
X488903Y172295D03*
X479703Y172295D03*
X479703Y159319D03*
X488903Y159319D03*
X479766Y146588D03*
X488966Y146588D03*
X488903Y198207D03*
X479703Y198207D03*
X488712Y211120D03*
X479512Y211120D03*
X487760Y355671D03*
X478560Y355671D03*
D32*
X608690Y255748D03*
X608690Y247748D03*
X608690Y239748D03*
X608690Y231748D03*
X625690Y231748D03*
X625690Y239748D03*
X625690Y247748D03*
X625690Y255748D03*
X625690Y174748D03*
X625690Y182748D03*
X625690Y190748D03*
X625690Y198748D03*
X608690Y198748D03*
X608690Y190748D03*
X608690Y182748D03*
X608690Y174748D03*
X608690Y312748D03*
X608690Y304748D03*
X608690Y296748D03*
X608690Y288748D03*
X625690Y288748D03*
X625690Y296748D03*
X625690Y304748D03*
X625690Y312748D03*
X608690Y369748D03*
X608690Y361748D03*
X608690Y353748D03*
X608690Y345748D03*
X625690Y345748D03*
X625690Y353748D03*
X625690Y361748D03*
X625690Y369748D03*
X608690Y426748D03*
X608690Y418748D03*
X608690Y410748D03*
X608690Y402748D03*
X625690Y402748D03*
X625690Y410748D03*
X625690Y418748D03*
X625690Y426748D03*
D33*
X562357Y430150D02*
X559181Y430150D01*
X562357Y430150D02*
X562357Y426974D01*
X559181Y426974D01*
X559181Y430150D01*
X559181Y429990D02*
X562357Y429990D01*
X553467Y430150D02*
X550291Y430150D01*
X553467Y430150D02*
X553467Y426974D01*
X550291Y426974D01*
X550291Y430150D01*
X550291Y429990D02*
X553467Y429990D01*
X553340Y416560D02*
X550164Y416560D01*
X550164Y419736D01*
X553340Y419736D01*
X553340Y416560D01*
X553340Y419576D02*
X550164Y419576D01*
X559054Y416560D02*
X562230Y416560D01*
X559054Y416560D02*
X559054Y419736D01*
X562230Y419736D01*
X562230Y416560D01*
X562230Y419576D02*
X559054Y419576D01*
D34*
X19825Y371924D03*
X19825Y382924D03*
X19825Y393924D03*
X19825Y404924D03*
X19825Y415924D03*
X19825Y426924D03*
X19825Y437924D03*
X19825Y448924D03*
D35*
X127825Y348174D03*
D36*
X112075Y460174D03*
D37*
X21075Y347424D03*
D38*
X21075Y460924D03*
D39*
X103575Y344174D03*
D40*
X97075Y463424D03*
D41*
X28338Y252424D02*
X26638Y252424D01*
X14638Y182424D02*
X12938Y182424D01*
D42*
X47638Y230424D03*
X47638Y223924D03*
X47638Y217424D03*
X47638Y210924D03*
X47638Y204424D03*
D43*
X20638Y227424D03*
X20638Y207424D03*
M02*
