G04 EAGLE Gerber RS-274X export*
G75*
%MOMM*%
%FSLAX34Y34*%
%LPD*%
%INSoldermask Top*%
%IPPOS*%
%AMOC8*
5,1,8,0,0,1.08239X$1,22.5*%
G01*
%ADD10R,0.701600X0.401600*%
%ADD11R,0.401600X0.701600*%
%ADD12R,0.851600X1.041600*%
%ADD13R,0.701600X0.721600*%
%ADD14R,1.091600X1.881600*%
%ADD15R,0.881600X1.081600*%
%ADD16R,1.451600X0.801600*%
%ADD17R,1.301600X0.701600*%
%ADD18R,0.501600X1.301600*%
%ADD19R,1.576600X0.401600*%
%ADD20R,0.401600X1.576600*%
%ADD21R,1.351600X0.701600*%
%ADD22R,1.270000X0.457200*%
%ADD23C,1.751600*%
%ADD24R,1.051600X0.901600*%
%ADD25R,1.501600X0.701600*%
%ADD26R,1.051600X0.651600*%
%ADD27R,0.851600X0.701600*%
%ADD28R,1.151600X0.751600*%
%ADD29R,1.778000X0.533400*%
%ADD30R,1.901600X1.501600*%
%ADD31R,1.051600X1.851600*%
%ADD32R,3.301600X1.851600*%
%ADD33R,1.051600X0.501600*%
%ADD34C,0.419859*%
%ADD35R,1.625600X1.625600*%
%ADD36C,1.625600*%
%ADD37R,1.851600X0.801600*%
%ADD38R,1.651600X1.101600*%
%ADD39R,1.101600X1.551600*%
%ADD40R,1.601600X1.601600*%
%ADD41R,1.601600X1.401600*%
%ADD42R,1.501600X0.901600*%
%ADD43R,1.601600X0.901600*%
%ADD44R,1.451600X0.501600*%
%ADD45C,1.371600*%
%ADD46R,1.651600X1.601600*%
%ADD47C,0.858000*%
%ADD48C,3.101600*%

G36*
X29392Y239423D02*
X29392Y239423D01*
X29392Y239424D01*
X29392Y253424D01*
X29392Y253425D01*
X29267Y254537D01*
X29266Y254538D01*
X29267Y254538D01*
X28897Y255595D01*
X28896Y255595D01*
X28896Y255596D01*
X28301Y256544D01*
X28300Y256544D01*
X28300Y256545D01*
X27508Y257337D01*
X27507Y257337D01*
X26559Y257933D01*
X26558Y257933D01*
X25502Y258303D01*
X25501Y258303D01*
X24388Y258429D01*
X16888Y258429D01*
X16887Y258429D01*
X15774Y258303D01*
X15773Y258303D01*
X14717Y257933D01*
X14716Y257933D01*
X13768Y257337D01*
X13767Y257336D01*
X13767Y257337D01*
X12975Y256545D01*
X12975Y256544D01*
X12974Y256544D01*
X12379Y255596D01*
X12379Y255595D01*
X12378Y255595D01*
X12008Y254538D01*
X12009Y254538D01*
X12008Y254537D01*
X12008Y254534D01*
X12007Y254530D01*
X12007Y254525D01*
X12006Y254520D01*
X12005Y254506D01*
X12004Y254501D01*
X12004Y254496D01*
X12003Y254492D01*
X12003Y254487D01*
X12002Y254487D01*
X12003Y254487D01*
X12002Y254482D01*
X12000Y254468D01*
X12000Y254463D01*
X11999Y254458D01*
X11999Y254454D01*
X11998Y254449D01*
X11998Y254444D01*
X11996Y254430D01*
X11996Y254425D01*
X11995Y254420D01*
X11994Y254416D01*
X11994Y254411D01*
X11993Y254406D01*
X11992Y254392D01*
X11991Y254387D01*
X11991Y254382D01*
X11990Y254378D01*
X11990Y254373D01*
X11988Y254359D01*
X11988Y254354D01*
X11987Y254354D01*
X11988Y254354D01*
X11987Y254349D01*
X11986Y254344D01*
X11986Y254340D01*
X11985Y254335D01*
X11984Y254321D01*
X11983Y254316D01*
X11983Y254311D01*
X11982Y254306D01*
X11982Y254302D01*
X11981Y254297D01*
X11979Y254283D01*
X11979Y254278D01*
X11978Y254273D01*
X11978Y254268D01*
X11977Y254264D01*
X11977Y254259D01*
X11975Y254245D01*
X11975Y254240D01*
X11974Y254235D01*
X11974Y254230D01*
X11973Y254226D01*
X11971Y254207D01*
X11970Y254202D01*
X11970Y254197D01*
X11969Y254192D01*
X11969Y254188D01*
X11967Y254173D01*
X11967Y254169D01*
X11966Y254164D01*
X11966Y254159D01*
X11965Y254154D01*
X11965Y254150D01*
X11964Y254150D01*
X11965Y254150D01*
X11963Y254135D01*
X11962Y254131D01*
X11962Y254126D01*
X11961Y254121D01*
X11961Y254116D01*
X11960Y254112D01*
X11959Y254097D01*
X11958Y254093D01*
X11958Y254088D01*
X11957Y254083D01*
X11956Y254078D01*
X11956Y254074D01*
X11954Y254059D01*
X11954Y254055D01*
X11953Y254050D01*
X11953Y254045D01*
X11952Y254040D01*
X11950Y254021D01*
X11950Y254017D01*
X11949Y254017D01*
X11950Y254017D01*
X11949Y254012D01*
X11948Y254007D01*
X11948Y254002D01*
X11946Y253988D01*
X11946Y253983D01*
X11945Y253979D01*
X11945Y253974D01*
X11944Y253969D01*
X11944Y253964D01*
X11942Y253950D01*
X11941Y253945D01*
X11941Y253941D01*
X11940Y253936D01*
X11940Y253931D01*
X11939Y253926D01*
X11938Y253912D01*
X11937Y253907D01*
X11937Y253903D01*
X11936Y253898D01*
X11936Y253893D01*
X11935Y253888D01*
X11933Y253874D01*
X11933Y253869D01*
X11932Y253865D01*
X11932Y253860D01*
X11931Y253855D01*
X11930Y253841D01*
X11929Y253836D01*
X11929Y253831D01*
X11928Y253827D01*
X11928Y253822D01*
X11927Y253817D01*
X11925Y253803D01*
X11925Y253798D01*
X11924Y253793D01*
X11924Y253789D01*
X11923Y253784D01*
X11923Y253779D01*
X11921Y253765D01*
X11921Y253760D01*
X11920Y253755D01*
X11920Y253751D01*
X11919Y253746D01*
X11918Y253741D01*
X11917Y253727D01*
X11916Y253722D01*
X11916Y253717D01*
X11915Y253713D01*
X11915Y253708D01*
X11913Y253689D01*
X11912Y253684D01*
X11912Y253679D01*
X11911Y253679D01*
X11912Y253679D01*
X11911Y253675D01*
X11910Y253670D01*
X11909Y253656D01*
X11908Y253651D01*
X11908Y253646D01*
X11907Y253641D01*
X11907Y253637D01*
X11906Y253632D01*
X11905Y253618D01*
X11904Y253613D01*
X11903Y253608D01*
X11903Y253603D01*
X11902Y253599D01*
X11902Y253594D01*
X11900Y253580D01*
X11900Y253575D01*
X11899Y253570D01*
X11899Y253565D01*
X11898Y253561D01*
X11898Y253556D01*
X11896Y253542D01*
X11895Y253537D01*
X11895Y253532D01*
X11894Y253527D01*
X11894Y253523D01*
X11892Y253504D01*
X11891Y253499D01*
X11891Y253494D01*
X11890Y253489D01*
X11890Y253485D01*
X11888Y253470D01*
X11887Y253466D01*
X11887Y253461D01*
X11886Y253456D01*
X11886Y253451D01*
X11885Y253447D01*
X11884Y253432D01*
X11883Y253428D01*
X11883Y253425D01*
X11883Y253424D01*
X11883Y239424D01*
X11887Y239419D01*
X11887Y239420D01*
X11888Y239419D01*
X29388Y239419D01*
X29392Y239423D01*
G37*
G36*
X24388Y176420D02*
X24388Y176420D01*
X24388Y176419D01*
X25501Y176545D01*
X25502Y176545D01*
X26558Y176915D01*
X26559Y176915D01*
X27507Y177511D01*
X27508Y177512D01*
X28300Y178303D01*
X28300Y178304D01*
X28301Y178304D01*
X28896Y179252D01*
X28896Y179253D01*
X28897Y179253D01*
X29267Y180310D01*
X29266Y180311D01*
X29267Y180311D01*
X29267Y180314D01*
X29268Y180318D01*
X29268Y180323D01*
X29269Y180328D01*
X29270Y180342D01*
X29271Y180347D01*
X29271Y180352D01*
X29272Y180356D01*
X29273Y180361D01*
X29273Y180366D01*
X29275Y180380D01*
X29275Y180385D01*
X29276Y180390D01*
X29276Y180394D01*
X29277Y180399D01*
X29277Y180404D01*
X29279Y180418D01*
X29279Y180423D01*
X29280Y180423D01*
X29279Y180423D01*
X29280Y180428D01*
X29281Y180432D01*
X29281Y180437D01*
X29282Y180442D01*
X29283Y180456D01*
X29284Y180461D01*
X29284Y180466D01*
X29285Y180470D01*
X29285Y180475D01*
X29287Y180489D01*
X29288Y180494D01*
X29288Y180499D01*
X29289Y180504D01*
X29289Y180508D01*
X29290Y180513D01*
X29291Y180527D01*
X29292Y180532D01*
X29292Y180537D01*
X29293Y180542D01*
X29293Y180546D01*
X29294Y180551D01*
X29296Y180565D01*
X29296Y180570D01*
X29297Y180575D01*
X29297Y180580D01*
X29298Y180584D01*
X29298Y180589D01*
X29300Y180603D01*
X29300Y180608D01*
X29301Y180613D01*
X29301Y180618D01*
X29302Y180622D01*
X29304Y180641D01*
X29305Y180646D01*
X29305Y180651D01*
X29306Y180656D01*
X29306Y180660D01*
X29308Y180675D01*
X29308Y180679D01*
X29309Y180684D01*
X29309Y180689D01*
X29310Y180694D01*
X29311Y180698D01*
X29312Y180713D01*
X29313Y180717D01*
X29313Y180722D01*
X29314Y180727D01*
X29314Y180732D01*
X29315Y180736D01*
X29316Y180751D01*
X29317Y180755D01*
X29317Y180760D01*
X29318Y180760D01*
X29317Y180760D01*
X29318Y180765D01*
X29319Y180770D01*
X29319Y180774D01*
X29321Y180789D01*
X29321Y180793D01*
X29322Y180798D01*
X29322Y180803D01*
X29323Y180808D01*
X29325Y180827D01*
X29326Y180831D01*
X29326Y180836D01*
X29327Y180841D01*
X29327Y180846D01*
X29329Y180860D01*
X29329Y180865D01*
X29330Y180869D01*
X29330Y180874D01*
X29331Y180879D01*
X29331Y180884D01*
X29333Y180898D01*
X29334Y180903D01*
X29334Y180907D01*
X29335Y180912D01*
X29335Y180917D01*
X29336Y180922D01*
X29337Y180936D01*
X29338Y180941D01*
X29338Y180945D01*
X29339Y180950D01*
X29339Y180955D01*
X29340Y180960D01*
X29342Y180974D01*
X29342Y180979D01*
X29343Y180983D01*
X29343Y180988D01*
X29344Y180993D01*
X29345Y181007D01*
X29346Y181012D01*
X29346Y181017D01*
X29347Y181021D01*
X29347Y181026D01*
X29348Y181031D01*
X29350Y181045D01*
X29350Y181050D01*
X29351Y181055D01*
X29351Y181059D01*
X29352Y181064D01*
X29352Y181069D01*
X29354Y181083D01*
X29354Y181088D01*
X29355Y181093D01*
X29355Y181097D01*
X29356Y181097D01*
X29355Y181097D01*
X29356Y181102D01*
X29357Y181107D01*
X29358Y181121D01*
X29359Y181126D01*
X29359Y181131D01*
X29360Y181135D01*
X29360Y181140D01*
X29362Y181159D01*
X29363Y181164D01*
X29364Y181169D01*
X29364Y181173D01*
X29365Y181178D01*
X29366Y181192D01*
X29367Y181197D01*
X29367Y181202D01*
X29368Y181207D01*
X29368Y181211D01*
X29369Y181216D01*
X29370Y181230D01*
X29371Y181230D01*
X29370Y181230D01*
X29371Y181235D01*
X29372Y181240D01*
X29372Y181245D01*
X29373Y181249D01*
X29373Y181254D01*
X29375Y181268D01*
X29375Y181273D01*
X29376Y181278D01*
X29376Y181283D01*
X29377Y181287D01*
X29377Y181292D01*
X29379Y181306D01*
X29380Y181311D01*
X29380Y181316D01*
X29381Y181321D01*
X29381Y181325D01*
X29383Y181344D01*
X29384Y181349D01*
X29384Y181354D01*
X29385Y181359D01*
X29385Y181363D01*
X29387Y181378D01*
X29388Y181382D01*
X29388Y181387D01*
X29389Y181392D01*
X29389Y181397D01*
X29390Y181401D01*
X29391Y181416D01*
X29392Y181420D01*
X29392Y181423D01*
X29392Y181424D01*
X29392Y195424D01*
X29388Y195429D01*
X29388Y195428D01*
X29388Y195429D01*
X11888Y195429D01*
X11883Y195425D01*
X11883Y195424D01*
X11883Y181424D01*
X11883Y181423D01*
X12008Y180311D01*
X12009Y180310D01*
X12008Y180310D01*
X12378Y179253D01*
X12379Y179253D01*
X12379Y179252D01*
X12974Y178304D01*
X12975Y178304D01*
X12975Y178303D01*
X13767Y177512D01*
X13767Y177511D01*
X13768Y177511D01*
X14716Y176915D01*
X14717Y176915D01*
X15773Y176545D01*
X15774Y176545D01*
X16887Y176419D01*
X16887Y176420D01*
X16888Y176419D01*
X24388Y176419D01*
X24388Y176420D01*
G37*
D10*
X673773Y450479D03*
X673773Y445479D03*
X673773Y440479D03*
X673773Y435479D03*
X673773Y430479D03*
D11*
X680773Y428479D03*
X685773Y428479D03*
X690773Y428479D03*
D10*
X697773Y430479D03*
X697773Y435479D03*
X697773Y440479D03*
X697773Y445479D03*
X697773Y450479D03*
D11*
X690773Y452479D03*
X685773Y452479D03*
X680773Y452479D03*
D12*
X550264Y219680D03*
X564264Y219680D03*
D13*
X478604Y368895D03*
X487804Y368895D03*
X478720Y446448D03*
X487920Y446448D03*
X478539Y420487D03*
X487739Y420487D03*
X478852Y316056D03*
X488052Y316056D03*
X488720Y237240D03*
X479520Y237240D03*
X488703Y224178D03*
X479503Y224178D03*
D12*
X550236Y249337D03*
X564236Y249337D03*
D13*
X478747Y459306D03*
X487947Y459306D03*
X487796Y342206D03*
X478596Y342206D03*
D12*
X550069Y305515D03*
X564069Y305515D03*
D13*
X487942Y329193D03*
X478742Y329193D03*
D14*
X672331Y157265D03*
X700331Y157265D03*
D13*
X487849Y407641D03*
X478649Y407641D03*
X487712Y381783D03*
X478512Y381783D03*
D12*
X550185Y189782D03*
X564185Y189782D03*
D13*
X478657Y433672D03*
X487857Y433672D03*
D12*
X564056Y319697D03*
X550056Y319697D03*
D15*
X564140Y277949D03*
X550140Y277949D03*
X564140Y291949D03*
X550140Y291949D03*
D16*
X564310Y335364D03*
X549310Y335364D03*
D13*
X478536Y394570D03*
X487736Y394570D03*
D15*
X564244Y175273D03*
X550244Y175273D03*
X564140Y263849D03*
X550140Y263849D03*
D16*
X564110Y351864D03*
X549110Y351864D03*
D13*
X479170Y264327D03*
X488370Y264327D03*
D12*
X564213Y234909D03*
X550213Y234909D03*
D13*
X488071Y290563D03*
X478871Y290563D03*
X478868Y277413D03*
X488068Y277413D03*
D12*
X564390Y204477D03*
X550390Y204477D03*
D17*
X697831Y194265D03*
X697831Y203765D03*
X697831Y213265D03*
X672831Y213265D03*
X672831Y203765D03*
X672831Y194265D03*
D18*
X834447Y185148D03*
X827947Y185148D03*
X821447Y185148D03*
X821447Y166148D03*
X827947Y166148D03*
X834447Y166148D03*
D19*
X310665Y350724D03*
X310665Y355724D03*
X310665Y360724D03*
X310665Y365724D03*
X310665Y370724D03*
X310665Y375724D03*
X310665Y380724D03*
X310665Y385724D03*
X310665Y390724D03*
X310665Y395724D03*
X310665Y400724D03*
X310665Y405724D03*
X310665Y410724D03*
X310665Y415724D03*
X310665Y420724D03*
X310665Y425724D03*
D20*
X290785Y445604D03*
X285785Y445604D03*
X280785Y445604D03*
X275785Y445604D03*
X270785Y445604D03*
X265785Y445604D03*
X260785Y445604D03*
X255785Y445604D03*
X250785Y445604D03*
X245785Y445604D03*
X240785Y445604D03*
X235785Y445604D03*
X230785Y445604D03*
X225785Y445604D03*
X220785Y445604D03*
X215785Y445604D03*
D19*
X195905Y425724D03*
X195905Y420724D03*
X195905Y415724D03*
X195905Y410724D03*
X195905Y405724D03*
X195905Y400724D03*
X195905Y395724D03*
X195905Y390724D03*
X195905Y385724D03*
X195905Y380724D03*
X195905Y375724D03*
X195905Y370724D03*
X195905Y365724D03*
X195905Y360724D03*
X195905Y355724D03*
X195905Y350724D03*
D20*
X215785Y330844D03*
X220785Y330844D03*
X225785Y330844D03*
X230785Y330844D03*
X235785Y330844D03*
X240785Y330844D03*
X245785Y330844D03*
X250785Y330844D03*
X255785Y330844D03*
X260785Y330844D03*
X265785Y330844D03*
X270785Y330844D03*
X275785Y330844D03*
X280785Y330844D03*
X285785Y330844D03*
X290785Y330844D03*
D17*
X673531Y363065D03*
X673531Y353565D03*
X673531Y344065D03*
X698531Y344065D03*
X698531Y363065D03*
D21*
X673431Y262065D03*
X673431Y252565D03*
X673431Y243065D03*
X698431Y243065D03*
X698431Y262065D03*
D18*
X832761Y335148D03*
X826261Y335148D03*
X819761Y335148D03*
X819761Y316148D03*
X826261Y316148D03*
X832761Y316148D03*
X832761Y385248D03*
X826261Y385248D03*
X819761Y385248D03*
X819761Y366248D03*
X826261Y366248D03*
X832761Y366248D03*
X832761Y435348D03*
X826261Y435348D03*
X819761Y435348D03*
X819761Y416348D03*
X826261Y416348D03*
X832761Y416348D03*
D22*
X696465Y388622D03*
X696465Y395226D03*
X696465Y401830D03*
X675637Y401830D03*
X675637Y388622D03*
D18*
X832761Y285448D03*
X826261Y285448D03*
X819761Y285448D03*
X819761Y266448D03*
X826261Y266448D03*
X832761Y266448D03*
X834413Y235736D03*
X827913Y235736D03*
X821413Y235736D03*
X821413Y216736D03*
X827913Y216736D03*
X834413Y216736D03*
D23*
X901947Y401162D03*
X901947Y426562D03*
X876547Y426562D03*
X876547Y401162D03*
X901947Y375762D03*
X876547Y375762D03*
X901947Y350362D03*
X876547Y350362D03*
X901947Y324962D03*
X876547Y324962D03*
X901947Y299562D03*
X876547Y299562D03*
X901947Y274162D03*
X876547Y274162D03*
X901947Y248762D03*
X876547Y248762D03*
X901947Y223362D03*
X876547Y223362D03*
X901947Y197962D03*
X876547Y197962D03*
X901947Y172562D03*
X876547Y172562D03*
D24*
X408759Y292000D03*
X408759Y308000D03*
D25*
X673031Y314765D03*
X673031Y305265D03*
X673031Y295765D03*
X698031Y295765D03*
X698031Y314765D03*
D24*
X764257Y173185D03*
D26*
X764257Y182435D03*
X764257Y190435D03*
D24*
X764257Y199685D03*
X746257Y199685D03*
D26*
X746257Y190435D03*
X746257Y182435D03*
D24*
X746257Y173185D03*
X764420Y231692D03*
D26*
X764420Y240942D03*
X764420Y248942D03*
D24*
X764420Y258192D03*
X746420Y258192D03*
D26*
X746420Y248942D03*
X746420Y240942D03*
D24*
X746420Y231692D03*
X764211Y293094D03*
D26*
X764211Y302344D03*
X764211Y310344D03*
D24*
X764211Y319594D03*
X746211Y319594D03*
D26*
X746211Y310344D03*
X746211Y302344D03*
D24*
X746211Y293094D03*
X763684Y351073D03*
D26*
X763684Y360323D03*
X763684Y368323D03*
D24*
X763684Y377573D03*
X745684Y377573D03*
D26*
X745684Y368323D03*
X745684Y360323D03*
D24*
X745684Y351073D03*
X763211Y405553D03*
D26*
X763211Y414803D03*
X763211Y422803D03*
D24*
X763211Y432053D03*
X745211Y432053D03*
D26*
X745211Y422803D03*
X745211Y414803D03*
D24*
X745211Y405553D03*
D27*
X550783Y367403D03*
X561783Y367403D03*
X561737Y393211D03*
X550737Y393211D03*
X561712Y380337D03*
X550712Y380337D03*
X561685Y405971D03*
X550685Y405971D03*
D28*
X322971Y61592D03*
X364471Y61592D03*
X322971Y40092D03*
X364471Y40092D03*
X323061Y560489D03*
X364561Y560489D03*
X323061Y538989D03*
X364561Y538989D03*
D29*
X290554Y149923D03*
X290554Y156423D03*
X290554Y162923D03*
X290554Y169423D03*
X290554Y175923D03*
X290554Y182423D03*
X290554Y188923D03*
X290554Y195423D03*
X290554Y201923D03*
X290554Y208423D03*
X290554Y214923D03*
X290554Y221423D03*
X290554Y227923D03*
X290554Y234423D03*
X218207Y234423D03*
X218207Y227923D03*
X218207Y221423D03*
X218207Y214923D03*
X218207Y208423D03*
X218207Y201923D03*
X218207Y195423D03*
X218207Y188923D03*
X218207Y182423D03*
X218207Y175923D03*
X218207Y169423D03*
X218207Y162923D03*
X218207Y156423D03*
X218207Y149923D03*
D30*
X550981Y566232D03*
X506981Y566232D03*
X506981Y542232D03*
X550981Y542232D03*
D31*
X168071Y82516D03*
X145071Y82516D03*
X122071Y82516D03*
D32*
X145071Y19516D03*
D31*
X123697Y517996D03*
X146697Y517996D03*
X169697Y517996D03*
D32*
X146697Y580996D03*
D13*
X488839Y185358D03*
X479639Y185358D03*
X488649Y250740D03*
X479449Y250740D03*
X478906Y303205D03*
X488106Y303205D03*
X488903Y172295D03*
X479703Y172295D03*
X479703Y159319D03*
X488903Y159319D03*
X479766Y146588D03*
X488966Y146588D03*
X488903Y198207D03*
X479703Y198207D03*
X488712Y211120D03*
X479512Y211120D03*
X487760Y355671D03*
X478560Y355671D03*
D33*
X608690Y255748D03*
X608690Y247748D03*
X608690Y239748D03*
X608690Y231748D03*
X625690Y231748D03*
X625690Y239748D03*
X625690Y247748D03*
X625690Y255748D03*
X625690Y174748D03*
X625690Y182748D03*
X625690Y190748D03*
X625690Y198748D03*
X608690Y198748D03*
X608690Y190748D03*
X608690Y182748D03*
X608690Y174748D03*
X608690Y312748D03*
X608690Y304748D03*
X608690Y296748D03*
X608690Y288748D03*
X625690Y288748D03*
X625690Y296748D03*
X625690Y304748D03*
X625690Y312748D03*
X608690Y369748D03*
X608690Y361748D03*
X608690Y353748D03*
X608690Y345748D03*
X625690Y345748D03*
X625690Y353748D03*
X625690Y361748D03*
X625690Y369748D03*
X608690Y426748D03*
X608690Y418748D03*
X608690Y410748D03*
X608690Y402748D03*
X625690Y402748D03*
X625690Y410748D03*
X625690Y418748D03*
X625690Y426748D03*
D34*
X562353Y430146D02*
X559185Y430146D01*
X562353Y430146D02*
X562353Y426978D01*
X559185Y426978D01*
X559185Y430146D01*
X553463Y430146D02*
X550295Y430146D01*
X553463Y430146D02*
X553463Y426978D01*
X550295Y426978D01*
X550295Y430146D01*
X550168Y416564D02*
X553336Y416564D01*
X550168Y416564D02*
X550168Y419732D01*
X553336Y419732D01*
X553336Y416564D01*
X559058Y416564D02*
X562226Y416564D01*
X559058Y416564D02*
X559058Y419732D01*
X562226Y419732D01*
X562226Y416564D01*
D35*
X596964Y41275D03*
D36*
X622364Y41275D03*
X647764Y41275D03*
X673164Y41275D03*
X698564Y41275D03*
X723964Y41275D03*
X749364Y41275D03*
X774764Y41275D03*
X800164Y41275D03*
X825564Y41275D03*
X850964Y41275D03*
D35*
X850011Y560515D03*
D36*
X824611Y560515D03*
X799211Y560515D03*
X773811Y560515D03*
X748411Y560515D03*
X723011Y560515D03*
X697611Y560515D03*
X672211Y560515D03*
X646811Y560515D03*
X621411Y560515D03*
X596011Y560515D03*
D37*
X19825Y371924D03*
X19825Y382924D03*
X19825Y393924D03*
X19825Y404924D03*
X19825Y415924D03*
X19825Y426924D03*
X19825Y437924D03*
X19825Y448924D03*
D38*
X127825Y348174D03*
D39*
X112075Y460174D03*
D40*
X21075Y347424D03*
D41*
X21075Y460924D03*
D42*
X103575Y344174D03*
D43*
X97075Y463424D03*
D44*
X47638Y230424D03*
X47638Y223924D03*
X47638Y217424D03*
X47638Y210924D03*
X47638Y204424D03*
D45*
X47638Y242424D03*
X47638Y192424D03*
X20638Y252424D03*
D46*
X20638Y227424D03*
X20638Y207424D03*
D45*
X20638Y182424D03*
D47*
X540800Y238400D03*
X680000Y234400D03*
X541600Y370400D03*
X661600Y355200D03*
X660000Y234400D03*
X573600Y213600D03*
X650400Y213600D03*
X540800Y191200D03*
X709600Y191200D03*
X270400Y240000D03*
X231200Y240000D03*
X232000Y148800D03*
X249600Y153600D03*
X471200Y193600D03*
X499758Y197537D03*
X531200Y305600D03*
X498525Y303759D03*
X271200Y195200D03*
X695200Y287200D03*
X681600Y287200D03*
X655200Y399200D03*
X542400Y399200D03*
X711200Y388800D03*
X180000Y412800D03*
X34400Y412800D03*
X196800Y432800D03*
X378400Y576000D03*
X526719Y321258D03*
X495784Y399607D03*
X601601Y385690D03*
X597130Y360167D03*
X694400Y352800D03*
X471200Y160000D03*
X499696Y160000D03*
X471353Y296597D03*
X577220Y298819D03*
X376000Y560000D03*
X470400Y451200D03*
X318400Y454400D03*
X857600Y445600D03*
X870400Y458400D03*
X280800Y432800D03*
X268000Y432800D03*
X470400Y287200D03*
X499531Y290185D03*
X464800Y207200D03*
X499188Y210947D03*
X573600Y204000D03*
X686400Y226400D03*
X457600Y287200D03*
X254400Y228000D03*
X307200Y545600D03*
X855200Y363200D03*
X721600Y205600D03*
X617600Y205600D03*
X352800Y270400D03*
X577372Y270337D03*
X728000Y168800D03*
X603925Y165485D03*
X370540Y242642D03*
X392495Y242134D03*
X456800Y176800D03*
X501600Y389600D03*
X578400Y376800D03*
X611200Y220000D03*
X725600Y220000D03*
X616800Y376000D03*
X615200Y264800D03*
X602527Y270452D03*
X715200Y175200D03*
X736000Y175200D03*
X779200Y158400D03*
X914400Y204800D03*
X805600Y348000D03*
X789600Y253600D03*
X807200Y253600D03*
X856000Y277600D03*
X774400Y292800D03*
X818400Y354400D03*
X798400Y354400D03*
X798400Y312800D03*
X812000Y369600D03*
X653600Y260800D03*
X736000Y260800D03*
X331200Y200000D03*
X636000Y197600D03*
X650400Y247200D03*
X736000Y247200D03*
X352800Y293600D03*
X336800Y293600D03*
X364800Y233600D03*
X636000Y232000D03*
X726400Y240800D03*
X636000Y246400D03*
X364000Y276800D03*
X660800Y213600D03*
X753600Y213600D03*
X372800Y261880D03*
X641600Y254400D03*
X789600Y328800D03*
X684800Y328800D03*
X850400Y328800D03*
X499695Y224406D03*
X534400Y227200D03*
X426639Y227327D03*
X219200Y356800D03*
X280800Y356800D03*
X324800Y227200D03*
X636000Y184800D03*
X573600Y184800D03*
X776800Y302400D03*
X832800Y300000D03*
X774400Y319200D03*
X853600Y257600D03*
X820000Y247200D03*
X761600Y283200D03*
X840800Y257600D03*
X762400Y341600D03*
X847200Y341600D03*
X847200Y248000D03*
X755200Y335200D03*
X893600Y336000D03*
X828800Y196800D03*
X864000Y191200D03*
X770400Y387200D03*
X783200Y387200D03*
X800800Y268800D03*
X847200Y268800D03*
X834400Y204800D03*
X852800Y204800D03*
X714400Y304000D03*
X727200Y304000D03*
X812800Y164800D03*
X808800Y414400D03*
X868800Y414400D03*
X842400Y197600D03*
X640000Y271200D03*
X736800Y271200D03*
X406400Y276800D03*
X636000Y284000D03*
X704800Y284000D03*
X428000Y293600D03*
X653600Y277600D03*
X724800Y277600D03*
X288000Y347200D03*
X307200Y343200D03*
X344800Y257600D03*
X501245Y244621D03*
X523252Y289435D03*
X640800Y292800D03*
X653600Y300000D03*
X736000Y295200D03*
X385600Y328800D03*
X624000Y338400D03*
X743200Y338400D03*
X371200Y352000D03*
X660800Y371200D03*
X732000Y371200D03*
X392800Y335200D03*
X631200Y332000D03*
X642400Y361600D03*
X732000Y361600D03*
X379200Y364800D03*
X633600Y377600D03*
X735200Y352000D03*
X427200Y473600D03*
X648000Y413600D03*
X707200Y416000D03*
X360000Y428800D03*
X636000Y416800D03*
X732000Y432800D03*
X320000Y435200D03*
X294400Y358400D03*
X535200Y356000D03*
X281600Y317600D03*
X405600Y322400D03*
X520000Y531200D03*
X206400Y336800D03*
X174400Y336800D03*
X199200Y164000D03*
X275200Y164000D03*
X682400Y444000D03*
X640000Y446400D03*
X564000Y502400D03*
X36800Y442400D03*
X166400Y396800D03*
X45600Y396800D03*
X45600Y428000D03*
X234400Y182400D03*
X195200Y182400D03*
X160000Y383200D03*
X336000Y173600D03*
X664800Y440000D03*
X536000Y440000D03*
X499200Y476800D03*
X172800Y480000D03*
X176000Y422400D03*
X122400Y428000D03*
X161600Y358400D03*
X142400Y358400D03*
X540000Y57600D03*
X386400Y211200D03*
X192000Y214400D03*
X208800Y390400D03*
X153600Y390400D03*
X870400Y496000D03*
X445600Y496000D03*
X360000Y392800D03*
X216000Y403200D03*
X280800Y403200D03*
X292800Y428800D03*
X327200Y428800D03*
X384800Y508800D03*
X216000Y424800D03*
X128800Y436000D03*
X143200Y201600D03*
X204000Y201600D03*
X311200Y563200D03*
X206400Y435200D03*
X304800Y160000D03*
X317600Y160000D03*
X612000Y465600D03*
X179200Y460800D03*
X39200Y404000D03*
X160000Y404000D03*
X176800Y157600D03*
X84000Y338400D03*
X617600Y433600D03*
X717600Y439200D03*
X310400Y448800D03*
X721600Y426400D03*
X642400Y424000D03*
X293600Y460800D03*
X602400Y460800D03*
X439200Y285600D03*
X229600Y344000D03*
X496800Y345600D03*
X248000Y317600D03*
X498641Y316064D03*
X540800Y306400D03*
X261600Y386400D03*
X448800Y386400D03*
X449943Y316166D03*
X224000Y365600D03*
X128800Y365600D03*
X183200Y137600D03*
X689600Y150400D03*
X469600Y342400D03*
X442400Y342400D03*
X442400Y379200D03*
X228800Y379200D03*
X398400Y311200D03*
X379200Y311200D03*
X371200Y217600D03*
X353600Y217600D03*
X354400Y68000D03*
X276800Y183200D03*
X182400Y188800D03*
X179200Y470400D03*
X209600Y470400D03*
X364800Y569600D03*
X304800Y180000D03*
X328800Y180000D03*
X740800Y31200D03*
X536800Y380000D03*
X456000Y377600D03*
X536000Y544000D03*
X294400Y304800D03*
X437293Y322477D03*
X378400Y544000D03*
X294400Y314400D03*
X417600Y316000D03*
X436800Y422400D03*
X367200Y422400D03*
X586400Y579200D03*
X570400Y386400D03*
X463200Y384000D03*
X375200Y40800D03*
X525398Y405854D03*
X459200Y405600D03*
X435200Y300000D03*
X392000Y300000D03*
X272000Y315200D03*
X399200Y342400D03*
X272000Y221600D03*
X169600Y221600D03*
X136000Y442400D03*
X382400Y441600D03*
X672800Y483200D03*
X153600Y419200D03*
X195200Y255200D03*
X270400Y255200D03*
X500533Y185448D03*
X247200Y180000D03*
X692000Y409600D03*
X684800Y395200D03*
X208000Y316800D03*
X273600Y350400D03*
X297600Y416000D03*
X201600Y324000D03*
X21600Y324000D03*
X237600Y317600D03*
X266400Y344000D03*
X378400Y524800D03*
X250400Y144000D03*
X813600Y236000D03*
X883200Y236000D03*
X810400Y212800D03*
X915200Y229600D03*
X681600Y420000D03*
X668000Y420000D03*
X139200Y153600D03*
X121600Y153600D03*
X41600Y456000D03*
X34400Y338400D03*
X535200Y162400D03*
X524800Y264000D03*
X537600Y264000D03*
X541131Y251454D03*
X528395Y251200D03*
X675200Y324000D03*
X540800Y324800D03*
X225600Y489600D03*
X456800Y489600D03*
X416000Y369600D03*
X496800Y369600D03*
X528000Y345600D03*
X577245Y345600D03*
X573104Y162006D03*
X540800Y170400D03*
X377600Y31200D03*
D48*
X29147Y572326D03*
X28385Y29845D03*
X912813Y30671D03*
X914845Y571754D03*
M02*
