G04 EAGLE Gerber RS-274X export*
G75*
%MOMM*%
%FSLAX34Y34*%
%LPD*%
%INSoldermask Bottom*%
%IPPOS*%
%AMOC8*
5,1,8,0,0,1.08239X$1,22.5*%
G01*
%ADD10C,1.751600*%
%ADD11R,1.625600X1.625600*%
%ADD12C,1.625600*%
%ADD13C,1.371600*%
%ADD14C,0.858000*%
%ADD15C,3.101600*%


D10*
X901947Y401162D03*
X901947Y426562D03*
X876547Y426562D03*
X876547Y401162D03*
X901947Y375762D03*
X876547Y375762D03*
X901947Y350362D03*
X876547Y350362D03*
X901947Y324962D03*
X876547Y324962D03*
X901947Y299562D03*
X876547Y299562D03*
X901947Y274162D03*
X876547Y274162D03*
X901947Y248762D03*
X876547Y248762D03*
X901947Y223362D03*
X876547Y223362D03*
X901947Y197962D03*
X876547Y197962D03*
X901947Y172562D03*
X876547Y172562D03*
D11*
X596964Y41275D03*
D12*
X622364Y41275D03*
X647764Y41275D03*
X673164Y41275D03*
X698564Y41275D03*
X723964Y41275D03*
X749364Y41275D03*
X774764Y41275D03*
X800164Y41275D03*
X825564Y41275D03*
X850964Y41275D03*
D11*
X850011Y560515D03*
D12*
X824611Y560515D03*
X799211Y560515D03*
X773811Y560515D03*
X748411Y560515D03*
X723011Y560515D03*
X697611Y560515D03*
X672211Y560515D03*
X646811Y560515D03*
X621411Y560515D03*
X596011Y560515D03*
D13*
X47638Y242424D03*
X47638Y192424D03*
X20638Y252424D03*
X20638Y182424D03*
D14*
X540800Y238400D03*
X680000Y234400D03*
X541600Y370400D03*
X661600Y355200D03*
X660000Y234400D03*
X573600Y213600D03*
X650400Y213600D03*
X540800Y191200D03*
X709600Y191200D03*
X270400Y240000D03*
X231200Y240000D03*
X232000Y148800D03*
X249600Y153600D03*
X471200Y193600D03*
X499758Y197537D03*
X531200Y305600D03*
X498525Y303759D03*
X271200Y195200D03*
X695200Y287200D03*
X681600Y287200D03*
X655200Y399200D03*
X542400Y399200D03*
X711200Y388800D03*
X180000Y412800D03*
X34400Y412800D03*
X196800Y432800D03*
X378400Y576000D03*
X526719Y321258D03*
X495784Y399607D03*
X601601Y385690D03*
X597130Y360167D03*
X694400Y352800D03*
X471200Y160000D03*
X499696Y160000D03*
X471353Y296597D03*
X577220Y298819D03*
X376000Y560000D03*
X470400Y451200D03*
X318400Y454400D03*
X857600Y445600D03*
X870400Y458400D03*
X280800Y432800D03*
X268000Y432800D03*
X470400Y287200D03*
X499531Y290185D03*
X464800Y207200D03*
X499188Y210947D03*
X573600Y204000D03*
X686400Y226400D03*
X457600Y287200D03*
X254400Y228000D03*
X307200Y545600D03*
X855200Y363200D03*
X721600Y205600D03*
X617600Y205600D03*
X352800Y270400D03*
X577372Y270337D03*
X728000Y168800D03*
X603925Y165485D03*
X370540Y242642D03*
X392495Y242134D03*
X456800Y176800D03*
X501600Y389600D03*
X578400Y376800D03*
X611200Y220000D03*
X725600Y220000D03*
X616800Y376000D03*
X615200Y264800D03*
X602527Y270452D03*
X715200Y175200D03*
X736000Y175200D03*
X779200Y158400D03*
X914400Y204800D03*
X805600Y348000D03*
X789600Y253600D03*
X807200Y253600D03*
X856000Y277600D03*
X774400Y292800D03*
X818400Y354400D03*
X798400Y354400D03*
X798400Y312800D03*
X812000Y369600D03*
X653600Y260800D03*
X736000Y260800D03*
X331200Y200000D03*
X636000Y197600D03*
X650400Y247200D03*
X736000Y247200D03*
X352800Y293600D03*
X336800Y293600D03*
X364800Y233600D03*
X636000Y232000D03*
X726400Y240800D03*
X636000Y246400D03*
X364000Y276800D03*
X660800Y213600D03*
X753600Y213600D03*
X372800Y261880D03*
X641600Y254400D03*
X789600Y328800D03*
X684800Y328800D03*
X850400Y328800D03*
X499695Y224406D03*
X534400Y227200D03*
X426639Y227327D03*
X219200Y356800D03*
X280800Y356800D03*
X324800Y227200D03*
X636000Y184800D03*
X573600Y184800D03*
X776800Y302400D03*
X832800Y300000D03*
X774400Y319200D03*
X853600Y257600D03*
X820000Y247200D03*
X761600Y283200D03*
X840800Y257600D03*
X762400Y341600D03*
X847200Y341600D03*
X847200Y248000D03*
X755200Y335200D03*
X893600Y336000D03*
X828800Y196800D03*
X864000Y191200D03*
X770400Y387200D03*
X783200Y387200D03*
X800800Y268800D03*
X847200Y268800D03*
X834400Y204800D03*
X852800Y204800D03*
X714400Y304000D03*
X727200Y304000D03*
X812800Y164800D03*
X808800Y414400D03*
X868800Y414400D03*
X842400Y197600D03*
X640000Y271200D03*
X736800Y271200D03*
X406400Y276800D03*
X636000Y284000D03*
X704800Y284000D03*
X428000Y293600D03*
X653600Y277600D03*
X724800Y277600D03*
X288000Y347200D03*
X307200Y343200D03*
X344800Y257600D03*
X501245Y244621D03*
X523252Y289435D03*
X640800Y292800D03*
X653600Y300000D03*
X736000Y295200D03*
X385600Y328800D03*
X624000Y338400D03*
X743200Y338400D03*
X371200Y352000D03*
X660800Y371200D03*
X732000Y371200D03*
X392800Y335200D03*
X631200Y332000D03*
X642400Y361600D03*
X732000Y361600D03*
X379200Y364800D03*
X633600Y377600D03*
X735200Y352000D03*
X427200Y473600D03*
X648000Y413600D03*
X707200Y416000D03*
X360000Y428800D03*
X636000Y416800D03*
X732000Y432800D03*
X320000Y435200D03*
X294400Y358400D03*
X535200Y356000D03*
X281600Y317600D03*
X405600Y322400D03*
X520000Y531200D03*
X206400Y336800D03*
X174400Y336800D03*
X199200Y164000D03*
X275200Y164000D03*
X682400Y444000D03*
X640000Y446400D03*
X564000Y502400D03*
X36800Y442400D03*
X166400Y396800D03*
X45600Y396800D03*
X45600Y428000D03*
X234400Y182400D03*
X195200Y182400D03*
X160000Y383200D03*
X336000Y173600D03*
X664800Y440000D03*
X536000Y440000D03*
X499200Y476800D03*
X172800Y480000D03*
X176000Y422400D03*
X122400Y428000D03*
X161600Y358400D03*
X142400Y358400D03*
X540000Y57600D03*
X386400Y211200D03*
X192000Y214400D03*
X208800Y390400D03*
X153600Y390400D03*
X870400Y496000D03*
X445600Y496000D03*
X360000Y392800D03*
X216000Y403200D03*
X280800Y403200D03*
X292800Y428800D03*
X327200Y428800D03*
X384800Y508800D03*
X216000Y424800D03*
X128800Y436000D03*
X143200Y201600D03*
X204000Y201600D03*
X311200Y563200D03*
X206400Y435200D03*
X304800Y160000D03*
X317600Y160000D03*
X612000Y465600D03*
X179200Y460800D03*
X39200Y404000D03*
X160000Y404000D03*
X176800Y157600D03*
X84000Y338400D03*
X617600Y433600D03*
X717600Y439200D03*
X310400Y448800D03*
X721600Y426400D03*
X642400Y424000D03*
X293600Y460800D03*
X602400Y460800D03*
X439200Y285600D03*
X229600Y344000D03*
X496800Y345600D03*
X248000Y317600D03*
X498641Y316064D03*
X540800Y306400D03*
X261600Y386400D03*
X448800Y386400D03*
X449943Y316166D03*
X224000Y365600D03*
X128800Y365600D03*
X183200Y137600D03*
X689600Y150400D03*
X469600Y342400D03*
X442400Y342400D03*
X442400Y379200D03*
X228800Y379200D03*
X398400Y311200D03*
X379200Y311200D03*
X371200Y217600D03*
X353600Y217600D03*
X354400Y68000D03*
X276800Y183200D03*
X182400Y188800D03*
X179200Y470400D03*
X209600Y470400D03*
X364800Y569600D03*
X304800Y180000D03*
X328800Y180000D03*
X740800Y31200D03*
X536800Y380000D03*
X456000Y377600D03*
X536000Y544000D03*
X294400Y304800D03*
X437293Y322477D03*
X378400Y544000D03*
X294400Y314400D03*
X417600Y316000D03*
X436800Y422400D03*
X367200Y422400D03*
X586400Y579200D03*
X570400Y386400D03*
X463200Y384000D03*
X375200Y40800D03*
X525398Y405854D03*
X459200Y405600D03*
X435200Y300000D03*
X392000Y300000D03*
X272000Y315200D03*
X399200Y342400D03*
X272000Y221600D03*
X169600Y221600D03*
X136000Y442400D03*
X382400Y441600D03*
X672800Y483200D03*
X153600Y419200D03*
X195200Y255200D03*
X270400Y255200D03*
X500533Y185448D03*
X247200Y180000D03*
X692000Y409600D03*
X684800Y395200D03*
X208000Y316800D03*
X273600Y350400D03*
X297600Y416000D03*
X201600Y324000D03*
X21600Y324000D03*
X237600Y317600D03*
X266400Y344000D03*
X378400Y524800D03*
X250400Y144000D03*
X813600Y236000D03*
X883200Y236000D03*
X810400Y212800D03*
X915200Y229600D03*
X681600Y420000D03*
X668000Y420000D03*
X139200Y153600D03*
X121600Y153600D03*
X41600Y456000D03*
X34400Y338400D03*
X535200Y162400D03*
X524800Y264000D03*
X537600Y264000D03*
X541131Y251454D03*
X528395Y251200D03*
X675200Y324000D03*
X540800Y324800D03*
X225600Y489600D03*
X456800Y489600D03*
X416000Y369600D03*
X496800Y369600D03*
X528000Y345600D03*
X577245Y345600D03*
X573104Y162006D03*
X540800Y170400D03*
X377600Y31200D03*
D15*
X29147Y572326D03*
X28385Y29845D03*
X912813Y30671D03*
X914845Y571754D03*
M02*
