M48
;GenerationSoftware,Autodesk,EAGLE,9.4.2*%
;CreationDate,2020-01-27T13:46:30Z*%
FMAT,2
ICI,OFF
METRIC,TZ,000.000
T6C0.350
T5C0.500
T4C0.550
T3C1.016
T2C1.100
T1C2.000
%
G90
M71
T1
X91281Y3067
X91484Y57175
X2915Y57233
X2838Y2984
T2
X90195Y42656
X90195Y40116
X87655Y35036
X87655Y42656
X87655Y40116
X90195Y37576
X87655Y37576
X90195Y35036
X87655Y17256
X90195Y32496
X87655Y32496
X90195Y29956
X87655Y29956
X90195Y27416
X87655Y27416
X90195Y24876
X87655Y24876
X90195Y22336
X87655Y22336
X90195Y19796
X87655Y19796
X90195Y17256
T3
X59696Y4128
X62236Y4128
X64776Y4128
X67316Y4128
X69856Y4128
X72396Y4128
X74936Y4128
X77476Y4128
X80016Y4128
X82556Y4128
X85096Y4128
X85001Y56051
X82461Y56051
X79921Y56051
X77381Y56051
X74841Y56051
X72301Y56051
X69761Y56051
X67221Y56051
X64681Y56051
X62141Y56051
X59601Y56051
T4
X4764Y24242
X4764Y19242
T5
X2064Y18242
X2064Y25242
T6
X85520Y36320
X72160Y20560
X61760Y20560
X35280Y27040
X57737Y27034
X72800Y16880
X60392Y16548
X37054Y24264
X39250Y24213
X45680Y17680
X50160Y38960
X57840Y37680
X61120Y22000
X72560Y22000
X61680Y37600
X61520Y26480
X60253Y27045
X71520Y17520
X73600Y17520
X77920Y15840
X91440Y20480
X80560Y34800
X78960Y25360
X80720Y25360
X85600Y27760
X77440Y29280
X81840Y35440
X79840Y35440
X79840Y31280
X81200Y36960
X65360Y26080
X73600Y26080
X33120Y20000
X63600Y19760
X65040Y24720
X73600Y24720
X35280Y29360
X33680Y29360
X36480Y23360
X63600Y23200
X72640Y24080
X63600Y24640
X36400Y27680
X66080Y21360
X75360Y21360
X37280Y26188
X64160Y25440
X78960Y32880
X68480Y32880
X85040Y32880
X49969Y22441
X53440Y22720
X42664Y22733
X21920Y35680
X28080Y35680
X32480Y22720
X63600Y18480
X57360Y18480
X77680Y30240
X83280Y30000
X77440Y31920
X85360Y25760
X82000Y24720
X76160Y28320
X84080Y25760
X76240Y34160
X84720Y34160
X84720Y24800
X75520Y33520
X89360Y33600
X82880Y19680
X86400Y19120
X77040Y38720
X78320Y38720
X80080Y26880
X84720Y26880
X83440Y20480
X85280Y20480
X71440Y30400
X72720Y30400
X81280Y16480
X80880Y41440
X86880Y41440
X84240Y19760
X64000Y27120
X73680Y27120
X40640Y27680
X63600Y28400
X70480Y28400
X42800Y29360
X65360Y27760
X72480Y27760
X28800Y34720
X30720Y34320
X34480Y25760
X50124Y24462
X52325Y28943
X64080Y29280
X65360Y30000
X73600Y29520
X38560Y32880
X62400Y33840
X74320Y33840
X37120Y35200
X66080Y37120
X73200Y37120
X39280Y33520
X63120Y33200
X64240Y36160
X73200Y36160
X37920Y36480
X63360Y37760
X73520Y35200
X42720Y47360
X64800Y41360
X70720Y41600
X36000Y42880
X63600Y41680
X73200Y43280
X32000Y43520
X29440Y35840
X53520Y35600
X28160Y31760
X40560Y32240
X52000Y53120
X20640Y33680
X17440Y33680
X19920Y16400
X27520Y16400
X68240Y44400
X64000Y44640
X56400Y50240
X3680Y44240
X16640Y39680
X4560Y39680
X4560Y42800
X23440Y18240
X19520Y18240
X16000Y38320
X57360Y20400
X66480Y44000
X53600Y44000
X49920Y47680
X17280Y48000
X17600Y42240
X12240Y42800
X16160Y35840
X14240Y35840
X54000Y5760
X38640Y21120
X19200Y21440
X20880Y39040
X15360Y39040
X87040Y49600
X44560Y49600
X36000Y39280
X21600Y40320
X28080Y40320
X29280Y42880
X32720Y42880
X38480Y50880
X21600Y42480
X12880Y43600
X14320Y20160
X20400Y20160
X31120Y56320
X20640Y43520
X30480Y16000
X31760Y16000
X61200Y46560
X17920Y46080
X3920Y40400
X16000Y40400
X17680Y15760
X8400Y33840
X61760Y43360
X71760Y43920
X31040Y44880
X72160Y42640
X64240Y42400
X29360Y46080
X60240Y46080
X43920Y28560
X22960Y34400
X49680Y34560
X24800Y31760
X49864Y31606
X54080Y30640
X26160Y38640
X44880Y38640
X44994Y31617
X22400Y36560
X12880Y36560
X18320Y13760
X68960Y15040
X46960Y34240
X44240Y34240
X44240Y37920
X22880Y37920
X39840Y31120
X37920Y31120
X37120Y21760
X35360Y21760
X35440Y6800
X27680Y18320
X18240Y18880
X17920Y47040
X20960Y47040
X36480Y56960
X30480Y18000
X32880Y18000
X74080Y3120
X53680Y38000
X45600Y37760
X53600Y54400
X29440Y30480
X43729Y32248
X37840Y54400
X29440Y31440
X41760Y31600
X43680Y42240
X36720Y42240
X58640Y57920
X57040Y38640
X46320Y38400
X37520Y4080
X52540Y40585
X45920Y40560
X43520Y30000
X39200Y30000
X27200Y31520
X39920Y34240
X27200Y22160
X16960Y22160
X13600Y44240
X38240Y44160
X54080Y23840
X15360Y41920
X19520Y25520
X27040Y25520
X50053Y18545
X24720Y18000
X69200Y40960
X68480Y39520
X20800Y31680
X27360Y35040
X29760Y41600
X20160Y32400
X2160Y32400
X23760Y31760
X26640Y34400
X37840Y52480
X25040Y14400
X81360Y23600
X88320Y23600
X81040Y21280
X91520Y22960
X68160Y42000
X66800Y42000
X13920Y15360
X12160Y15360
X4160Y45600
X3440Y33840
X53520Y16240
X52480Y26400
X53760Y26400
X54113Y25145
X52839Y25120
X67520Y32400
X54080Y32480
X22560Y48960
X45680Y48960
X41600Y36960
X49680Y36960
X52800Y34560
X57724Y34560
X57310Y16201
X54080Y17040
X37760Y3120
X68000Y23440
X54160Y37040
X66160Y35520
X66000Y23440
X33600Y17360
X57360Y21360
X65040Y21360
X54080Y19120
X70960Y19120
X27040Y24000
X23120Y24000
X23200Y14880
X24960Y15360
X47120Y19360
X49976Y19754
X53120Y30560
X49852Y30376
X27120Y19520
X69520Y28720
X68160Y28720
X65520Y39920
X54240Y39920
X71120Y38880
X18000Y41280
X3440Y41280
X19680Y43280
X37840Y57600
X52672Y32126
X49578Y39961
X60160Y38569
X59713Y36017
X69440Y35280
X47120Y16000
X49970Y16000
X47135Y29660
X57722Y29882
X37600Y56000
X47040Y45120
X31840Y45440
X85760Y44560
X87040Y45840
X28080Y43280
X26800Y43280
X47040Y28720
X49953Y29018
X46480Y20720
X49919Y21095
X68640Y22640
X45760Y28720
X25440Y22800
X30720Y54560
X67280Y48320
M30